<svg xmlns="http://www.w3.org/2000/svg" width="750" height="550" viewBox="0 0 750 550"><path fill="none" stroke="#003CFF" stroke-width="2" stroke-linecap="round" stroke-linejoin="round" stroke-miterlimit="10" d="M632.9 64.5C656.6 19 707.6 6.9 722.6 6.4H457.8c-19.6 0-36.6 29.4-37.5 61.6-.1 2.2 1.2 3.3 3.5 3.3 30.103 0 161.103-.1 197.603-.1 6.197.1 9.197-2.2 11.497-6.7z"/><path fill="none" stroke="#003CFF" stroke-width="2" stroke-linecap="round" stroke-linejoin="round" stroke-miterlimit="10" d="M721.4 44.5c3.697-9.8 8.197-19 15-27.3 2-2.4 6.6-6.7 1.898-8.9-3.7-1.7-10.6-1.9-15.7-1.9M676.1 134.5H468.6c-22.5 0-43.1-29.1-43.1-63.1"/><path fill="none" stroke="#003CFF" stroke-width="2" stroke-linecap="round" stroke-linejoin="round" stroke-miterlimit="10" d="M693 13.4c23.5 7.7 32.3 35.2 32.3 58.3 0 34.5-22.1 62.5-49.3 62.5-27.2 0-49.3-29.2-49.3-63.7"/><path fill="none" stroke="#003CFF" stroke-width="1.5" stroke-linecap="round" stroke-linejoin="round" stroke-miterlimit="10" d="M538.3 178.8c7.5 0 13.603 6.1 13.603 13.6S545.8 206 538.3 206s-13.6-6.1-13.6-13.6c0-7.6 6.1-13.6 13.6-13.6zm-12.574 18.778S484.902 225.9 482.702 227.4s-4.8 3.5-4.8 9.1c0 5.5 3.15 6.575 5.35 5.075.7-.5 51.354-36.09 51.354-36.09m4.23-26.673l11.5-40.312m13.035 0L549.7 185"/><path fill="none" stroke="#003CFF" stroke-width="1.5" stroke-linecap="round" stroke-linejoin="round" stroke-miterlimit="10" d="M489.498 237.182c-.497 12.07-4.21 22.3-9.012 23.63-5.245 1.478-9.604-9.16-9.825-23.638-.22-14.553 3.843-27.48 9.014-28.884 4.062-1.108 7.682 5.097 9.158 14.774M662.8 43.3c12.603-9.5 28.603-4.3 36 11.5 7.3 15.9 3.103 36.4-9.5 45.9-12.6 9.5-28.6 4.3-36-11.5-7.3-15.9-3-36.4 9.5-45.9zm-.1 14.8c5.897-4.5 13.5-2 16.897 5.5 3.5 7.5 1.5 17.2-4.396 21.6-5.9 4.4-13.5 2-16.9-5.5-3.5-7.5-1.5-17.1 4.4-21.6zm2.8 10.3c1.5-1.2 3.5-.5 4.4 1.4.898 1.9.398 4.5-1.2 5.7-1.5 1.2-3.5.5-4.4-1.4-.9-2-.4-4.6 1.2-5.7zm9.8-1.1c2.103 4.6.9 10.6-2.7 13.3"/><path fill="none" stroke="#003CFF" stroke-linecap="round" stroke-linejoin="round" stroke-miterlimit="10" d="M454.7 130.8h205.7"/><path opacity=".8" fill="none" stroke="#003CFF" stroke-linecap="round" stroke-linejoin="round" stroke-miterlimit="10" d="M448.9 126.8h202.9"/><path opacity=".6" fill="none" stroke="#003CFF" stroke-linecap="round" stroke-linejoin="round" stroke-miterlimit="10" d="M442.5 120.8h202.6"/><path opacity=".4" fill="none" stroke="#003CFF" stroke-linecap="round" stroke-linejoin="round" stroke-miterlimit="10" d="M436.1 111.8h202.6"/><path fill="none" stroke="#003CFF" stroke-linecap="round" stroke-linejoin="round" stroke-miterlimit="10" d="M702.4 10.8h38"/><path opacity=".8" fill="none" stroke="#003CFF" stroke-linecap="round" stroke-linejoin="round" stroke-miterlimit="10" d="M697.5 14.8h41"/><path opacity=".6" fill="none" stroke="#003CFF" stroke-linecap="round" stroke-linejoin="round" stroke-miterlimit="10" d="M705 19.8h29.1"/><path opacity=".4" fill="none" stroke="#003CFF" stroke-linecap="round" stroke-linejoin="round" stroke-miterlimit="10" d="M711.1 25.8h19.2"/><path fill="none" stroke="#003CFF" stroke-width="1.5" stroke-linecap="round" stroke-linejoin="round" stroke-miterlimit="10" d="M568.667 134.5c0 2.737-1.48 4-4 4H549.5c-2.75 0-4-1.575-4-4"/><path class="dashed-line" fill="none" stroke="#003CFF" stroke-linecap="round" stroke-linejoin="round" stroke-dasharray="2.9814,2.9814" d="M467.83 242.928c-1.97 1.32-118.376 81.107-130.04 88.99-10.666 7.207-16.79 18.707-16.79 32.957v135.98"/></svg>