<svg xmlns="http://www.w3.org/2000/svg" width="350" height="350" viewBox="0 0 350 350"><path opacity=".4" fill="none" stroke="#B194FF" stroke-linecap="round" stroke-linejoin="round" stroke-miterlimit="10" d="M165.3 69.2L194 133M194 133l48.4-29.4M87.6 225l59.6-41.7-65.1-17.9 60.6-38M17.7 137.8l39.8-11.4 34-72.5M194.1 296.6l77.3-40.8M284.2 115.2l.6 52M88.3 107.4l77-38.2"/><path opacity=".3" fill="none" stroke="#B194FF" stroke-linecap="round" stroke-linejoin="round" stroke-miterlimit="10" d="M257.4 172L194 133l7.8 75.7-51.5 45-3.1-70.4-4.5-55.9-54.4-20-6.2 58 5.5 59.6 62.7 28.7 80.2-1.8-28.7-43.2 69.6 47-14-83.7-15-68.4L215 55.1 194 133"/><path opacity=".3" fill="none" stroke="#B194FF" stroke-linecap="round" stroke-linejoin="round" stroke-miterlimit="10" d="M111.6 13.6l53.6 55.6L215 55.1l69.2 60.1-41.9-11.6 42.4 63.6-27.4 4.7 32.7 45.5-18.7 38.4-40.8-3.9-36.5 44.7-57.9 19.3 14.2-62.2-66.8 10.7 4-39.3L49 199l33-33.5-24.5-39 30.8-19L91.6 54l73.7 15.3-22.6 58.2L194 133l-46.8 50.4 54.6 25.4 55.6-36.7"/><path opacity=".4" fill="none" stroke="#DDDCFF" stroke-linecap="round" stroke-linejoin="round" stroke-miterlimit="10" d="M215 55l38.5-26.3 30.8 86.5 56 10.8-50.3 91.4 16.8 26.2-35.4 12.2-.4 49.8-76.9-9-29.7 49.7-28.3-30.4-53.8.7 1.3-52.2-76.3-59.7 41.8-5.8 8.4-72.5-16-55.1 50.1-17.4 20.1-40.3L215 55z"/><path opacity=".5" fill="none" stroke="#DEDCFF" stroke-width="1.2" stroke-linecap="round" stroke-linejoin="round" stroke-miterlimit="10" d="M170.7 16.9l82.8 11.8 48.3 58.6 38.5 38.6-55.6 42.1 52.8 32.1-30.8 43.4-35.8 62-61.5 17.5-45 23.2-34.4-58.3-47.7 28.6-29.2-49.9-45.9-62 11.1-65.8 23-66.8 58.3 6.4 12-64.9 59.1 3.4z"/><path opacity=".6" fill="none" stroke="#DEDCFF" stroke-linecap="round" stroke-linejoin="round" stroke-miterlimit="10" d="M82.3 316.6l82.1 29.7M40.8 71.3l70.8-57.7M340.3 125.9l-2.7 74.2"/><path opacity=".8" fill="none" stroke="#C7B0FF" stroke-width="1.2" stroke-linecap="round" stroke-linejoin="round" stroke-miterlimit="10" d="M203.4 101.3l98.3-13.9-17 80.6 22 75.6-84.3-7.7-13 87.1-79.5-35.1-76.7-21.2 38.6-76.4-73.4-51.4 81.2-60.4L170.7 17l32.7 84.3z"/><path fill="none" stroke="#C3BBFF" stroke-width="1.2" stroke-linecap="round" stroke-linejoin="round" stroke-miterlimit="10" d="M203.4 101.3l81.3 65.9-62.3 68.7-93.1 52.3-37-97.3 7.3-112.4 103.8 22.8"/><path fill="none" stroke="#D2CAFF" stroke-width="1.5" stroke-linecap="round" stroke-linejoin="round" stroke-miterlimit="10" d="M89.7 191.8l113.7-90.5 19 134.6-132.7-44.1"/><path opacity=".7" fill="none" stroke="#DBD9FF" stroke-width="1.2" stroke-linecap="round" stroke-linejoin="round" stroke-miterlimit="10" d="M170.7 16.9l131.1 70.4M18.4 138.9l34.8 127.8M209.4 323l97.4-79.4"/><path fill="#8452FF" d="M258.2 170.7c.8.4 1 1.4.6 2.2-.4.8-1.4 1-2.2.6-.8-.4-1-1.4-.6-2.2.4-.8 1.4-1.1 2.2-.6zM243.3 102.5c.8.4 1 1.4.6 2.2-.4.8-1.4 1-2.2.6-.8-.4-1-1.4-.6-2.2.5-.8 1.5-1.1 2.2-.6zM166 67.8c.8.4 1 1.4.6 2.2s-1.4 1-2.2.6c-.8-.4-1-1.4-.6-2.2.5-.8 1.5-1 2.2-.6zM89.3 106.3c.8.4 1 1.4.6 2.2s-1.4 1-2.2.6c-.8-.4-1-1.4-.6-2.2.5-.8 1.4-1.1 2.2-.6zM83 164c.8.4 1 1.4.6 2.2-.4.8-1.4 1-2.2.6-.8-.4-1-1.4-.6-2.2.5-.8 1.5-1 2.2-.6zM88.6 223.8c.8.4 1 1.4.6 2.2-.4.8-1.4 1-2.2.6-.8-.4-1-1.4-.6-2.2.4-.8 1.4-1.1 2.2-.6zM151.1 252.2c.8.4 1 1.4.6 2.2-.4.8-1.4 1-2.2.6s-1-1.4-.6-2.2c.5-.8 1.5-1 2.2-.6zM231.3 250.5c.8.4 1 1.4.6 2.2-.4.8-1.4 1-2.2.6-.8-.4-1-1.4-.6-2.2.5-.8 1.4-1.1 2.2-.6zM194.7 132.2c.5.3.7 1 .4 1.5-.3.5-1 .7-1.5.4-.5-.3-.7-1-.4-1.5s1-.7 1.5-.4zM143.2 126.4c.5.3.7 1 .4 1.5-.3.5-1 .7-1.5.4-.5-.3-.7-1-.4-1.5.3-.5 1-.7 1.5-.4zM147.7 182.4c.5.3.7 1 .4 1.5-.3.5-1 .7-1.5.4s-.7-1-.4-1.5c.3-.6 1-.8 1.5-.4zM202.4 207.8c.5.3.7 1 .4 1.5s-1 .7-1.5.4-.7-1-.4-1.5c.2-.6.9-.7 1.5-.4z"/><path fill="#D4D8FF" d="M303.1 84.6c1.6.9 2.1 2.9 1.2 4.5-.9 1.6-2.9 2.1-4.5 1.2-1.6-.9-2.1-2.9-1.2-4.5.9-1.6 2.9-2.1 4.5-1.2zM55.1 263.5c1.7 1 2.3 3.2 1.3 5-1 1.7-3.2 2.3-5 1.3-1.7-1-2.3-3.2-1.3-5 1.1-1.7 3.3-2.3 5-1.3z"/><path fill="#B6AEFF" d="M308.2 240.4c1.8 1 2.3 3.3 1.3 5-1 1.8-3.3 2.3-5 1.3-1.8-1-2.3-3.3-1.3-5s3.3-2.3 5-1.3zM20.2 135.5c1.8 1.1 2.4 3.4 1.4 5.2-1.1 1.8-3.4 2.4-5.2 1.4-1.8-1.1-2.4-3.4-1.4-5.2 1.1-1.8 3.4-2.4 5.2-1.4zM172.4 13.7c1.8 1 2.4 3.3 1.3 5.1-1.1 1.8-3.3 2.4-5.1 1.3-1.8-1-2.4-3.3-1.3-5.1 1.1-1.7 3.4-2.3 5.1-1.3zM341.3 123.1c1.5.9 2 2.8 1.1 4.3-.9 1.5-2.8 2-4.3 1.1s-2-2.8-1.1-4.3c.9-1.4 2.8-1.9 4.3-1.1zM338.8 197.2c1.6.9 2.1 2.9 1.2 4.5-.9 1.6-2.9 2.1-4.5 1.2-1.6-.9-2.1-2.9-1.2-4.5.9-1.6 2.9-2.1 4.5-1.2zM271.9 303c1.3.7 1.7 2.4 1 3.6-.7 1.3-2.4 1.7-3.6 1-1.2-.7-1.7-2.4-1-3.6.7-1.4 2.3-1.8 3.6-1zM165.8 343.9c1.1.6 1.5 2.1.8 3.2-.6 1.1-2.1 1.5-3.2.8-1.1-.6-1.5-2.1-.8-3.2s2.1-1.4 3.2-.8zM84.1 313.7c1.4.8 1.9 2.6 1.1 4.1-.8 1.4-2.6 1.9-4.1 1.1-1.4-.8-1.9-2.6-1.1-4.1.9-1.4 2.7-1.9 4.1-1.1zM8.8 202.1c1.5.9 2 2.7 1.1 4.2s-2.7 2-4.2 1.1c-1.5-.9-1.9-2.7-1.1-4.2.9-1.5 2.7-2 4.2-1.1zM43 68.8c1.4.8 1.9 2.7 1.1 4.1-.8 1.4-2.7 1.9-4.1 1.1s-1.9-2.7-1.1-4.1c.8-1.5 2.7-1.9 4.1-1.1zM113.1 11c1.4.8 1.9 2.7 1.1 4.1-.8 1.4-2.7 1.9-4.1 1.1-1.4-.8-1.9-2.7-1.1-4.1.9-1.5 2.7-1.9 4.1-1.1zM255 26.2c1.4.8 1.9 2.7 1.1 4.1-.8 1.4-2.7 1.9-4.1 1.1-1.4-.8-1.9-2.7-1.1-4.1.8-1.5 2.7-2 4.1-1.1zM211.4 318.9c2.1 1.2 2.8 3.9 1.6 6-1.2 2.1-3.9 2.8-6 1.6s-2.8-3.9-1.6-6c1.2-2.1 3.9-2.8 6-1.6z"/><path fill="#8971FF" d="M216.3 52.8c1.2.7 1.6 2.3.9 3.5-.7 1.2-2.3 1.6-3.5.9-1.2-.7-1.6-2.3-.9-3.5.7-1.2 2.3-1.6 3.5-.9zM285.5 113c1.2.7 1.6 2.3.9 3.5-.7 1.2-2.3 1.6-3.5.9-1.2-.7-1.6-2.3-.9-3.5.7-1.2 2.3-1.6 3.5-.9zM93 51.9c1.2.7 1.6 2.3.9 3.5-.7 1.2-2.3 1.6-3.5.9-1.2-.7-1.6-2.3-.9-3.5.8-1.2 2.3-1.6 3.5-.9zM59 124.1c1.2.7 1.6 2.3.9 3.5-.7 1.2-2.3 1.6-3.5.9-1.2-.7-1.6-2.3-.9-3.5s2.3-1.6 3.5-.9zM50.6 196.7c1.2.7 1.6 2.3.9 3.5s-2.3 1.6-3.5.9c-1.2-.7-1.6-2.3-.9-3.5.7-1.2 2.2-1.6 3.5-.9zM85.1 262.1c1.2.7 1.6 2.3.9 3.5-.7 1.2-2.3 1.6-3.5.9s-1.6-2.3-.9-3.5c.7-1.2 2.3-1.6 3.5-.9zM137.4 313.7c1.2.7 1.6 2.3.9 3.5-.7 1.2-2.3 1.6-3.5.9-1.2-.7-1.6-2.3-.9-3.5.7-1.2 2.3-1.7 3.5-.9zM195.6 294.3c1.2.7 1.6 2.3.9 3.5s-2.3 1.6-3.5.9-1.6-2.3-.9-3.5c.7-1.2 2.3-1.6 3.5-.9zM272.6 253.6c1.2.7 1.6 2.3.9 3.5-.7 1.2-2.3 1.6-3.5.9s-1.6-2.3-.9-3.5c.7-1.2 2.3-1.6 3.5-.9zM291.3 215.2c1.2.7 1.6 2.3.9 3.5s-2.3 1.6-3.5.9c-1.2-.7-1.6-2.3-.9-3.5.7-1.2 2.3-1.6 3.5-.9z"/><path fill="#FFF" d="M94.8 185.3c2.9 1.7 3.8 5.4 2.2 8.2-1.7 2.9-5.4 3.8-8.2 2.2-2.9-1.7-3.8-5.4-2.2-8.2 1.6-2.9 5.3-3.9 8.2-2.2zM206.1 96.3c2.8 1.6 3.7 5.1 2.1 7.9-1.6 2.8-5.1 3.7-7.9 2.1-2.8-1.6-3.7-5.1-2.1-7.9 1.6-2.8 5.2-3.7 7.9-2.1zM225.1 231.4c2.5 1.4 3.3 4.6 1.9 7.1s-4.6 3.3-7.1 1.9-3.3-4.6-1.9-7.1 4.6-3.3 7.1-1.9zM286.9 164c2 1.2 2.7 3.8 1.5 5.9-1.2 2-3.8 2.7-5.9 1.5-2-1.2-2.7-3.8-1.5-5.9 1.2-2 3.8-2.7 5.9-1.5zM132.1 283.9c2 1.2 2.7 3.7 1.5 5.7-1.2 2-3.7 2.7-5.7 1.5s-2.7-3.7-1.5-5.7c1.1-2 3.7-2.7 5.7-1.5zM101.6 75c1.9 1.1 2.6 3.6 1.4 5.5-1.1 1.9-3.6 2.6-5.5 1.4-1.9-1.1-2.6-3.6-1.4-5.5 1.1-1.8 3.6-2.5 5.5-1.4z"/><g><path opacity=".4" fill="none" stroke="#B194FF" stroke-linecap="round" stroke-linejoin="round" stroke-miterlimit="10" d="M151.1 69.2l26.9 59.2M178 128.4l81.2-2.8M97.1 225l62.7-34.5L78.9 172l69.4-35.1M17.6 126.3l42.4 8.1 26.1-76.5M187.1 285.2l84.3-29.4M276.2 118.3l8.6 48.9M124.2 118l26.9-48.8"/><path opacity=".3" fill="none" stroke="#B194FF" stroke-linecap="round" stroke-linejoin="round" stroke-miterlimit="10" d="M246.2 173.6L178 128.4l12.3 63.2-41.8 55.8 11.4-56.9-11.6-53.6-24.1-18.9-45.3 54 18.2 53 51.4 22.3 71.5 3.1-29.7-59 81.1 64.2-25.2-82 13-48.1-42.6-64.8-38.6 67.7"/><path opacity=".3" fill="none" stroke="#B194FF" stroke-linecap="round" stroke-linejoin="round" stroke-miterlimit="10" d="M117.2 19.6L151 69.2l65.6-8.5 59.5 57.6-17 7.3 25.5 41.6-38.6 6.3 34.3 35.2-9.2 47.1-51.4-5.2-32.7 34.6-57 30.3 18.5-68.1-60.1 11.1 8.7-33.3L53 189.6l25.9-17.4L60 134.5l64.2-16.4-38-60.1 64.9 11.3-2.8 67.7 29.7-8.6-18.2 62.2 30.5 1.1 55.9-17.9"/><path opacity=".4" fill="none" stroke="#DDDCFF" stroke-linecap="round" stroke-linejoin="round" stroke-miterlimit="10" d="M216.6 60.6l36.9-31.9 22.8 89.6 49.8 10.8-45.6 79.6 32 38.5-41.1 8.6-2.3 60.4-82-31-37 51.8-20.1-21.5-34.6-2.3-7-54.8-81.1-53.7L53 189.4l7-55L44.5 55l41.8 2.9 31.1-38.3 99.2 41z"/><path opacity=".5" fill="none" stroke="#DEDCFF" stroke-width="1.2" stroke-linecap="round" stroke-linejoin="round" stroke-miterlimit="10" d="M170 11.8l83.5 17 40.6 60L326 129l-41.3 39 34.7 25.8-7 53.3-43.4 69-59.6 6.9-59.3 13.9-26.8-53.2-27.8 29.4L39 270.5 7.2 204.6l10.4-78.3 26.6-70.6 69 25.2 4-61.4 52.8-7.7z"/><path opacity=".6" fill="none" stroke="#DEDCFF" stroke-linecap="round" stroke-linejoin="round" stroke-miterlimit="10" d="M95.4 313.2L150 337M43.8 55l73.5-35.4M326 129l-6.6 64.8"/><path opacity=".8" fill="none" stroke="#C7B0FF" stroke-width="1.2" stroke-linecap="round" stroke-linejoin="round" stroke-miterlimit="10" d="M222.6 118.3L294 88.9l-9.3 79.1 27.7 79.2-111.7-11.3 8.7 87.1-86.2-39.3-84.1-13.1 67.9-93-89.2-51.1L113.2 81 170 11.9l52.6 106.4z"/><path fill="none" stroke="#C3BBFF" stroke-width="1.2" stroke-linecap="round" stroke-linejoin="round" stroke-miterlimit="10" d="M222.6 118.3l62.1 48.9-84 68.7-78.1 48.1L107 177.5l6.2-96.5 109.4 37.3"/><path fill="none" stroke="#D2CAFF" stroke-width="1.5" stroke-linecap="round" stroke-linejoin="round" stroke-miterlimit="10" d="M107 177.5l115.6-59.2-21.9 117.6-94.2-59"/><path opacity=".7" fill="none" stroke="#DBD9FF" stroke-width="1.2" stroke-linecap="round" stroke-linejoin="round" stroke-miterlimit="10" d="M170 11.8l124.2 77M17.8 126.4l21.3 144.2M209.4 323l103.1-75.8"/><path fill="#8452FF" d="M247 172.3c.8.4 1 1.4.6 2.2-.4.8-1.4 1-2.2.6-.8-.4-1-1.4-.6-2.2.4-.8 1.4-1.1 2.2-.6zM260.2 124.5c.8.4 1 1.4.6 2.2-.4.8-1.4 1-2.2.6-.8-.4-1-1.4-.6-2.2.5-.8 1.5-1.1 2.2-.6zM151.8 67.8c.8.4 1 1.4.6 2.2s-1.4 1-2.2.6c-.8-.4-1-1.4-.6-2.2.5-.8 1.5-1 2.2-.6zM125.2 116.9c.8.4 1 1.4.6 2.2s-1.4 1-2.2.6c-.8-.4-1-1.4-.6-2.2.5-.8 1.4-1.1 2.2-.6zM79.8 170.6c.8.4 1 1.4.6 2.2-.4.8-1.4 1-2.2.6-.8-.4-1-1.4-.6-2.2.5-.8 1.5-1 2.2-.6zM98.1 223.8c.8.4 1 1.4.6 2.2-.4.8-1.4 1-2.2.6-.8-.4-1-1.4-.6-2.2.4-.8 1.4-1.1 2.2-.6zM149.5 245.8c.8.4 1 1.4.6 2.2-.4.8-1.4 1-2.2.6s-1-1.4-.6-2.2c.5-.8 1.5-1 2.2-.6zM221 249.5c.8.4 1 1.4.6 2.2-.4.8-1.4 1-2.2.6-.8-.4-1-1.4-.6-2.2.5-.8 1.4-1.1 2.2-.6zM178.7 127.6c.5.3.7 1 .4 1.5-.3.5-1 .7-1.5.4-.5-.3-.7-1-.4-1.5s1-.7 1.5-.4zM148.8 135.9c.5.3.7 1 .4 1.5-.3.5-1 .7-1.5.4-.5-.3-.7-1-.4-1.5.3-.5 1-.7 1.5-.4zM160.4 189.6c.5.3.7 1 .4 1.5-.3.5-1 .7-1.5.4s-.7-1-.4-1.5c.2-.6 1-.8 1.5-.4zM190.9 190.7c.5.3.7 1 .4 1.5s-1 .7-1.5.4-.7-1-.4-1.5c.2-.6.9-.7 1.5-.4z"/><path fill="#D4D8FF" d="M295.4 86.1c1.6.9 2.1 2.9 1.2 4.5-.9 1.6-2.9 2.1-4.5 1.2-1.6-.9-2.1-2.9-1.2-4.5.9-1.6 2.9-2.1 4.5-1.2zM41 267.4c1.7 1 2.3 3.2 1.3 5-1 1.7-3.2 2.3-5 1.3-1.7-1-2.3-3.2-1.3-5 1.1-1.7 3.3-2.3 5-1.3z"/><path fill="#B6AEFF" d="M313.9 244c1.8 1 2.3 3.3 1.3 5-1 1.8-3.3 2.3-5 1.3-1.8-1-2.3-3.3-1.3-5s3.3-2.3 5-1.3zM19.6 123c1.8 1.1 2.4 3.4 1.4 5.2-1.1 1.8-3.4 2.4-5.2 1.4-1.8-1.1-2.4-3.4-1.4-5.2 1.1-1.8 3.4-2.4 5.2-1.4zM171.6 8.6c1.8 1 2.4 3.3 1.3 5.1-1.1 1.8-3.3 2.4-5.1 1.3-1.8-1-2.4-3.3-1.3-5.1 1.1-1.8 3.5-2.3 5.1-1.3zM327 126.2c1.5.9 2 2.8 1.1 4.3-.9 1.5-2.8 2-4.3 1.1s-2-2.8-1.1-4.3c.9-1.4 2.8-1.9 4.3-1.1zM320.7 190.9c1.6.9 2.1 2.9 1.2 4.5-.9 1.6-2.9 2.1-4.5 1.2-1.6-.9-2.1-2.9-1.2-4.5.9-1.6 2.9-2.1 4.5-1.2zM270 313.6c1.3.7 1.7 2.4 1 3.6-.7 1.3-2.4 1.7-3.6 1-1.2-.7-1.7-2.4-1-3.6.7-1.4 2.3-1.8 3.6-1zM151.5 334.6c1.1.6 1.5 2.1.8 3.2-.6 1.1-2.1 1.5-3.2.8-1.1-.6-1.5-2.1-.8-3.2s2.1-1.4 3.2-.8zM97.2 310.3c1.4.8 1.9 2.6 1.1 4.1-.8 1.4-2.6 1.9-4.1 1.1-1.4-.8-1.9-2.6-1.1-4.1.9-1.4 2.8-1.9 4.1-1.1zM8.8 202.1c1.5.9 2 2.7 1.1 4.2s-2.7 2-4.2 1.1c-1.5-.9-1.9-2.7-1.1-4.2.9-1.5 2.7-2 4.2-1.1zM46 52.5c1.4.8 1.9 2.7 1.1 4.1-.8 1.4-2.7 1.9-4.1 1.1s-1.9-2.7-1.1-4.1c.8-1.5 2.7-1.9 4.1-1.1zM118.7 17c1.4.8 1.9 2.7 1.1 4.1-.8 1.4-2.7 1.9-4.1 1.1-1.4-.8-1.9-2.7-1.1-4.1.9-1.5 2.7-1.9 4.1-1.1zM255 26.2c1.4.8 1.9 2.7 1.1 4.1-.8 1.4-2.7 1.9-4.1 1.1-1.4-.8-1.9-2.7-1.1-4.1.8-1.5 2.7-2 4.1-1.1zM211.4 318.9c2.1 1.2 2.8 3.9 1.6 6-1.2 2.1-3.9 2.8-6 1.6s-2.8-3.9-1.6-6c1.2-2.1 3.9-2.8 6-1.6z"/><path fill="#8971FF" d="M217.9 58.4c1.2.7 1.6 2.3.9 3.5-.7 1.2-2.3 1.6-3.5.9-1.2-.7-1.6-2.3-.9-3.5.7-1.2 2.3-1.6 3.5-.9zM277.5 116.1c1.2.7 1.6 2.3.9 3.5-.7 1.2-2.3 1.6-3.5.9-1.2-.7-1.6-2.3-.9-3.5.7-1.2 2.2-1.6 3.5-.9zM87.6 55.9c1.2.7 1.6 2.3.9 3.5-.7 1.2-2.3 1.6-3.5.9-1.2-.7-1.6-2.3-.9-3.5.8-1.2 2.3-1.6 3.5-.9zM61.5 132.1c1.2.7 1.6 2.3.9 3.5-.7 1.2-2.3 1.6-3.5.9-1.2-.7-1.6-2.3-.9-3.5s2.3-1.6 3.5-.9zM54.5 187.2c1.2.7 1.6 2.3.9 3.5s-2.3 1.6-3.5.9c-1.2-.7-1.6-2.3-.9-3.5.7-1.2 2.2-1.6 3.5-.9zM90 256.1c1.2.7 1.6 2.3.9 3.5-.7 1.2-2.3 1.6-3.5.9s-1.6-2.3-.9-3.5c.7-1.2 2.3-1.6 3.5-.9zM131.3 313.3c1.2.7 1.6 2.3.9 3.5-.7 1.2-2.3 1.6-3.5.9-1.2-.7-1.6-2.3-.9-3.5.7-1.2 2.3-1.7 3.5-.9zM188.6 282.9c1.2.7 1.6 2.3.9 3.5s-2.3 1.6-3.5.9-1.6-2.3-.9-3.5c.7-1.2 2.3-1.6 3.5-.9zM272.6 253.6c1.2.7 1.6 2.3.9 3.5-.7 1.2-2.3 1.6-3.5.9s-1.6-2.3-.9-3.5c.7-1.2 2.3-1.6 3.5-.9zM281.8 206.5c1.2.7 1.6 2.3.9 3.5s-2.3 1.6-3.5.9c-1.2-.7-1.6-2.3-.9-3.5.7-1.2 2.3-1.6 3.5-.9z"/><path fill="#FFF" d="M109.5 171.9c2.9 1.7 3.8 5.4 2.2 8.2-1.7 2.9-5.4 3.8-8.2 2.2-2.9-1.7-3.8-5.4-2.2-8.2 1.6-2.9 5.3-3.9 8.2-2.2zM225.3 113.3c2.8 1.6 3.7 5.1 2.1 7.9-1.6 2.8-5.1 3.7-7.9 2.1-2.8-1.6-3.7-5.1-2.1-7.9 1.6-2.8 5.2-3.7 7.9-2.1zM203.4 231.4c2.5 1.4 3.3 4.6 1.9 7.1s-4.6 3.3-7.1 1.9-3.3-4.6-1.9-7.1 4.6-3.3 7.1-1.9zM286.9 164c2 1.2 2.7 3.8 1.5 5.9-1.2 2-3.8 2.7-5.9 1.5-2-1.2-2.7-3.8-1.5-5.9 1.2-2 3.8-2.7 5.9-1.5zM125.4 279.7c2 1.2 2.7 3.7 1.5 5.7-1.2 2-3.7 2.7-5.7 1.5s-2.7-3.7-1.5-5.7c1.1-2 3.7-2.7 5.7-1.5zM115.2 77.5c1.9 1.1 2.6 3.6 1.4 5.5-1.1 1.9-3.6 2.6-5.5 1.4-1.9-1.1-2.6-3.6-1.4-5.5 1.2-1.8 3.7-2.5 5.5-1.4z"/></g><g><path opacity=".4" fill="none" stroke="#B194FF" stroke-linecap="round" stroke-linejoin="round" stroke-miterlimit="10" d="M154.3 77l28.5 37.9M182.8 114.8l56.6 2.6M97.1 225l62.7-34.5-79.3-14.2 61.1-39.4M25.2 132l43.3 4.9 26.1-74M184.6 291.5l68.3-30.7M272.7 122.3l6.9 49.2M106.3 122.1l48-45.1"/><path opacity=".3" fill="none" stroke="#B194FF" stroke-linecap="round" stroke-linejoin="round" stroke-miterlimit="10" d="M237.6 174.9l-54.8-60.1 7.5 76.8-41.8 55.8 11.4-56.9-18.3-53.6-35.3-14.8-25.8 54.2L97.1 225l51.4 22.3 60.5 8-18.7-63.9 62.5 69.2-15.2-85.7 1.9-57.5L227 77.2l-44.3 37.7"/><path opacity=".3" fill="none" stroke="#B194FF" stroke-linecap="round" stroke-linejoin="round" stroke-miterlimit="10" d="M123.2 34.3l31 42.7 72.8.1 45.6 45.3-33.2-4.9 40.1 54.1-42 3.3 35.2 39.1-19.9 47.1-43.8-5.4-24.3 35.9-61.2 24 25.2-68.1-60.1 11.1 8.7-33.3-46.8-33.4 30.2-15.4-12-39.4 37.8-14.9-11.8-59.1 59.6 14-12.7 59.9 41.2-22.2-23 75.8 30.5 1.1 47.2-16.7"/><path opacity=".4" fill="none" stroke="#DDDCFF" stroke-linecap="round" stroke-linejoin="round" stroke-miterlimit="10" d="M227 77l26.5-48.3 19.3 93.6 53.3 6.8-53.4 84.7 32.5 27.3-52.4 19.7 19 43.8-87.2-13.1-43 47.8-18.3-23.8-37.4.7 2.5-57.8-81.1-53.7 43-13.1 18.2-54.7-18-68.3L94.8 63l28.6-28.7L227 77z"/><path opacity=".5" fill="none" stroke="#DEDCFF" stroke-width="1.2" stroke-linecap="round" stroke-linejoin="round" stroke-miterlimit="10" d="M163.9 8.1l89.6 20.7L287.4 92l38.6 37-46.5 43.3 52.7 19.4-27.1 49.3-33.4 63.5-62.3 18.5-67.8 16.2-20.8-63.9L86 316.1l-53.9-45.7-24.9-65.8 18-72.6 25-62.7L121.3 96l1.9-61.8 40.7-26.1z"/><path opacity=".6" fill="none" stroke="#DEDCFF" stroke-linecap="round" stroke-linejoin="round" stroke-miterlimit="10" d="M85.9 316.2l55.6 23.1M49.8 68.6l73.5-34.3M326 129l6.2 62.7"/><path opacity=".8" fill="none" stroke="#C7B0FF" stroke-width="1.2" stroke-linecap="round" stroke-linejoin="round" stroke-miterlimit="10" d="M230.4 141.5L287.3 92l-7.8 80.2 25.6 68.8-122.4-1.6 26.7 83.5-88.7-47.7-88.5-4.9 93.3-85.9-100.1-52.2 95.9-36.1 42.6-88 66.5 133.4z"/><path fill="none" stroke="#C3BBFF" stroke-width="1.2" stroke-linecap="round" stroke-linejoin="round" stroke-miterlimit="10" d="M230.4 141.5l49.1 29.9-96.8 68.1-62.6 36.1 5.4-91.2-4.2-88.3 109.1 45.4"/><path fill="none" stroke="#D2CAFF" stroke-width="1.5" stroke-linecap="round" stroke-linejoin="round" stroke-miterlimit="10" d="M125.4 184.4l105-42.9-47.7 98-57.8-55.7"/><path opacity=".7" fill="none" stroke="#DBD9FF" stroke-width="1.2" stroke-linecap="round" stroke-linejoin="round" stroke-miterlimit="10" d="M163.9 8.1L287.5 92M25.4 132.1l6.8 138.3M209.4 323l95.8-81.9"/><path fill="#8452FF" d="M238.4 173.6c.8.4 1 1.4.6 2.2-.4.8-1.4 1-2.2.6-.8-.4-1-1.4-.6-2.2.4-.8 1.4-1.1 2.2-.6zM240.4 116.3c.8.4 1 1.4.6 2.2-.4.8-1.4 1-2.2.6-.8-.4-1-1.4-.6-2.2.5-.8 1.5-1.1 2.2-.6zM155 75.6c.8.4 1 1.4.6 2.2s-1.4 1-2.2.6c-.8-.4-1-1.4-.6-2.2.5-.8 1.5-1 2.2-.6zM107.3 121c.8.4 1 1.4.6 2.2-.4.8-1.4 1-2.2.6-.8-.4-1-1.4-.6-2.2.5-.8 1.4-1.1 2.2-.6zM81.4 174.9c.8.4 1 1.4.6 2.2-.4.8-1.4 1-2.2.6-.8-.4-1-1.4-.6-2.2.5-.8 1.5-1 2.2-.6zM98.1 223.8c.8.4 1 1.4.6 2.2-.4.8-1.4 1-2.2.6-.8-.4-1-1.4-.6-2.2.4-.8 1.4-1.1 2.2-.6zM149.5 245.8c.8.4 1 1.4.6 2.2s-1.4 1-2.2.6c-.8-.4-1-1.4-.6-2.2.5-.8 1.5-1 2.2-.6zM210 254.4c.8.4 1 1.4.6 2.2-.4.8-1.4 1-2.2.6-.8-.4-1-1.4-.6-2.2.5-.8 1.4-1.1 2.2-.6zM183.5 114c.5.3.7 1 .4 1.5-.3.5-1 .7-1.5.4s-.7-1-.4-1.5 1-.7 1.5-.4zM142.1 135.9c.5.3.7 1 .4 1.5-.3.5-1 .7-1.5.4-.5-.3-.7-1-.4-1.5.3-.5 1-.7 1.5-.4zM160.4 189.6c.5.3.7 1 .4 1.5-.3.5-1 .7-1.5.4s-.7-1-.4-1.5c.2-.6 1-.8 1.5-.4zM190.9 190.7c.5.3.7 1 .4 1.5s-1 .7-1.5.4c-.5-.3-.7-1-.4-1.5.2-.6.9-.7 1.5-.4z"/><path fill="#D4D8FF" d="M288.7 89.3c1.6.9 2.1 2.9 1.2 4.5-.9 1.6-2.9 2.1-4.5 1.2-1.6-.9-2.1-2.9-1.2-4.5.9-1.6 2.9-2.1 4.5-1.2zM34.1 267.2c1.7 1 2.3 3.2 1.3 5-1 1.7-3.2 2.3-5 1.3-1.7-1-2.3-3.2-1.3-5 1.1-1.7 3.3-2.3 5-1.3z"/><path fill="#B6AEFF" d="M306.6 237.9c1.8 1 2.3 3.3 1.3 5-1 1.8-3.3 2.3-5 1.3-1.8-1-2.3-3.3-1.3-5s3.3-2.3 5-1.3zM27.2 128.7c1.8 1.1 2.4 3.4 1.4 5.2-1.1 1.8-3.4 2.4-5.2 1.4-1.8-1.1-2.4-3.4-1.4-5.2 1.1-1.8 3.4-2.4 5.2-1.4zM165.5 4.9c1.8 1 2.4 3.3 1.3 5.1-1.1 1.8-3.3 2.4-5.1 1.3-1.8-1-2.4-3.3-1.3-5.1 1.1-1.8 3.5-2.3 5.1-1.3zM327 126.2c1.5.9 2 2.8 1.1 4.3-.9 1.5-2.8 2-4.3 1.1s-2-2.8-1.1-4.3c.9-1.4 2.8-1.9 4.3-1.1zM333.5 188.8c1.6.9 2.1 2.9 1.2 4.5-.9 1.6-2.9 2.1-4.5 1.2-1.6-.9-2.1-2.9-1.2-4.5.9-1.6 2.9-2.1 4.5-1.2zM272.7 302c1.3.7 1.7 2.4 1 3.6-.7 1.3-2.4 1.7-3.6 1-1.2-.7-1.7-2.4-1-3.6.7-1.4 2.3-1.8 3.6-1zM143 336.9c1.1.6 1.5 2.1.8 3.2-.6 1.1-2.1 1.5-3.2.8-1.1-.6-1.5-2.1-.8-3.2s2.1-1.4 3.2-.8zM87.7 313.3c1.4.8 1.9 2.6 1.1 4.1-.8 1.4-2.6 1.9-4.1 1.1-1.4-.8-1.9-2.6-1.1-4.1.9-1.4 2.8-1.9 4.1-1.1zM8.8 202.1c1.5.9 2 2.7 1.1 4.2s-2.7 2-4.2 1.1c-1.5-.9-1.9-2.7-1.1-4.2.9-1.5 2.7-2 4.2-1.1zM52 66.1c1.4.8 1.9 2.7 1.1 4.1-.8 1.4-2.7 1.9-4.1 1.1-1.4-.8-1.9-2.7-1.1-4.1.8-1.5 2.7-1.9 4.1-1.1zM124.7 31.7c1.4.8 1.9 2.7 1.1 4.1-.8 1.4-2.7 1.9-4.1 1.1-1.4-.8-1.9-2.7-1.1-4.1.9-1.5 2.7-1.9 4.1-1.1zM255 26.2c1.4.8 1.9 2.7 1.1 4.1-.8 1.4-2.7 1.9-4.1 1.1-1.4-.8-1.9-2.7-1.1-4.1.8-1.5 2.7-2 4.1-1.1zM211.4 318.9c2.1 1.2 2.8 3.9 1.6 6-1.2 2.1-3.9 2.8-6 1.6s-2.8-3.9-1.6-6c1.2-2.1 3.9-2.8 6-1.6z"/><path fill="#8971FF" d="M228.3 74.8c1.2.7 1.6 2.3.9 3.5-.7 1.2-2.3 1.6-3.5.9-1.2-.7-1.6-2.3-.9-3.5.7-1.2 2.3-1.6 3.5-.9zM274 120.1c1.2.7 1.6 2.3.9 3.5-.7 1.2-2.3 1.6-3.5.9-1.2-.7-1.6-2.3-.9-3.5s2.2-1.6 3.5-.9zM96.1 61c1.2.7 1.6 2.3.9 3.5-.7 1.2-2.3 1.6-3.5.9-1.2-.7-1.6-2.3-.9-3.5.8-1.2 2.3-1.6 3.5-.9zM70 134.6c1.2.7 1.6 2.3.9 3.5-.7 1.2-2.3 1.6-3.5.9-1.2-.7-1.6-2.3-.9-3.5s2.3-1.6 3.5-.9zM51.8 189.4c1.2.7 1.6 2.3.9 3.5-.7 1.2-2.3 1.6-3.5.9-1.2-.7-1.6-2.3-.9-3.5.7-1.2 2.2-1.6 3.5-.9zM90 256.1c1.2.7 1.6 2.3.9 3.5-.7 1.2-2.3 1.6-3.5.9-1.2-.7-1.6-2.3-.9-3.5s2.3-1.6 3.5-.9zM124.6 313.3c1.2.7 1.6 2.3.9 3.5-.7 1.2-2.3 1.6-3.5.9-1.2-.7-1.6-2.3-.9-3.5.7-1.2 2.3-1.7 3.5-.9zM186.1 289.2c1.2.7 1.6 2.3.9 3.5-.7 1.2-2.3 1.6-3.5.9s-1.6-2.3-.9-3.5c.7-1.2 2.3-1.6 3.5-.9zM254 258.6c1.2.7 1.6 2.3.9 3.5-.7 1.2-2.3 1.6-3.5.9s-1.6-2.3-.9-3.5c.7-1.2 2.3-1.6 3.5-.9zM274 211.6c1.2.7 1.6 2.3.9 3.5s-2.3 1.6-3.5.9c-1.2-.7-1.6-2.3-.9-3.5.7-1.2 2.3-1.6 3.5-.9z"/><path fill="#FFF" d="M127.9 178.8c2.9 1.7 3.8 5.4 2.2 8.2-1.7 2.9-5.4 3.8-8.2 2.2-2.9-1.7-3.8-5.4-2.2-8.2 1.6-2.9 5.3-3.9 8.2-2.2zM233.1 136.5c2.8 1.6 3.7 5.1 2.1 7.9-1.6 2.8-5.1 3.7-7.9 2.1-2.8-1.6-3.7-5.1-2.1-7.9 1.6-2.8 5.2-3.7 7.9-2.1zM185.4 235c2.5 1.4 3.3 4.6 1.9 7.1s-4.6 3.3-7.1 1.9-3.3-4.6-1.9-7.1 4.6-3.3 7.1-1.9zM281.7 168.3c2 1.2 2.7 3.8 1.5 5.9-1.2 2-3.8 2.7-5.9 1.5-2-1.2-2.7-3.8-1.5-5.9 1.2-2 3.8-2.7 5.9-1.5zM122.9 271.3c2 1.2 2.7 3.7 1.5 5.7-1.2 2-3.7 2.7-5.7 1.5-2-1.2-2.7-3.7-1.5-5.7 1.1-2 3.7-2.7 5.7-1.5zM123.3 92.7c1.9 1.1 2.6 3.6 1.4 5.5-1.1 1.9-3.6 2.6-5.5 1.4-1.9-1.1-2.6-3.6-1.4-5.5 1.2-1.8 3.7-2.5 5.5-1.4z"/></g></svg>