<?xml version="1.0" encoding="utf-8"?>
<!-- Generator: Avocode 2.3.2-ea60620 - http://avocode.com -->
<svg height="15" width="14" xmlns:xlink="http://www.w3.org/1999/xlink" xmlns="http://www.w3.org/2000/svg" viewBox="0 0 14 15">
    <path fill="#ffffff" fill-rule="evenodd" d="M 13.78 2.45 C 13.78 2.45 7.25 13.83 7.25 13.83 C 7.14 14.21 6.9 14.55 6.53 14.77 C 6.43 14.83 6.31 14.84 6.21 14.88 C 6.14 14.9 6.07 14.93 6 14.95 C 5.93 14.96 5.85 14.96 5.78 14.96 C 5.47 14.99 5.15 14.95 4.85 14.78 C 4.56 14.61 4.36 14.34 4.23 14.05 C 4.23 14.05 0.22 9.39 0.22 9.39 C -0.22 8.61 0.04 7.61 0.81 7.15 C 1.58 6.7 2.56 6.97 3.01 7.75 C 3.01 7.75 5.41 10.55 5.41 10.55 C 5.41 10.55 11 0.81 11 0.81 C 11.44 0.03 12.43 -0.24 13.2 0.22 C 13.97 0.67 14.23 1.67 13.78 2.45 Z" />
</svg>