<?xml version="1.0" encoding="utf-8"?>
<!-- Generator: Adobe Illustrator 16.0.0, SVG Export Plug-In . SVG Version: 6.00 Build 0)  -->
<!DOCTYPE svg PUBLIC "-//W3C//DTD SVG 1.1//EN" "http://www.w3.org/Graphics/SVG/1.1/DTD/svg11.dtd">
<svg version="1.1" id="Layer_1" xmlns="http://www.w3.org/2000/svg" xmlns:xlink="http://www.w3.org/1999/xlink" x="0px" y="0px"
	 width="365.981px" height="503.975px" viewBox="0 0 365.981 503.975" enable-background="new 0 0 365.981 503.975"
	 xml:space="preserve">
<g>
	<path fill="#CB2AA6" d="M177.594,476.868c-1.253,0-2.487-0.587-3.267-1.688c-1.277-1.802-0.852-4.299,0.951-5.576
		c14.629-10.367,23.593-19.048,29.065-28.148c0.834-1.386,2.42-2.129,4.02-1.895c1.6,0.239,2.897,1.418,3.289,2.987
		c2.09,8.372,6.638,15.92,14.312,23.754c1.546,1.578,1.52,4.11-0.059,5.656s-4.111,1.52-5.656-0.059
		c-6.329-6.46-10.804-12.825-13.717-19.585c-6.045,7.678-14.558,15.263-26.628,23.816
		C179.201,476.628,178.394,476.868,177.594,476.868z"/>
</g>
<g>
	<path fill="#CB2AA6" d="M128.404,465.398c-1.352,0-2.67-0.686-3.423-1.925c-1.146-1.889-0.545-4.349,1.343-5.495
		c23.226-14.102,66.459-40.351,92.499-92.371c0.855-1.709,2.8-2.575,4.638-2.066c1.842,0.506,3.067,2.243,2.929,4.147
		c-2.876,39.454,14.659,65.656,34.038,88.095c1.444,1.672,1.259,4.197-0.413,5.642c-1.672,1.443-4.198,1.259-5.642-0.413
		c-17.798-20.607-34.121-44.278-36.1-77.871c-27.212,44.894-66.034,68.463-87.797,81.676
		C129.828,465.209,129.111,465.398,128.404,465.398z"/>
</g>
<g>
	<path fill="#B325AE" d="M292.402,435.397c-1.124,0-2.242-0.471-3.033-1.39c-30.01-34.849-31.54-67.046-33.478-107.808
		c-0.967-20.35-2.062-43.415-7.203-69.605c-7.532-38.382-35.88-56.334-59.897-60.337c-28.675-4.78-55.703,8.219-70.556,33.919
		c-25.418,43.979-40.792,68.346-86.107,98.787c-1.834,1.231-4.319,0.744-5.551-1.09s-0.744-4.319,1.09-5.551
		c43.845-29.454,58.833-53.225,83.641-96.149c16.564-28.659,46.763-43.146,78.797-37.807c15.807,2.634,30.308,9.878,41.937,20.949
		c12.486,11.888,20.957,27.704,24.496,45.738c5.254,26.767,6.364,50.143,7.345,70.767c1.864,39.225,3.336,70.207,31.549,102.967
		c1.441,1.674,1.253,4.2-0.421,5.642C294.255,435.079,293.326,435.397,292.402,435.397z"/>
</g>
<g>
	<path fill="#A423B2" d="M319.404,398.065c-1.365,0-2.695-0.699-3.442-1.958c-18.041-30.367-18.901-62.976-19.733-94.51
		c-0.848-32.13-1.648-62.477-19.476-90.104c-19.356-29.998-46.965-49.954-77.738-56.19c-28.378-5.752-57.079,0.534-82.991,18.179
		c-17.585,11.974-28.957,29.308-40.995,47.659c-12.693,19.349-25.819,39.357-47.545,55.855c-1.76,1.335-4.269,0.992-5.604-0.767
		c-1.336-1.759-0.993-4.269,0.767-5.604c20.63-15.666,33.372-35.089,45.693-53.872c12.488-19.035,24.282-37.014,43.182-49.883
		c27.736-18.887,58.537-25.599,89.084-19.408c32.904,6.669,62.335,27.869,82.871,59.693c19.043,29.512,19.911,62.413,20.75,94.231
		c0.806,30.51,1.638,62.059,18.613,90.635c1.129,1.899,0.504,4.354-1.396,5.481C320.803,397.883,320.099,398.065,319.404,398.065z"
		/>
</g>
<g>
	<path fill="#B827AD" d="M89.071,448.065c-1.347,0-2.662-0.681-3.417-1.914c-1.152-1.885-0.559-4.347,1.326-5.499
		c12.505-7.647,44.777-28.64,74.278-58.34c30.632-30.839,48.261-60.806,52.398-89.067c3.498-23.898-6.908-44.928-25.306-51.14
		c-8.517-2.876-17.681-2.002-26.496,2.529c-10.235,5.261-19.739,15.428-27.482,29.402c-22.787,41.125-55.843,75.679-95.594,99.926
		c-1.887,1.149-4.347,0.554-5.498-1.332c-1.15-1.886-0.554-4.348,1.332-5.498c38.569-23.526,70.646-57.059,92.763-96.973
		c8.636-15.586,19.006-26.567,30.822-32.64c10.786-5.543,22.096-6.578,32.713-2.994c22.12,7.47,34.729,32.092,30.662,59.878
		c-4.391,29.993-22.773,61.467-54.638,93.547c-30.115,30.318-63.028,51.729-75.78,59.526
		C90.502,447.875,89.782,448.065,89.071,448.065z"/>
</g>
<g>
	<path fill="#BE27AA" d="M59.071,413.398c-1.382,0-2.727-0.718-3.468-2.001c-1.105-1.913-0.449-4.359,1.464-5.464
		c57.908-33.438,93.999-71.119,117.021-122.181c0.908-2.013,3.276-2.909,5.291-2.002c2.014,0.908,2.91,3.276,2.003,5.291
		c-23.755,52.687-60.861,91.491-120.314,125.819C60.437,413.225,59.75,413.398,59.071,413.398z"/>
</g>
<g>
	<path fill="#8F1FBA" d="M342.399,353.398c-1.675,0-3.235-1.06-3.794-2.736c-7.136-21.408-7.99-44.216-8.816-66.272
		c-0.934-24.929-1.899-50.707-12.059-74.152c-0.879-2.027,0.053-4.382,2.079-5.261c2.027-0.877,4.383,0.052,5.261,2.08
		c10.758,24.824,11.752,51.366,12.713,77.033c0.843,22.484,1.638,43.721,8.412,64.043c0.698,2.096-0.435,4.36-2.53,5.06
		C343.246,353.332,342.819,353.398,342.399,353.398z"/>
</g>
<g>
	<path fill="#8F1FBA" d="M31.399,213.897c-0.94,0-1.883-0.329-2.644-1c-1.657-1.461-1.816-3.988-0.355-5.646
		c4.377-4.966,8.923-11.856,14.186-19.834c18.189-27.573,45.677-69.241,103.961-81.203c60.217-12.358,127.755,16.653,164.235,70.554
		c1.238,1.83,0.759,4.316-1.07,5.555c-1.831,1.238-4.316,0.759-5.555-1.07c-34.717-51.294-98.869-78.93-156.002-67.202
		c-55.039,11.295-80.385,49.717-98.892,77.771c-5.428,8.229-10.116,15.335-14.863,20.72
		C33.61,213.439,32.507,213.897,31.399,213.897z"/>
</g>
<g>
	<path fill="#761CC1" d="M46.397,133.397c-0.818,0-1.644-0.25-2.356-0.77c-1.784-1.303-2.174-3.806-0.871-5.59
		c29.599-40.527,72.839-64.008,121.755-66.119c52.253-2.254,104.764,20.868,140.49,61.85c1.452,1.665,1.279,4.192-0.386,5.644
		c-1.668,1.452-4.194,1.278-5.644-0.387c-34.144-39.165-84.271-61.258-134.116-59.114c-46.436,2.003-87.504,24.322-115.639,62.845
		C48.847,132.829,47.631,133.397,46.397,133.397z"/>
</g>
<g>
	<path fill="#6A1BC6" d="M275.194,59.2c-0.8,0-1.608-0.24-2.312-0.738C209.927,13.783,136.59,13.473,76.707,57.631
		c-1.778,1.312-4.282,0.932-5.593-0.845c-1.311-1.778-0.933-4.282,0.845-5.593c62.8-46.31,139.643-46.03,205.555,0.745
		c1.801,1.279,2.226,3.775,0.946,5.577C277.681,58.614,276.447,59.2,275.194,59.2z"/>
</g>
</svg>
