<svg id="Слой_1" data-name="Слой 1" xmlns="http://www.w3.org/2000/svg" width="741.6" height="536.26" viewBox="0 0 741.6 536.26">
  <title>ip_top_line</title>
  <path d="M436.59,283.55s-151.73,82.06-171.45,92.57c-31.08,18.54-55.4,32.33-81.66,47.36-15.07,8.62-8.09,4.92-22.33,13.5-20,12.08-25.16,16.82-56.27,35C88.58,482.22.52,535.4,0.52,535.4" fill="none" stroke="#003cff" stroke-width="2" stroke-dasharray="8 4"/>
  <path d="M741.17,0.9S585.4,75,565.17,84.49c-30.3,14.18-41,33.72-41,68.41,0,17.09,0,29,0,45,0,18-3.11,38.15-26,51-16.81,9.44-66,37-66,37" fill="none" stroke="#003cff" stroke-width="2" stroke-dasharray="8 4"/>
</svg>
