<svg id="Слой_1" data-name="Слой 1" xmlns="http://www.w3.org/2000/svg" width="680.13" height="536.86" viewBox="0 0 680.13 536.86">
  <title>ip_top_line3</title>
  <path d="M480.63,0.9S324.86,75,304.63,84.49c-30.3,14.18-41,33.72-41,68.41v15c0,18-3.11,38.15-26,51-16.81,9.44-237.17,125-237.17,125" fill="none" stroke="#3e5aa9" stroke-width="2" stroke-dasharray="6 4"/>
  <path d="M263.77,193.88c0,37.29,0,84,14.76,98.61,22.17,21.94,148.16,147.16,163.39,161,21.6,19.66,30.86,23.67,59.86,23.67h88.67c20.67,0,26.35,3.29,44.16,18.81,22.26,20.35,35.51,31.87,44.86,40.14" fill="none" stroke="#3e5aa9" stroke-width="2" stroke-dasharray="6 4"/>
</svg>
