<?xml version="1.0" encoding="utf-8"?>
<!-- Generator: Adobe Illustrator 16.0.0, SVG Export Plug-In . SVG Version: 6.00 Build 0)  -->
<!DOCTYPE svg PUBLIC "-//W3C//DTD SVG 1.1//EN" "http://www.w3.org/Graphics/SVG/1.1/DTD/svg11.dtd">
<svg version="1.1" id="Layer_1" xmlns="http://www.w3.org/2000/svg" xmlns:xlink="http://www.w3.org/1999/xlink" x="0px" y="0px"
	 width="750px" height="550px" viewBox="0 0 750 550" enable-background="new 0 0 750 550" xml:space="preserve">
<path id="ipcam_i1" fill="none" stroke="#003CFF" stroke-width="2" stroke-linecap="round" stroke-linejoin="round" stroke-miterlimit="10" d="
	M632.9,64.5C656.6,19,707.6,6.9,722.6,6.4c-2.697,0-255.299,0-264.799,0c-19.601,0-36.601,29.4-37.5,61.6
	c-0.101,2.2,1.199,3.3,3.5,3.3c30.102,0,161.102-0.1,197.602-0.1C627.6,71.3,630.6,69,632.9,64.5z"/>
<path id="ipcam_i2" fill="none" stroke="#003CFF" stroke-width="2" stroke-linecap="round" stroke-linejoin="round" stroke-miterlimit="10" d="
	M721.4,44.5c3.697-9.8,8.197-19,15-27.3c2-2.4,6.6-6.7,1.898-8.9c-3.701-1.7-10.6-1.9-15.701-1.9"/>
<path id="ipcam_i3" fill="none" stroke="#003CFF" stroke-width="2" stroke-linecap="round" stroke-linejoin="round" stroke-miterlimit="10" d="
	M676.1,134.5c0,0-194.6,0-207.5,0c-22.5,0-43.1-29.1-43.1-63.1"/>
<path id="ipcam_i4" fill="none" stroke="#003CFF" stroke-width="2" stroke-linecap="round" stroke-linejoin="round" stroke-miterlimit="10" d="
	M693,13.4c23.5,7.7,32.301,35.2,32.301,58.3c0,34.5-22.1,62.5-49.301,62.5c-27.199,0-49.3-29.2-49.3-63.7"/>
<path id="ipcam_i5" fill="none" stroke="#003CFF" stroke-width="1.5" stroke-linecap="round" stroke-linejoin="round" stroke-miterlimit="10" d="
	M538.301,178.8c7.5,0,13.602,6.1,13.602,13.6s-6.102,13.6-13.602,13.6s-13.601-6.1-13.601-13.6
	C524.7,184.8,530.801,178.8,538.301,178.8z M525.726,197.578c0,0-40.824,28.322-43.024,29.822s-4.8,3.5-4.8,9.1
	c0,5.5,3.149,6.575,5.351,5.075c0.7-0.5,51.353-36.089,51.353-36.089 M538.835,178.812l11.5-40.312 M563.371,138.5L549.7,185"/>
<path id="ipcam_i6" fill="none" stroke="#003CFF" stroke-width="1.5" stroke-linecap="round" stroke-linejoin="round" stroke-miterlimit="10" d="
	M489.498,237.182c-0.497,12.069-4.21,22.301-9.012,23.631c-5.245,1.477-9.604-9.16-9.825-23.639
	c-0.222-14.553,3.842-27.48,9.013-28.884c4.062-1.108,7.682,5.097,9.158,14.774"/>
<path id="ipcam_i7" fill="none" stroke="#003CFF" stroke-width="1.5" stroke-linecap="round" stroke-linejoin="round" stroke-miterlimit="10" d="
	M662.801,43.3c12.602-9.5,28.602-4.3,36,11.5c7.299,15.9,3.102,36.4-9.5,45.9c-12.6,9.5-28.6,4.3-36-11.5
	C646,73.3,650.301,52.8,662.801,43.3z M662.701,58.1c5.896-4.5,13.5-2,16.896,5.5c3.5,7.5,1.5,17.2-4.396,21.6
	c-5.9,4.4-13.5,2-16.9-5.5C654.801,72.2,656.801,62.6,662.701,58.1z M665.5,68.4c1.5-1.2,3.5-0.5,4.4,1.4
	c0.898,1.9,0.398,4.5-1.199,5.7c-1.5,1.2-3.5,0.5-4.4-1.4C663.4,72.1,663.9,69.5,665.5,68.4z M675.301,67.3
	c2.102,4.6,0.9,10.6-2.701,13.3"/>
<path fill="none" stroke="#003CFF" stroke-linecap="round" stroke-linejoin="round" stroke-miterlimit="10" d="M454.7,130.8h205.7"
	/>
<path opacity="0.8" fill="none" stroke="#003CFF" stroke-linecap="round" stroke-linejoin="round" stroke-miterlimit="10" enable-background="new    " d="
	M448.9,126.8H651.8"/>
<path opacity="0.6" fill="none" stroke="#003CFF" stroke-linecap="round" stroke-linejoin="round" stroke-miterlimit="10" enable-background="new    " d="
	M442.5,120.8h202.6"/>
<path opacity="0.4" fill="none" stroke="#003CFF" stroke-linecap="round" stroke-linejoin="round" stroke-miterlimit="10" enable-background="new    " d="
	M436.1,111.8H638.7"/>
<path fill="none" stroke="#003CFF" stroke-linecap="round" stroke-linejoin="round" stroke-miterlimit="10" d="M702.4,10.8h38"/>
<path opacity="0.8" fill="none" stroke="#003CFF" stroke-linecap="round" stroke-linejoin="round" stroke-miterlimit="10" enable-background="new    " d="
	M697.5,14.8h41"/>
<path opacity="0.6" fill="none" stroke="#003CFF" stroke-linecap="round" stroke-linejoin="round" stroke-miterlimit="10" enable-background="new    " d="
	M705,19.8h29.1"/>
<path opacity="0.4" fill="none" stroke="#003CFF" stroke-linecap="round" stroke-linejoin="round" stroke-miterlimit="10" enable-background="new    " d="
	M711.1,25.8h19.201"/>
<path fill="none" stroke="#003CFF" stroke-width="1.5" stroke-linecap="round" stroke-linejoin="round" stroke-miterlimit="10" d="
	M568.667,134.5c0,2.737-1.479,4-4,4H549.5c-2.75,0-4-1.575-4-4"/>
<g>
	<g>
		<path class="dashed-line" fill="none" stroke="#003CFF" stroke-linecap="round" stroke-linejoin="round" stroke-dasharray="2.9814,2.9814" d="
			M467.829,242.928c-1.97,1.321-118.375,81.107-130.04,88.99c-10.665,7.207-16.79,18.707-16.79,32.957c0,23.59,0,135.979,0,135.979"
			/>
	</g>
</g>
</svg>
