<?xml version="1.0" encoding="utf-8"?>
<!-- Generator: Adobe Illustrator 16.0.0, SVG Export Plug-In . SVG Version: 6.00 Build 0)  -->
<!DOCTYPE svg PUBLIC "-//W3C//DTD SVG 1.1//EN" "http://www.w3.org/Graphics/SVG/1.1/DTD/svg11.dtd">
<svg version="1.1" id="Layer_1" xmlns="http://www.w3.org/2000/svg" xmlns:xlink="http://www.w3.org/1999/xlink" x="0px" y="0px"
	 width="750px" height="580px" viewBox="0 0 750 580" enable-background="new 0 0 750 580" xml:space="preserve">
<path fill="none" stroke="#001EFF" stroke-width="2" stroke-linecap="round" stroke-linejoin="round" stroke-miterlimit="10" d="
	M463.692,10.752c15.405-22.336,87.682,0.793,161.432,51.662c73.749,50.869,121.046,110.213,105.639,132.549
	c-15.405,22.336-87.682-0.793-161.431-51.662C495.582,92.434,448.285,33.089,463.692,10.752z"/>
<g>
	<g>
		<path class="dashed-line" fill="none" stroke="#003CFF" stroke-linecap="round" stroke-linejoin="round" stroke-dasharray="2.9814,2.9814" d="
			M351.329,317.82c-1.849,0.519-7.767,2.305-16.418,4.827C324.772,325.604,321,333.523,321,343.875c0,23.59,0,156.979,0,156.979"/>
	</g>
</g>
<g>
	<g>
		<path class="dashed-line" fill="none" stroke="#003CFF" stroke-linecap="round" stroke-linejoin="round" stroke-dasharray="2.9814,2.9814" d="
			M436.333,297c0,0,13.93-2.76,20.594-4.204c6-1.167,9.394-5.374,12.026-8.866c4.312-5.517,29.545-37.089,29.545-37.089"/>
	</g>
</g>
<path id="i1" fill="none" stroke="#001EFF" stroke-width="1.5" stroke-linecap="round" stroke-linejoin="round" stroke-miterlimit="10" d="
	M512.734,228.685l38.142-30.25 M522.674,179.559l-14.433,46.305"/>
<path id="i2" fill="none" stroke="#001EFF" stroke-width="1.5" stroke-linecap="round" stroke-linejoin="round" stroke-miterlimit="10" d="
	M518.876,229.732l59.47-18.54 M499.081,156.248l7.47,65.104"/>
<path id="i3" fill="none" stroke="#001EFF" stroke-width="2" stroke-linecap="round" stroke-linejoin="round" stroke-miterlimit="10" d="
	M728.984,197.114c-28.159,36.868-123.334,36.881-194.2-9.382c-69.108-45.113-95.007-135.545-72.354-175.01"/>
<g>

		<path id="i4" fill="none" stroke="#001EFF" stroke-width="1.5" stroke-linecap="round" stroke-linejoin="round" stroke-miterlimit="10" d="
		M514.956,224.976c-5.034-4.928-13.101-4.838-18.028,0.197c-4.914,5.033-4.834,13.117,0.197,18.029
		c5.035,4.93,13.1,4.838,18.028-0.195C520.085,237.987,519.99,229.905,514.956,224.976z"/>
</g>
<g>

		<path id="i7" fill="none" stroke="#001EFF" stroke-width="0.8" stroke-linecap="round" stroke-linejoin="round" stroke-miterlimit="10" d="
		M382.489,322.68c0.673,0,1.241,0.716,1.241,1.614c0,0.899-0.568,1.618-1.241,1.618s-1.228-0.719-1.228-1.618
		C381.262,323.396,381.814,322.68,382.489,322.68z"/>

		<path id="i8" fill="none" stroke="#001EFF" stroke-width="0.8" stroke-linecap="round" stroke-linejoin="round" stroke-miterlimit="10" d="
		M377.82,323.607c0.673,0,1.24,0.716,1.24,1.614c0,0.883-0.566,1.602-1.24,1.602c-0.676,0-1.242-0.719-1.242-1.602
		C376.578,324.323,377.146,323.607,377.82,323.607z"/>

		<path id="i9" fill="none" stroke="#001EFF" stroke-width="0.8" stroke-linecap="round" stroke-linejoin="round" stroke-miterlimit="10" d="
		M387.158,321.57c0.672,0,1.237,0.722,1.237,1.618c0,0.898-0.565,1.616-1.237,1.616c-0.674,0-1.229-0.718-1.229-1.616
		C385.93,322.291,386.484,321.57,387.158,321.57z"/>

		<path id="i10" fill="none" stroke="#001EFF" stroke-width="1.2" stroke-linecap="round" stroke-linejoin="round" stroke-miterlimit="10" d="
		M345.188,293.995l64.605-12.388c2.067-0.451,4.791,0.238,6.092,1.525l25.748,20.888c1.301,1.285,0.675,2.693-1.405,3.142
		l-67.269,14.513c-2.068,0.45-4.792-0.239-6.093-1.524l-23.086-23.014C342.479,295.854,343.107,294.443,345.188,293.995z"/>

		<path id="i11" fill="none" stroke="#001EFF" stroke-width="1.2" stroke-linecap="round" stroke-linejoin="round" stroke-miterlimit="10" d="
		M442.293,305.832c0,3.528,0,5.646,0,7.21c0,2.552-0.887,3.177-2.571,3.566l-66.763,14.404c-2.068,0.449-4.792-0.242-6.093-1.526
		l-23.086-23.015c-0.677-0.69-0.748-1.731-0.748-3.175c0-2.186,0.003-4.266,0.003-7.061"/>
</g>
<g>

		<path id="i12" fill="none" stroke="#001EFF" stroke-width="2" stroke-linecap="round" stroke-linejoin="round" stroke-miterlimit="10" d="
		M579.524,135.584l69.02-94.244"/>

		<path id="i13" fill="none" stroke="#001EFF" stroke-width="2" stroke-linecap="round" stroke-linejoin="round" stroke-miterlimit="10" d="
		M510.667,55.543l131.132-20.938 M657.914,45.512l17.898,120.977"/>

		<path id="i14" fill="none" stroke="#001EFF" stroke-width="2" stroke-linecap="round" stroke-linejoin="round" stroke-miterlimit="10" d="
		M661.741,35.033c2.437,2.672,3.522,5.207,3.013,6.669c-0.588,1.726-7.597,0.937-13.375-3.005
		c-5.761-3.928-9.085-9.127-7.512-11.226c0.952-1.258,3.741-1.108,7.195,0.26"/>

		<path id="i15" fill="none" stroke="#001EFF" stroke-width="2" stroke-linecap="round" stroke-linejoin="round" stroke-miterlimit="10" d="
		M662.706,44.906c-0.588,1.724-7.599,0.921-13.374-3.004c-5.762-3.931-9.648-9.74-8.092-11.837"/>

		<path id="i16" fill="none" stroke="#001EFF" stroke-width="2" stroke-linecap="round" stroke-linejoin="round" stroke-miterlimit="10" d="
		M649.909,31.589l5.252-6.812 M663.783,29.654l-5.346,7.951"/>

		<path id="i17" fill="none" stroke="#001EFF" stroke-width="2" stroke-linecap="round" stroke-linejoin="round" stroke-miterlimit="10" d="
		M652.367,16.896l4.57-6.685c0.711,1.514,3.765,8.818,3.765,8.818l13.728,3.868c1.056,0.337,1.729,0.52,1.203,1.233l-4.312,6.499
		c-0.521,0.715-1.363,0.614-2.375,0.245l-12.547-3.748L652.367,16.896z"/>
</g>
<path fill="none" stroke="#001EFF" stroke-width="2" stroke-linecap="round" stroke-linejoin="round" stroke-miterlimit="10" d="
	M656.938,10.211l14.646,4.044l4.221,9.512"/>
<path opacity="0.8" fill="none" stroke="#001EFF" stroke-linecap="round" stroke-linejoin="round" stroke-miterlimit="10" enable-background="new    " d="
	M484.688,137.921c22.854,29.804,74.18,67.306,123.541,80.524"/>
<path opacity="0.6" fill="none" stroke="#001EFF" stroke-linecap="round" stroke-linejoin="round" stroke-miterlimit="10" enable-background="new    " d="
	M479.178,128.803c29.78,35.981,84.201,73.975,143.819,92.442"/>
<path opacity="0.4" fill="none" stroke="#001EFF" stroke-linecap="round" stroke-linejoin="round" stroke-miterlimit="10" enable-background="new    " d="
	M468.905,109.603c43.346,53.8,99.719,89.483,174.053,113.771"/>
<path opacity="0.2" fill="none" stroke="#001EFF" stroke-linecap="round" stroke-linejoin="round" stroke-miterlimit="10" enable-background="new    " d="
	M461.102,88.987c48.738,66.07,119.301,109.08,203.851,134.367"/>
<path fill="none" stroke="#001EFF" stroke-width="1.5" stroke-linecap="round" stroke-linejoin="round" stroke-miterlimit="10" d="
	M503.141,221.677c-3.502,7.766,10.375,15.855,15.611,11.463"/>
<path fill="none" stroke="#001EFF" stroke-width="0.8" stroke-linecap="round" stroke-linejoin="round" stroke-miterlimit="10" d="
	M462.337,13.83c19.792-17.084,88.621,6.208,158.779,54.603c69.137,47.691,115.28,103.04,108.051,128.15"/>
<path fill="none" stroke="#001EFF" stroke-width="0.5" stroke-linecap="round" stroke-linejoin="round" stroke-miterlimit="10" d="
	M461.297,17.771c23.021-12.882,88.812,10.441,155.819,56.662c66.474,45.854,111.455,98.592,108.395,124.906"/>
</svg>
