<svg xmlns="http://www.w3.org/2000/svg" viewBox="0 0 414.173 777.152">
  <title>iptv-new</title>
  <path d="M143.192,9.514c15.4-22.336,87.682.793,161.432,51.662S425.67,171.389,410.263,193.725s-87.682-.793-161.431-51.662S127.785,31.851,143.192,9.514Z" fill="none" stroke="#001eff" stroke-linecap="round" stroke-linejoin="round" stroke-width="2"/>
  <path class="dashed-line" d="M30.829,316.582c-1.849.519-7.767,2.3-16.418,4.827C4.272,324.366.5,332.285,0.5,342.637V776.652" fill="none" stroke="#003cff" stroke-linecap="round" stroke-linejoin="round" stroke-dasharray="2.981 2.981"/>
  <path class="dashed-line" d="M115.833,295.762s13.93-2.76,20.594-4.2c6-1.167,9.394-5.374,12.026-8.866C152.765,277.175,178,245.6,178,245.6" fill="none" stroke="#003cff" stroke-linecap="round" stroke-linejoin="round" stroke-dasharray="2.981 2.981"/>
  <path d="M192.234,227.447l38.142-30.25m-28.2-18.876-14.433,46.305" fill="none" stroke="#001eff" stroke-linecap="round" stroke-linejoin="round" stroke-width="1.5"/>
  <path d="M198.376,228.494l59.47-18.54M178.581,155.01l7.47,65.1" fill="none" stroke="#001eff" stroke-linecap="round" stroke-linejoin="round" stroke-width="1.5"/>
  <path d="M408.484,195.876c-28.159,36.868-123.334,36.881-194.2-9.382-69.108-45.113-95.007-135.545-72.354-175.01" fill="none" stroke="#001eff" stroke-linecap="round" stroke-linejoin="round" stroke-width="2"/>
  <path d="M194.456,223.738a12.749,12.749,0,1,0,.2,18.031A12.743,12.743,0,0,0,194.456,223.738Z" fill="none" stroke="#001eff" stroke-linecap="round" stroke-linejoin="round" stroke-width="1.5"/>
  <g>
    <path d="M61.989,321.442a1.677,1.677,0,1,1-1.228,1.614A1.47,1.47,0,0,1,61.989,321.442Z" fill="none" stroke="#001eff" stroke-linecap="round" stroke-linejoin="round" stroke-width="0.8"/>
    <path d="M57.32,322.369a1.662,1.662,0,1,1-1.242,1.614A1.469,1.469,0,0,1,57.32,322.369Z" fill="none" stroke="#001eff" stroke-linecap="round" stroke-linejoin="round" stroke-width="0.8"/>
    <path d="M66.658,320.332a1.678,1.678,0,1,1-1.229,1.618A1.473,1.473,0,0,1,66.658,320.332Z" fill="none" stroke="#001eff" stroke-linecap="round" stroke-linejoin="round" stroke-width="0.8"/>
    <path d="M24.688,292.757l64.605-12.388a7.364,7.364,0,0,1,6.092,1.525l25.748,20.888c1.3,1.285.675,2.693-1.4,3.142L52.459,320.437a7.375,7.375,0,0,1-6.093-1.524L23.28,295.9C21.979,294.616,22.607,293.2,24.688,292.757Z" fill="none" stroke="#001eff" stroke-linecap="round" stroke-linejoin="round" stroke-width="1.2"/>
    <path d="M121.793,304.594v7.21c0,2.552-.887,3.177-2.571,3.566l-66.763,14.4a7.383,7.383,0,0,1-6.093-1.526L23.28,305.233c-0.677-.69-0.748-1.731-0.748-3.175,0-2.186,0-4.266,0-7.061" fill="none" stroke="#001eff" stroke-linecap="round" stroke-linejoin="round" stroke-width="1.2"/>
  </g>
  <g>
    <path d="M259.024,134.346L328.044,40.1" fill="none" stroke="#001eff" stroke-linecap="round" stroke-linejoin="round" stroke-width="2"/>
    <path d="M190.167,54.3L321.3,33.367m16.115,10.907,17.9,120.977" fill="none" stroke="#001eff" stroke-linecap="round" stroke-linejoin="round" stroke-width="2"/>
    <path d="M341.241,33.795c2.437,2.672,3.522,5.207,3.013,6.669-0.588,1.726-7.6.937-13.375-3.005-5.761-3.928-9.085-9.127-7.512-11.226,0.952-1.258,3.741-1.108,7.2.26" fill="none" stroke="#001eff" stroke-linecap="round" stroke-linejoin="round" stroke-width="2"/>
    <path d="M342.206,43.668c-0.588,1.724-7.6.921-13.374-3s-9.648-9.74-8.092-11.837" fill="none" stroke="#001eff" stroke-linecap="round" stroke-linejoin="round" stroke-width="2"/>
    <path d="M329.409,30.351l5.252-6.812m8.622,4.877-5.346,7.951" fill="none" stroke="#001eff" stroke-linecap="round" stroke-linejoin="round" stroke-width="2"/>
    <path d="M331.867,15.658l4.57-6.685c0.711,1.514,3.765,8.818,3.765,8.818l13.728,3.868c1.056,0.337,1.729.52,1.2,1.233l-4.312,6.5c-0.521.715-1.363,0.614-2.375,0.245L335.9,25.888Z" fill="none" stroke="#001eff" stroke-linecap="round" stroke-linejoin="round" stroke-width="2"/>
  </g>
  <path d="M336.438,8.973l14.646,4.044,4.221,9.512" fill="none" stroke="#001eff" stroke-linecap="round" stroke-linejoin="round" stroke-width="2"/>
  <path d="M164.188,136.683c22.854,29.8,74.18,67.306,123.541,80.524" fill="none" stroke="#001eff" stroke-linecap="round" stroke-linejoin="round" opacity="0.8" style="isolation: isolate"/>
  <path d="M158.678,127.565c29.78,35.981,84.2,73.975,143.819,92.442" fill="none" stroke="#001eff" stroke-linecap="round" stroke-linejoin="round" opacity="0.6" style="isolation: isolate"/>
  <path d="M148.4,108.365c43.346,53.8,99.719,89.483,174.053,113.771" fill="none" stroke="#001eff" stroke-linecap="round" stroke-linejoin="round" opacity="0.4" style="isolation: isolate"/>
  <path d="M140.6,87.749c48.738,66.07,119.3,109.08,203.851,134.367" fill="none" stroke="#001eff" stroke-linecap="round" stroke-linejoin="round" opacity="0.2" style="isolation: isolate"/>
  <path d="M182.641,220.439c-3.5,7.766,10.375,15.855,15.611,11.463" fill="none" stroke="#001eff" stroke-linecap="round" stroke-linejoin="round" stroke-width="1.5"/>
  <path d="M141.837,12.592c19.792-17.084,88.621,6.208,158.779,54.6,69.137,47.691,115.28,103.04,108.051,128.15" fill="none" stroke="#001eff" stroke-linecap="round" stroke-linejoin="round" stroke-width="0.8"/>
  <path d="M140.8,16.533c23.021-12.882,88.812,10.441,155.819,56.662,66.474,45.854,111.455,98.592,108.4,124.906" fill="none" stroke="#001eff" stroke-linecap="round" stroke-linejoin="round" stroke-width="0.5"/>
</svg>
