<?xml version="1.0" encoding="UTF-8" standalone="no"?>
<svg width="1098px" height="768px" viewBox="0 0 1098 768" version="1.1" xmlns="http://www.w3.org/2000/svg" xmlns:xlink="http://www.w3.org/1999/xlink" xmlns:sketch="http://www.bohemiancoding.com/sketch/ns">
    <!-- Generator: Sketch 3.4.4 (17249) - http://www.bohemiancoding.com/sketch -->
    <title>lines</title>
    <desc>Created with Sketch.</desc>
    <defs></defs>
    <g id="Page-1" stroke="none" stroke-width="1" fill="none" fill-rule="evenodd" sketch:type="MSPage">
        <g id="lines" sketch:type="MSLayerGroup" transform="translate(1.000000, 0.000000)" stroke="#FFFFFF" stroke-dasharray="3">
            <path d="M236.5,510.5 L321.333336,590.868423 C326.948229,596.187796 337.763303,600.5 345.506142,600.5 L763.06845,600.5 C768.591073,600.5 776.149015,597.253648 779.948495,593.25022 C779.948495,593.25022 796.094003,576.238058 807.606983,564.107088 C809.19812,561.860435 809.412781,555.060146 806.229004,551.34399" id="Line" stroke-linecap="square" sketch:type="MSShapeGroup"></path>
            <path d="M665.5,600.5 C665.5,600.5 680.734446,599.569613 692.337273,609.719188 L834.814865,767.101425" id="Line" stroke-linecap="square" sketch:type="MSShapeGroup"></path>
            <path d="M818.306164,563.046032 C847.774003,589.151141 886.536152,605 929,605 C1021.23155,605 1096,530.231553 1096,438 C1096,345.768447 1021.23155,271 929,271 C836.768447,271 762,345.768447 762,438 C762,481.56417 778.680851,521.232318 806.003833,550.965726" id="Oval-1" sketch:type="MSShapeGroup"></path>
            <path d="M593.5,0.5 L280.5,212.5" id="Line" stroke-linecap="square" sketch:type="MSShapeGroup"></path>
            <path d="M31.5,391.5 L8.25843268,408.395932 C3.79117657,411.643495 0.169749975,418.754306 0.169749975,424.276377 L0.169749975,506.073633 C0.169749975,513.802108 4.91211171,524.168696 10.7606238,529.226768 L134.24791,636.024449" id="Line" stroke-linecap="square" sketch:type="MSShapeGroup"></path>
        </g>
    </g>
</svg>
