<svg xmlns="http://www.w3.org/2000/svg" version="1.1" x="0" y="0" width="595" height="510" viewBox="0 0 595 510" enable-background="new 0 0 595 510" xml:space="preserve">
  <g fill="none" stroke="#DAB7FF" stroke-miterlimit="10">
    <path d="M104.5 145.2l74.7-23.6" style="stroke-dasharray:78.4;stroke-dashoffset:0"/>
    <path d="M124.3 168.4l175.8-57.2" style="stroke-dasharray:184.8;stroke-dashoffset:0"/>
    <path d="M134.6 180.6l175.4-57.9" style="stroke-dasharray:184.7;stroke-dashoffset:0"/>
    <path d="M145 192.7l175-58.6" style="stroke-dasharray:184.5;stroke-dashoffset:0"/>
    <path d="M155.4 204.9l174.6-59.3" style="stroke-dasharray:184.4;stroke-dashoffset:0"/>
    <path opacity="0.8" d="M231 283.4c-43.5-87.8-26.3-86.4 31.2-34.3 60.4 54.6 82.7 63 53.3 0.7-24.2-51.4-13.5-55.5 20.8-22.8 51.7 49.3 42.5 12.5 5.7-56" style="stroke-dasharray:478.5;stroke-dashoffset:0"/>
    <path d="M381 306.4l68.9-27.1" style="stroke-dasharray:74.1;stroke-dashoffset:0"/>
    <path d="M391.5 318.6l68.8-27.4M402.1 330.8l68.6-27.7" style="stroke-dasharray:74;stroke-dashoffset:0"/>
    <path d="M412.7 343.1l68.4-28M423.3 355.4l68.2-28.3" style="stroke-dasharray:73.9;stroke-dashoffset:0"/>
    <path d="M276.1 347.6l73.6-28.9" style="stroke-dasharray:79.1;stroke-dashoffset:0"/>
    <path d="M286.9 360.2l73.4-29.2M297.7 372.9l73.3-29.6" style="stroke-dasharray:79;stroke-dashoffset:0"/>
    <path d="M308.6 385.7l73.1-29.9" style="stroke-dasharray:78.9;stroke-dashoffset:0"/>
    <path d="M319.4 398.4l72.9-30.2"/>
  </g>
</svg>
