<svg xmlns="http://www.w3.org/2000/svg" xmlns:xlink="http://www.w3.org/1999/xlink" version="1.1" x="0" y="0" width="350" height="350" viewBox="0 0 350 350" enable-background="new 0 0 350 350" xml:space="preserve">

<g id="onvif-state-1">
<path opacity="0.4" id="onvf1" fill-rule="evenodd" clip-rule="evenodd" fill="none" stroke="#B194FF" stroke-miterlimit="10" d="M180.02 68.89l19.53 67.17"/>
<path opacity="0.4" id="onvf2" fill-rule="evenodd" clip-rule="evenodd" fill="none" stroke="#B194FF" stroke-miterlimit="10" d="M199.54 136.06l52.01-22.35"/>
<path opacity="0.4" id="onvf3" fill-rule="evenodd" clip-rule="evenodd" fill="none" stroke="#B194FF" stroke-miterlimit="10" d="M81.34 212.37l64.82-32.99L84.2 152.54l65.29-29.15"/>
<path opacity="0.4" id="onvf4" fill-rule="evenodd" clip-rule="evenodd" fill="none" stroke="#B194FF" stroke-miterlimit="10" d="M24.34 116.22l41-5.75 43.83-67.01"/>
<path opacity="0.4" id="onvf5" fill-rule="evenodd" clip-rule="evenodd" fill="none" stroke="#B194FF" stroke-miterlimit="10" d="M176.83 298.06l82.21-29.58"/>
<path opacity="0.4" id="onvf6" fill-rule="evenodd" clip-rule="evenodd" fill="none" stroke="#B194FF" stroke-miterlimit="10" d="M291.4 131.04l-6.71 51.6"/>
<path opacity="0.4" id="onvf7" fill-rule="evenodd" clip-rule="evenodd" fill="none" stroke="#B194FF" stroke-miterlimit="10" d="M98.46 95.97l81.55-27.09"/>
<path opacity="0.3" id="onvf8" fill-rule="evenodd" clip-rule="evenodd" fill="none" stroke="#B194FF" stroke-miterlimit="10" d="M256.86 183.5l-57.32-47.44 -2.83 76.05 -55.88 35.35 5.33-68.08 3.33-55.98L98.46 95.97 84.2 152.54l-2.86 59.83 57.91 37.1 79.73 9.07 -22.27-46.43 62.33 56.37L256.86 183.5l-5.31-69.79 -20.3-51.87 -31.71 74.23"/>
<path opacity="0.3" id="onvf9" fill-rule="evenodd" clip-rule="evenodd" fill="none" stroke="#B194FF" stroke-miterlimit="10" d="M134.67 6.32l45.34 62.56 51.24-7.05 60.14 69.21 -39.85-17.34 33.14 68.94 -27.83 0.85 26.51 49.57 -24.34 35.4 -40.06-9.94 -42.15 39.52 -60.06 11.02 22.17-60.98 -67.01 2.64 9.41-38.36 -34.48-31.27L84.2 152.54l-18.86-42.08 33.12-14.53 10.72-52.48 70.84 25.43 -30.53 54.51 50.06 12.67 -53.39 43.32 50.55 32.73 60.15-28.61"/>
<path opacity="0.4" id="onvf10" fill-rule="evenodd" clip-rule="evenodd" fill="none" stroke="#DDDCFF" stroke-miterlimit="10" d="M231.26 61.83l41.76-20.71 18.38 89.92 53.99 18.47 -62.01 83.56 12.41 28.23 -36.75 7.17 -7.36 49.26 -74.85-19.67 -36.33 45.03 -23.74-34.01 -53.4-6.81 8.56-51.53L4.64 181.03l42.22 0.07 18.48-70.63 -8.16-56.79 51.99-10.22 25.5-37.14L231.26 61.83z"/>
<path opacity="0.5" id="onvf11" fill-rule="evenodd" clip-rule="evenodd" fill="none" stroke="#DEDCFF" stroke-width="1.2" stroke-miterlimit="10" d="M192.68 17.9l80.34 23.22 39.65 64.81 32.72 43.58 -60.87 33.9 47.83 39.19 -36.56 38.7 -44.1 56.43 -63.41 8.64 -47.77 16.72 -22.2-58.54L63.37 302.27l-21.91-53.45L4.64 181.03l20.18-63.64 32.02-63.01 56.85 14.51 20.99-62.56L192.68 17.9z"/>
<path opacity="0.6" id="onvf12" fill-rule="evenodd" clip-rule="evenodd" fill="none" stroke="#DEDCFF" stroke-miterlimit="10" d="M63.37 302.27l77.13 40.83"/>
<path opacity="0.6" id="onvf13" fill-rule="evenodd" clip-rule="evenodd" fill="none" stroke="#DEDCFF" stroke-miterlimit="10" d="M56.47 53.59l78.2-47.26"/>
<path opacity="0.6" id="onvf14" fill-rule="evenodd" clip-rule="evenodd" fill="none" stroke="#DEDCFF" stroke-miterlimit="10" d="M345.38 149.51l-13.03 73.09"/>
<path opacity="0.8" id="onvf15" fill-rule="evenodd" clip-rule="evenodd" fill="none" stroke="#C7B0FF" stroke-width="1.2" stroke-miterlimit="10" d="M213.34 106.02l99.33-0.08 -28.15 77.48 11.27 77.89 -82.42-19.35 -25.1 84.41 -70.13-41.94 -76.68-35.61 48.88-70.23 -65.52-61.19 88.87-48.5L192.68 17.9 213.34 106.02z"/>
<path id="onvf16" fill-rule="evenodd" clip-rule="evenodd" fill="none" stroke="#C3BBFF" stroke-width="1.2" stroke-miterlimit="10" d="M213.34 106.02l71.35 76.63 -71.32 59.31 -95.83 42.71L90.74 179.16l22.95-110.28L213.34 106.02"/>
<path id="onvf17" fill-rule="evenodd" clip-rule="evenodd" fill="none" stroke="#D2CAFF" stroke-width="1.5" stroke-miterlimit="10" d="M88.13 179.73l125.21-73.71 0.03 135.94L88.13 179.73"/>
<path opacity="0.7" id="onvf18" fill-rule="evenodd" clip-rule="evenodd" fill="none" stroke="#DBD9FF" stroke-width="1.2" stroke-miterlimit="10" d="M192.68 17.9l119.99 88.04"/>
<path opacity="0.7" id="onvf19" fill-rule="evenodd" clip-rule="evenodd" fill="none" stroke="#DBD9FF" stroke-width="1.2" stroke-miterlimit="10" d="M24.82 117.39l16.64 131.42"/>
<path opacity="0.7" id="onvf20" fill-rule="evenodd" clip-rule="evenodd" fill="none" stroke="#DBD9FF" stroke-width="1.2" stroke-miterlimit="10" d="M188.27 326.37l107.52-65.06"/>
<path id="onvf21" fill-rule="evenodd" clip-rule="evenodd" fill="#8452FF" d="M257.83 182.35c0.69 0.54 0.81 1.54 0.26 2.22 -0.54 0.69-1.54 0.81-2.22 0.26 -0.69-0.54-0.8-1.54-0.26-2.22C256.15 181.92 257.15 181.8 257.83 182.35z"/>
<path id="onvf22" fill-rule="evenodd" clip-rule="evenodd" fill="#8452FF" d="M252.69 112.72c0.69 0.54 0.81 1.54 0.26 2.23 -0.54 0.69-1.54 0.8-2.23 0.26 -0.69-0.54-0.8-1.54-0.26-2.22C251.01 112.3 252 112.18 252.69 112.72z"/>
<path id="onvf23" fill-rule="evenodd" clip-rule="evenodd" fill="#8452FF" d="M180.98 67.64c0.69 0.54 0.81 1.54 0.26 2.22 -0.54 0.69-1.54 0.8-2.22 0.26 -0.69-0.54-0.8-1.54-0.26-2.22C179.3 67.22 180.29 67.1 180.98 67.64z"/>
<path id="onvf24" fill-rule="evenodd" clip-rule="evenodd" fill="#8452FF" d="M99.6 94.99c0.69 0.54 0.81 1.54 0.26 2.23 -0.54 0.69-1.54 0.8-2.22 0.26 -0.69-0.54-0.8-1.54-0.26-2.22C97.92 94.56 98.91 94.45 99.6 94.99z"/>
<path id="onvf25" fill-rule="evenodd" clip-rule="evenodd" fill="#8452FF" d="M85.37 151.3c0.69 0.54 0.8 1.54 0.26 2.22 -0.54 0.69-1.54 0.81-2.22 0.26 -0.69-0.54-0.8-1.54-0.26-2.22C83.69 150.88 84.68 150.76 85.37 151.3z"/>
<path id="onvf26" fill-rule="evenodd" clip-rule="evenodd" fill="#8452FF" d="M82.5 211.25c0.69 0.54 0.8 1.54 0.26 2.22 -0.54 0.69-1.54 0.8-2.22 0.26 -0.69-0.54-0.8-1.54-0.26-2.22C80.81 210.82 81.81 210.7 82.5 211.25z"/>
<path id="onvf27" fill-rule="evenodd" clip-rule="evenodd" fill="#8452FF" d="M140.48 248.13c0.69 0.54 0.8 1.54 0.26 2.23 -0.54 0.69-1.54 0.8-2.22 0.26 -0.69-0.54-0.8-1.54-0.26-2.22C138.8 247.7 139.8 247.59 140.48 248.13z"/>
<path id="onvf28" fill-rule="evenodd" clip-rule="evenodd" fill="#8452FF" d="M220.08 257.63c0.69 0.54 0.81 1.54 0.26 2.22 -0.54 0.69-1.54 0.8-2.22 0.26 -0.69-0.54-0.8-1.54-0.26-2.22C218.4 257.2 219.4 257.08 220.08 257.63z"/>
<path id="onvf29" fill-rule="evenodd" clip-rule="evenodd" fill="#8452FF" d="M200.39 135.44c0.49 0.38 0.57 1.09 0.19 1.58 -0.38 0.49-1.09 0.57-1.57 0.19 -0.48-0.38-0.57-1.09-0.18-1.57C199.2 135.14 199.91 135.05 200.39 135.44z"/>
<path id="onvf30" fill-rule="evenodd" clip-rule="evenodd" fill="#8452FF" d="M150.19 122.47c0.49 0.38 0.57 1.09 0.18 1.58 -0.38 0.49-1.09 0.57-1.57 0.19 -0.49-0.38-0.57-1.09-0.19-1.57C149 122.17 149.7 122.09 150.19 122.47z"/>
<path id="onvf31" fill-rule="evenodd" clip-rule="evenodd" fill="#8452FF" d="M146.85 178.5c0.49 0.38 0.57 1.09 0.19 1.57s-1.09 0.57-1.57 0.19c-0.49-0.38-0.57-1.09-0.19-1.57C145.66 178.2 146.37 178.11 146.85 178.5z"/>
<path id="onvf32" fill-rule="evenodd" clip-rule="evenodd" fill="#8452FF" d="M197.41 211.29c0.48 0.38 0.57 1.09 0.19 1.57 -0.38 0.49-1.09 0.57-1.58 0.19 -0.48-0.38-0.57-1.09-0.19-1.57C196.21 210.99 196.92 210.9 197.41 211.29z"/>
<path id="onvf33" fill-rule="evenodd" clip-rule="evenodd" fill="#D4D8FF" d="M314.36 103.37c1.42 1.12 1.66 3.18 0.54 4.6 -1.12 1.42-3.18 1.66-4.59 0.54 -1.42-1.12-1.66-3.18-0.54-4.59C310.89 102.49 312.94 102.25 314.36 103.37z"/>
<path id="onvf34" fill-rule="evenodd" clip-rule="evenodd" fill="#D4D8FF" d="M43.81 245.91c1.57 1.24 1.84 3.52 0.6 5.09 -1.24 1.57-3.52 1.84-5.09 0.6 -1.57-1.24-1.84-3.52-0.6-5.09C39.96 244.94 42.24 244.67 43.81 245.91z"/>
<path id="onvf35" fill-rule="evenodd" clip-rule="evenodd" fill="#B6AEFF" d="M297.69 258.37c1.59 1.26 1.86 3.57 0.61 5.16 -1.26 1.59-3.57 1.86-5.16 0.61 -1.59-1.26-1.86-3.57-0.61-5.16C293.78 257.39 296.09 257.12 297.69 258.37z"/>
<path id="onvf36" fill-rule="evenodd" clip-rule="evenodd" fill="#B6AEFF" d="M27.14 114.31c1.65 1.3 1.93 3.69 0.63 5.34 -1.3 1.65-3.69 1.93-5.34 0.63 -1.65-1.3-1.93-3.69-0.63-5.34C23.1 113.29 25.49 113.01 27.14 114.31z"/>
<path id="onvf37" fill-rule="evenodd" clip-rule="evenodd" fill="#B6AEFF" d="M194.88 14.97c1.61 1.27 1.89 3.61 0.62 5.22 -1.27 1.61-3.61 1.89-5.22 0.62 -1.61-1.27-1.89-3.61-0.61-5.22C190.93 13.97 193.27 13.7 194.88 14.97z"/>
<path id="onvf38" fill-rule="evenodd" clip-rule="evenodd" fill="#B6AEFF" d="M346.84 146.88c1.37 1.08 1.6 3.07 0.52 4.44 -1.08 1.37-3.07 1.6-4.44 0.52 -1.37-1.08-1.6-3.07-0.52-4.44C343.48 146.03 345.47 145.8 346.84 146.88z"/>
<path id="onvf39" fill-rule="evenodd" clip-rule="evenodd" fill="#B6AEFF" d="M333.94 219.88c1.42 1.12 1.66 3.18 0.54 4.6 -1.12 1.42-3.18 1.66-4.6 0.54 -1.42-1.12-1.66-3.18-0.54-4.6C330.46 219 332.52 218.76 333.94 219.88z"/>
<path id="onvf40" fill-rule="evenodd" clip-rule="evenodd" fill="#B6AEFF" d="M252.96 315.26c1.15 0.91 1.35 2.58 0.44 3.73 -0.91 1.15-2.58 1.35-3.73 0.44 -1.15-0.91-1.35-2.58-0.44-3.73C250.14 314.54 251.81 314.35 252.96 315.26z"/>
<path id="onvf41" fill-rule="evenodd" clip-rule="evenodd" fill="#B6AEFF" d="M142.17 340.97c1 0.79 1.17 2.24 0.38 3.25 -0.79 1-2.24 1.17-3.24 0.38 -1-0.79-1.17-2.24-0.38-3.24C139.72 340.35 141.17 340.18 142.17 340.97z"/>
<path id="onvf42" fill-rule="evenodd" clip-rule="evenodd" fill="#B6AEFF" d="M65.51 299.71c1.29 1.01 1.51 2.88 0.49 4.16 -1.01 1.29-2.88 1.51-4.16 0.49 -1.28-1.01-1.5-2.88-0.49-4.17C62.36 298.92 64.22 298.7 65.51 299.71z"/>
<path id="onvf43" fill-rule="evenodd" clip-rule="evenodd" fill="#B6AEFF" d="M6.53 178.63c1.33 1.05 1.55 2.97 0.51 4.29 -1.05 1.33-2.97 1.55-4.29 0.51 -1.32-1.05-1.55-2.97-0.51-4.29C3.29 177.81 5.21 177.59 6.53 178.63z"/>
<path id="onvf44" fill-rule="evenodd" clip-rule="evenodd" fill="#B6AEFF" d="M59.04 51.43c1.31 1.03 1.53 2.93 0.5 4.24 -1.03 1.31-2.93 1.53-4.24 0.5 -1.31-1.03-1.53-2.93-0.5-4.24C55.83 50.62 57.73 50.4 59.04 51.43z"/>
<path id="onvf45" fill-rule="evenodd" clip-rule="evenodd" fill="#B6AEFF" d="M136.53 3.98c1.3 1.02 1.52 2.91 0.49 4.2 -1.02 1.3-2.9 1.52-4.2 0.5 -1.3-1.02-1.52-2.91-0.5-4.2C133.35 3.17 135.23 2.95 136.53 3.98z"/>
<path id="onvf46" fill-rule="evenodd" clip-rule="evenodd" fill="#B6AEFF" d="M274.86 38.82c1.3 1.02 1.52 2.9 0.49 4.2s-2.9 1.52-4.2 0.49c-1.3-1.02-1.52-2.9-0.5-4.2S273.57 37.8 274.86 38.82z"/>
<path id="onvf47" fill-rule="evenodd" clip-rule="evenodd" fill="#B6AEFF" d="M190.81 322.59c1.9 1.5 2.22 4.25 0.72 6.14 -1.49 1.9-4.24 2.22-6.14 0.72s-2.22-4.25-0.72-6.14C186.17 321.42 188.92 321.09 190.81 322.59z"/>
<path id="onvf48" fill-rule="evenodd" clip-rule="evenodd" fill="#8971FF" d="M232.84 59.82c1.11 0.88 1.3 2.49 0.42 3.6 -0.87 1.11-2.49 1.3-3.6 0.42 -1.11-0.88-1.3-2.49-0.42-3.6C230.12 59.14 231.73 58.95 232.84 59.82z"/>
<path id="onvf49" fill-rule="evenodd" clip-rule="evenodd" fill="#8971FF" d="M292.98 129.03c1.11 0.88 1.3 2.49 0.43 3.6 -0.87 1.11-2.49 1.3-3.6 0.42 -1.11-0.88-1.3-2.49-0.42-3.6C290.26 128.35 291.87 128.16 292.98 129.03z"/>
<path id="onvf50" fill-rule="evenodd" clip-rule="evenodd" fill="#8971FF" d="M110.92 41.71c1.11 0.88 1.3 2.49 0.42 3.6 -0.88 1.11-2.49 1.3-3.6 0.42 -1.11-0.88-1.3-2.49-0.42-3.6S109.81 40.83 110.92 41.71z"/>
<path id="onvf51" fill-rule="evenodd" clip-rule="evenodd" fill="#8971FF" d="M67.12 108.46c1.11 0.88 1.3 2.49 0.42 3.6s-2.49 1.3-3.6 0.42c-1.11-0.88-1.3-2.49-0.42-3.6C64.4 107.77 66.01 107.58 67.12 108.46z"/>
<path id="onvf52" fill-rule="evenodd" clip-rule="evenodd" fill="#8971FF" d="M48.63 179.18c1.11 0.88 1.3 2.49 0.42 3.6 -0.88 1.11-2.49 1.3-3.6 0.42 -1.11-0.88-1.3-2.49-0.42-3.6C45.9 178.49 47.52 178.3 48.63 179.18z"/>
<path id="onvf53" fill-rule="evenodd" clip-rule="evenodd" fill="#8971FF" d="M73.71 248.75c1.11 0.88 1.3 2.49 0.42 3.6 -0.88 1.11-2.49 1.3-3.6 0.42 -1.11-0.88-1.3-2.49-0.42-3.6C70.99 248.06 72.6 247.87 73.71 248.75z"/>
<path id="onvf54" fill-rule="evenodd" clip-rule="evenodd" fill="#8971FF" d="M118.33 307.07c1.11 0.88 1.3 2.49 0.42 3.6 -0.88 1.11-2.49 1.3-3.6 0.42 -1.11-0.88-1.3-2.49-0.42-3.6C115.6 306.38 117.21 306.19 118.33 307.07z"/>
<path id="onvf55" ill-rule="evenodd" clip-rule="evenodd" fill="#8971FF" d="M178.61 295.99c1.11 0.88 1.3 2.49 0.42 3.6 -0.88 1.11-2.49 1.3-3.6 0.43 -1.11-0.87-1.3-2.49-0.42-3.6C175.89 295.31 177.5 295.12 178.61 295.99z"/>
<path id="onvf56" fill-rule="evenodd" clip-rule="evenodd" fill="#8971FF" d="M260.57 266.48c1.11 0.88 1.3 2.49 0.42 3.6 -0.87 1.11-2.48 1.3-3.6 0.42 -1.11-0.88-1.3-2.49-0.42-3.6C257.85 265.79 259.46 265.6 260.57 266.48z"/>
<path id="onvf57" fill-rule="evenodd" clip-rule="evenodd" fill="#8971FF" d="M284.43 231.06c1.11 0.88 1.3 2.49 0.43 3.6 -0.88 1.11-2.49 1.3-3.6 0.43 -1.11-0.88-1.3-2.49-0.42-3.6C281.71 230.38 283.32 230.19 284.43 231.06z"/>
<path id="onvf58" fill-rule="evenodd" clip-rule="evenodd" fill="#FFFFFF" d="M93.99 174c2.61 2.06 3.06 5.85 1 8.47 -2.06 2.61-5.85 3.06-8.47 1 -2.61-2.06-3.06-5.85-1-8.47C87.59 172.38 91.38 171.94 93.99 174z"/>
<path id="onvf59" fill-rule="evenodd" clip-rule="evenodd" fill="#FFFFFF" d="M216.72 101.4c2.5 1.98 2.93 5.61 0.95 8.12 -1.98 2.51-5.61 2.93-8.11 0.96 -2.5-1.98-2.93-5.61-0.95-8.12C210.58 99.85 214.21 99.42 216.72 101.4z"/>
<path id="onvf60" fill-rule="evenodd" clip-rule="evenodd" fill="#FFFFFF" d="M216.59 237.88c2.25 1.78 2.64 5.04 0.86 7.3 -1.78 2.25-5.04 2.64-7.29 0.86 -2.25-1.78-2.63-5.04-0.86-7.29C211.07 236.49 214.34 236.1 216.59 237.88z"/>
<path id="onvf61" fill-rule="evenodd" clip-rule="evenodd" fill="#FFFFFF" d="M287.21 179.74c1.86 1.46 2.17 4.15 0.71 6.01 -1.46 1.85-4.15 2.17-6.01 0.71 -1.85-1.46-2.17-4.15-0.7-6.01C282.67 178.59 285.35 178.27 287.21 179.74z"/>
<path id="onvf62" fill-rule="evenodd" clip-rule="evenodd" fill="#FFFFFF" d="M120.84 280.82c1.82 1.44 2.13 4.07 0.69 5.89s-4.07 2.13-5.88 0.69c-1.82-1.43-2.13-4.07-0.69-5.88C116.39 279.7 119.03 279.39 120.84 280.82z"/>
<path id="onvf63" fill-rule="evenodd" clip-rule="evenodd" fill="#FFFFFF" d="M116.16 65.78c1.74 1.37 2.03 3.89 0.66 5.62 -1.37 1.74-3.89 2.03-5.62 0.66 -1.73-1.37-2.03-3.88-0.66-5.62C111.91 64.7 114.42 64.41 116.16 65.78z"/>
</g>

<g id="onvif-state-2" style="display: none">
<path id="onvf1" opacity="0.4" fill="none" stroke="#B194FF" stroke-miterlimit="10" enable-background="new    " d="M180.02,58.89
l36.083,94.516"/>
<path id="onvf2" opacity="0.4" fill="none" stroke="#B194FF" stroke-miterlimit="10" enable-background="new    " d="
M216.093,153.406l35.457-39.696"/>
<path id="onvf3" opacity="0.4" fill="none" stroke="#B194FF" stroke-miterlimit="10" enable-background="new    " d="M86.34,212.37
l59.82-32.99L84.2,152.54l60.29-29.15"/>
<path id="onvf4" opacity="0.4" fill="none" stroke="#B194FF" stroke-miterlimit="10" enable-background="new    " d="M14.34,106.22
l41,4.25l53.83-57.01"/>
<path id="onvf5" opacity="0.4" fill="none" stroke="#B194FF" stroke-miterlimit="10" enable-background="new    " d="
M176.83,298.061l86.21-19.58"/>
<path id="onvf6" opacity="0.4" fill="none" stroke="#B194FF" stroke-miterlimit="10" enable-background="new    " d="M291.4,131.04
l-13.711,51.601"/>
<path id="onvf7" opacity="0.4" fill="none" stroke="#B194FF" stroke-miterlimit="10" enable-background="new    " d="M98.46,95.97
l81.55-37.09"/>
<path id="onvf8" opacity="0.3" fill="none" stroke="#B194FF" stroke-miterlimit="10" enable-background="new    " d="
M237.859,183.5l-21.767-30.094l-29.383,48.703l-47.46,47.361l6.91-70.091l-1.67-55.98L98.46,95.97L84.2,152.54l2.14,59.83
l52.91,37.101l78.973,17.786l-31.513-65.147l76.33,76.371L237.859,183.5l13.69-69.79l-20.3-50.87l-15.157,91.576"/>
<path id="onvf9" opacity="0.3" fill="none" stroke="#B194FF" stroke-miterlimit="10" enable-background="new    " d="M134.67,26.32
l45.34,32.56l51.24,2.95l60.141,69.21L251.54,113.7l26.14,68.94l-39.83,0.85l41.51,49.57l-16.34,45.399l-44.817-11.224
l-41.392,30.804l-60.061,9.021l22.5-57.59l-62.34,1.25l9.41-38.361l-49.48-31.27l47.36-28.55l-28.86-42.08l43.12-14.53l10.72-42.48
l70.839,5.43l-35.529,64.51l71.612,30.016L146.16,179.38l40.55,22.729l51.149-18.609"/>
<path id="onvf10" opacity="0.4" fill="none" stroke="#DDDCFF" stroke-miterlimit="10" enable-background="new    " d="
M231.26,61.83l41.76-20.71l18.381,89.92l48.989,19.47l-61.01,82.561l26.41,38.229l-42.75,7.171l-11.36,33.26l-74.85-13.67
L140.5,324.09l-23.74-17.01l-54.4-4.811l14.56-51.529L7.64,181.029l29.22,0.07l18.48-70.629l11.84-46.79l41.99-10.22l25.5-27.14
L231.26,61.83z"/>
<path id="onvf11" opacity="0.5" fill="none" stroke="#DEDCFF" stroke-width="1.2" stroke-miterlimit="10" enable-background="new    " d="M196.68,19.9l76.34,21.22l44.65,64.81l22.72,44.58l-62.87,32.9l54.83,39.189l-26.56,48.7l-54.101,40.431l-63.41,14.64l-47.77-2.28
l-22.2-39.54l-55.94,17.72L31.46,248.82L7.64,181.029l7.18-73.639l52.02-43.01l56.85,4.51l10.99-42.56L196.68,19.9z"/>
<path id="onvf12" opacity="0.6" fill="none" stroke="#DEDCFF" stroke-miterlimit="10" enable-background="new    " d="
M62.37,302.27l78.13,21.83"/>
<path id="onvf13" opacity="0.6" fill="none" stroke="#DEDCFF" stroke-miterlimit="10" enable-background="new    " d="M66.47,63.59
l68.2-37.26"/>
<path id="onvf14" opacity="0.6" fill="none" stroke="#DEDCFF" stroke-miterlimit="10" enable-background="new    " d="
M340.38,150.51l-8.03,72.09"/>
<path id="onvf15" opacity="0.8" fill="none" stroke="#C7B0FF" stroke-width="1.2" stroke-miterlimit="10" enable-background="new    " d="M192.429,118.246L317.67,105.94l-40.15,77.48l28.271,87.891l-85.862-45.993L188.27,326.37l-70.129-41.94L31.46,248.82
l74.908-61.588L14.82,107.4l108.87-38.5l72.99-49L192.429,118.246z"/>
<path id="onvf16" fill="none" stroke="#C3BBFF" stroke-width="1.2" stroke-miterlimit="10" d="M192.429,118.246l85.261,64.404
l-57.762,42.667L117.54,284.67l-10.771-96.867L123.69,68.88L192.429,118.246"/>
<path id="onvf17" fill="none" stroke="#D2CAFF" stroke-width="1.5" stroke-miterlimit="10" d="M106.368,187.232l86.061-68.986
l27.499,107.071l-115.77-36.944"/>
<path id="onvf18" opacity="0.7" fill="none" stroke="#DBD9FF" stroke-width="1.2" stroke-miterlimit="10" enable-background="new    " d="M196.68,19.9l120.99,86.04"/>
<path id="onvf19" opacity="0.7" fill="none" stroke="#DBD9FF" stroke-width="1.2" stroke-miterlimit="10" enable-background="new    " d="M14.82,107.39l16.64,141.42"/>
<path id="onvf20" opacity="0.7" fill="none" stroke="#DBD9FF" stroke-width="1.2" stroke-miterlimit="10" enable-background="new    " d="M188.27,326.37l117.521-55.06"/>
<path id="onvf21" fill="#8452FF" d="M238.83,182.35c0.689,0.541,0.811,1.541,0.26,2.221c-0.54,0.689-1.54,0.81-2.22,0.26
c-0.69-0.54-0.8-1.54-0.261-2.221C237.15,181.92,238.15,181.8,238.83,182.35z"/>
<path id="onvf22" fill="#8452FF" d="M252.689,112.72c0.69,0.54,0.811,1.54,0.261,2.23c-0.54,0.69-1.54,0.8-2.229,0.26
c-0.691-0.54-0.801-1.54-0.261-2.22C251.01,112.3,252,112.18,252.689,112.72z"/>
<path id="onvf23" fill="#8452FF" d="M180.98,57.64c0.689,0.54,0.81,1.54,0.26,2.22c-0.54,0.69-1.54,0.8-2.221,0.26
c-0.689-0.54-0.799-1.54-0.26-2.22C179.3,57.22,180.29,57.1,180.98,57.64z"/>
<path id="onvf24" fill="#8452FF" d="M99.6,94.99c0.69,0.54,0.81,1.54,0.26,2.23c-0.54,0.69-1.54,0.8-2.22,0.26
c-0.69-0.54-0.8-1.54-0.26-2.22C97.92,94.56,98.91,94.45,99.6,94.99z"/>
<path id="onvf25" fill="#8452FF" d="M85.37,151.3c0.69,0.54,0.8,1.54,0.26,2.22c-0.54,0.69-1.54,0.81-2.22,0.26
c-0.69-0.54-0.8-1.54-0.26-2.22S84.68,150.76,85.37,151.3z"/>
<path id="onvf26" fill="#8452FF" d="M87.5,211.25c0.69,0.54,0.8,1.54,0.26,2.221c-0.54,0.689-1.54,0.799-2.22,0.26
c-0.69-0.541-0.8-1.541-0.26-2.221C85.81,210.82,86.81,210.7,87.5,211.25z"/>
<path id="onvf27" fill="#8452FF" d="M140.48,248.13c0.69,0.54,0.8,1.54,0.26,2.229c-0.54,0.69-1.54,0.801-2.22,0.261
c-0.69-0.54-0.8-1.54-0.26-2.22C138.8,247.7,139.8,247.59,140.48,248.13z"/>
<path id="onvf28" fill="#8452FF" d="M219.322,266.347c0.689,0.54,0.811,1.54,0.26,2.22c-0.54,0.69-1.54,0.801-2.22,0.26
c-0.69-0.539-0.8-1.539-0.261-2.219C217.643,265.917,218.643,265.797,219.322,266.347z"/>
<path id="onvf29" fill="#8452FF" d="M216.943,152.786c0.489,0.38,0.569,1.09,0.189,1.58c-0.38,0.49-1.09,0.57-1.57,0.19
s-0.57-1.09-0.18-1.57C215.753,152.486,216.463,152.396,216.943,152.786z"/>
<path id="onvf30" fill="#8452FF" d="M145.19,122.47c0.49,0.38,0.57,1.09,0.18,1.58c-0.38,0.49-1.09,0.57-1.57,0.19
c-0.49-0.38-0.57-1.09-0.19-1.57C144,122.17,144.7,122.09,145.19,122.47z"/>
<path id="onvf31" fill="#8452FF" d="M146.85,178.5c0.49,0.38,0.57,1.09,0.19,1.57c-0.38,0.479-1.09,0.57-1.57,0.189
c-0.49-0.38-0.57-1.09-0.19-1.57C145.66,178.2,146.37,178.109,146.85,178.5z"/>
<path id="onvf32" fill="#8452FF" d="M187.41,201.29c0.48,0.38,0.57,1.09,0.189,1.569c-0.379,0.49-1.09,0.57-1.58,0.19
c-0.479-0.38-0.569-1.09-0.189-1.569C186.21,200.99,186.92,200.9,187.41,201.29z"/>
<path id="onvf33" fill="#D4D8FF" d="M319.36,103.37c1.42,1.12,1.659,3.18,0.54,4.6c-1.12,1.42-3.181,1.66-4.591,0.54
c-1.42-1.12-1.659-3.18-0.54-4.59C315.89,102.49,317.94,102.25,319.36,103.37z"/>
<path id="onvf34" fill="#D4D8FF" d="M33.81,245.91c1.57,1.24,1.84,3.52,0.6,5.09c-1.24,1.57-3.52,1.84-5.09,0.6
c-1.57-1.24-1.84-3.52-0.6-5.09C29.96,244.939,32.24,244.67,33.81,245.91z"/>
<path id="onvf35" fill="#B6AEFF" d="M307.689,268.37c1.59,1.26,1.86,3.569,0.61,5.159c-1.26,1.591-3.569,1.861-5.159,0.611
c-1.591-1.261-1.861-3.57-0.611-5.16S306.09,267.12,307.689,268.37z"/>
<path id="onvf36" fill="#B6AEFF" d="M17.14,104.31c1.65,1.3,1.93,3.69,0.63,5.34s-3.69,1.93-5.34,0.63
c-1.65-1.3-1.93-3.69-0.63-5.34C13.1,103.29,15.49,103.01,17.14,104.31z"/>
<path id="onvf37" fill="#B6AEFF" d="M198.88,16.97c1.61,1.271,1.89,3.61,0.62,5.22s-3.609,1.89-5.221,0.62
c-1.609-1.27-1.889-3.61-0.609-5.22C194.93,15.97,197.27,15.7,198.88,16.97z"/>
<path id="onvf38" fill="#B6AEFF" d="M341.84,147.88c1.37,1.08,1.601,3.07,0.521,4.44c-1.08,1.37-3.07,1.6-4.44,0.52
s-1.6-3.07-0.52-4.44S340.47,146.8,341.84,147.88z"/>
<path id="onvf39" fill="#B6AEFF" d="M333.94,219.88c1.42,1.12,1.659,3.181,0.54,4.601c-1.12,1.42-3.181,1.66-4.601,0.539
c-1.42-1.119-1.66-3.18-0.54-4.6S332.52,218.76,333.94,219.88z"/>
<path id="onvf40" fill="#B6AEFF" d="M252.96,309.26c1.149,0.91,1.351,2.58,0.44,3.73s-2.58,1.35-3.73,0.439s-1.35-2.58-0.439-3.729
C250.141,308.54,251.811,308.35,252.96,309.26z"/>
<path id="onvf41" fill="#B6AEFF" d="M142.17,321.971c1,0.789,1.17,2.239,0.38,3.25c-0.79,1-2.24,1.17-3.24,0.379
c-1-0.789-1.17-2.24-0.38-3.24C139.72,321.35,141.17,321.18,142.17,321.971z"/>
<path id="onvf42" fill="#B6AEFF" d="M64.51,299.71c1.29,1.011,1.51,2.88,0.49,4.16c-1.01,1.29-2.88,1.51-4.16,0.489
c-1.28-1.01-1.5-2.879-0.49-4.17C61.36,298.92,63.22,298.7,64.51,299.71z"/>
<path id="onvf43" fill="#B6AEFF" d="M9.53,178.63c1.33,1.05,1.55,2.97,0.51,4.29c-1.05,1.33-2.97,1.551-4.29,0.51
c-1.32-1.05-1.55-2.97-0.51-4.289C6.29,177.811,8.21,177.59,9.53,178.63z"/>
<path id="onvf44" fill="#B6AEFF" d="M69.04,61.43c1.31,1.03,1.53,2.93,0.5,4.24c-1.03,1.31-2.93,1.53-4.24,0.5
c-1.31-1.03-1.53-2.93-0.5-4.24C65.83,60.62,67.73,60.4,69.04,61.43z"/>
<path id="onvf45" fill="#B6AEFF" d="M136.53,23.98c1.3,1.02,1.52,2.91,0.49,4.2c-1.02,1.3-2.9,1.52-4.2,0.5
c-1.3-1.02-1.52-2.91-0.5-4.2C133.35,23.17,135.23,22.95,136.53,23.98z"/>
<path id="onvf46" fill="#B6AEFF" d="M274.859,38.82c1.301,1.02,1.521,2.9,0.49,4.2c-1.029,1.3-2.899,1.52-4.199,0.49
c-1.301-1.02-1.521-2.9-0.5-4.2C271.67,38.01,273.57,37.8,274.859,38.82z"/>
<path id="onvf47" fill="#B6AEFF" d="M190.811,322.59c1.899,1.5,2.219,4.25,0.719,6.141c-1.489,1.899-4.239,2.22-6.139,0.72
c-1.9-1.5-2.221-4.25-0.721-6.14C186.17,321.42,188.92,321.09,190.811,322.59z"/>
<path id="onvf48" fill="#8971FF" d="M232.84,59.82c1.11,0.88,1.301,2.49,0.42,3.6c-0.869,1.11-2.49,1.3-3.6,0.42
c-1.11-0.88-1.301-2.49-0.42-3.6C230.12,59.14,231.73,58.95,232.84,59.82z"/>
<path id="onvf49" fill="#8971FF" d="M292.98,129.03c1.109,0.88,1.299,2.49,0.43,3.6c-0.87,1.11-2.49,1.3-3.6,0.42
c-1.11-0.88-1.301-2.49-0.42-3.6C290.26,128.35,291.87,128.16,292.98,129.03z"/>
<path id="onvf50" fill="#8971FF" d="M110.92,51.71c1.11,0.88,1.3,2.49,0.42,3.6c-0.88,1.11-2.49,1.3-3.6,0.42
c-1.11-0.88-1.3-2.49-0.42-3.6C108.2,51.02,109.81,50.83,110.92,51.71z"/>
<path id="onvf51" fill="#8971FF" d="M57.12,108.46c1.11,0.88,1.3,2.49,0.42,3.6s-2.49,1.3-3.6,0.42s-1.3-2.49-0.42-3.6
C54.4,107.77,56.01,107.58,57.12,108.46z"/>
<path id="onvf52" fill="#8971FF" d="M38.63,179.18c1.11,0.881,1.3,2.49,0.42,3.6c-0.88,1.111-2.49,1.301-3.6,0.421
c-1.11-0.88-1.3-2.49-0.42-3.601C35.9,178.49,37.52,178.3,38.63,179.18z"/>
<path id="onvf53" fill="#8971FF" d="M78.71,248.75c1.11,0.88,1.3,2.49,0.42,3.6c-0.88,1.11-2.49,1.301-3.6,0.42
c-1.11-0.879-1.3-2.49-0.42-3.6C75.99,248.061,77.6,247.87,78.71,248.75z"/>
<path id="onvf54" fill="#8971FF" d="M118.33,305.07c1.11,0.88,1.3,2.49,0.42,3.6s-2.49,1.301-3.6,0.42
c-1.11-0.88-1.3-2.49-0.42-3.6C115.6,304.38,117.21,304.189,118.33,305.07z"/>
<path id="onvf55" fill="#8971FF" d="M178.609,295.99c1.111,0.88,1.301,2.49,0.42,3.6c-0.879,1.11-2.489,1.301-3.599,0.43
c-1.11-0.869-1.3-2.49-0.42-3.6C175.891,295.311,177.5,295.12,178.609,295.99z"/>
<path id="onvf56" fill="#8971FF" d="M264.57,276.48c1.109,0.879,1.3,2.49,0.42,3.6c-0.87,1.109-2.48,1.3-3.6,0.42
c-1.11-0.88-1.301-2.49-0.42-3.6C261.85,275.79,263.46,275.6,264.57,276.48z"/>
<path id="onvf57" fill="#8971FF" d="M280.43,231.061c1.11,0.879,1.301,2.489,0.43,3.6c-0.879,1.109-2.489,1.3-3.6,0.43
c-1.109-0.88-1.3-2.49-0.42-3.6C277.71,230.38,279.32,230.189,280.43,231.061z"/>
<path id="onvf58" fill="#FFFFFF" d="M110.019,182.643c2.61,2.061,3.06,5.85,1,8.471c-2.06,2.609-5.85,3.059-8.47,1
c-2.61-2.061-3.06-5.851-1-8.471C103.618,181.022,107.408,180.582,110.019,182.643z"/>
<path id="onvf59" fill="#FFFFFF" d="M195.81,113.626c2.5,1.98,2.93,5.61,0.949,8.12c-1.98,2.51-5.609,2.93-8.109,0.96
c-2.5-1.98-2.931-5.61-0.951-8.12C189.669,112.076,193.299,111.646,195.81,113.626z"/>
<path id="onvf60" fill="#FFFFFF" d="M223.147,221.237c2.25,1.78,2.641,5.04,0.86,7.3c-1.78,2.25-5.04,2.641-7.29,0.86
s-2.631-5.04-0.86-7.29C217.628,219.848,220.897,219.457,223.147,221.237z"/>
<path id="onvf61" fill="#FFFFFF" d="M280.21,179.74c1.86,1.46,2.17,4.15,0.71,6.01c-1.46,1.85-4.15,2.17-6.01,0.71
c-1.85-1.46-2.17-4.149-0.7-6.01C275.67,178.59,278.35,178.27,280.21,179.74z"/>
<path id="onvf62" fill="#FFFFFF" d="M120.84,280.82c1.82,1.439,2.13,4.07,0.69,5.89c-1.44,1.82-4.07,2.13-5.88,0.69
c-1.82-1.43-2.13-4.07-0.69-5.881C116.39,279.7,119.03,279.391,120.84,280.82z"/>
<path id="onvf63" fill="#FFFFFF" d="M126.16,65.78c1.74,1.37,2.03,3.89,0.66,5.62c-1.37,1.74-3.89,2.03-5.62,0.66
s-2.03-3.88-0.66-5.62C121.91,64.7,124.42,64.41,126.16,65.78z"/>
</g>

<g id="onvif-state-3" style="display: none">
<path opacity="0.4" fill="none" stroke="#B194FF" stroke-miterlimit="10" enable-background="new    " d="M170.02,78.89
l46.084,74.516"/>
<path opacity="0.4" fill="none" stroke="#B194FF" stroke-miterlimit="10" enable-background="new    " d="
M216.093,153.406l45.457-19.696"/>
<path opacity="0.4" fill="none" stroke="#B194FF" stroke-miterlimit="10" enable-background="new    " d="M86.34,222.37
l69.82-42.99L94.2,132.54l50.29-9.15"/>
<path opacity="0.4" fill="none" stroke="#B194FF" stroke-miterlimit="10" enable-background="new    " d="M24.34,106.22
l31,4.25l53.83-57.01"/>
<path opacity="0.4" fill="none" stroke="#B194FF" stroke-miterlimit="10" enable-background="new    " d="
M176.83,298.061l86.21-19.58"/>
<path opacity="0.4" fill="none" stroke="#B194FF" stroke-miterlimit="10" enable-background="new    " d="M301.4,121.04
l-23.711,71.601"/>
<path opacity="0.4" fill="none" stroke="#B194FF" stroke-miterlimit="10" enable-background="new    " d="M98.46,95.97
l71.55-17.09"/>
<path opacity="0.3" fill="none" stroke="#B194FF" stroke-miterlimit="10" enable-background="new    " d="
M237.859,183.5l-21.768-30.094l-29.383,38.703l-47.46,57.361l16.91-70.092l-11.67-55.98L98.46,95.97l-4.26,36.57l-7.86,89.83
l52.91,27.101l78.973,17.786l-31.513-75.147l76.33,86.371L237.859,183.5l23.689-49.79l-30.3-60.87l-15.157,81.576"/>
<path opacity="0.3" fill="none" stroke="#B194FF" stroke-miterlimit="10" enable-background="new    " d="M144.67,26.32
l25.34,52.56l61.24-7.05l70.141,49.21L261.54,133.7l16.14,58.94l-39.83-9.15l41.51,49.57l-16.34,45.398l-44.816-11.225
l-41.393,30.805l-60.061,9.021l22.5-57.59l-62.34,1.25l9.41-28.361l-39.48-41.271l47.36-48.55l-38.86-22.08l43.12-14.53
l10.72-42.48l60.839,25.43l-25.529,44.51l71.611,30.016L156.16,179.38l30.55,12.729l51.149-8.609"/>
<path opacity="0.4" fill="none" stroke="#DDDCFF" stroke-miterlimit="10" enable-background="new    " d="
M231.26,71.83l41.76-30.71l28.381,79.92l28.989,39.47l-51.01,72.561l26.41,38.229l-42.75,7.171l-11.36,33.26l-74.85-13.67
L130.5,334.09l-13.74-27.01l-64.4-4.811l24.56-51.529L8.64,171.029l38.22,10.07l8.48-70.629l-8.16-66.79l61.99,9.78l35.5-27.14
L231.26,71.83z"/>
<path opacity="0.5" fill="none" stroke="#DEDCFF" stroke-width="1.2" stroke-miterlimit="10" enable-background="new    " d="
M216.68,19.9l56.34,21.22l47.92,56.691l9.45,62.698l-52.87,32.9l64.83,19.189l-36.56,58.699l-54.101,40.432l-63.41,14.64
l-57.771,7.72l-12.2-49.54l-65.94,17.72L21.46,228.82L8.64,171.029l16.18-63.639l22.02-63.01l76.85,24.51l20.99-42.56L216.68,19.9z
"/>
<path opacity="0.6" fill="none" stroke="#DEDCFF" stroke-miterlimit="10" enable-background="new    " d="
M52.37,302.27l78.13,31.83"/>
<path opacity="0.6" fill="none" stroke="#DEDCFF" stroke-miterlimit="10" enable-background="new    " d="M46.47,43.59
l98.2-17.26"/>
<path opacity="0.6" fill="none" stroke="#DEDCFF" stroke-miterlimit="10" enable-background="new    " d="
M330.38,160.51l11.97,52.09"/>
<path opacity="0.8" fill="none" stroke="#C7B0FF" stroke-width="1.2" stroke-miterlimit="10" enable-background="new    " d="
M182.43,108.246l138.51-10.425l-43.42,95.599l28.271,77.891l-66.861-45.992L188.27,326.37l-70.128-41.94L21.46,228.82
l94.908-51.588L24.82,107.4l98.87-38.5l92.99-49L182.43,108.246z"/>
<path fill="none" stroke="#C3BBFF" stroke-width="1.2" stroke-miterlimit="10" d="M182.43,108.246l95.26,84.404
l-38.762,32.666L117.54,284.67l-0.771-106.867L123.69,68.88L182.43,108.246"/>
<path fill="none" stroke="#D2CAFF" stroke-width="1.5" stroke-miterlimit="10" d="M116.368,177.232l66.062-68.986
l56.498,117.07l-124.77-46.943"/>
<path opacity="0.7" fill="none" stroke="#DBD9FF" stroke-width="1.2" stroke-miterlimit="10" enable-background="new    " d="
M216.68,19.9l104.26,77.921"/>
<path opacity="0.7" fill="none" stroke="#DBD9FF" stroke-width="1.2" stroke-miterlimit="10" enable-background="new    " d="
M24.82,107.39l-3.36,121.42"/>
<path opacity="0.7" fill="none" stroke="#DBD9FF" stroke-width="1.2" stroke-miterlimit="10" enable-background="new    " d="
M188.27,326.37l117.521-55.06"/>
<path fill="#8452FF" d="M238.83,182.35c0.689,0.541,0.811,1.541,0.26,2.221c-0.54,0.689-1.54,0.811-2.22,0.261
c-0.69-0.54-0.8-1.54-0.261-2.222C237.15,181.92,238.15,181.8,238.83,182.35z"/>
<path fill="#8452FF" d="M262.689,132.72c0.689,0.54,0.811,1.54,0.261,2.23c-0.54,0.69-1.54,0.8-2.229,0.26
c-0.691-0.54-0.801-1.54-0.261-2.22C261.01,132.3,262,132.18,262.689,132.72z"/>
<path fill="#8452FF" d="M170.98,77.64c0.688,0.54,0.81,1.54,0.26,2.22c-0.54,0.69-1.54,0.8-2.221,0.26
c-0.689-0.54-0.799-1.54-0.261-2.22C169.3,77.22,170.29,77.1,170.98,77.64z"/>
<path fill="#8452FF" d="M99.6,94.99c0.69,0.54,0.81,1.54,0.26,2.23c-0.54,0.69-1.54,0.8-2.22,0.26
c-0.69-0.54-0.8-1.54-0.26-2.22C97.92,94.56,98.91,94.45,99.6,94.99z"/>
<path fill="#8452FF" d="M95.37,131.3c0.69,0.54,0.8,1.54,0.26,2.22c-0.54,0.69-1.54,0.81-2.22,0.26
c-0.69-0.54-0.8-1.54-0.26-2.22S94.68,130.76,95.37,131.3z"/>
<path fill="#8452FF" d="M87.5,221.25c0.69,0.54,0.8,1.54,0.26,2.221c-0.54,0.689-1.54,0.799-2.22,0.26
c-0.69-0.541-0.8-1.541-0.26-2.221C85.81,220.82,86.81,220.7,87.5,221.25z"/>
<path fill="#8452FF" d="M140.48,248.13c0.69,0.54,0.8,1.54,0.26,2.229c-0.54,0.689-1.54,0.801-2.22,0.261
c-0.69-0.54-0.8-1.54-0.26-2.22C138.8,247.7,139.8,247.59,140.48,248.13z"/>
<path fill="#8452FF" d="M219.322,266.348c0.689,0.539,0.811,1.539,0.26,2.219c-0.54,0.69-1.54,0.802-2.221,0.261
c-0.689-0.539-0.799-1.539-0.26-2.22C217.643,265.917,218.643,265.797,219.322,266.348z"/>
<path fill="#8452FF" d="M216.943,152.786c0.488,0.38,0.568,1.09,0.188,1.58c-0.38,0.49-1.09,0.57-1.569,0.19
c-0.48-0.38-0.57-1.09-0.181-1.57C215.753,152.486,216.463,152.396,216.943,152.786z"/>
<path fill="#8452FF" d="M145.19,122.47c0.49,0.38,0.57,1.09,0.18,1.58c-0.38,0.49-1.09,0.57-1.57,0.19
c-0.49-0.38-0.57-1.09-0.19-1.57C144,122.17,144.7,122.09,145.19,122.47z"/>
<path fill="#8452FF" d="M156.85,178.5c0.49,0.38,0.57,1.09,0.19,1.57c-0.38,0.479-1.09,0.57-1.57,0.188
c-0.49-0.38-0.57-1.09-0.19-1.569C155.66,178.2,156.37,178.109,156.85,178.5z"/>
<path fill="#8452FF" d="M187.41,191.29c0.48,0.38,0.57,1.09,0.189,1.569c-0.379,0.49-1.091,0.57-1.58,0.189
c-0.479-0.38-0.569-1.09-0.189-1.568C186.21,190.99,186.92,190.9,187.41,191.29z"/>
<path fill="#D4D8FF" d="M322.63,95.251c1.42,1.12,1.658,3.18,0.54,4.6c-1.12,1.42-3.182,1.66-4.592,0.54
c-1.42-1.12-1.658-3.18-0.54-4.59C319.159,94.372,321.21,94.131,322.63,95.251z"/>
<path fill="#D4D8FF" d="M23.81,225.91c1.57,1.24,1.84,3.52,0.6,5.09c-1.24,1.57-3.52,1.84-5.09,0.6
c-1.57-1.24-1.84-3.52-0.6-5.09C19.96,224.939,22.24,224.67,23.81,225.91z"/>
<path fill="#B6AEFF" d="M307.689,268.37c1.59,1.26,1.859,3.569,0.609,5.159c-1.26,1.591-3.568,1.861-5.158,0.611
c-1.592-1.262-1.861-3.57-0.611-5.16S306.09,267.12,307.689,268.37z"/>
<path fill="#B6AEFF" d="M27.14,104.31c1.65,1.3,1.93,3.69,0.63,5.34s-3.69,1.93-5.34,0.63
c-1.65-1.3-1.93-3.69-0.63-5.34C23.1,103.29,25.49,103.01,27.14,104.31z"/>
<path fill="#B6AEFF" d="M218.88,16.97c1.61,1.271,1.89,3.61,0.62,5.22s-3.609,1.89-5.221,0.62
c-1.609-1.27-1.889-3.61-0.609-5.22C214.93,15.97,217.27,15.7,218.88,16.97z"/>
<path fill="#B6AEFF" d="M331.84,157.88c1.37,1.08,1.602,3.07,0.521,4.44c-1.08,1.37-3.07,1.6-4.44,0.52
s-1.6-3.07-0.52-4.44C328.481,157.03,330.47,156.8,331.84,157.88z"/>
<path fill="#B6AEFF" d="M343.94,209.88c1.42,1.12,1.658,3.181,0.54,4.601c-1.12,1.42-3.182,1.66-4.602,0.539
c-1.42-1.119-1.66-3.18-0.54-4.6S342.52,208.76,343.94,209.88z"/>
<path fill="#B6AEFF" d="M252.96,309.26c1.149,0.91,1.351,2.58,0.44,3.73c-0.911,1.15-2.58,1.35-3.73,0.439
c-1.15-0.912-1.35-2.58-0.439-3.729C250.141,308.54,251.811,308.35,252.96,309.26z"/>
<path fill="#B6AEFF" d="M132.17,331.971c1,0.789,1.17,2.239,0.38,3.25c-0.79,1-2.24,1.17-3.24,0.379
c-1-0.789-1.17-2.24-0.38-3.24C129.72,331.35,131.17,331.18,132.17,331.971z"/>
<path fill="#B6AEFF" d="M54.51,299.71c1.29,1.011,1.51,2.88,0.49,4.16c-1.01,1.29-2.88,1.51-4.16,0.489
c-1.28-1.01-1.5-2.879-0.49-4.17C51.36,298.92,53.22,298.7,54.51,299.71z"/>
<path fill="#B6AEFF" d="M10.53,168.63c1.33,1.05,1.55,2.97,0.51,4.29c-1.05,1.33-2.97,1.551-4.29,0.51
c-1.32-1.05-1.55-2.97-0.51-4.289C7.29,167.811,9.21,167.59,10.53,168.63z"/>
<path fill="#B6AEFF" d="M49.04,41.43c1.31,1.03,1.53,2.93,0.5,4.24c-1.03,1.31-2.93,1.53-4.24,0.5
c-1.31-1.03-1.53-2.93-0.5-4.24C45.83,40.62,47.73,40.4,49.04,41.43z"/>
<path fill="#B6AEFF" d="M146.53,23.98c1.3,1.02,1.52,2.91,0.49,4.2c-1.02,1.3-2.9,1.52-4.2,0.5
c-1.3-1.02-1.52-2.91-0.5-4.2C143.35,23.17,145.23,22.95,146.53,23.98z"/>
<path fill="#B6AEFF" d="M274.859,38.82c1.301,1.02,1.521,2.9,0.49,4.2c-1.029,1.3-2.899,1.52-4.199,0.49
c-1.301-1.02-1.521-2.9-0.5-4.2C271.67,38.01,273.57,37.8,274.859,38.82z"/>
<path fill="#B6AEFF" d="M190.811,322.59c1.899,1.5,2.219,4.25,0.719,6.141c-1.488,1.899-4.238,2.221-6.139,0.721
c-1.899-1.5-2.221-4.25-0.721-6.141S188.92,321.09,190.811,322.59z"/>
<path fill="#8971FF" d="M232.84,69.82c1.11,0.88,1.301,2.49,0.42,3.6c-0.869,1.11-2.49,1.3-3.6,0.42
c-1.11-0.88-1.301-2.49-0.42-3.6C230.12,69.14,231.73,68.95,232.84,69.82z"/>
<path fill="#8971FF" d="M302.98,119.03c1.108,0.88,1.299,2.49,0.43,3.6c-0.87,1.11-2.49,1.3-3.6,0.42
c-1.11-0.88-1.302-2.49-0.42-3.6C300.26,118.35,301.87,118.16,302.98,119.03z"/>
<path fill="#8971FF" d="M110.92,51.71c1.11,0.88,1.3,2.49,0.42,3.6c-0.88,1.11-2.49,1.3-3.6,0.42
c-1.11-0.88-1.3-2.49-0.42-3.6C108.2,51.02,109.81,50.83,110.92,51.71z"/>
<path fill="#8971FF" d="M57.12,108.46c1.11,0.88,1.3,2.49,0.42,3.6s-2.49,1.3-3.6,0.42s-1.3-2.49-0.42-3.6
C54.4,107.77,56.01,107.58,57.12,108.46z"/>
<path fill="#8971FF" d="M48.63,179.18c1.11,0.881,1.3,2.49,0.42,3.6c-0.88,1.111-2.49,1.302-3.6,0.422
c-1.11-0.881-1.3-2.49-0.42-3.602C45.9,178.49,47.52,178.3,48.63,179.18z"/>
<path fill="#8971FF" d="M78.71,248.75c1.11,0.88,1.3,2.49,0.42,3.6c-0.88,1.11-2.49,1.301-3.6,0.42
c-1.11-0.879-1.3-2.49-0.42-3.6C75.99,248.061,77.6,247.87,78.71,248.75z"/>
<path fill="#8971FF" d="M118.33,305.07c1.11,0.88,1.3,2.49,0.42,3.6c-0.88,1.11-2.49,1.301-3.6,0.42
c-1.11-0.88-1.3-2.49-0.42-3.6C115.6,304.38,117.21,304.189,118.33,305.07z"/>
<path fill="#8971FF" d="M178.609,295.99c1.111,0.88,1.301,2.49,0.42,3.6c-0.879,1.11-2.489,1.301-3.599,0.43
c-1.11-0.869-1.3-2.49-0.42-3.6C175.891,295.311,177.5,295.12,178.609,295.99z"/>
<path fill="#8971FF" d="M264.57,276.48c1.109,0.879,1.3,2.49,0.42,3.6c-0.87,1.109-2.48,1.3-3.6,0.42
c-1.11-0.88-1.302-2.49-0.42-3.6C261.85,275.79,263.46,275.6,264.57,276.48z"/>
<path fill="#8971FF" d="M280.43,231.061c1.11,0.879,1.301,2.489,0.43,3.601c-0.879,1.108-2.488,1.3-3.6,0.43
c-1.109-0.88-1.3-2.489-0.42-3.6C277.71,230.38,279.32,230.189,280.43,231.061z"/>
<path fill="#FFFFFF" d="M120.019,172.643c2.61,2.062,3.06,5.851,1,8.472c-2.06,2.608-5.85,3.059-8.47,1
c-2.61-2.062-3.06-5.851-1-8.472C113.618,171.021,117.408,170.582,120.019,172.643z"/>
<path fill="#FFFFFF" d="M185.811,103.626c2.5,1.98,2.93,5.61,0.948,8.12c-1.979,2.51-5.608,2.93-8.108,0.96
c-2.5-1.98-2.932-5.61-0.951-8.12C179.669,102.076,183.299,101.646,185.811,103.626z"/>
<path fill="#FFFFFF" d="M242.146,221.236c2.25,1.781,2.642,5.041,0.86,7.301c-1.78,2.25-5.04,2.641-7.29,0.859
c-2.25-1.78-2.631-5.039-0.859-7.289C236.628,219.848,239.896,219.457,242.146,221.236z"/>
<path fill="#FFFFFF" d="M280.21,189.74c1.86,1.46,2.17,4.15,0.71,6.01c-1.46,1.85-4.15,2.17-6.01,0.71
c-1.85-1.46-2.17-4.149-0.7-6.01C275.67,188.59,278.35,188.27,280.21,189.74z"/>
<path fill="#FFFFFF" d="M120.84,280.82c1.82,1.438,2.13,4.07,0.69,5.89c-1.44,1.82-4.07,2.13-5.88,0.69
c-1.82-1.43-2.13-4.07-0.69-5.881C116.39,279.7,119.03,279.391,120.84,280.82z"/>
<path fill="#FFFFFF" d="M126.16,65.78c1.74,1.37,2.03,3.89,0.66,5.62c-1.37,1.74-3.89,2.03-5.62,0.66
s-2.03-3.88-0.66-5.62C121.91,64.7,124.42,64.41,126.16,65.78z"/>
</g>
</svg>
