<?xml version="1.0" encoding="utf-8"?>
    <!DOCTYPE svg PUBLIC "-//W3C//DTD SVG 1.1//EN" "http://www.w3.org/Graphics/SVG/1.1/DTD/svg11.dtd">
    <svg version="1.1" id="Layer_1" xmlns="http://www.w3.org/2000/svg" xmlns:xlink="http://www.w3.org/1999/xlink" x="0px" y="0px" width="350px" height="350px" viewBox="0 0 350 350" enable-background="new 0 0 350 350" xml:space="preserve">
        <g id="onvif-state-1">
            <path opacity="0.4" fill="none" stroke="#B194FF" stroke-linecap="round" stroke-linejoin="round" stroke-miterlimit="10" enable-background="new    " d="
    M165.3,69.2L194,133" />
            <path opacity="0.4" fill="none" stroke="#B194FF" stroke-linecap="round" stroke-linejoin="round" stroke-miterlimit="10" enable-background="new    " d="
    M194,133l48.4-29.4" />
            <path opacity="0.4" fill="none" stroke="#B194FF" stroke-linecap="round" stroke-linejoin="round" stroke-miterlimit="10" enable-background="new    " d="
    M87.6,225l59.6-41.7l-65.1-17.9l60.6-38" />
            <path opacity="0.4" fill="none" stroke="#B194FF" stroke-linecap="round" stroke-linejoin="round" stroke-miterlimit="10" enable-background="new    " d="
    M17.7,137.8l39.8-11.4l34-72.5" />
            <path opacity="0.4" fill="none" stroke="#B194FF" stroke-linecap="round" stroke-linejoin="round" stroke-miterlimit="10" enable-background="new    " d="
    M194.1,296.6l77.3-40.8" />
            <path opacity="0.4" fill="none" stroke="#B194FF" stroke-linecap="round" stroke-linejoin="round" stroke-miterlimit="10" enable-background="new    " d="
    M284.2,115.2l0.6,52" />
            <path opacity="0.4" fill="none" stroke="#B194FF" stroke-linecap="round" stroke-linejoin="round" stroke-miterlimit="10" enable-background="new    " d="
    M88.3,107.4l77-38.2" />
            <path opacity="0.3" fill="none" stroke="#B194FF" stroke-linecap="round" stroke-linejoin="round" stroke-miterlimit="10" enable-background="new    " d="
    M257.4,172L194,133l7.8,75.7l-51.5,45l-3.1-70.4l-4.5-55.9l-54.4-20l-6.2,58l5.5,59.6l62.7,28.7l80.2-1.8l-28.7-43.2l69.6,47
    L257.4,172l-15-68.4L215,55.1L194,133" />
            <path opacity="0.3" fill="none" stroke="#B194FF" stroke-linecap="round" stroke-linejoin="round" stroke-miterlimit="10" enable-background="new    " d="
    M111.6,13.6l53.6,55.6L215,55.1l69.2,60.1l-41.9-11.6l42.4,63.6l-27.4,4.7l32.7,45.5l-18.7,38.4l-40.8-3.9L194,296.6l-57.9,19.3
    l14.2-62.2l-66.8,10.7l4-39.3L49,199l33-33.5l-24.5-39l30.8-19L91.6,54l73.7,15.3l-22.6,58.2L194,133l-46.8,50.4l54.6,25.4
    l55.6-36.7" />
            <path opacity="0.4" fill="none" stroke="#DDDCFF" stroke-linecap="round" stroke-linejoin="round" stroke-miterlimit="10" enable-background="new    " d="
    M215,55l38.5-26.3l30.8,86.5l56,10.8L290,217.4l16.8,26.2l-35.4,12.2l-0.4,49.8l-76.9-9l-29.7,49.7l-28.3-30.4l-53.8,0.7l1.3-52.2
    L7.3,204.7l41.8-5.8l8.4-72.5l-16-55.1l50.1-17.4l20.1-40.3L215,55z" />
            <path opacity="0.5" fill="none" stroke="#DEDCFF" stroke-width="1.2" stroke-linecap="round" stroke-linejoin="round" stroke-miterlimit="10" enable-background="new    " d="
    M170.7,16.9l82.8,11.8l48.3,58.6l38.5,38.6L284.7,168l52.8,32.1l-30.8,43.4l-35.8,62L209.4,323l-45,23.2L130,287.9l-47.7,28.6
    l-29.2-49.9l-45.9-62l11.1-65.8l23-66.8l58.3,6.4l12-64.9L170.7,16.9z" />
            <path opacity="0.6" fill="none" stroke="#DEDCFF" stroke-linecap="round" stroke-linejoin="round" stroke-miterlimit="10" enable-background="new    " d="
    M82.3,316.6l82.1,29.7" />
            <path opacity="0.6" fill="none" stroke="#DEDCFF" stroke-linecap="round" stroke-linejoin="round" stroke-miterlimit="10" enable-background="new    " d="
    M40.8,71.3l70.8-57.7" />
            <path opacity="0.6" fill="none" stroke="#DEDCFF" stroke-linecap="round" stroke-linejoin="round" stroke-miterlimit="10" enable-background="new    " d="
    M340.3,125.9l-2.7,74.2" />
            <path opacity="0.8" fill="none" stroke="#C7B0FF" stroke-width="1.2" stroke-linecap="round" stroke-linejoin="round" stroke-miterlimit="10" enable-background="new    " d="
    M203.4,101.3l98.3-13.9l-17,80.6l22,75.6l-84.3-7.7l-13,87.1l-79.5-35.1l-76.7-21.2l38.6-76.4l-73.4-51.4l81.2-60.4L170.7,17
    L203.4,101.3z" />
            <path fill="none" stroke="#C3BBFF" stroke-width="1.2" stroke-linecap="round" stroke-linejoin="round" stroke-miterlimit="10" d="
    M203.4,101.3l81.3,65.9l-62.3,68.7l-93.1,52.3l-37-97.3l7.3-112.4L203.4,101.3" />
            <path fill="none" stroke="#D2CAFF" stroke-width="1.5" stroke-linecap="round" stroke-linejoin="round" stroke-miterlimit="10" d="
    M89.7,191.8l113.7-90.5l19,134.6L89.7,191.8" />
            <path opacity="0.7" fill="none" stroke="#DBD9FF" stroke-width="1.2" stroke-linecap="round" stroke-linejoin="round" stroke-miterlimit="10" enable-background="new    " d="
    M170.7,16.9l131.1,70.4" />
            <path opacity="0.7" fill="none" stroke="#DBD9FF" stroke-width="1.2" stroke-linecap="round" stroke-linejoin="round" stroke-miterlimit="10" enable-background="new    " d="
    M18.4,138.9l34.8,127.8" />
            <path opacity="0.7" fill="none" stroke="#DBD9FF" stroke-width="1.2" stroke-linecap="round" stroke-linejoin="round" stroke-miterlimit="10" enable-background="new    " d="
    M209.4,323l97.4-79.4" />
            <path fill="#8452FF" d="M258.2,170.7c0.8,0.4,1,1.4,0.6,2.2c-0.4,0.8-1.4,1-2.2,0.6c-0.8-0.4-1-1.4-0.6-2.2
    C256.4,170.5,257.4,170.2,258.2,170.7z" />
            <path fill="#8452FF" d="M243.3,102.5c0.8,0.4,1,1.4,0.6,2.2c-0.4,0.8-1.4,1-2.2,0.6c-0.8-0.4-1-1.4-0.6-2.2
    C241.6,102.3,242.6,102,243.3,102.5z" />
            <path fill="#8452FF" d="M166,67.8c0.8,0.4,1,1.4,0.6,2.2s-1.4,1-2.2,0.6c-0.8-0.4-1-1.4-0.6-2.2
    C164.3,67.6,165.3,67.4,166,67.8z" />
            <path fill="#8452FF" d="M89.3,106.3c0.8,0.4,1,1.4,0.6,2.2s-1.4,1-2.2,0.6c-0.8-0.4-1-1.4-0.6-2.2
    C87.6,106.1,88.5,105.8,89.3,106.3z" />
            <path fill="#8452FF" d="M83,164c0.8,0.4,1,1.4,0.6,2.2c-0.4,0.8-1.4,1-2.2,0.6c-0.8-0.4-1-1.4-0.6-2.2
    C81.3,163.8,82.3,163.6,83,164z" />
            <path fill="#8452FF" d="M88.6,223.8c0.8,0.4,1,1.4,0.6,2.2c-0.4,0.8-1.4,1-2.2,0.6c-0.8-0.4-1-1.4-0.6-2.2
    C86.8,223.6,87.8,223.3,88.6,223.8z" />
            <path fill="#8452FF" d="M151.1,252.2c0.8,0.4,1,1.4,0.6,2.2c-0.4,0.8-1.4,1-2.2,0.6s-1-1.4-0.6-2.2
    C149.4,252,150.4,251.8,151.1,252.2z" />
            <path fill="#8452FF" d="M231.3,250.5c0.8,0.4,1,1.4,0.6,2.2c-0.4,0.8-1.4,1-2.2,0.6c-0.8-0.4-1-1.4-0.6-2.2
    C229.6,250.3,230.5,250,231.3,250.5z" />
            <path fill="#8452FF" d="M194.7,132.2c0.5,0.3,0.7,1,0.4,1.5c-0.3,0.5-1,0.7-1.5,0.4c-0.5-0.3-0.7-1-0.4-1.5
    S194.2,131.9,194.7,132.2z" />
            <path fill="#8452FF" d="M143.2,126.4c0.5,0.3,0.7,1,0.4,1.5c-0.3,0.5-1,0.7-1.5,0.4c-0.5-0.3-0.7-1-0.4-1.5
    C142,126.3,142.7,126.1,143.2,126.4z" />
            <path fill="#8452FF" d="M147.7,182.4c0.5,0.3,0.7,1,0.4,1.5c-0.3,0.5-1,0.7-1.5,0.4s-0.7-1-0.4-1.5
    C146.5,182.2,147.2,182,147.7,182.4z" />
            <path fill="#8452FF" d="M202.4,207.8c0.5,0.3,0.7,1,0.4,1.5s-1,0.7-1.5,0.4s-0.7-1-0.4-1.5
    C201.1,207.6,201.8,207.5,202.4,207.8z" />
            <path fill="#D4D8FF" d="M303.1,84.6c1.6,0.9,2.1,2.9,1.2,4.5c-0.9,1.6-2.9,2.1-4.5,1.2c-1.6-0.9-2.1-2.9-1.2-4.5
    C299.5,84.2,301.5,83.7,303.1,84.6z" />
            <path fill="#D4D8FF" d="M55.1,263.5c1.7,1,2.3,3.2,1.3,5c-1,1.7-3.2,2.3-5,1.3c-1.7-1-2.3-3.2-1.3-5
    C51.2,263.1,53.4,262.5,55.1,263.5z" />
            <path fill="#B6AEFF" d="M308.2,240.4c1.8,1,2.3,3.3,1.3,5c-1,1.8-3.3,2.3-5,1.3c-1.8-1-2.3-3.3-1.3-5
    S306.5,239.4,308.2,240.4z" />
            <path fill="#B6AEFF" d="M20.2,135.5c1.8,1.1,2.4,3.4,1.4,5.2c-1.1,1.8-3.4,2.4-5.2,1.4c-1.8-1.1-2.4-3.4-1.4-5.2
    C16.1,135.1,18.4,134.5,20.2,135.5z" />
            <path fill="#B6AEFF" d="M172.4,13.7c1.8,1,2.4,3.3,1.3,5.1c-1.1,1.8-3.3,2.4-5.1,1.3c-1.8-1-2.4-3.3-1.3-5.1
    C168.4,13.3,170.7,12.7,172.4,13.7z" />
            <path fill="#B6AEFF" d="M341.3,123.1c1.5,0.9,2,2.8,1.1,4.3c-0.9,1.5-2.8,2-4.3,1.1s-2-2.8-1.1-4.3
    C337.9,122.8,339.8,122.3,341.3,123.1z" />
            <path fill="#B6AEFF" d="M338.8,197.2c1.6,0.9,2.1,2.9,1.2,4.5c-0.9,1.6-2.9,2.1-4.5,1.2c-1.6-0.9-2.1-2.9-1.2-4.5
    C335.2,196.8,337.2,196.3,338.8,197.2z" />
            <path fill="#B6AEFF" d="M271.9,303c1.3,0.7,1.7,2.4,1,3.6c-0.7,1.3-2.4,1.7-3.6,1c-1.2-0.7-1.7-2.4-1-3.6
    C269,302.6,270.6,302.2,271.9,303z" />
            <path fill="#B6AEFF" d="M165.8,343.9c1.1,0.6,1.5,2.1,0.8,3.2c-0.6,1.1-2.1,1.5-3.2,0.8c-1.1-0.6-1.5-2.1-0.8-3.2
    C163.3,343.6,164.7,343.3,165.8,343.9z" />
            <path fill="#B6AEFF" d="M84.1,313.7c1.4,0.8,1.9,2.6,1.1,4.1c-0.8,1.4-2.6,1.9-4.1,1.1c-1.4-0.8-1.9-2.6-1.1-4.1
    C80.9,313.4,82.7,312.9,84.1,313.7z" />
            <path fill="#B6AEFF" d="M8.8,202.1c1.5,0.9,2,2.7,1.1,4.2s-2.7,2-4.2,1.1c-1.5-0.9-1.9-2.7-1.1-4.2
    C5.5,201.7,7.3,201.2,8.8,202.1z" />
            <path fill="#B6AEFF" d="M43,68.8c1.4,0.8,1.9,2.7,1.1,4.1c-0.8,1.4-2.7,1.9-4.1,1.1s-1.9-2.7-1.1-4.1
    C39.7,68.4,41.6,68,43,68.8z" />
            <path fill="#B6AEFF" d="M113.1,11c1.4,0.8,1.9,2.7,1.1,4.1c-0.8,1.4-2.7,1.9-4.1,1.1c-1.4-0.8-1.9-2.7-1.1-4.1
    C109.9,10.6,111.7,10.2,113.1,11z" />
            <path fill="#B6AEFF" d="M255,26.2c1.4,0.8,1.9,2.7,1.1,4.1c-0.8,1.4-2.7,1.9-4.1,1.1c-1.4-0.8-1.9-2.7-1.1-4.1
    C251.7,25.8,253.6,25.3,255,26.2z" />
            <path fill="#B6AEFF" d="M211.4,318.9c2.1,1.2,2.8,3.9,1.6,6c-1.2,2.1-3.9,2.8-6,1.6s-2.8-3.9-1.6-6
    C206.6,318.4,209.3,317.7,211.4,318.9z" />
            <path fill="#8971FF" d="M216.3,52.8c1.2,0.7,1.6,2.3,0.9,3.5c-0.7,1.2-2.3,1.6-3.5,0.9c-1.2-0.7-1.6-2.3-0.9-3.5
    C213.5,52.5,215.1,52.1,216.3,52.8z" />
            <path fill="#8971FF" d="M285.5,113c1.2,0.7,1.6,2.3,0.9,3.5c-0.7,1.2-2.3,1.6-3.5,0.9c-1.2-0.7-1.6-2.3-0.9-3.5
    C282.7,112.7,284.3,112.3,285.5,113z" />
            <path fill="#8971FF" d="M93,51.9c1.2,0.7,1.6,2.3,0.9,3.5c-0.7,1.2-2.3,1.6-3.5,0.9c-1.2-0.7-1.6-2.3-0.9-3.5
    C90.3,51.6,91.8,51.2,93,51.9z" />
            <path fill="#8971FF" d="M59,124.1c1.2,0.7,1.6,2.3,0.9,3.5c-0.7,1.2-2.3,1.6-3.5,0.9c-1.2-0.7-1.6-2.3-0.9-3.5
    S57.8,123.4,59,124.1z" />
            <path fill="#8971FF" d="M50.6,196.7c1.2,0.7,1.6,2.3,0.9,3.5s-2.3,1.6-3.5,0.9c-1.2-0.7-1.6-2.3-0.9-3.5
    C47.8,196.4,49.3,196,50.6,196.7z" />
            <path fill="#8971FF" d="M85.1,262.1c1.2,0.7,1.6,2.3,0.9,3.5c-0.7,1.2-2.3,1.6-3.5,0.9s-1.6-2.3-0.9-3.5
    C82.3,261.8,83.9,261.4,85.1,262.1z" />
            <path fill="#8971FF" d="M137.4,313.7c1.2,0.7,1.6,2.3,0.9,3.5c-0.7,1.2-2.3,1.6-3.5,0.9c-1.2-0.7-1.6-2.3-0.9-3.5
    C134.6,313.4,136.2,312.9,137.4,313.7z" />
            <path fill="#8971FF" d="M195.6,294.3c1.2,0.7,1.6,2.3,0.9,3.5s-2.3,1.6-3.5,0.9s-1.6-2.3-0.9-3.5
    C192.8,294,194.4,293.6,195.6,294.3z" />
            <path fill="#8971FF" d="M272.6,253.6c1.2,0.7,1.6,2.3,0.9,3.5c-0.7,1.2-2.3,1.6-3.5,0.9s-1.6-2.3-0.9-3.5
    C269.8,253.3,271.4,252.9,272.6,253.6z" />
            <path fill="#8971FF" d="M291.3,215.2c1.2,0.7,1.6,2.3,0.9,3.5s-2.3,1.6-3.5,0.9c-1.2-0.7-1.6-2.3-0.9-3.5
    C288.5,214.9,290.1,214.5,291.3,215.2z" />
            <path fill="#FFFFFF" d="M94.8,185.3c2.9,1.7,3.8,5.4,2.2,8.2c-1.7,2.9-5.4,3.8-8.2,2.2c-2.9-1.7-3.8-5.4-2.2-8.2
    C88.2,184.6,91.9,183.6,94.8,185.3z" />
            <path fill="#FFFFFF" d="M206.1,96.3c2.8,1.6,3.7,5.1,2.1,7.9c-1.6,2.8-5.1,3.7-7.9,2.1c-2.8-1.6-3.7-5.1-2.1-7.9
    C199.8,95.6,203.4,94.7,206.1,96.3z" />
            <path fill="#FFFFFF" d="M225.1,231.4c2.5,1.4,3.3,4.6,1.9,7.1s-4.6,3.3-7.1,1.9c-2.5-1.4-3.3-4.6-1.9-7.1
    S222.6,230,225.1,231.4z" />
            <path fill="#FFFFFF" d="M286.9,164c2,1.2,2.7,3.8,1.5,5.9c-1.2,2-3.8,2.7-5.9,1.5c-2-1.2-2.7-3.8-1.5-5.9
    C282.2,163.5,284.8,162.8,286.9,164z" />
            <path fill="#FFFFFF" d="M132.1,283.9c2,1.2,2.7,3.7,1.5,5.7c-1.2,2-3.7,2.7-5.7,1.5s-2.7-3.7-1.5-5.7
    C127.5,283.4,130.1,282.7,132.1,283.9z" />
            <path fill="#FFFFFF" d="M101.6,75c1.9,1.1,2.6,3.6,1.4,5.5c-1.1,1.9-3.6,2.6-5.5,1.4c-1.9-1.1-2.6-3.6-1.4-5.5
    C97.2,74.6,99.7,73.9,101.6,75z" />
        </g>
        <g id="onvif-state-2">
          <path opacity="0.4" fill="none" stroke="#B194FF" stroke-linecap="round" stroke-linejoin="round" stroke-miterlimit="10" enable-background="new    " d="M151.1 69.2l26.9 59.2" />
    <path opacity="0.4" fill="none" stroke="#B194FF" stroke-linecap="round" stroke-linejoin="round" stroke-miterlimit="10" enable-background="new    " d="M178 128.4l81.2-2.8" />
    <path opacity="0.4" fill="none" stroke="#B194FF" stroke-linecap="round" stroke-linejoin="round" stroke-miterlimit="10" enable-background="new    " d="M97.1 225l62.7-34.5L78.9 172l69.4-35.1" />
    <path opacity="0.4" fill="none" stroke="#B194FF" stroke-linecap="round" stroke-linejoin="round" stroke-miterlimit="10" enable-background="new    " d="M17.6 126.3l42.4 8.1 26.1-76.5" />
    <path opacity="0.4" fill="none" stroke="#B194FF" stroke-linecap="round" stroke-linejoin="round" stroke-miterlimit="10" enable-background="new    " d="M187.1 285.2l84.3-29.4" />
    <path opacity="0.4" fill="none" stroke="#B194FF" stroke-linecap="round" stroke-linejoin="round" stroke-miterlimit="10" enable-background="new    " d="M276.2 118.3l8.6 48.9" />
    <path opacity="0.4" fill="none" stroke="#B194FF" stroke-linecap="round" stroke-linejoin="round" stroke-miterlimit="10" enable-background="new    " d="M124.2 118l26.9-48.8" />
    <path opacity="0.3" fill="none" stroke="#B194FF" stroke-linecap="round" stroke-linejoin="round" stroke-miterlimit="10" enable-background="new    " d="M246.2 173.6L178 128.4l12.3 63.2 -41.8 55.8 11.4-56.9 -11.6-53.6L124.2 118l-45.3 54 18.2 53 51.4 22.3 71.5 3.1 -29.7-59 81.1 64.2L246.2 173.6l13-48.1 -42.6-64.8L178 128.4" />
    <path opacity="0.3" fill="none" stroke="#B194FF" stroke-linecap="round" stroke-linejoin="round" stroke-miterlimit="10" enable-background="new    " d="M117.2 19.6L151 69.2l65.6-8.5 59.5 57.6 -17 7.3 25.5 41.6 -38.6 6.3 34.3 35.2 -9.2 47.1 -51.4-5.2L187 285.2l-57 30.3 18.5-68.1 -60.1 11.1 8.7-33.3 -44.1-35.6 25.9-17.4L60 134.5l64.2-16.4L86.2 58l64.9 11.3 -2.8 67.7 29.7-8.6 -18.2 62.2 30.5 1.1 55.9-17.9" />
    <path opacity="0.4" fill="none" stroke="#DDDCFF" stroke-linecap="round" stroke-linejoin="round" stroke-miterlimit="10" enable-background="new    " d="M216.6 60.6l36.9-31.9 22.8 89.6 49.8 10.8 -45.6 79.6 32 38.5 -41.1 8.6 -2.3 60.4 -82-31 -37 51.8L130 315.5l-34.6-2.3 -7-54.8L7.3 204.7 53 189.4l7-55L44.5 55l41.8 2.9 31.1-38.3L216.6 60.6z" />
    <path opacity="0.5" fill="none" stroke="#DEDCFF" stroke-width="1.2" stroke-linecap="round" stroke-linejoin="round" stroke-miterlimit="10" enable-background="new    " d="M170 11.8l83.5 17 40.6 60L326 129l-41.3 39 34.7 25.8 -7 53.3 -43.4 69 -59.6 6.9 -59.3 13.9 -26.8-53.2 -27.8 29.4L39 270.5 7.2 204.6l10.4-78.3 26.6-70.6 69 25.2 4-61.4L170 11.8z" />
    <path opacity="0.6" fill="none" stroke="#DEDCFF" stroke-linecap="round" stroke-linejoin="round" stroke-miterlimit="10" enable-background="new    " d="M95.4 313.2l54.6 23.8" />
    <path opacity="0.6" fill="none" stroke="#DEDCFF" stroke-linecap="round" stroke-linejoin="round" stroke-miterlimit="10" enable-background="new    " d="M43.8 55l73.5-35.4" />
    <path opacity="0.6" fill="none" stroke="#DEDCFF" stroke-linecap="round" stroke-linejoin="round" stroke-miterlimit="10" enable-background="new    " d="M326 129l-6.6 64.8" />
    <path opacity="0.8" fill="none" stroke="#C7B0FF" stroke-width="1.2" stroke-linecap="round" stroke-linejoin="round" stroke-miterlimit="10" enable-background="new    " d="M222.6 118.3L294 88.9l-9.3 79.1 27.7 79.2 -111.7-11.3 8.7 87.1 -86.2-39.3 -84.1-13.1 67.9-93 -89.2-51.1L113.2 81 170 11.9 222.6 118.3z" />
    <path fill="none" stroke="#C3BBFF" stroke-width="1.2" stroke-linecap="round" stroke-linejoin="round" stroke-miterlimit="10" d="M222.6 118.3l62.1 48.9 -84 68.7L122.6 284 107 177.5l6.2-96.5L222.6 118.3" />
    <path fill="none" stroke="#D2CAFF" stroke-width="1.5" stroke-linecap="round" stroke-linejoin="round" stroke-miterlimit="10" d="M107 177.5l115.6-59.2 -21.9 117.6 -94.2-59" />
    <path opacity="0.7" fill="none" stroke="#DBD9FF" stroke-width="1.2" stroke-linecap="round" stroke-linejoin="round" stroke-miterlimit="10" enable-background="new    " d="M170 11.8l124.2 77" />
    <path opacity="0.7" fill="none" stroke="#DBD9FF" stroke-width="1.2" stroke-linecap="round" stroke-linejoin="round" stroke-miterlimit="10" enable-background="new    " d="M17.8 126.4l21.3 144.2" />
    <path opacity="0.7" fill="none" stroke="#DBD9FF" stroke-width="1.2" stroke-linecap="round" stroke-linejoin="round" stroke-miterlimit="10" enable-background="new    " d="M209.4 323l103.1-75.8" />
    <path fill="#8452FF" d="M247 172.3c0.8 0.4 1 1.4 0.6 2.2 -0.4 0.8-1.4 1-2.2 0.6 -0.8-0.4-1-1.4-0.6-2.2C245.2 172.1 246.2 171.8 247 172.3z" />
    <path fill="#8452FF" d="M260.2 124.5c0.8 0.4 1 1.4 0.6 2.2 -0.4 0.8-1.4 1-2.2 0.6 -0.8-0.4-1-1.4-0.6-2.2C258.5 124.3 259.5 124 260.2 124.5z" />
    <path fill="#8452FF" d="M151.8 67.8c0.8 0.4 1 1.4 0.6 2.2s-1.4 1-2.2 0.6c-0.8-0.4-1-1.4-0.6-2.2C150.1 67.6 151.1 67.4 151.8 67.8z" />
    <path fill="#8452FF" d="M125.2 116.9c0.8 0.4 1 1.4 0.6 2.2s-1.4 1-2.2 0.6c-0.8-0.4-1-1.4-0.6-2.2C123.5 116.7 124.4 116.4 125.2 116.9z" />
    <path fill="#8452FF" d="M79.8 170.6c0.8 0.4 1 1.4 0.6 2.2 -0.4 0.8-1.4 1-2.2 0.6 -0.8-0.4-1-1.4-0.6-2.2C78.1 170.4 79.1 170.2 79.8 170.6z" />
    <path fill="#8452FF" d="M98.1 223.8c0.8 0.4 1 1.4 0.6 2.2 -0.4 0.8-1.4 1-2.2 0.6 -0.8-0.4-1-1.4-0.6-2.2C96.3 223.6 97.3 223.3 98.1 223.8z" />
    <path fill="#8452FF" d="M149.5 245.8c0.8 0.4 1 1.4 0.6 2.2 -0.4 0.8-1.4 1-2.2 0.6s-1-1.4-0.6-2.2C147.8 245.6 148.8 245.4 149.5 245.8z" />
    <path fill="#8452FF" d="M221 249.5c0.8 0.4 1 1.4 0.6 2.2 -0.4 0.8-1.4 1-2.2 0.6 -0.8-0.4-1-1.4-0.6-2.2C219.3 249.3 220.2 249 221 249.5z" />
    <path fill="#8452FF" d="M178.7 127.6c0.5 0.3 0.7 1 0.4 1.5 -0.3 0.5-1 0.7-1.5 0.4 -0.5-0.3-0.7-1-0.4-1.5S178.2 127.3 178.7 127.6z" />
    <path fill="#8452FF" d="M148.8 135.9c0.5 0.3 0.7 1 0.4 1.5 -0.3 0.5-1 0.7-1.5 0.4 -0.5-0.3-0.7-1-0.4-1.5C147.6 135.8 148.3 135.6 148.8 135.9z" />
    <path fill="#8452FF" d="M160.4 189.6c0.5 0.3 0.7 1 0.4 1.5 -0.3 0.5-1 0.7-1.5 0.4s-0.7-1-0.4-1.5C159.1 189.4 159.9 189.2 160.4 189.6z" />
    <path fill="#8452FF" d="M190.9 190.7c0.5 0.3 0.7 1 0.4 1.5s-1 0.7-1.5 0.4 -0.7-1-0.4-1.5C189.6 190.5 190.3 190.4 190.9 190.7z" />
    <path fill="#D4D8FF" d="M295.4 86.1c1.6 0.9 2.1 2.9 1.2 4.5 -0.9 1.6-2.9 2.1-4.5 1.2 -1.6-0.9-2.1-2.9-1.2-4.5C291.8 85.7 293.8 85.2 295.4 86.1z" />
    <path fill="#D4D8FF" d="M41 267.4c1.7 1 2.3 3.2 1.3 5 -1 1.7-3.2 2.3-5 1.3 -1.7-1-2.3-3.2-1.3-5C37.1 267 39.3 266.4 41 267.4z" />
    <path fill="#B6AEFF" d="M313.9 244c1.8 1 2.3 3.3 1.3 5 -1 1.8-3.3 2.3-5 1.3 -1.8-1-2.3-3.3-1.3-5S312.2 243 313.9 244z" />
    <path fill="#B6AEFF" d="M19.6 123c1.8 1.1 2.4 3.4 1.4 5.2 -1.1 1.8-3.4 2.4-5.2 1.4 -1.8-1.1-2.4-3.4-1.4-5.2C15.5 122.6 17.8 122 19.6 123z" />
    <path fill="#B6AEFF" d="M171.6 8.6c1.8 1 2.4 3.3 1.3 5.1 -1.1 1.8-3.3 2.4-5.1 1.3 -1.8-1-2.4-3.3-1.3-5.1C167.6 8.1 170 7.6 171.6 8.6z" />
    <path fill="#B6AEFF" d="M327 126.2c1.5 0.9 2 2.8 1.1 4.3 -0.9 1.5-2.8 2-4.3 1.1s-2-2.8-1.1-4.3C323.6 125.9 325.5 125.4 327 126.2z" />
    <path fill="#B6AEFF" d="M320.7 190.9c1.6 0.9 2.1 2.9 1.2 4.5 -0.9 1.6-2.9 2.1-4.5 1.2 -1.6-0.9-2.1-2.9-1.2-4.5C317.1 190.5 319.1 190 320.7 190.9z" />
    <path fill="#B6AEFF" d="M270 313.6c1.3 0.7 1.7 2.4 1 3.6 -0.7 1.3-2.4 1.7-3.6 1 -1.2-0.7-1.7-2.4-1-3.6C267.1 313.2 268.7 312.8 270 313.6z" />
    <path fill="#B6AEFF" d="M151.5 334.6c1.1 0.6 1.5 2.1 0.8 3.2 -0.6 1.1-2.1 1.5-3.2 0.8 -1.1-0.6-1.5-2.1-0.8-3.2C149 334.3 150.4 334 151.5 334.6z" />
    <path fill="#B6AEFF" d="M97.2 310.3c1.4 0.8 1.9 2.6 1.1 4.1 -0.8 1.4-2.6 1.9-4.1 1.1 -1.4-0.8-1.9-2.6-1.1-4.1C94 310 95.9 309.5 97.2 310.3z" />
    <path fill="#B6AEFF" d="M8.8 202.1c1.5 0.9 2 2.7 1.1 4.2s-2.7 2-4.2 1.1c-1.5-0.9-1.9-2.7-1.1-4.2C5.5 201.7 7.3 201.2 8.8 202.1z" />
    <path fill="#B6AEFF" d="M46 52.5c1.4 0.8 1.9 2.7 1.1 4.1 -0.8 1.4-2.7 1.9-4.1 1.1s-1.9-2.7-1.1-4.1C42.7 52.1 44.6 51.7 46 52.5z" />
    <path fill="#B6AEFF" d="M118.7 17c1.4 0.8 1.9 2.7 1.1 4.1 -0.8 1.4-2.7 1.9-4.1 1.1 -1.4-0.8-1.9-2.7-1.1-4.1C115.5 16.6 117.3 16.2 118.7 17z" />
    <path fill="#B6AEFF" d="M255 26.2c1.4 0.8 1.9 2.7 1.1 4.1 -0.8 1.4-2.7 1.9-4.1 1.1 -1.4-0.8-1.9-2.7-1.1-4.1C251.7 25.8 253.6 25.3 255 26.2z" />
    <path fill="#B6AEFF" d="M211.4 318.9c2.1 1.2 2.8 3.9 1.6 6 -1.2 2.1-3.9 2.8-6 1.6s-2.8-3.9-1.6-6C206.6 318.4 209.3 317.7 211.4 318.9z" />
    <path fill="#8971FF" d="M217.9 58.4c1.2 0.7 1.6 2.3 0.9 3.5 -0.7 1.2-2.3 1.6-3.5 0.9 -1.2-0.7-1.6-2.3-0.9-3.5C215.1 58.1 216.7 57.7 217.9 58.4z" />
    <path fill="#8971FF" d="M277.5 116.1c1.2 0.7 1.6 2.3 0.9 3.5 -0.7 1.2-2.3 1.6-3.5 0.9 -1.2-0.7-1.6-2.3-0.9-3.5C274.7 115.8 276.2 115.4 277.5 116.1z" />
    <path fill="#8971FF" d="M87.6 55.9c1.2 0.7 1.6 2.3 0.9 3.5 -0.7 1.2-2.3 1.6-3.5 0.9 -1.2-0.7-1.6-2.3-0.9-3.5C84.9 55.6 86.4 55.2 87.6 55.9z" />
    <path fill="#8971FF" d="M61.5 132.1c1.2 0.7 1.6 2.3 0.9 3.5 -0.7 1.2-2.3 1.6-3.5 0.9 -1.2-0.7-1.6-2.3-0.9-3.5S60.3 131.4 61.5 132.1z" />
    <path fill="#8971FF" d="M54.5 187.2c1.2 0.7 1.6 2.3 0.9 3.5s-2.3 1.6-3.5 0.9c-1.2-0.7-1.6-2.3-0.9-3.5C51.7 186.9 53.2 186.5 54.5 187.2z" />
    <path fill="#8971FF" d="M90 256.1c1.2 0.7 1.6 2.3 0.9 3.5 -0.7 1.2-2.3 1.6-3.5 0.9s-1.6-2.3-0.9-3.5C87.2 255.8 88.8 255.4 90 256.1z" />
    <path fill="#8971FF" d="M131.3 313.3c1.2 0.7 1.6 2.3 0.9 3.5 -0.7 1.2-2.3 1.6-3.5 0.9 -1.2-0.7-1.6-2.3-0.9-3.5C128.5 313 130.1 312.5 131.3 313.3z" />
    <path fill="#8971FF" d="M188.6 282.9c1.2 0.7 1.6 2.3 0.9 3.5s-2.3 1.6-3.5 0.9 -1.6-2.3-0.9-3.5C185.8 282.6 187.4 282.2 188.6 282.9z" />
    <path fill="#8971FF" d="M272.6 253.6c1.2 0.7 1.6 2.3 0.9 3.5 -0.7 1.2-2.3 1.6-3.5 0.9s-1.6-2.3-0.9-3.5C269.8 253.3 271.4 252.9 272.6 253.6z" />
    <path fill="#8971FF" d="M281.8 206.5c1.2 0.7 1.6 2.3 0.9 3.5s-2.3 1.6-3.5 0.9c-1.2-0.7-1.6-2.3-0.9-3.5C279 206.2 280.6 205.8 281.8 206.5z" />
    <path fill="#FFFFFF" d="M109.5 171.9c2.9 1.7 3.8 5.4 2.2 8.2 -1.7 2.9-5.4 3.8-8.2 2.2 -2.9-1.7-3.8-5.4-2.2-8.2C102.9 171.2 106.6 170.2 109.5 171.9z" />
    <path fill="#FFFFFF" d="M225.3 113.3c2.8 1.6 3.7 5.1 2.1 7.9 -1.6 2.8-5.1 3.7-7.9 2.1 -2.8-1.6-3.7-5.1-2.1-7.9C219 112.6 222.6 111.7 225.3 113.3z" />
    <path fill="#FFFFFF" d="M203.4 231.4c2.5 1.4 3.3 4.6 1.9 7.1s-4.6 3.3-7.1 1.9c-2.5-1.4-3.3-4.6-1.9-7.1S200.9 230 203.4 231.4z" />
    <path fill="#FFFFFF" d="M286.9 164c2 1.2 2.7 3.8 1.5 5.9 -1.2 2-3.8 2.7-5.9 1.5 -2-1.2-2.7-3.8-1.5-5.9C282.2 163.5 284.8 162.8 286.9 164z" />
    <path fill="#FFFFFF" d="M125.4 279.7c2 1.2 2.7 3.7 1.5 5.7 -1.2 2-3.7 2.7-5.7 1.5s-2.7-3.7-1.5-5.7C120.8 279.2 123.4 278.5 125.4 279.7z" />
    <path fill="#FFFFFF" d="M115.2 77.5c1.9 1.1 2.6 3.6 1.4 5.5 -1.1 1.9-3.6 2.6-5.5 1.4 -1.9-1.1-2.6-3.6-1.4-5.5C110.9 77.1 113.4 76.4 115.2 77.5z" />
        </g>
        <g id="onvif-state-3">
          <path opacity="0.4" fill="none" stroke="#B194FF" stroke-linecap="round" stroke-linejoin="round" stroke-miterlimit="10" enable-background="new    " d="
  M154.3,77l28.5,37.9" />
        <path opacity="0.4" fill="none" stroke="#B194FF" stroke-linecap="round" stroke-linejoin="round" stroke-miterlimit="10" enable-background="new    " d="
  M182.8,114.8l56.6,2.6" />
        <path opacity="0.4" fill="none" stroke="#B194FF" stroke-linecap="round" stroke-linejoin="round" stroke-miterlimit="10" enable-background="new    " d="
  M97.1,225l62.7-34.5l-79.3-14.2l61.1-39.4" />
        <path opacity="0.4" fill="none" stroke="#B194FF" stroke-linecap="round" stroke-linejoin="round" stroke-miterlimit="10" enable-background="new    " d="
  M25.2,132l43.3,4.9l26.1-74" />
        <path opacity="0.4" fill="none" stroke="#B194FF" stroke-linecap="round" stroke-linejoin="round" stroke-miterlimit="10" enable-background="new    " d="
  M184.6,291.5l68.3-30.7" />
        <path opacity="0.4" fill="none" stroke="#B194FF" stroke-linecap="round" stroke-linejoin="round" stroke-miterlimit="10" enable-background="new    " d="
  M272.7,122.3l6.9,49.2" />
        <path opacity="0.4" fill="none" stroke="#B194FF" stroke-linecap="round" stroke-linejoin="round" stroke-miterlimit="10" enable-background="new    " d="
  M106.3,122.1l48-45.1" />
        <path opacity="0.3" fill="none" stroke="#B194FF" stroke-linecap="round" stroke-linejoin="round" stroke-miterlimit="10" enable-background="new    " d="
  M237.6,174.9l-54.8-60.1l7.5,76.8l-41.8,55.8l11.4-56.9l-18.3-53.6l-35.3-14.8l-25.8,54.2L97.1,225l51.4,22.3l60.5,8l-18.7-63.9
  l62.5,69.2L237.6,174.9l1.9-57.5l-12.5-40.2l-44.3,37.7" />
        <path opacity="0.3" fill="none" stroke="#B194FF" stroke-linecap="round" stroke-linejoin="round" stroke-miterlimit="10" enable-background="new    " d="
  M123.2,34.3l31,42.7l72.8,0.1l45.6,45.3l-33.2-4.9l40.1,54.1l-42,3.3l35.2,39.1l-19.9,47.1l-43.8-5.4l-24.3,35.9l-61.2,24l25.2-68.1
  l-60.1,11.1l8.7-33.3l-46.8-33.4l30.2-15.4l-12-39.4l37.8-14.9L94.7,63.1l59.6,14L141.6,137l41.2-22.2l-23,75.8l30.5,1.1l47.2-16.7" />
        <path opacity="0.4" fill="none" stroke="#DDDCFF" stroke-linecap="round" stroke-linejoin="round" stroke-miterlimit="10" enable-background="new    " d="
  M227,77l26.5-48.3l19.3,93.6l53.3,6.8l-53.4,84.7l32.5,27.3l-52.4,19.7l19,43.8l-87.2-13.1l-43,47.8l-18.3-23.8l-37.4,0.7l2.5-57.8
  L7.3,204.7l43-13.1l18.2-54.7l-18-68.3L94.8,63l28.6-28.7L227,77z" />
        <path opacity="0.5" fill="none" stroke="#DEDCFF" stroke-width="1.2" stroke-linecap="round" stroke-linejoin="round" stroke-miterlimit="10" enable-background="new    " d="
  M163.9,8.1l89.6,20.7L287.4,92l38.6,37l-46.5,43.3l52.7,19.4L305.1,241l-33.4,63.5L209.4,323l-67.8,16.2l-20.8-63.9L86,316.1
  l-53.9-45.7L7.2,204.6l18-72.6l25-62.7l71.1,26.7l1.9-61.8L163.9,8.1z" />
        <path opacity="0.6" fill="none" stroke="#DEDCFF" stroke-linecap="round" stroke-linejoin="round" stroke-miterlimit="10" enable-background="new    " d="
  M85.9,316.2l55.6,23.1" />
        <path opacity="0.6" fill="none" stroke="#DEDCFF" stroke-linecap="round" stroke-linejoin="round" stroke-miterlimit="10" enable-background="new    " d="
  M49.8,68.6l73.5-34.3" />
        <path opacity="0.6" fill="none" stroke="#DEDCFF" stroke-linecap="round" stroke-linejoin="round" stroke-miterlimit="10" enable-background="new    " d="
  M326,129l6.2,62.7" />
        <path opacity="0.8" fill="none" stroke="#C7B0FF" stroke-width="1.2" stroke-linecap="round" stroke-linejoin="round" stroke-miterlimit="10" enable-background="new    " d="
  M230.4,141.5l56.9-49.5l-7.8,80.2l25.6,68.8l-122.4-1.6l26.7,83.5l-88.7-47.7l-88.5-4.9l93.3-85.9L25.4,132.2l95.9-36.1l42.6-88
  L230.4,141.5z" />
        <path fill="none" stroke="#C3BBFF" stroke-width="1.2" stroke-linecap="round" stroke-linejoin="round" stroke-miterlimit="10" d="
  M230.4,141.5l49.1,29.9l-96.8,68.1l-62.6,36.1l5.4-91.2l-4.2-88.3L230.4,141.5" />
        <path fill="none" stroke="#D2CAFF" stroke-width="1.5" stroke-linecap="round" stroke-linejoin="round" stroke-miterlimit="10" d="
  M125.4,184.4l105-42.9l-47.7,98l-57.8-55.7" />
        <path opacity="0.7" fill="none" stroke="#DBD9FF" stroke-width="1.2" stroke-linecap="round" stroke-linejoin="round" stroke-miterlimit="10" enable-background="new    " d="
  M163.9,8.1L287.5,92" />
        <path opacity="0.7" fill="none" stroke="#DBD9FF" stroke-width="1.2" stroke-linecap="round" stroke-linejoin="round" stroke-miterlimit="10" enable-background="new    " d="
  M25.4,132.1l6.8,138.3" />
        <path opacity="0.7" fill="none" stroke="#DBD9FF" stroke-width="1.2" stroke-linecap="round" stroke-linejoin="round" stroke-miterlimit="10" enable-background="new    " d="
  M209.4,323l95.8-81.9" />
        <path fill="#8452FF" d="M238.4,173.6c0.8,0.4,1,1.4,0.6,2.2c-0.4,0.8-1.4,1-2.2,0.6c-0.8-0.4-1-1.4-0.6-2.2
  C236.6,173.4,237.6,173.1,238.4,173.6z" />
        <path fill="#8452FF" d="M240.4,116.3c0.8,0.4,1,1.4,0.6,2.2c-0.4,0.8-1.4,1-2.2,0.6c-0.8-0.4-1-1.4-0.6-2.2
  C238.7,116.1,239.7,115.8,240.4,116.3z" />
        <path fill="#8452FF" d="M155,75.6c0.8,0.4,1,1.4,0.6,2.2s-1.4,1-2.2,0.6c-0.8-0.4-1-1.4-0.6-2.2C153.3,75.4,154.3,75.2,155,75.6z" />
        <path fill="#8452FF" d="M107.3,121c0.8,0.4,1,1.4,0.6,2.2c-0.4,0.8-1.4,1-2.2,0.6c-0.8-0.4-1-1.4-0.6-2.2
  C105.6,120.8,106.5,120.5,107.3,121z" />
        <path fill="#8452FF" d="M81.4,174.9c0.8,0.4,1,1.4,0.6,2.2c-0.4,0.8-1.4,1-2.2,0.6c-0.8-0.4-1-1.4-0.6-2.2
  C79.7,174.7,80.7,174.5,81.4,174.9z" />
        <path fill="#8452FF" d="M98.1,223.8c0.8,0.4,1,1.4,0.6,2.2c-0.4,0.8-1.4,1-2.2,0.6c-0.8-0.4-1-1.4-0.6-2.2
  C96.3,223.6,97.3,223.3,98.1,223.8z" />
        <path fill="#8452FF" d="M149.5,245.8c0.8,0.4,1,1.4,0.6,2.2s-1.4,1-2.2,0.6c-0.8-0.4-1-1.4-0.6-2.2
  C147.8,245.6,148.8,245.4,149.5,245.8z" />
        <path fill="#8452FF" d="M210,254.4c0.8,0.4,1,1.4,0.6,2.2c-0.4,0.8-1.4,1-2.2,0.6c-0.8-0.4-1-1.4-0.6-2.2
  C208.3,254.2,209.2,253.9,210,254.4z" />
        <path fill="#8452FF" d="M183.5,114c0.5,0.3,0.7,1,0.4,1.5c-0.3,0.5-1,0.7-1.5,0.4s-0.7-1-0.4-1.5S183,113.7,183.5,114z" />
        <path fill="#8452FF" d="M142.1,135.9c0.5,0.3,0.7,1,0.4,1.5c-0.3,0.5-1,0.7-1.5,0.4c-0.5-0.3-0.7-1-0.4-1.5
  C140.9,135.8,141.6,135.6,142.1,135.9z" />
        <path fill="#8452FF" d="M160.4,189.6c0.5,0.3,0.7,1,0.4,1.5c-0.3,0.5-1,0.7-1.5,0.4s-0.7-1-0.4-1.5
  C159.1,189.4,159.9,189.2,160.4,189.6z" />
        <path fill="#8452FF" d="M190.9,190.7c0.5,0.3,0.7,1,0.4,1.5s-1,0.7-1.5,0.4c-0.5-0.3-0.7-1-0.4-1.5
  C189.6,190.5,190.3,190.4,190.9,190.7z" />
        <path fill="#D4D8FF" d="M288.7,89.3c1.6,0.9,2.1,2.9,1.2,4.5c-0.9,1.6-2.9,2.1-4.5,1.2c-1.6-0.9-2.1-2.9-1.2-4.5
  C285.1,88.9,287.1,88.4,288.7,89.3z" />
        <path fill="#D4D8FF" d="M34.1,267.2c1.7,1,2.3,3.2,1.3,5c-1,1.7-3.2,2.3-5,1.3c-1.7-1-2.3-3.2-1.3-5
  C30.2,266.8,32.4,266.2,34.1,267.2z" />
        <path fill="#B6AEFF" d="M306.6,237.9c1.8,1,2.3,3.3,1.3,5c-1,1.8-3.3,2.3-5,1.3c-1.8-1-2.3-3.3-1.3-5S304.9,236.9,306.6,237.9z" />
        <path fill="#B6AEFF" d="M27.2,128.7c1.8,1.1,2.4,3.4,1.4,5.2c-1.1,1.8-3.4,2.4-5.2,1.4c-1.8-1.1-2.4-3.4-1.4-5.2
  C23.1,128.3,25.4,127.7,27.2,128.7z" />
        <path fill="#B6AEFF" d="M165.5,4.9c1.8,1,2.4,3.3,1.3,5.1c-1.1,1.8-3.3,2.4-5.1,1.3c-1.8-1-2.4-3.3-1.3-5.1
  C161.5,4.4,163.9,3.9,165.5,4.9z" />
        <path fill="#B6AEFF" d="M327,126.2c1.5,0.9,2,2.8,1.1,4.3c-0.9,1.5-2.8,2-4.3,1.1s-2-2.8-1.1-4.3C323.6,125.9,325.5,125.4,327,126.2
  z" />
        <path fill="#B6AEFF" d="M333.5,188.8c1.6,0.9,2.1,2.9,1.2,4.5c-0.9,1.6-2.9,2.1-4.5,1.2c-1.6-0.9-2.1-2.9-1.2-4.5
  C329.9,188.4,331.9,187.9,333.5,188.8z" />
        <path fill="#B6AEFF" d="M272.7,302c1.3,0.7,1.7,2.4,1,3.6c-0.7,1.3-2.4,1.7-3.6,1c-1.2-0.7-1.7-2.4-1-3.6
  C269.8,301.6,271.4,301.2,272.7,302z" />
        <path fill="#B6AEFF" d="M143,336.9c1.1,0.6,1.5,2.1,0.8,3.2c-0.6,1.1-2.1,1.5-3.2,0.8c-1.1-0.6-1.5-2.1-0.8-3.2
  C140.5,336.6,141.9,336.3,143,336.9z" />
        <path fill="#B6AEFF" d="M87.7,313.3c1.4,0.8,1.9,2.6,1.1,4.1c-0.8,1.4-2.6,1.9-4.1,1.1c-1.4-0.8-1.9-2.6-1.1-4.1
  C84.5,313,86.4,312.5,87.7,313.3z" />
        <path fill="#B6AEFF" d="M8.8,202.1c1.5,0.9,2,2.7,1.1,4.2s-2.7,2-4.2,1.1c-1.5-0.9-1.9-2.7-1.1-4.2C5.5,201.7,7.3,201.2,8.8,202.1z" />
        <path fill="#B6AEFF" d="M52,66.1c1.4,0.8,1.9,2.7,1.1,4.1c-0.8,1.4-2.7,1.9-4.1,1.1c-1.4-0.8-1.9-2.7-1.1-4.1
  C48.7,65.7,50.6,65.3,52,66.1z" />
        <path fill="#B6AEFF" d="M124.7,31.7c1.4,0.8,1.9,2.7,1.1,4.1c-0.8,1.4-2.7,1.9-4.1,1.1c-1.4-0.8-1.9-2.7-1.1-4.1
  C121.5,31.3,123.3,30.9,124.7,31.7z" />
        <path fill="#B6AEFF" d="M255,26.2c1.4,0.8,1.9,2.7,1.1,4.1c-0.8,1.4-2.7,1.9-4.1,1.1c-1.4-0.8-1.9-2.7-1.1-4.1
  C251.7,25.8,253.6,25.3,255,26.2z" />
        <path fill="#B6AEFF" d="M211.4,318.9c2.1,1.2,2.8,3.9,1.6,6c-1.2,2.1-3.9,2.8-6,1.6s-2.8-3.9-1.6-6
  C206.6,318.4,209.3,317.7,211.4,318.9z" />
        <path fill="#8971FF" d="M228.3,74.8c1.2,0.7,1.6,2.3,0.9,3.5c-0.7,1.2-2.3,1.6-3.5,0.9c-1.2-0.7-1.6-2.3-0.9-3.5
  C225.5,74.5,227.1,74.1,228.3,74.8z" />
        <path fill="#8971FF" d="M274,120.1c1.2,0.7,1.6,2.3,0.9,3.5c-0.7,1.2-2.3,1.6-3.5,0.9c-1.2-0.7-1.6-2.3-0.9-3.5
  S272.7,119.4,274,120.1z" />
        <path fill="#8971FF" d="M96.1,61c1.2,0.7,1.6,2.3,0.9,3.5c-0.7,1.2-2.3,1.6-3.5,0.9c-1.2-0.7-1.6-2.3-0.9-3.5
  C93.4,60.7,94.9,60.3,96.1,61z" />
        <path fill="#8971FF" d="M70,134.6c1.2,0.7,1.6,2.3,0.9,3.5c-0.7,1.2-2.3,1.6-3.5,0.9c-1.2-0.7-1.6-2.3-0.9-3.5S68.8,133.9,70,134.6z
  " />
        <path fill="#8971FF" d="M51.8,189.4c1.2,0.7,1.6,2.3,0.9,3.5c-0.7,1.2-2.3,1.6-3.5,0.9c-1.2-0.7-1.6-2.3-0.9-3.5
  C49,189.1,50.5,188.7,51.8,189.4z" />
        <path fill="#8971FF" d="M90,256.1c1.2,0.7,1.6,2.3,0.9,3.5c-0.7,1.2-2.3,1.6-3.5,0.9c-1.2-0.7-1.6-2.3-0.9-3.5S88.8,255.4,90,256.1z
  " />
        <path fill="#8971FF" d="M124.6,313.3c1.2,0.7,1.6,2.3,0.9,3.5c-0.7,1.2-2.3,1.6-3.5,0.9c-1.2-0.7-1.6-2.3-0.9-3.5
  C121.8,313,123.4,312.5,124.6,313.3z" />
        <path fill="#8971FF" d="M186.1,289.2c1.2,0.7,1.6,2.3,0.9,3.5c-0.7,1.2-2.3,1.6-3.5,0.9s-1.6-2.3-0.9-3.5
  C183.3,288.9,184.9,288.5,186.1,289.2z" />
        <path fill="#8971FF" d="M254,258.6c1.2,0.7,1.6,2.3,0.9,3.5c-0.7,1.2-2.3,1.6-3.5,0.9s-1.6-2.3-0.9-3.5
  C251.2,258.3,252.8,257.9,254,258.6z" />
        <path fill="#8971FF" d="M274,211.6c1.2,0.7,1.6,2.3,0.9,3.5s-2.3,1.6-3.5,0.9c-1.2-0.7-1.6-2.3-0.9-3.5
  C271.2,211.3,272.8,210.9,274,211.6z" />
        <path fill="#FFFFFF" d="M127.9,178.8c2.9,1.7,3.8,5.4,2.2,8.2c-1.7,2.9-5.4,3.8-8.2,2.2c-2.9-1.7-3.8-5.4-2.2-8.2
  C121.3,178.1,125,177.1,127.9,178.8z" />
        <path fill="#FFFFFF" d="M233.1,136.5c2.8,1.6,3.7,5.1,2.1,7.9c-1.6,2.8-5.1,3.7-7.9,2.1c-2.8-1.6-3.7-5.1-2.1-7.9
  C226.8,135.8,230.4,134.9,233.1,136.5z" />
        <path fill="#FFFFFF" d="M185.4,235c2.5,1.4,3.3,4.6,1.9,7.1c-1.4,2.5-4.6,3.3-7.1,1.9c-2.5-1.4-3.3-4.6-1.9-7.1
  C179.7,234.4,182.9,233.6,185.4,235z" />
        <path fill="#FFFFFF" d="M281.7,168.3c2,1.2,2.7,3.8,1.5,5.9c-1.2,2-3.8,2.7-5.9,1.5c-2-1.2-2.7-3.8-1.5-5.9
  C277,167.8,279.6,167.1,281.7,168.3z" />
        <path fill="#FFFFFF" d="M122.9,271.3c2,1.2,2.7,3.7,1.5,5.7c-1.2,2-3.7,2.7-5.7,1.5c-2-1.2-2.7-3.7-1.5-5.7
  C118.3,270.8,120.9,270.1,122.9,271.3z" />
        <path fill="#FFFFFF" d="M123.3,92.7c1.9,1.1,2.6,3.6,1.4,5.5c-1.1,1.9-3.6,2.6-5.5,1.4c-1.9-1.1-2.6-3.6-1.4-5.5
  C119,92.3,121.5,91.6,123.3,92.7z" />
        </g>
    </svg>
