<svg version="1.1" id="phone2" xmlns="http://www.w3.org/2000/svg" xmlns:xlink="http://www.w3.org/1999/xlink" x="0px" y="0px"
	 width="1796px" height="1480px" viewBox="0 0 898 740" enable-background="new 0 0 898 740" xml:space="preserve">
<linearGradient id="SVGID_1_" gradientUnits="userSpaceOnUse" x1="371.3984" y1="575.083" x2="541.2725" y2="118.2222">
	<stop  offset="0" style="stop-color:#0043FF"/>
	<stop  offset="1" style="stop-color:#00F67A"/>
</linearGradient>
<path fill="url(#SVGID_1_)" d="M108.28,250.508c-0.724,0-1.397-0.301-1.948-0.871l-32.329-33.247
	c-2.322-2.626-1.895-5.517-1.64-7.245c0.254-1.719,1.425-2.83,2.982-2.83c0.975,0,1.956,0.437,2.692,1.197l32.011,33.319
	c1.424,1.474,1.955,3.831,1.453,6.464C111.146,249.157,109.792,250.508,108.28,250.508z M75.345,208.816
	c-0.132,0-0.406,0-0.509,0.695c-0.291,1.965-0.401,3.595,1,5.18l32.291,33.205c0.09,0.093,0.144,0.111,0.153,0.111
	c0.13,0,0.608-0.355,0.765-1.18c0.343-1.797,0.045-3.391-0.797-4.261l-32.01-33.318C75.985,208.987,75.633,208.816,75.345,208.816z
	 M152.502,296.082c-0.905,0-1.745-0.352-2.363-0.991l-31.773-32.995c-1.591-1.645-2.243-4.227-1.7-6.737
	c0.361-1.673,1.589-2.798,3.056-2.798c0.803,0,1.584,0.351,2.201,0.989l32.102,33.059c1.794,1.905,2.393,4.011,1.894,6.641
	C155.609,294.891,154.172,296.082,152.502,296.082z M119.722,255.061c-0.216,0-0.496,0.284-0.613,0.826
	c-0.441,2.04,0.293,3.685,1.056,4.473l31.773,32.995c0.181,0.188,0.407,0.228,0.564,0.228c0.39,0,0.857-0.25,0.961-0.797
	c0.35-1.85-0.011-3.138-1.245-4.449l-32.091-33.047C119.985,255.141,119.841,255.061,119.722,255.061z M617.356,721.519
	l251.404-139.517c8.478-5.245,13.997-13.346,15.544-22.808c1.225-7.495-0.04-15.376-3.59-23.017
	c1.582,4.697,2.348,8.385,1.484,14.061c0.22,2.888,0.096,5.751-0.362,8.554c-1.428,8.737-6.539,16.225-14.341,21.055
	L616.219,719.295c-24.693,11.604-56.327,3.181-80.586-21.451L39.542,185.496c-11.073-11.727-15.767-26.366-12.877-40.164
	c1.791-8.55,6.353-16.027,13.223-21.909c3.924-5.142,9.487-8.861,12.562-10.55c-15.245,6.467-25.271,17.812-28.232,31.946
	c-3.06,14.61,1.863,30.062,13.518,42.404L533.844,699.59c17.503,17.772,38.783,27.332,58.806,27.33
	C601.25,726.919,609.622,725.154,617.356,721.519z M597.614,711.524c-16.129,0-32.063-7.358-46.081-21.28
	C457.449,596.809,48.092,171.933,43.968,167.652c-0.03-0.031-0.059-0.065-0.086-0.099c-8.974-11.529-12.15-23.215-9.185-33.797
	c2.96-10.563,12.058-19.216,25.617-24.364L303.291,16.76c9.527-3.229,17.338-4.725,24.624-4.725c14.721,0,27.97,6.381,42.957,20.692
	l499.127,487.446c9.185,9.729,13.383,19.727,12.177,28.951c-1.073,8.209-6.397,15.491-15.396,21.06L622.492,705.529
	C614.461,709.516,606.107,711.524,597.614,711.524z M45.814,165.965c6.424,6.668,413.687,429.357,507.481,522.506
	c13.539,13.446,28.864,20.554,44.319,20.554c8.104,0,16.084-1.921,23.717-5.708l244.185-135.289
	c8.286-5.13,13.208-11.789,14.182-19.228c1.105-8.454-2.864-17.747-11.48-26.874l-499.081-487.4
	c-14.477-13.822-27.192-19.991-41.221-19.991c-7.005,0-14.561,1.454-23.777,4.577L61.203,111.728
	c-12.8,4.86-21.358,12.922-24.099,22.703C34.366,144.202,37.377,155.104,45.814,165.965z M731.053,621.179
	c-8.796,0-17.934-3.793-24.444-10.146c-5.915-5.772-8.968-13-8.376-19.83c0.462-5.322,3.159-9.927,7.597-12.965
	c3.664-2.509,8.318-3.835,13.459-3.835c8.883,0,18.158,3.876,24.812,10.368c5.887,5.744,8.931,12.879,8.352,19.576
	c-0.456,5.265-3.164,9.845-7.624,12.898C741.069,619.819,736.306,621.179,731.053,621.179z M719.288,576.903
	c-4.634,0-8.8,1.175-12.047,3.397c-3.808,2.607-6.122,6.556-6.518,11.118c-0.527,6.081,2.254,12.578,7.631,17.825
	c6.055,5.908,14.54,9.435,22.698,9.435c4.747,0,9.021-1.209,12.362-3.495c3.886-2.66,6.149-6.482,6.545-11.052
	c0.516-5.947-2.257-12.353-7.606-17.571C736.156,580.514,727.534,576.903,719.288,576.903z M532.289,652.861
	c-1.499,0-2.856-0.591-4.035-1.754L81.243,190.446c-1.579-1.656-1.65-3.145-1.433-4.103c0.349-1.544,1.685-2.832,3.762-3.625
	L383.88,63.367c1.271-0.479,2.197-0.688,3.023-0.688c1.848,0,3.039,0.999,4.83,2.629l433.889,423.553
	c1.109,1.072,2.357,2.521,2.13,4.188c-0.235,1.715-1.915,2.84-3.526,3.713L535.925,651.733
	C534.743,652.469,533.498,652.861,532.289,652.861z M386.903,65.179c-0.505,0-1.179,0.165-2.121,0.52L84.479,185.048
	c-1.249,0.477-2.077,1.165-2.231,1.846c-0.148,0.657,0.351,1.352,0.796,1.819L530.03,649.348c1.293,1.275,2.845,1.338,4.645,0.223
	l288.363-155.007c1.863-1.011,2.201-1.595,2.236-1.853c0.032-0.233-0.106-0.812-1.395-2.057L390.02,67.127
	C388.394,65.648,387.743,65.179,386.903,65.179z M315.387,305.398c0.486-0.49,0.484-1.281-0.006-1.768l-71.622-71.148l37.184-14.062
	c0.646-0.244,0.971-0.965,0.727-1.611c-0.244-0.646-0.963-0.971-1.611-0.727l-39,14.749c-0.397,0.15-0.691,0.492-0.78,0.908
	c-0.088,0.416,0.04,0.848,0.342,1.147l73,72.517c0.244,0.242,0.562,0.363,0.881,0.363
	C314.821,305.767,315.143,305.644,315.387,305.398z M277.614,268.573l33.019-13.247c0.641-0.257,0.951-0.985,0.694-1.625
	c-0.259-0.642-0.985-0.953-1.626-0.695l-33.018,13.247c-0.641,0.257-0.952,0.985-0.695,1.625c0.196,0.488,0.665,0.785,1.161,0.785
	C277.304,268.664,277.462,268.634,277.614,268.573z M397.187,271.58c0.429-0.4,0.521-1.045,0.222-1.55l-45.278-76.407l91.522,59.426
	c0.496,0.323,1.148,0.254,1.565-0.165c0.417-0.418,0.485-1.071,0.162-1.566l-52.083-79.917c-0.378-0.579-1.151-0.742-1.729-0.365
	s-0.741,1.151-0.364,1.73l48.859,74.971l-91.049-59.119c-0.486-0.316-1.127-0.255-1.546,0.146c-0.419,0.402-0.506,1.04-0.21,1.539
	l45.104,76.112l-88.318-60.779c-0.57-0.391-1.347-0.249-1.738,0.321c-0.392,0.568-0.248,1.347,0.32,1.738l92.999,64
	c0.215,0.147,0.462,0.22,0.709,0.22C396.642,271.917,396.948,271.803,397.187,271.58z M221.441,83.714
	c-2.673,0-5.612-1.872-6.835-4.354c-0.729-1.479-0.762-3.007-0.09-4.191c0.635-1.119,1.792-1.801,3.259-1.921
	c2.772-0.218,6,1.71,7.292,4.336c0.729,1.478,0.762,3.005,0.091,4.189c-0.635,1.12-1.792,1.802-3.259,1.922
	C221.748,83.708,221.595,83.714,221.441,83.714z M218.234,75.73c-0.086,0-0.171,0.003-0.255,0.01
	c-0.437,0.036-1.014,0.179-1.288,0.663c-0.257,0.453-0.199,1.128,0.158,1.853c0.844,1.712,3.066,3.099,4.848,2.948
	c0.436-0.035,1.013-0.179,1.288-0.663c0.256-0.453,0.199-1.127-0.158-1.852C222.021,77.058,219.962,75.73,218.234,75.73z
	 M212.758,108.189c-1.452,0-3.43-0.473-4.626-1.799c-0.762-0.844-1.056-1.921-0.806-2.954c0.272-1.124,1.145-2.064,2.335-2.514
	l40.151-15.021c0.525-0.199,1.129-0.3,1.79-0.3c1.804,0,3.64,0.742,4.677,1.891c0.778,0.863,1.083,1.939,0.837,2.953
	c-0.262,1.081-1.088,1.956-2.268,2.402l-40.151,15.021C214.142,108.078,213.47,108.189,212.758,108.189z M251.602,88.101
	c-0.352,0-0.667,0.048-0.91,0.14l-40.151,15.021c-0.406,0.154-0.709,0.446-0.786,0.763c-0.056,0.23,0.02,0.457,0.231,0.691
	c0.518,0.573,1.657,0.974,2.771,0.974c0.407,0,0.783-0.058,1.059-0.162l40.151-15.021c0.379-0.143,0.656-0.393,0.718-0.651
	c0.062-0.257-0.109-0.517-0.264-0.689C253.865,88.549,252.679,88.101,251.602,88.101z"/>
</svg>
