<svg xmlns="http://www.w3.org/2000/svg" width="749.48" height="574.61" viewBox="0 0 749.48 574.61"><title>satellite-antenna</title><path d="M370.25,322.64L0.5,574.11" fill="none" stroke="#003cff" stroke-linecap="round" stroke-linejoin="round" stroke-dasharray="2.98 2.98"/><path d="M452.25,302.39s11.26-2,17.12-3.25c3.8-.83,5.67-3.29,8.3-6.78,4-5.25,36.88-48,36.88-48" fill="none" stroke="#003cff" stroke-linecap="round" stroke-linejoin="round" stroke-dasharray="2.98 2.98"/><path d="M528.79,226.21L566.93,196m-28.2-18.88-14.43,46.31" fill="none" stroke="#001eff" stroke-linecap="round" stroke-linejoin="round" stroke-width="1.5"/><path d="M534.93,227.25l59.47-18.54m-79.26-54.94,7.47,65.1" fill="none" stroke="#001eff" stroke-linecap="round" stroke-linejoin="round" stroke-width="1.5"/><path d="M745,194.64c-28.16,36.87-123.33,36.88-194.2-9.38-69.11-45.11-95-135.54-72.35-175" fill="none" stroke="#001eff" stroke-linecap="round" stroke-linejoin="round" stroke-width="2"/><path d="M531,222.5a12.75,12.75,0,1,0,.2,18A12.74,12.74,0,0,0,531,222.5Z" fill="none" stroke="#001eff" stroke-linecap="round" stroke-linejoin="round" stroke-width="1.5"/><path d="M393.55,318.77a1.57,1.57,0,1,1-1.14,1.51A1.37,1.37,0,0,1,393.55,318.77Z" fill="none" stroke="#001eff" stroke-linecap="round" stroke-linejoin="round"/><path d="M389.2,319.63a1.55,1.55,0,1,1-1.16,1.51A1.37,1.37,0,0,1,389.2,319.63Z" fill="none" stroke="#001eff" stroke-linecap="round" stroke-linejoin="round"/><path d="M397.91,317.73a1.57,1.57,0,1,1-1.15,1.51A1.38,1.38,0,0,1,397.91,317.73Z" fill="none" stroke="#001eff" stroke-linecap="round" stroke-linejoin="round"/><path d="M358.75,292L419,280.45a6.87,6.87,0,0,1,5.68,1.42l24,19.49c1.21,1.2.63,2.51-1.31,2.93l-62.75,13.54a6.88,6.88,0,0,1-5.68-1.42l-21.54-21.47C356.23,293.74,356.81,292.43,358.75,292Z" fill="none" stroke="#001eff" stroke-linecap="round" stroke-linejoin="round"/><path d="M449.34,303.05c0,6.21,0,9.53-1.93,10l-62.75,13.54a6.87,6.87,0,0,1-5.68-1.42l-21.54-21.47c-1.21-1.2-.7-5.42-0.7-9.55" fill="none" stroke="#001eff" stroke-linecap="round" stroke-linejoin="round"/><path d="M595.58,133.11l69-94.24" fill="none" stroke="#001eff" stroke-linecap="round" stroke-linejoin="round" stroke-width="2"/><path d="M526.72,53.06L657.85,32.13M674,43l17.9,121" fill="none" stroke="#001eff" stroke-linecap="round" stroke-linejoin="round" stroke-width="2"/><path d="M677.79,32.55c2.44,2.67,3.52,5.21,3,6.67-0.59,1.73-7.6.94-13.37-3s-9.08-9.13-7.51-11.23c1-1.26,3.74-1.11,7.2.26" fill="none" stroke="#001eff" stroke-linecap="round" stroke-linejoin="round" stroke-width="2"/><path d="M678.76,42.43c-0.59,1.72-7.6.92-13.37-3s-9.65-9.74-8.09-11.84" fill="none" stroke="#001eff" stroke-linecap="round" stroke-linejoin="round" stroke-width="2"/><path d="M666,29.11l5.25-6.81m8.62,4.88-5.35,8" fill="none" stroke="#001eff" stroke-linecap="round" stroke-linejoin="round" stroke-width="2"/><path d="M668.42,14.42L673,7.73c0.71,1.51,3.76,8.82,3.76,8.82l13.73,3.87c1.05,0.34,1.73.52,1.2,1.23l-4.31,6.5c-0.52.71-1.36,0.61-2.37,0.25l-12.55-3.75Z" fill="none" stroke="#001eff" stroke-linecap="round" stroke-linejoin="round" stroke-width="2"/><path d="M649.43,65.38c7.07,5.55,20,16.28,28.31,23.64" fill="none" stroke="#001eff" stroke-linecap="round" stroke-linejoin="round" stroke-width="2"/><path d="M613.55,42c7,4.22,20.86,12.45,30.37,19.35" fill="none" stroke="#001eff" stroke-linecap="round" stroke-linejoin="round" stroke-width="2"/><path d="M685.55,95.44c40.76,37.92,71.84,81.19,60.61,97.71-15.45,22.7-105.76-14.15-165.27-54.6S464,31.33,479.41,8.65C492.14-10.07,552,7.92,605.56,37.24" fill="none" stroke="#001eff" stroke-linecap="round" stroke-linejoin="round" stroke-width="2"/><polyline points="672.99 7.73 688.3 12.65 691.85 21.29" fill="none" stroke="#001eff" stroke-linecap="round" stroke-linejoin="round" stroke-width="2"/><path d="M500.74,135.44c22.85,29.8,74.18,67.31,123.54,80.52" fill="none" stroke="#001eff" stroke-linecap="round" stroke-linejoin="round" opacity="0.8" style="isolation:isolate"/><path d="M495.23,126.32c29.78,36,84.2,74,143.82,92.44" fill="none" stroke="#001eff" stroke-linecap="round" stroke-linejoin="round" opacity="0.6" style="isolation:isolate"/><path d="M485,107.12C528.3,160.92,584.67,196.61,659,220.9" fill="none" stroke="#001eff" stroke-linecap="round" stroke-linejoin="round" opacity="0.4" style="isolation:isolate"/><path d="M477.15,86.51C525.89,152.58,596.45,195.59,681,220.88" fill="none" stroke="#001eff" stroke-linecap="round" stroke-linejoin="round" opacity="0.2" style="isolation:isolate"/><path d="M519.19,219.2c-3.5,7.77,10.37,15.86,15.61,11.46" fill="none" stroke="#001eff" stroke-linecap="round" stroke-linejoin="round" stroke-width="1.5"/><path d="M646.43,68.38c7.07,5.55,24.48,20.28,32.75,27.64" fill="none" stroke="#001eff" stroke-linecap="round" stroke-linejoin="round" stroke-width="0.8"/><path d="M607.76,43.27c7,4.22,23.66,14.2,33.16,21.1" fill="none" stroke="#001eff" stroke-linecap="round" stroke-linejoin="round" stroke-width="0.8"/><path d="M480,8.1c17.59-12.21,70.78,4.28,119.55,30.48" fill="none" stroke="#001eff" stroke-linecap="round" stroke-linejoin="round" stroke-width="0.8"/><path d="M684.92,100.66C724.5,138,754.17,180,743.16,196.14" fill="none" stroke="#001eff" stroke-linecap="round" stroke-linejoin="round" stroke-width="0.8"/><path d="M643.43,72.38c7.07,5.55,28.35,23.65,36.62,31" fill="none" stroke="#001eff" stroke-linecap="round" stroke-linejoin="round" stroke-width="0.5"/><path d="M599.52,44.15c7,4.22,28.9,17.32,38.41,24.23" fill="none" stroke="#001eff" stroke-linecap="round" stroke-linejoin="round" stroke-width="0.5"/><path d="M478.27,11.28c18.06-10.19,66.64,4.48,112.66,28.35" fill="none" stroke="#001eff" stroke-linecap="round" stroke-linejoin="round" stroke-width="0.5"/><path d="M686.2,108.75c35.48,34.42,61.74,71.71,55.31,88.78" fill="none" stroke="#001eff" stroke-linecap="round" stroke-linejoin="round" stroke-width="0.5"/></svg>