<?xml version="1.0" encoding="utf-8"?>
<!-- Generator: Avocode 2.6.0 - http://avocode.com -->
<svg height="17" width="16" xmlns:xlink="http://www.w3.org/1999/xlink" xmlns="http://www.w3.org/2000/svg" viewBox="0 0 16 17">
    <path fill="#ffffff" opacity="0.7" fill-rule="evenodd" d="M 10.9 6.83 C 10.9 9.23 8.95 11.18 6.55 11.18 C 4.15 11.18 2.18 9.23 2.18 6.83 C 2.18 4.41 4.13 2.46 6.55 2.46 C 8.95 2.46 10.9 4.43 10.9 6.83 Z M 11.94 10.53 C 12.69 9.45 13.09 8.14 13.09 6.83 C 13.09 3.21 10.16 0.28 6.55 0.28 C 2.93 0.28 0 3.21 0 6.83 C 0 10.45 2.93 13.38 6.55 13.38 C 7.86 13.38 9.17 12.96 10.26 12.22 C 10.26 12.22 14.33 16.29 14.33 16.29 C 14.33 16.29 16.01 14.61 16.01 14.61 C 16.01 14.61 11.94 10.53 11.94 10.53 Z" />
</svg>