<?xml version="1.0" encoding="UTF-8" standalone="no"?>
<svg width="38px" height="38px" viewBox="0 0 38 38" version="1.1" xmlns="http://www.w3.org/2000/svg" xmlns:xlink="http://www.w3.org/1999/xlink" xmlns:sketch="http://www.bohemiancoding.com/sketch/ns">
    <!-- Generator: Sketch 3.5.2 (25235) - http://www.bohemiancoding.com/sketch -->
    <title>star</title>
    <desc>Created with Sketch.</desc>
    <defs></defs>
    <g id="Page-1" stroke="none" stroke-width="1" fill="none" fill-rule="evenodd" sketch:type="MSPage">
        <g id="star" sketch:type="MSLayerGroup" fill="#003CFF">
            <path d="M19,0 L19,11 L21,11 L21,0 L19,0 L19,0 Z" id="Shape" sketch:type="MSShapeGroup"></path>
            <path d="M19,27 L19,38 L21,38 L21,27 L19,27 L19,27 Z" id="Shape" sketch:type="MSShapeGroup"></path>
            <path d="M5.56289322,5.56710678 L13.3428932,13.3471068 L14.7571068,11.9328932 L6.97710678,4.15289322 L5.56289322,5.56710678 L5.56289322,5.56710678 Z" id="Shape" sketch:type="MSShapeGroup"></path>
            <path d="M24.6528932,24.6571068 L32.4328932,32.4371068 L33.8471068,31.0228932 L26.0671068,23.2428932 L24.6528932,24.6571068 L24.6528932,24.6571068 Z" id="Shape" sketch:type="MSShapeGroup"></path>
            <path d="M0,19 L11,19 L11,17 L0,17 L0,19 L0,19 Z" id="Shape" sketch:type="MSShapeGroup"></path>
            <path d="M27,19 L38,19 L38,17 L27,17 L27,19 L27,19 Z" id="Shape" sketch:type="MSShapeGroup"></path>
            <path d="M5.56710678,32.4371068 L13.3471068,24.6571068 L11.9328932,23.2428932 L4.15289322,31.0228932 L5.56710678,32.4371068 L5.56710678,32.4371068 Z" id="Shape" sketch:type="MSShapeGroup"></path>
            <path d="M24.6571068,13.3471068 L32.4371068,5.56710678 L31.0228932,4.15289322 L23.2428932,11.9328932 L24.6571068,13.3471068 L24.6571068,13.3471068 Z" id="Shape" sketch:type="MSShapeGroup"></path>
        </g>
    </g>
</svg>