<?xml version="1.0" encoding="utf-8"?>
<!-- Generator: Adobe Illustrator 16.0.0, SVG Export Plug-In . SVG Version: 6.00 Build 0)  -->
<!DOCTYPE svg PUBLIC "-//W3C//DTD SVG 1.1//EN" "http://www.w3.org/Graphics/SVG/1.1/DTD/svg11.dtd">
<svg version="1.1" id="Layer_1" xmlns="http://www.w3.org/2000/svg" xmlns:xlink="http://www.w3.org/1999/xlink" x="0px" y="0px"
	 width="32px" height="28px" viewBox="0 0 32 28" enable-background="new 0 0 32 28" xml:space="preserve">
<path fill="#C1D3E5" d="M12.583,24.569c-0.838,0-0.696-0.316-0.985-1.113l-2.465-8.113L28.107,4.086"/>
<path fill="#9BB1C6" d="M12.583,24.569c0.647,0,0.933-0.295,1.294-0.646l3.45-3.355l-4.304-2.594"/>
<path fill="#FFFFFF" d="M13.022,17.974l10.427,7.705c1.19,0.656,2.049,0.316,2.346-1.105l4.244-20.002
	c0.436-1.742-0.664-2.532-1.802-2.016L3.313,12.167c-1.701,0.682-1.691,1.631-0.31,2.055l6.396,1.996l14.807-9.342
	c0.699-0.424,1.341-0.196,0.814,0.272"/>
</svg>
