<svg id="Layer_1" data-name="Layer 1" xmlns="http://www.w3.org/2000/svg" width="331.03" height="441.76" viewBox="0 0 331.03 441.76">
  <title>users-2</title>
  <g opacity="0.5">
    <path d="M204,420l106.1-268.53" fill="none" stroke="#1116bb" stroke-miterlimit="10"/>
    <path d="M202.44,419l61.21-201.4" fill="none" stroke="#1116bb" stroke-miterlimit="10"/>
    <path d="M192,418.72L74.58,103.94" fill="none" stroke="#1116bb" stroke-miterlimit="10"/>
    <path d="M186.9,423.18l-169.39-217" fill="none" stroke="#1116bb" stroke-miterlimit="10"/>
    <path d="M188.15,421.79L84,231" fill="none" stroke="#1116bb" stroke-miterlimit="10"/>
    <path d="M194,418L137.93,187.59" fill="none" stroke="#1116bb" stroke-miterlimit="10"/>
    <path d="M195.93,417.85l-35.42-301.3" fill="none" stroke="#1116bb" stroke-miterlimit="10"/>
    <path d="M197.76,417.85L183.54,231" fill="none" stroke="#1116bb" stroke-miterlimit="10"/>
    <path d="M200.41,418.13L221.91,122" fill="none" stroke="#1116bb" stroke-miterlimit="10"/>
    <path d="M205.43,421.48l114.8-163.94" fill="none" stroke="#1116bb" stroke-miterlimit="10"/>
    <path d="M201.47,418.37l26.87-151.42" fill="none" stroke="#1116bb" stroke-miterlimit="10"/>
    <path d="M190,420L140.49,310.72" fill="none" stroke="#1116bb" stroke-miterlimit="10"/>
    <path d="M186.3,424.88L59.43,297.64" fill="none" stroke="#1116bb" stroke-miterlimit="10"/>
    <path d="M187.48,19.2L21.57,187.59" fill="none" stroke="#1116bb" stroke-miterlimit="10"/>
    <path d="M188.51,20.59L83.05,193" fill="none" stroke="#1116bb" stroke-miterlimit="10"/>
    <path d="M191.69,22.71L166.6,78.14" fill="none" stroke="#1116bb" stroke-miterlimit="10"/>
    <path d="M200.63,23.75L220.45,99" fill="none" stroke="#1116bb" stroke-miterlimit="10"/>
    <path d="M186.66,17.72L78,94" fill="none" stroke="#1116bb" stroke-miterlimit="10"/>
    <path d="M193.57,23.52L139.1,165.34" fill="none" stroke="#1116bb" stroke-miterlimit="10"/>
    <path d="M196.32,24.28L183.53,177.53" fill="none" stroke="#1116bb" stroke-miterlimit="10"/>
    <path d="M199.22,417.91l1.51-72.17" fill="none" stroke="#1116bb" stroke-miterlimit="10"/>
    <path d="M197.56,24.47l4.35,289.41" fill="none" stroke="#1116bb" stroke-miterlimit="10"/>
    <path d="M195,24.1L140.49,266.95" fill="none" stroke="#1116bb" stroke-miterlimit="10"/>
    <path d="M199.13,24.11l29.71,224.34" fill="none" stroke="#1116bb" stroke-miterlimit="10"/>
    <path d="M189.76,21.69L57.65,285.76" fill="none" stroke="#1116bb" stroke-miterlimit="10"/>
    <path d="M203.94,22.3L321,244.53" fill="none" stroke="#1116bb" stroke-miterlimit="10"/>
    <path d="M202.26,23.16l60.07,166.47" fill="none" stroke="#1116bb" stroke-miterlimit="10"/>
    <path d="M205.16,21.28l100.79,111.8" fill="none" stroke="#1116bb" stroke-miterlimit="10"/>
  </g>
  <path d="M160.51,77.18a19.68,19.68,0,1,1-19.69,19.68A19.69,19.69,0,0,1,160.51,77.18Z" fill="#001484" stroke="#e600ff" stroke-miterlimit="10" stroke-width="3.5"/>
  <path d="M183.07,178a26.47,26.47,0,1,1-26.48,26.48A26.48,26.48,0,0,1,183.07,178Z" fill="#001484" stroke="#a500f3" stroke-miterlimit="10" stroke-width="5"/>
  <path d="M312.72,129.9a10.22,10.22,0,1,1-10.22,10.22A10.22,10.22,0,0,1,312.72,129.9Z" fill="#001484" stroke="#7b00fe" stroke-miterlimit="10" stroke-width="2.5"/>
  <path d="M323.1,244.18a6.68,6.68,0,1,1-6.68,6.68A6.68,6.68,0,0,1,323.1,244.18Z" fill="#001484" stroke="#7b00fe" stroke-miterlimit="10" stroke-width="2.5"/>
  <path d="M266.16,189.09A14.13,14.13,0,1,1,252,203.22,14.13,14.13,0,0,1,266.16,189.09Z" fill="#001484" stroke="#8100fe" stroke-miterlimit="10" stroke-width="3.5"/>
  <path d="M229.49,248.42a9.26,9.26,0,1,1-9.26,9.26A9.26,9.26,0,0,1,229.49,248.42Z" fill="#001484" stroke="#8100fe" stroke-miterlimit="10" stroke-width="3.5"/>
  <path d="M201.91,313.87A15.94,15.94,0,1,1,186,329.81,15.94,15.94,0,0,1,201.91,313.87Z" fill="#001484" stroke="#a500f3" stroke-miterlimit="10" stroke-width="3"/>
  <path d="M133.82,266.65A22.32,22.32,0,1,1,111.49,289,22.33,22.33,0,0,1,133.82,266.65Z" fill="#001484" stroke="#e600ff" stroke-miterlimit="10" stroke-width="4"/>
  <path d="M54.27,284.71a7.49,7.49,0,1,1-7.5,7.49A7.5,7.5,0,0,1,54.27,284.71Z" fill="#001484" stroke="#ff00a6" stroke-miterlimit="10" stroke-width="2.5"/>
  <path d="M77.43,192.2a20.08,20.08,0,1,1-20.08,20.08A20.08,20.08,0,0,1,77.43,192.2Z" fill="#001484" stroke="#ff00a6" stroke-miterlimit="10" stroke-width="4"/>
  <path d="M12.8,184.08A11.55,11.55,0,1,1,1.25,195.63,11.55,11.55,0,0,1,12.8,184.08Z" fill="#001484" stroke="#ff00a6" stroke-miterlimit="10" stroke-width="2.5"/>
  <path d="M71.79,90.38a7.07,7.07,0,1,1-7.07,7.07A7.07,7.07,0,0,1,71.79,90.38Z" fill="#001484" stroke="#ff00a6" stroke-miterlimit="10" stroke-width="2.5"/>
  <path d="M197.19,1a11.55,11.55,0,1,1-11.55,11.55A11.55,11.55,0,0,1,197.19,1Z" fill="none" stroke="#2618fe" stroke-miterlimit="10" stroke-width="2"/>
  <path d="M221.91,98.88a11.55,11.55,0,1,1-11.56,11.55A11.55,11.55,0,0,1,221.91,98.88Z" fill="#001484" stroke="#a500f3" stroke-miterlimit="10" stroke-width="3"/>
  <path d="M197,417.66a11.55,11.55,0,1,1-11.55,11.55A11.55,11.55,0,0,1,197,417.66Z" fill="none" stroke="#2618fe" stroke-miterlimit="10" stroke-width="2"/>
  <path d="M136.48,164.69a11.55,11.55,0,1,1-11.55,11.55A11.55,11.55,0,0,1,136.48,164.69Z" fill="#001484" stroke="#e600ff" stroke-miterlimit="10" stroke-width="3"/>
</svg>
