<svg id="Layer_1" data-name="Layer 1" xmlns="http://www.w3.org/2000/svg" width="659.57" height="881.52" viewBox="0 0 659.57 881.52">
  <title>users</title>
  <g opacity="0.5">
    <path d="M460.64,900.89l212.2-537.05" transform="translate(-53.86 -61.86)" fill="none" stroke="#1116bb" stroke-miterlimit="10"/>
    <path d="M457.5,898.88L579.92,496.08" transform="translate(-53.86 -61.86)" fill="none" stroke="#1116bb" stroke-miterlimit="10"/>
    <path d="M436.55,898.29L201.78,268.74" transform="translate(-53.86 -61.86)" fill="none" stroke="#1116bb" stroke-miterlimit="10"/>
    <path d="M426.41,907.22L87.64,473.2" transform="translate(-53.86 -61.86)" fill="none" stroke="#1116bb" stroke-miterlimit="10"/>
    <path d="M428.92,904.44L220.51,522.78" transform="translate(-53.86 -61.86)" fill="none" stroke="#1116bb" stroke-miterlimit="10"/>
    <path d="M440.66,897L328.47,436" transform="translate(-53.86 -61.86)" fill="none" stroke="#1116bb" stroke-miterlimit="10"/>
    <path d="M444.47,896.55L373.64,294" transform="translate(-53.86 -61.86)" fill="none" stroke="#1116bb" stroke-miterlimit="10"/>
    <path d="M448.12,896.55L419.68,522.78" transform="translate(-53.86 -61.86)" fill="none" stroke="#1116bb" stroke-miterlimit="10"/>
    <path d="M453.43,897.11l43-592.29" transform="translate(-53.86 -61.86)" fill="none" stroke="#1116bb" stroke-miterlimit="10"/>
    <path d="M463.46,903.82l229.6-327.88" transform="translate(-53.86 -61.86)" fill="none" stroke="#1116bb" stroke-miterlimit="10"/>
    <path d="M455.55,897.59L509.3,594.75" transform="translate(-53.86 -61.86)" fill="none" stroke="#1116bb" stroke-miterlimit="10"/>
    <path d="M432.65,900.88L333.59,682.29" transform="translate(-53.86 -61.86)" fill="none" stroke="#1116bb" stroke-miterlimit="10"/>
    <path d="M425.21,910.61L171.47,656.13" transform="translate(-53.86 -61.86)" fill="none" stroke="#1116bb" stroke-miterlimit="10"/>
    <path d="M427.57,99.26L95.75,436" transform="translate(-53.86 -61.86)" fill="none" stroke="#1116bb" stroke-miterlimit="10"/>
    <path d="M429.62,102L218.71,446.86" transform="translate(-53.86 -61.86)" fill="none" stroke="#1116bb" stroke-miterlimit="10"/>
    <path d="M436,106.28L385.8,217.14" transform="translate(-53.86 -61.86)" fill="none" stroke="#1116bb" stroke-miterlimit="10"/>
    <path d="M453.87,108.36L493.5,258.81" transform="translate(-53.86 -61.86)" fill="none" stroke="#1116bb" stroke-miterlimit="10"/>
    <path d="M425.93,96.3L208.57,248.92" transform="translate(-53.86 -61.86)" fill="none" stroke="#1116bb" stroke-miterlimit="10"/>
    <path d="M439.74,107.9L330.81,391.53" transform="translate(-53.86 -61.86)" fill="none" stroke="#1116bb" stroke-miterlimit="10"/>
    <path d="M445.24,109.42l-25.56,306.5" transform="translate(-53.86 -61.86)" fill="none" stroke="#1116bb" stroke-miterlimit="10"/>
    <path d="M451.05,896.69l3-144.34" transform="translate(-53.86 -61.86)" fill="none" stroke="#1116bb" stroke-miterlimit="10"/>
    <path d="M447.72,109.79l8.7,578.81" transform="translate(-53.86 -61.86)" fill="none" stroke="#1116bb" stroke-miterlimit="10"/>
    <path d="M442.62,109.06l-109,485.7" transform="translate(-53.86 -61.86)" fill="none" stroke="#1116bb" stroke-miterlimit="10"/>
    <path d="M450.87,109.07l59.42,448.69" transform="translate(-53.86 -61.86)" fill="none" stroke="#1116bb" stroke-miterlimit="10"/>
    <path d="M432.12,104.23L167.92,632.37" transform="translate(-53.86 -61.86)" fill="none" stroke="#1116bb" stroke-miterlimit="10"/>
    <path d="M460.49,105.45l234.1,444.45" transform="translate(-53.86 -61.86)" fill="none" stroke="#1116bb" stroke-miterlimit="10"/>
    <path d="M457.12,107.17L577.25,440.11" transform="translate(-53.86 -61.86)" fill="none" stroke="#1116bb" stroke-miterlimit="10"/>
    <path d="M462.93,103.42L664.5,327" transform="translate(-53.86 -61.86)" fill="none" stroke="#1116bb" stroke-miterlimit="10"/>
  </g>
  <path d="M373.64,215.22a39.37,39.37,0,1,1-39.38,39.37A39.37,39.37,0,0,1,373.64,215.22Z" transform="translate(-53.86 -61.86)" fill="#001484" stroke="#8d00fc" stroke-miterlimit="10" stroke-width="3.5"/>
  <path d="M418.75,416.88a52.95,52.95,0,1,1-53,53A53,53,0,0,1,418.75,416.88Z" transform="translate(-53.86 -61.86)" fill="#001484" stroke="#6e00fc" stroke-miterlimit="10" stroke-width="5"/>
  <path d="M678.05,320.67a20.44,20.44,0,1,1-20.45,20.44A20.44,20.44,0,0,1,678.05,320.67Z" transform="translate(-53.86 -61.86)" fill="#001484" stroke="#6e00fc" stroke-miterlimit="10" stroke-width="2.5"/>
  <path d="M698.81,549.22a13.36,13.36,0,1,1-13.37,13.36A13.36,13.36,0,0,1,698.81,549.22Z" transform="translate(-53.86 -61.86)" fill="#001484" stroke="#6e00fc" stroke-miterlimit="10" stroke-width="2.5"/>
  <path d="M584.92,439a28.26,28.26,0,1,1-28.24,28.26A28.25,28.25,0,0,1,584.92,439Z" transform="translate(-53.86 -61.86)" fill="#001484" stroke="#6e00fc" stroke-miterlimit="10" stroke-width="3.5"/>
  <path d="M511.59,557.7a18.51,18.51,0,1,1-18.52,18.52A18.52,18.52,0,0,1,511.59,557.7Z" transform="translate(-53.86 -61.86)" fill="#001484" stroke="#6e00fc" stroke-miterlimit="10" stroke-width="2.5"/>
  <path d="M456.42,688.6a31.87,31.87,0,1,1-31.88,31.87A31.87,31.87,0,0,1,456.42,688.6Z" transform="translate(-53.86 -61.86)" fill="#001484" stroke="#6e00fc" stroke-miterlimit="10" stroke-width="3"/>
  <path d="M320.26,594.16a44.65,44.65,0,1,1-44.66,44.65A44.66,44.66,0,0,1,320.26,594.16Z" transform="translate(-53.86 -61.86)" fill="#001484" stroke="#8d00fc" stroke-miterlimit="10" stroke-width="4"/>
  <path d="M161.16,630.28a15,15,0,1,1-15,15A15,15,0,0,1,161.16,630.28Z" transform="translate(-53.86 -61.86)" fill="#001484" stroke="#6800fc" stroke-miterlimit="10" stroke-width="2.5"/>
  <path d="M207.47,445.26a40.15,40.15,0,1,1-40.17,40.15A40.16,40.16,0,0,1,207.47,445.26Z" transform="translate(-53.86 -61.86)" fill="#001484" stroke="#6e00fc" stroke-miterlimit="10" stroke-width="4"/>
  <path d="M78.22,429a23.1,23.1,0,1,1-23.11,23.1A23.1,23.1,0,0,1,78.22,429Z" transform="translate(-53.86 -61.86)" fill="#001484" stroke="#6800fc" stroke-miterlimit="10" stroke-width="2.5"/>
  <path d="M196.2,241.62a14.13,14.13,0,1,1-14.14,14.14A14.14,14.14,0,0,1,196.2,241.62Z" transform="translate(-53.86 -61.86)" fill="#001484" stroke="#6800fc" stroke-miterlimit="10" stroke-width="2.5"/>
  <path d="M447,62.86A23.1,23.1,0,1,1,423.88,86,23.1,23.1,0,0,1,447,62.86Z" transform="translate(-53.86 -61.86)" fill="none" stroke="#2618fe" stroke-miterlimit="10" stroke-width="2"/>
  <path d="M496.44,258.62a23.1,23.1,0,1,1-23.11,23.1A23.11,23.11,0,0,1,496.44,258.62Z" transform="translate(-53.86 -61.86)" fill="#001484" stroke="#6e00fc" stroke-miterlimit="10" stroke-width="3"/>
  <path d="M446.64,896.17a23.1,23.1,0,1,1-23.11,23.1A23.11,23.11,0,0,1,446.64,896.17Z" transform="translate(-53.86 -61.86)" fill="none" stroke="#2618fe" stroke-miterlimit="10" stroke-width="2"/>
  <path d="M325.56,390.23a23.1,23.1,0,1,1-23.11,23.1A23.1,23.1,0,0,1,325.56,390.23Z" transform="translate(-53.86 -61.86)" fill="#001484" stroke="#6e00fc" stroke-miterlimit="10" stroke-width="3"/>
</svg>
