<svg version="1.1" xmlns="http://www.w3.org/2000/svg" xmlns:xlink="http://www.w3.org/1999/xlink" x="0px" y="0px"
	 width="389.98px" height="505.475px" viewBox="0 0 389.98 505.475" enable-background="new 0 0 389.98 505.475"
	 xml:space="preserve">
<g opacity="0.5">
	<path fill-rule="evenodd" clip-rule="evenodd" fill="none" stroke="#1116BB" stroke-miterlimit="10" d="M230.319,450.446
		l106.1-268.526"/>
	<path fill-rule="evenodd" clip-rule="evenodd" fill="none" stroke="#1116BB" stroke-miterlimit="10" d="M228.749,449.438
		l61.211-201.396"/>
	<path fill-rule="evenodd" clip-rule="evenodd" fill="none" stroke="#1116BB" stroke-miterlimit="10" d="M218.277,449.146
		L100.889,134.372"/>
	<path fill-rule="evenodd" clip-rule="evenodd" fill="none" stroke="#1116BB" stroke-miterlimit="10" d="M213.207,453.609
		L43.82,236.6"/>
	<path fill-rule="evenodd" clip-rule="evenodd" fill="none" stroke="#1116BB" stroke-miterlimit="10" d="M214.459,452.221
		L110.257,261.39"/>
	<path fill-rule="evenodd" clip-rule="evenodd" fill="none" stroke="#1116BB" stroke-miterlimit="10" d="M220.329,448.476
		l-56.094-230.46"/>
	<path fill-rule="evenodd" clip-rule="evenodd" fill="none" stroke="#1116BB" stroke-miterlimit="10" d="M222.235,448.274
		l-35.416-301.295"/>
	<path fill-rule="evenodd" clip-rule="evenodd" fill="none" stroke="#1116BB" stroke-miterlimit="10" d="M224.061,448.274
		L209.839,261.39"/>
	<path fill-rule="evenodd" clip-rule="evenodd" fill="none" stroke="#1116BB" stroke-miterlimit="10" d="M226.715,448.556
		l21.503-296.146"/>
	<path fill-rule="evenodd" clip-rule="evenodd" fill="none" stroke="#1116BB" stroke-miterlimit="10" d="M231.728,451.911
		l114.799-163.942"/>
	<path fill-rule="evenodd" clip-rule="evenodd" fill="none" stroke="#1116BB" stroke-miterlimit="10" d="M227.777,448.795
		l26.874-151.418"/>
	<path fill-rule="evenodd" clip-rule="evenodd" fill="none" stroke="#1116BB" stroke-miterlimit="10" d="M216.324,450.441
		l-49.527-109.293"/>
	<path fill-rule="evenodd" clip-rule="evenodd" fill="none" stroke="#1116BB" stroke-miterlimit="10" d="M212.604,455.306
		L85.736,328.066"/>
	<path fill-rule="evenodd" clip-rule="evenodd" fill="none" stroke="#1116BB" stroke-miterlimit="10" d="M213.784,49.629
		L47.877,218.016"/>
	<path fill-rule="evenodd" clip-rule="evenodd" fill="none" stroke="#1116BB" stroke-miterlimit="10" d="M214.808,51.023
		L109.356,223.43"/>
	<path fill-rule="evenodd" clip-rule="evenodd" fill="none" stroke="#1116BB" stroke-miterlimit="10" d="M217.996,53.139
		l-25.095,55.433"/>
	<path fill-rule="evenodd" clip-rule="evenodd" fill="none" stroke="#1116BB" stroke-miterlimit="10" d="M226.933,54.18
		l19.818,75.225"/>
	<path fill-rule="evenodd" clip-rule="evenodd" fill="none" stroke="#1116BB" stroke-miterlimit="10" d="M212.964,48.148
		l-108.68,76.31"/>
	<path fill-rule="evenodd" clip-rule="evenodd" fill="none" stroke="#1116BB" stroke-miterlimit="10" d="M219.87,53.948
		l-54.465,141.819"/>
	<path fill-rule="evenodd" clip-rule="evenodd" fill="none" stroke="#1116BB" stroke-miterlimit="10" d="M222.62,54.711
		l-12.781,153.25"/>
	<path fill-rule="evenodd" clip-rule="evenodd" fill="none" stroke="#1116BB" stroke-miterlimit="10" d="M225.527,448.343
		l1.509-72.171"/>
	<path fill-rule="evenodd" clip-rule="evenodd" fill="none" stroke="#1116BB" stroke-miterlimit="10" d="M223.861,54.896
		l4.35,289.406"/>
	<path fill-rule="evenodd" clip-rule="evenodd" fill="none" stroke="#1116BB" stroke-miterlimit="10" d="M221.308,54.528
		l-54.511,242.849"/>
	<path fill-rule="evenodd" clip-rule="evenodd" fill="none" stroke="#1116BB" stroke-miterlimit="10" d="M225.433,54.537
		l29.711,224.344"/>
	<path fill-rule="evenodd" clip-rule="evenodd" fill="none" stroke="#1116BB" stroke-miterlimit="10" d="M216.058,52.117
		L83.959,316.184"/>
	<path fill-rule="evenodd" clip-rule="evenodd" fill="none" stroke="#1116BB" stroke-miterlimit="10" d="M230.245,52.727
		l117.051,222.227"/>
	<path fill-rule="evenodd" clip-rule="evenodd" fill="none" stroke="#1116BB" stroke-miterlimit="10" d="M228.558,53.586
		l60.067,166.468"/>
	<path fill-rule="evenodd" clip-rule="evenodd" fill="none" stroke="#1116BB" stroke-miterlimit="10" d="M231.464,51.711
		L332.25,163.509"/>
</g>
<g>
	<path fill-rule="evenodd" clip-rule="evenodd" fill="#001484" stroke="#8100FE" stroke-width="3.5" stroke-miterlimit="10" d="
		M186.819,107.61c10.875,0,19.691,8.812,19.691,19.685s-8.816,19.685-19.691,19.685s-19.691-8.812-19.691-19.685
		S175.944,107.61,186.819,107.61z"/>
</g>
<path fill-rule="evenodd" clip-rule="evenodd" fill="#001484" stroke="#FF00A6" stroke-width="5" stroke-miterlimit="10" d="
	M209.377,208.441c14.626,0,26.483,11.854,26.483,26.475s-11.857,26.474-26.483,26.474s-26.483-11.853-26.483-26.474
	S194.751,208.441,209.377,208.441z"/>
<path fill-rule="evenodd" clip-rule="evenodd" fill="#001484" stroke="#7B00FE" stroke-width="2.5" stroke-miterlimit="10" d="
	M339.026,160.333c5.646,0,10.224,4.575,10.224,10.22s-4.577,10.22-10.224,10.22c-5.646,0-10.223-4.575-10.223-10.22
	S333.381,160.333,339.026,160.333z"/>
<path fill-rule="evenodd" clip-rule="evenodd" fill="#001484" stroke="#7B00FE" stroke-width="2.5" stroke-miterlimit="10" d="
	M349.404,274.609c3.69,0,6.683,2.99,6.683,6.68c0,3.688-2.992,6.68-6.683,6.68s-6.682-2.991-6.682-6.68
	C342.723,277.6,345.714,274.609,349.404,274.609z"/>
<path fill-rule="evenodd" clip-rule="evenodd" fill="#001484" stroke="#E600FF" stroke-width="3.5" stroke-miterlimit="10" d="
	M292.459,219.522c7.799,0,14.121,6.326,14.121,14.13s-6.322,14.129-14.121,14.129c-7.8,0-14.122-6.325-14.122-14.129
	S284.659,219.522,292.459,219.522z"/>
<path fill-rule="evenodd" clip-rule="evenodd" fill="#001484" stroke="#FF00CF" stroke-width="3" stroke-miterlimit="10" d="
	M255.795,278.851c5.114,0,9.26,4.145,9.26,9.257s-4.146,9.256-9.26,9.256s-9.26-4.144-9.26-9.256S250.681,278.851,255.795,278.851z"
	/>
<path fill-rule="evenodd" clip-rule="evenodd" fill="#001484" stroke="#8100FE" stroke-width="3" stroke-miterlimit="10" d="
	M228.211,344.302c8.804,0,15.94,7.134,15.94,15.935s-7.137,15.936-15.94,15.936s-15.94-7.135-15.94-15.936
	S219.407,344.302,228.211,344.302z"/>
<path fill-rule="evenodd" clip-rule="evenodd" fill="#001484" stroke="#C400FF" stroke-width="4" stroke-miterlimit="10" d="
	M160.128,297.078c12.333,0,22.333,9.996,22.333,22.325s-9.999,22.324-22.333,22.324s-22.332-9.995-22.332-22.324
	S147.795,297.078,160.128,297.078z"/>
<path fill-rule="evenodd" clip-rule="evenodd" fill="#001484" stroke="#7B00FE" stroke-width="2.5" stroke-miterlimit="10" d="
	M80.578,315.142c4.141,0,7.498,3.355,7.498,7.494c0,4.14-3.357,7.495-7.498,7.495s-7.497-3.355-7.497-7.495
	C73.081,318.497,76.438,315.142,80.578,315.142z"/>
<path fill-rule="evenodd" clip-rule="evenodd" fill="#001484" stroke="#E600FF" stroke-width="4" stroke-miterlimit="10" d="
	M103.733,222.628c11.091,0,20.083,8.988,20.083,20.075c0,11.088-8.991,20.076-20.083,20.076s-20.083-8.988-20.083-20.076
	C83.65,231.616,92.642,222.628,103.733,222.628z"/>
<path fill-rule="evenodd" clip-rule="evenodd" fill="#001484" stroke="#8100FE" stroke-width="2.5" stroke-miterlimit="10" d="
	M39.108,214.507c6.381,0,11.554,5.171,11.554,11.55s-5.173,11.551-11.554,11.551s-11.554-5.172-11.554-11.551
	S32.727,214.507,39.108,214.507z"/>
<path fill-rule="evenodd" clip-rule="evenodd" fill="#001484" stroke="#7B00FE" stroke-width="2.5" stroke-miterlimit="10" d="
	M98.099,120.81c3.904,0,7.069,3.165,7.069,7.068s-3.165,7.067-7.069,7.067c-3.905,0-7.07-3.164-7.07-7.067
	S94.194,120.81,98.099,120.81z"/>
<path fill-rule="evenodd" clip-rule="evenodd" fill="none" stroke="#2618FE" stroke-width="2" stroke-miterlimit="10" d="
	M223.493,31.428c6.382,0,11.555,5.171,11.555,11.551c0,6.379-5.173,11.55-11.555,11.55c-6.381,0-11.554-5.171-11.554-11.55
	C211.939,36.599,217.112,31.428,223.493,31.428z"/>
<path fill-rule="evenodd" clip-rule="evenodd" fill="#001484" stroke="#A500F3" stroke-width="3" stroke-miterlimit="10" d="
	M248.218,129.308c6.381,0,11.555,5.171,11.555,11.551c0,6.379-5.174,11.551-11.555,11.551s-11.555-5.172-11.555-11.551
	C236.663,134.479,241.837,129.308,248.218,129.308z"/>
<path fill-rule="evenodd" clip-rule="evenodd" fill="none" stroke="#2618FE" stroke-width="2" stroke-miterlimit="10" d="
	M223.319,448.085c6.381,0,11.554,5.172,11.554,11.551s-5.173,11.55-11.554,11.55c-6.382,0-11.555-5.171-11.555-11.55
	S216.938,448.085,223.319,448.085z"/>
<path fill-rule="evenodd" clip-rule="evenodd" fill="#001484" stroke="#FF00CF" stroke-width="3" stroke-miterlimit="10" d="
	M162.781,195.117c6.381,0,11.554,5.171,11.554,11.55c0,6.38-5.173,11.551-11.554,11.551s-11.554-5.171-11.554-11.551
	C151.227,200.288,156.399,195.117,162.781,195.117z"/>
</svg>
