<?xml version="1.0" encoding="utf-8"?>
<!-- Generator: Avocode 2.3.2-ea60620 - http://avocode.com -->
<svg height="35" width="33" xmlns:xlink="http://www.w3.org/1999/xlink" xmlns="http://www.w3.org/2000/svg" viewBox="0 0 33 35">
    <path stroke-linejoin="miter" stroke-linecap="butt" stroke-width="1" stroke="#ff9c00" fill="none" fill-rule="evenodd" d="M 8 0 C 8 0 31 0 31 0 C 32.11 0 33 0.9 33 2 C 33 2 33 33 33 33 C 33 34.1 32.11 35 31 35 C 31 35 8 35 8 35 C 6.89 35 6 34.1 6 33 C 6 33 6 2 6 2 C 6 0.9 6.89 0 8 0 Z" />
    <path fill="#ff9c00" fill-rule="evenodd" d="M 2 15 C 2 15 25 15 25 15 C 26.11 15 27 15.9 27 17 C 27 17 27 26 27 26 C 27 27.1 26.11 28 25 28 C 25 28 2 28 2 28 C 0.89 28 0 27.1 0 26 C 0 26 0 17 0 17 C 0 15.9 0.89 15 2 15 Z" />
    <text font-weight="500" font-size="10" font-family="FiraMono" fill="#ffffff" y="26" x="3">
        <tspan>GIF</tspan>
    </text>
</svg>