<?xml version="1.0" encoding="utf-8"?>
<!-- Generator: Avocode 2.3.2-ea60620 - http://avocode.com -->
<svg height="35" width="33" xmlns:xlink="http://www.w3.org/1999/xlink" xmlns="http://www.w3.org/2000/svg" viewBox="0 0 33 35">
    <path stroke-linejoin="miter" stroke-linecap="butt" stroke-width="1" stroke="#9a9a9a" fill="none" fill-rule="evenodd" d="M 8 0 C 8 0 31 0 31 0 C 32.11 0 33 0.9 33 2 C 33 2 33 33 33 33 C 33 34.1 32.11 35 31 35 C 31 35 8 35 8 35 C 6.89 35 6 34.1 6 33 C 6 33 6 2 6 2 C 6 0.9 6.89 0 8 0 Z" />
    <path fill="#b3b3b3" fill-rule="evenodd" d="M 2 15 C 2 15 25 15 25 15 C 26.11 15 27 15.9 27 17 C 27 17 27 26 27 26 C 27 27.1 26.11 28 25 28 C 25 28 2 28 2 28 C 0.89 28 0 27.1 0 26 C 0 26 0 17 0 17 C 0 15.9 0.89 15 2 15 Z" />
    <path fill="#ffffff" fill-rule="evenodd" d="M 19.5 23 C 18.67 23 18 22.33 18 21.5 C 18 20.67 18.67 20 19.5 20 C 20.33 20 21 20.67 21 21.5 C 21 22.33 20.33 23 19.5 23 Z M 13.5 23 C 12.67 23 12 22.33 12 21.5 C 12 20.67 12.67 20 13.5 20 C 14.33 20 15 20.67 15 21.5 C 15 22.33 14.33 23 13.5 23 Z M 7.5 23 C 6.67 23 6 22.33 6 21.5 C 6 20.67 6.67 20 7.5 20 C 8.33 20 9 20.67 9 21.5 C 9 22.33 8.33 23 7.5 23 Z" />
</svg>