<svg height="35" width="33" xmlns="http://www.w3.org/2000/svg" viewBox="0 0 33 35"><path stroke="#9a9a9a" fill="none" fill-rule="evenodd" d="M8 0h23a2 2 0 0 1 2 2v31a2 2 0 0 1-2 2H8a2 2 0 0 1-2-2V2a2 2 0 0 1 2-2z"/><path fill="#b3b3b3" fill-rule="evenodd" d="M2 15h23a2 2 0 0 1 2 2v9a2 2 0 0 1-2 2H2a2 2 0 0 1-2-2v-9a2 2 0 0 1 2-2z"/><path fill="#fff" fill-rule="evenodd" d="M19.5 23c-.83 0-1.5-.67-1.5-1.5s.67-1.5 1.5-1.5 1.5.67 1.5 1.5-.67 1.5-1.5 1.5zm-6 0c-.83 0-1.5-.67-1.5-1.5s.67-1.5 1.5-1.5 1.5.67 1.5 1.5-.67 1.5-1.5 1.5zm-6 0c-.83 0-1.5-.67-1.5-1.5S6.67 20 7.5 20s1.5.67 1.5 1.5S8.33 23 7.5 23z"/></svg>