<svg xmlns="http://www.w3.org/2000/svg" width="882" height="857" viewBox="0 0 882 857"><path fill="none" stroke="#003CFF" stroke-width="2" stroke-miterlimit="10" d="M574.27 234.228C591.82 100.91 706.54 25.478 742.948 10.81c-6.548 2.357-628.344 228.656-651.654 237.3-48.456 17.286-63.91 105.03-37.193 185.177 1.834 5.5 6.024 7.07 11.524 4.975 74.123-26.977 396.546-144.58 486.385-177.318 15.19-5.24 20.69-13.62 22.26-26.716z"/><path fill="none" stroke="#003CFF" stroke-width="2" stroke-miterlimit="10" d="M774.116 105.625c.262-27.5 3.143-54.217 12.57-80.67 2.883-7.597 10.217-22.526-3.403-23.574-10.738-.785-27.764 4.715-40.336 9.43M743.21 367.806S264.16 542.244 232.466 553.77c-55.265 20.167-132.27-33.003-162.652-116.817"/><path fill="none" stroke="#003CFF" stroke-width="2" stroke-miterlimit="10" d="M676.42 54.55c64.694-2.094 111.054 57.624 131.745 114.46 30.907 84.862 3.144 173.914-63.908 198.273-67.05 24.358-149.032-28.025-179.938-112.888M443.836 600.13c18.334-6.812 39.025 2.88 45.574 21.214 6.548 18.334-2.882 39.027-21.216 45.574-18.335 6.81-39.026-2.88-45.574-21.215-7.07-18.598 2.62-38.764 21.216-45.574zm-14.144 57.622s-75.17 106.338-79.1 111.838c-4.19 5.764-8.644 12.834-3.667 26.717 4.977 13.62 13.62 13.357 17.81 7.596 1.31-1.834 94.03-134.89 94.03-134.89m-13.62-69.408l-7.857-109.482m32.216-11.525l8.12 126.77"/><path fill="none" stroke="#003CFF" stroke-width="2" stroke-miterlimit="10" d="M628.75 155.128c22.525-34.573 66.528-36.145 99.006-3.93 32.217 32.48 40.336 86.696 17.81 121.53-22.523 34.575-66.526 36.146-99.004 3.93-32.216-32.74-40.075-86.957-17.81-121.53zm13.097 36.407c10.477-16.24 31.43-17.025 46.622-1.572 15.452 15.454 19.118 40.86 8.642 57.1s-31.43 17.024-46.62 1.57c-15.455-15.19-19.122-40.597-8.645-57.098zm15.977 23.048c2.62-4.19 8.12-4.453 12.048-.524s4.977 10.738 2.095 15.19c-2.62 4.19-8.12 4.453-12.048.524-3.93-4.19-4.978-11.262-2.096-15.19zm23.31-11.524c9.168 9.428 11.787 25.405 5.24 35.096"/><path fill="none" stroke="#003CFF" stroke-miterlimit="10" d="M195.013 556.912l505.242-183.867"/><path fill="none" stroke="#003CFF" stroke-width=".8" stroke-miterlimit="10" d="M177.202 552.197l502.1-182.557"/><path fill="none" stroke="#003CFF" stroke-width=".6" stroke-miterlimit="10" d="M155.986 543.293l499.742-182.035"/><path fill="none" stroke="#003CFF" stroke-width=".4" stroke-miterlimit="10" d="M132.15 526.79l498.172-181.247"/><path fill="none" stroke="#003CFF" stroke-miterlimit="10" d="M692.135 41.455l97.173-35.36"/><path fill="none" stroke="#003CFF" stroke-width=".8" stroke-miterlimit="10" d="M686.635 54.813L789.57 17.358"/><path fill="none" stroke="#003CFF" stroke-width=".6" stroke-miterlimit="10" d="M711.518 59.527l71.504-26.192"/><path fill="none" stroke="#003CFF" stroke-width=".4" stroke-miterlimit="10" d="M731.947 68.694l47.145-17.287"/><path fill="none" stroke="#003CFF" stroke-width="2" stroke-miterlimit="10" d="M478.933 463.932c2.357 6.81 0 11.262-6.286 13.357l-37.454 13.618c-6.81 2.357-11.263-.262-13.358-6.285M376 787.662c9.69 30.12 9.69 58.67-1.05 66.266-11.523 8.383-31.953-13.88-45.31-49.502-13.62-35.62-15.192-70.98-3.668-79.1 8.905-6.285 23.573 5.762 35.883 28.287"/></svg>