<svg xmlns="http://www.w3.org/2000/svg" width="882" height="857" viewBox="0 0 882 857"><path fill="none" stroke="#003CFF" stroke-width="2" stroke-miterlimit="10" d="M574.271 234.228C591.82 100.911 706.541 25.478 742.947 10.81c-6.548 2.357-628.344 228.656-651.654 237.299-48.456 17.287-63.909 105.03-37.193 185.178 1.834 5.5 6.024 7.07 11.524 4.975 74.123-26.977 396.546-144.579 486.385-177.318 15.19-5.239 20.691-13.621 22.262-26.716zM774.116 105.625c.262-27.501 3.143-54.217 12.571-80.671 2.882-7.596 10.216-22.525-3.404-23.573-10.738-.786-27.764 4.714-40.336 9.429M743.209 367.806s-479.05 174.438-510.742 185.963c-55.265 20.168-132.27-33.002-162.652-116.816"/><path fill="none" stroke="#003CFF" stroke-width="2" stroke-miterlimit="10" d="M676.42 54.551c64.694-2.095 111.054 57.623 131.745 114.459 30.907 84.862 3.144 173.914-63.908 198.273-67.051 24.358-149.032-28.025-179.938-112.888M443.836 600.129c18.334-6.811 39.025 2.881 45.574 21.215 6.548 18.334-2.882 39.027-21.216 45.574-18.335 6.811-39.026-2.881-45.574-21.215-7.071-18.598 2.619-38.764 21.216-45.574zm-14.144 57.623s-75.171 106.338-79.1 111.838c-4.191 5.764-8.644 12.834-3.667 26.717 4.977 13.619 13.619 13.357 17.811 7.596 1.31-1.834 94.028-134.889 94.028-134.889m-13.618-69.409l-7.858-109.482m32.216-11.525l8.119 126.77"/><path fill="none" stroke="#003CFF" stroke-width="2" stroke-miterlimit="10" d="M628.751 155.128c22.524-34.573 66.527-36.145 99.005-3.929 32.217 32.478 40.336 86.695 17.811 121.53-22.524 34.574-66.527 36.145-99.005 3.929-32.216-32.74-40.075-86.957-17.811-121.53zm13.096 36.407c10.477-16.239 31.431-17.025 46.622-1.572 15.453 15.454 19.119 40.86 8.643 57.099s-31.43 17.025-46.621 1.572c-15.454-15.192-19.121-40.598-8.644-57.099zm15.977 23.048c2.619-4.19 8.119-4.453 12.048-.524s4.977 10.739 2.095 15.191c-2.619 4.191-8.119 4.453-12.048.524-3.929-4.19-4.977-11.262-2.095-15.191zm23.311-11.524c9.167 9.429 11.786 25.406 5.238 35.097"/><path fill="none" stroke="#003CFF" stroke-miterlimit="10" d="M195.013 556.912l505.242-183.867"/><path fill="none" stroke="#003CFF" stroke-width=".8" stroke-miterlimit="10" d="M177.202 552.197L679.301 369.64"/><path fill="none" stroke="#003CFF" stroke-width=".6" stroke-miterlimit="10" d="M155.986 543.293l499.742-182.035"/><path fill="none" stroke="#003CFF" stroke-width=".4" stroke-miterlimit="10" d="M132.151 526.791l498.171-181.248"/><path fill="none" stroke="#003CFF" stroke-miterlimit="10" d="M692.135 41.455l97.173-35.359"/><path fill="none" stroke="#003CFF" stroke-width=".8" stroke-miterlimit="10" d="M686.635 54.813L789.57 17.358"/><path fill="none" stroke="#003CFF" stroke-width=".6" stroke-miterlimit="10" d="M711.518 59.527l71.504-26.192"/><path fill="none" stroke="#003CFF" stroke-width=".4" stroke-miterlimit="10" d="M731.947 68.694l47.145-17.287"/><path fill="none" stroke="#003CFF" stroke-width="2" stroke-miterlimit="10" d="M478.933 463.932c2.357 6.809 0 11.262-6.286 13.357l-37.454 13.619c-6.81 2.357-11.263-.262-13.358-6.285M375.999 787.662c9.69 30.121 9.69 58.67-1.048 66.266-11.524 8.383-31.954-13.881-45.312-49.502-13.619-35.621-15.191-70.98-3.667-79.1 8.905-6.285 23.573 5.762 35.883 28.287"/></svg>