<?xml version="1.0" encoding="UTF-8" standalone="no"?>
<svg width="629px" height="606px" viewBox="0 0 629 606" version="1.1" xmlns="http://www.w3.org/2000/svg" xmlns:xlink="http://www.w3.org/1999/xlink" xmlns:sketch="http://www.bohemiancoding.com/sketch/ns">
    <!-- Generator: Sketch 3.5.1 (25234) - http://www.bohemiancoding.com/sketch -->
    <title>features-cubes</title>
    <desc>Created with Sketch.</desc>
    <defs></defs>
    <g id="Page-1" stroke="none" stroke-width="1" fill="none" fill-rule="evenodd" sketch:type="MSPage">
        <g id="features-cubes" sketch:type="MSLayerGroup" fill="#003CFF">
            <path d="M283.2,605.4 L283,605.4 L221.1,591.9 L221,591.9 C220.9,591.9 220.7,591.8 220.6,591.7 L220.6,591.7 L220.6,591.7 C220.5,591.6 220.4,591.5 220.4,591.4 L220.4,591.3 L214,569.7 L156,594.4 C155.9,594.6 155.7,594.7 155.5,594.7 C155.4,594.7 155.2,594.8 155.1,594.7 L154.7,594.7 L49.5,571.9 L49.4,571.9 C49.3,571.9 49.1,571.8 49,571.7 C48.9,571.6 48.8,571.5 48.8,571.3 L48.8,571.2 L0.2,408.4 C0.1,408.3 0,408.1 0,407.9 C0,407.5 0.2,407.1 0.6,406.9 L146.5,345.5 C146.7,345.4 146.9,345.4 147.1,345.4 L251.9,368.6 C252.3,368.7 252.6,369.1 252.7,369.5 L252.7,369.7 C252.7,369.7 252.7,369.8 252.8,369.9 L279.1,458 L295.2,461.6 L267.4,368 C267.4,368 267.4,368 267.4,367.9 C267.3,367.7 267.4,367.4 267.5,367.3 L267.5,367.3 L267.5,367.3 L267.5,367.3 L267.5,367.2 L267.5,367.2 L267.5,367.2 L267.5,367.2 L267.5,367.2 C267.6,367 267.8,366.9 268,366.8 L392.4,314.3 L365.6,308.5 L259.2,353.8 C259.1,354.1 258.9,354.3 258.6,354.3 C258.2,354.4 257.9,354.3 257.6,354.1 L152.7,331.5 L152.6,331.5 C152.5,331.5 152.3,331.4 152.2,331.3 C152.1,331.2 152,331.1 152,330.9 L152,330.8 L103.5,168.2 C103.3,168 103.2,167.8 103.2,167.5 C103.2,167.1 103.4,166.7 103.8,166.5 L244.4,107 L236.8,81.5 C236.7,81.4 236.7,81.2 236.7,81.1 L236.7,81 C236.7,80.5 237,80.1 237.4,80 L237.7,80 L427.4,0.1 C427.6,0 427.8,0 428,0 L564.6,30.2 C565,30.3 565.3,30.6 565.4,30.9 C565.5,31 565.6,31.2 565.7,31.4 L628.6,242.3 L628.6,242.6 L628.6,242.6 L628.6,242.6 L628.6,242.6 L628.6,242.6 C628.6,242.7 628.6,242.8 628.5,242.9 L628.5,242.9 L628.5,242.9 C628.4,243.1 628.3,243.2 628.2,243.3 L628.2,243.3 L628.2,243.3 C628.1,243.3 628.1,243.4 628,243.4 L459.4,315.2 L519.1,328.4 C519.4,328.5 519.6,328.6 519.7,328.8 C519.9,328.9 520,329.1 520.1,329.4 L568.4,491.3 C568.6,491.8 568.3,492.4 567.7,492.5 L567.5,492.5 L422.5,554.3 C422.3,554.4 422.1,554.4 421.9,554.4 L361.9,541.4 L369.7,567.6 C369.9,568.1 369.6,568.7 369,568.8 L368.8,568.8 L283.5,605.1 C283.5,605.4 283.3,605.4 283.2,605.4 L283.2,605.4 Z M222.1,590 L282.2,603.1 L254.2,509.3 L194.2,496.3 L222.1,590 L222.1,590 Z M256.1,509 L284.1,602.9 L367.5,567.4 L359.5,540.7 C359.4,540.6 359.4,540.5 359.4,540.4 L339.6,473.9 L256.1,509 L256.1,509 Z M50.5,570 L153.7,592.4 L105.8,431.6 L2.5,409.2 L50.5,570 L50.5,570 Z M107.8,431.4 L155.7,592.3 L213.3,567.7 L191.8,495.5 C191.7,495.4 191.7,495.2 191.7,495.1 L191.7,495 C191.7,494.5 192,494.1 192.4,494 L192.7,494 L277.1,458.4 L251,371 L107.8,431.4 L107.8,431.4 Z M361.3,539.4 L421,552.4 L373.1,391.5 L269.8,369 L297.5,462 L340.6,471.6 C340.9,471.7 341.2,471.9 341.3,472.2 C341.3,472.3 341.4,472.4 341.4,472.5 L361.3,539.4 L361.3,539.4 Z M375.1,391.2 L423.1,552.2 L566.3,491.1 L518.5,330.8 L375.1,391.2 L375.1,391.2 Z M196,494.7 L254.7,507.5 L337,472.8 L278.6,459.8 L196,494.7 L196,494.7 Z M4.3,407.5 L106.4,429.8 L248.4,369.9 L147,347.4 L4.3,407.5 L4.3,407.5 Z M271.6,367.3 L373.7,389.6 L515.6,329.8 L456.2,316.7 L438.7,324.2 C438.5,324.3 438.3,324.3 438.1,324.3 L395.7,315.1 L271.6,367.3 L271.6,367.3 Z M153.6,329.5 L256.7,351.8 L208.8,191.2 L208.8,191.2 L105.6,168.7 L153.6,329.5 L153.6,329.5 Z M210.8,190.8 L258.7,351.7 L362.1,307.6 L301,294.3 C300.6,294.3 300.2,294 300,293.6 L262.8,168.9 L210.8,190.8 L210.8,190.8 Z M366,306.4 L437.3,321.9 L374.6,111.8 L239.2,82.3 L301.8,292.4 L365.5,306.3 C365.6,306.3 365.8,306.3 366,306.4 L366,306.4 Z M376.5,111.5 L439.2,321.7 L455.5,314.8 C455.6,314.7 455.7,314.7 455.9,314.6 L626.4,242 L563.9,32.5 L376.5,111.5 L376.5,111.5 Z M107.3,167 L209.4,189.3 L262.3,167 L245,108.9 L107.3,167 L107.3,167 Z M241,80.7 L375.1,110 L561.1,31.5 L427.9,2 L241,80.7 L241,80.7 Z M79.5,356.8 C79.3,356.8 79.1,356.7 78.9,356.6 L38.9,348 L38.8,348 C38.7,348 38.5,347.9 38.4,347.8 C38.3,347.7 38.2,347.6 38.2,347.5 C38.2,347.5 38.2,347.4 38.1,347.4 L19.6,285.4 C19.5,285.2 19.4,285 19.3,284.8 C19.3,284.4 19.5,284 19.9,283.8 L75.7,260.3 C75.9,260.2 76.1,260.2 76.3,260.2 L116.5,269 C116.8,269.1 117.1,269.3 117.2,269.6 C117.3,269.7 117.4,269.9 117.4,270 L135.7,331.5 C135.7,331.6 135.8,331.6 135.8,331.7 C135.9,331.9 135.9,332 135.9,332.2 C135.9,332.7 135.7,333.1 135.2,333.3 C135,333.4 134.9,333.4 134.7,333.3 L80.1,356.6 C80,356.7 79.8,356.8 79.6,356.9 C79.7,356.8 79.6,356.8 79.5,356.8 L79.5,356.8 Z M39.9,346.1 L78,354.3 L60.1,294.2 L21.9,286 L39.9,346.1 L39.9,346.1 Z M62.1,293.9 L80.1,354.3 L133.8,331.4 L115.8,271.2 L62.1,293.9 L62.1,293.9 Z M23.7,284.3 L60.7,292.4 L113.1,270.2 L76.3,262.1 L23.7,284.3 L23.7,284.3 Z" id="Shape" sketch:type="MSShapeGroup"></path>
        </g>
    </g>
</svg>