<?xml version="1.0" encoding="UTF-8"?><!DOCTYPE svg PUBLIC "-//W3C//DTD SVG 1.1//EN" "http://www.w3.org/Graphics/SVG/1.1/DTD/svg11.dtd"><svg xmlns="http://www.w3.org/2000/svg"><symbol id="svg-icon-antenna" viewBox="0 0 36 36">
    <title>
        icon-antenna
    </title>
    <g transform="translate(1)" stroke="#231F20" fill-rule="evenodd">
        <circle cx="17.173" cy="17.558" r="17"/>
        <path d="M23.55 16.455c3.136 4.047 4.435 7.938 2.913 9.45-1.892 1.88-7.416-.617-12.34-5.572-4.922-4.956-7.38-10.496-5.49-12.375 1.567-1.558 5.64-.105 9.792 3.265"/>
        <path d="M26.385 25.99c-1.97 3.094-9.776 3.417-15.594-2.222C5.118 18.27 5.665 9.625 8.47 8.02"/>
        <path d="M11.876 15.387l10.816-4.156c-.21-.26-.268-.71-.272-.882-.03-1.14.867-2.086 2.006-2.117 1.138-.03 2.086.868 2.116 2.006.03 1.138-.866 2.086-2.005 2.117-.19.005-.74-.12-.915-.27L19.716 22.75"/>
        <path d="M15.18 19.686l6.73-6.72"/>
        <path d="M10.61 24.547l-2.233 2.22.013 5.35"/>
    </g>
</symbol><symbol id="svg-icon-camera" viewBox="0 0 36 35">
    <title>
        icon-camera
    </title>
    <g transform="translate(1)" stroke="#231F20" fill-rule="evenodd">
        <path d="M22.572 23.44H9.084c-1.87 0-4.266-1.652-4.266-5.865 0-4.1 2.396-6.132 4.266-6.132H27.23"/>
        <path d="M25.448 12.096c2 .75 2.427 3.918 2.427 5.52 0 2.96-1.312 5.936-3.717 5.936-2.405 0-3.938-3.016-3.657-6.12.197-2.166 2.632-4.22 4.31-5.06 2.37-1.188 3.907-1.157 4.794-.325.422.396-.363 2.598-1.822 4.174"/>
        <path d="M24.577 15.667c.703 0 1.275.863 1.275 1.927s-.572 1.928-1.275 1.928c-.704 0-1.275-.863-1.275-1.928 0-1.064.57-1.927 1.275-1.927z" stroke-width=".7"/>
        <path d="M5.26 19.44h15.225" stroke-width=".5"/>
        <path d="M5.947 21.19h14.75" stroke-width=".5"/>
        <path d="M16.59 23.44v4.58l-5.436 5.37"/>
        <circle cx="17" cy="17.5" r="17"/>
    </g>
</symbol></svg>