<?xml version="1.0" encoding="UTF-8"?><!DOCTYPE svg PUBLIC "-//W3C//DTD SVG 1.1//EN" "http://www.w3.org/Graphics/SVG/1.1/DTD/svg11.dtd"><svg xmlns="http://www.w3.org/2000/svg"><symbol id="svg-antenna" viewBox="0 0 283 248">
    <title>
        Group 2
    </title>
    <g fill-rule="evenodd">
        <path d="M12.023 10.868c14.916-21.598 86.842 1.423 160.009 51.955 73.25 50.59 120.242 109.537 105.345 131.109-14.916 21.598-86.842-1.423-160.009-51.955C44.118 91.387-2.874 32.44 12.023 10.868zm-1.646-1.136c-15.89 23.01 31.646 82.64 105.855 133.89 74.122 51.193 146.883 74.481 162.79 51.446 15.891-23.01-31.645-82.64-105.854-133.89C99.046 9.984 26.285-13.304 10.378 9.731z"/>
        <path d="M60.666 228.788l38.1-30.2-.932-1.176-38.1 30.2.932 1.176zm8.818-49.91l-14.4 46.3 1.432.445 14.4-46.3-1.432-.446z"/>
        <path d="M66.623 229.916l59.5-18.5-.446-1.432-59.5 18.5.446 1.432zm-20.768-74.13l7.5 65.1 1.49-.172-7.5-65.1-1.49.172z"/>
        <path d="M275.705 195.993c-13.556 17.738-43.514 27.301-80.26 26.108-38.109-1.239-78.992-13.792-112.598-35.738-32.239-21.042-56.979-53.423-70.197-89.11C.404 64.189-.315 32.067 10.768 12.697l-1.736-.994C-2.39 31.667-1.658 64.38 10.775 97.947c13.362 36.077 38.368 68.806 70.978 90.09 33.918 22.15 75.157 34.813 113.627 36.062 37.327 1.213 67.892-8.544 81.915-26.892l-1.59-1.214z"/>
        <path d="M63.025 223.964c-5.293-5.186-13.868-5.088-19.06.211-5.187 5.293-5.089 13.868.21 19.06 5.293 5.187 13.868 5.089 19.06-.21 5.187-5.293 5.089-13.868-.21-19.06zm-1.05 1.072c4.708 4.613 4.796 12.239.19 16.94-4.614 4.707-12.24 4.795-16.94.188-4.708-4.613-4.796-12.239-.19-16.94 4.614-4.707 12.24-4.795 16.94-.188z"/>
        <path d="M127.807 135.69l69-94.2-1.614-1.18-69 94.2 1.614 1.18z"/>
        <path d="M58.357 55.988l131.1-20.9-.314-1.976-131.1 20.9.314 1.976zm146.054-10.842l17.9 121 1.978-.292-17.9-121-1.978.292z"/>
        <path d="M208.453 35.164c2.17 2.441 3.154 4.652 2.798 5.72.018-.052-.194.057-.705.12-.73.09-1.748.03-2.913-.187-2.682-.5-5.702-1.717-8.275-3.447-5.254-3.533-8.386-8.289-7.263-9.764.595-.772 2.829-.66 6.034.622l.742-1.856c-3.977-1.591-7.008-1.744-8.364.018-2.145 2.817 1.613 8.523 7.735 12.64 5.777 3.884 13.88 5.394 14.901 2.503.656-1.967-.594-4.77-3.196-7.697l-1.494 1.328z"/>
        <path d="M209.257 44.067c.012-.035-.2.074-.711.137-.73.09-1.748.03-2.913-.187-2.682-.5-5.702-1.717-8.275-3.447-5.26-3.537-8.897-8.915-7.844-10.389l-1.628-1.162c-2.01 2.814 2.239 9.098 8.356 13.21 5.777 3.885 13.88 5.395 14.901 2.504l-1.886-.666z"/>
        <path d="M198.189 31.715l5.3-6.8-1.578-1.23-5.3 6.8 1.578 1.23zm12.277-3.067l-5.3 8 1.668 1.104 5.3-8-1.668-1.104z"/>
        <path d="M200.724 16.966l4.6-6.7-1.73-.143c.266.57.913 2.054 1.818 4.16a957.522 957.522 0 0 1 1.802 4.219l.166.389.186.44.46.13 13.7 3.9c.564.155.815.243.86.278-.235-.183-.245-.557-.2-.62l-4.32 6.53c-.087.12-.425.13-1.195-.177l-12.587-3.73.644.585-4.1-10.2-.104.939zm-1.648-1.132l-.304.442.2.497 4.1 10.2.18.449.464.137 12.5 3.7c1.439.58 2.698.542 3.498-.578l4.32-6.53c.506-.707.485-1.542-.22-2.09-.345-.269-.692-.391-1.55-.626l-13.69-3.897.646.571-.165-.39a1450.365 1450.365 0 0 0-1.772-4.147l-.034-.078c-.915-2.13-1.564-3.62-1.843-4.217l-.74-1.586-.99 1.443-4.6 6.7z"/>
        <path d="M204.136 10.664l14.6 4-.65-.56 4.2 9.5 1.829-.808-4.2-9.5-.193-.435-.458-.125-14.6-4-.528 1.928z"/>
        <path d="M31.804 137.705c25.257 32.868 77.882 68.392 123.767 80.678l.258-.966c-45.67-12.228-98.108-47.627-123.233-80.322l-.792.61z"/>
        <path d="M26.315 128.619c31.87 38.501 87.509 75.107 144.038 92.559l.294-.956c-56.345-17.395-111.817-53.891-143.562-92.24l-.77.637z"/>
        <path d="M16.01 109.413c42.623 52.96 98.48 89.187 174.335 113.962l.31-.95c-75.68-24.718-131.371-60.84-173.865-113.638l-.78.626z"/>
        <path d="M8.197 88.797c46.922 63.686 115.68 108.122 204.16 134.582l.286-.958C124.36 196.019 55.787 151.703 9.003 88.203l-.806.594z"/>
        <path d="M49.916 220.893c-3.645 8.123 10.608 17.592 16.768 12.38l-.968-1.146c-4.991 4.223-17.394-4.017-14.432-10.62l-1.368-.614z"/>
        <path d="M10.061 13.603C29.76-3.41 98.684 20.18 168.373 68.229c68.568 47.333 115.115 102.658 107.943 127.66l.768.221c7.311-25.486-39.402-81.008-108.257-128.54C98.831 19.312 29.647-4.367 9.54 12.998l.522.606z"/>
        <path d="M8.922 17.518C32.051 4.546 98.224 28.435 164.458 74.206c65.782 45.404 111.41 98.23 108.294 124.665l.496.058c3.147-26.693-42.574-79.627-108.506-125.135C98.353 27.917 32.042 3.978 8.678 17.082l.244.436z"/>
    </g>
</symbol><symbol id="svg-cam" viewBox="0 0 323 257">
    <title>
        cam
    </title>
    <g fill-rule="evenodd">
        <path d="M214.787 59.862c10.531-20.218 27.21-35.283 47.672-45.492C277.362 6.934 293.67 2.632 303.633 2.3l-.033-2H38.8C18.818.3 1.228 29.67.3 62.872.176 65.612 1.908 67.2 4.8 67.2c12.409 0 31.123-.01 96.4-.05l4.038-.002c55.354-.034 82.206-.048 97.162-.048 6.227.1 9.755-2.09 12.39-7.245l-.003.007zm-1.777-.917c-2.293 4.486-5.125 6.243-10.594 6.155-14.973 0-41.825.014-97.179.048-2.02 0-2.02 0-4.038.002-65.276.04-83.991.05-96.399.05-1.808 0-2.572-.7-2.501-2.255C3.201 30.666 20.189 2.3 38.8 2.3h264.8l-.033-2c-10.257.342-26.846 4.72-42 12.28-20.818 10.387-37.813 25.737-48.554 46.358l-.003.007z"/>
        <path d="M303.336 39.753c4.164-11.03 8.711-19.542 14.838-27.02.21-.253 1.27-1.462 1.549-1.791.842-.997 1.447-1.822 1.891-2.644 1.356-2.507.894-4.7-1.89-6.004C316.436.784 311.23.3 303.6.3v2c7.318 0 12.367.47 15.282 1.809 1.634.764 1.824 1.664.973 3.238-.365.676-.899 1.404-1.66 2.304-.26.309-1.327 1.525-1.563 1.809-6.286 7.672-10.932 16.368-15.168 27.587l1.872.706z"/>
        <path d="M257.1 128.4H49.6c-22.1 0-42.1-28.949-42.1-62.1h-2c0 34.132 20.705 64.1 44.1 64.1h207.5v-2z"/>
        <path d="M273.689 9.25c20.41 6.688 31.611 30.07 31.611 57.35 0 33.987-21.707 61.5-48.3 61.5-26.41 0-48.3-28.48-48.3-62.7h-2c0 35.226 22.653 64.7 50.3 64.7 27.816 0 50.3-28.499 50.3-63.5 0-28.049-11.587-52.238-32.989-59.25l-.622 1.9z"/>
        <path d="M119.3 174.45c7.086 0 12.85 5.764 12.85 12.85 0 7.086-5.764 12.85-12.85 12.85-7.086 0-12.85-5.764-12.85-12.85a12.8 12.8 0 0 1 12.85-12.85zm0-1.5a14.3 14.3 0 0 0-14.35 14.35c0 7.914 6.436 14.35 14.35 14.35s14.35-6.436 14.35-14.35-6.436-14.35-14.35-14.35zm-13.027 18.934l-1.85 1.283a142681.374 142681.374 0 0 1-19.681 13.648l-.015.01a12025.045 12025.045 0 0 1-21.45 14.855c-3.548 2.42-5.127 4.789-5.127 9.72 0 5.446 3.39 7.89 6.573 5.72.315-.225 9.932-6.98 25.7-18.054l.004-.003a580813.863 580813.863 0 0 1 23.495-16.498c1.807-1.27 1.807-1.27 2.209-1.551l.78-.548-.716-.63-9-7.9-.44-.386-.482.334zm.854 1.232l-.922-.052 9 7.9.064-1.178-2.209 1.551a683754.66 683754.66 0 0 0-23.495 16.499l-.004.003a46447.54 46447.54 0 0 0-25.697 18.05c-2.064 1.408-4.214-.142-4.214-4.489 0-4.369 1.298-6.316 4.473-8.48.942-.643 8.848-6.12 21.458-14.862l.015-.01a124254.52 124254.52 0 0 0 19.681-13.649l1.85-1.283zm11.952-19.622l1.442.412 11.5-40.3-1.442-.412-11.5 40.3zm24.602-40.306l-13.7 46.5 1.438.424 13.7-46.5-1.438-.424z"/>
        <path d="M69.75 232.069c-.495 11.992-4.16 21.746-8.446 22.907-4.438 1.28-8.66-8.917-8.854-22.886-.196-14.292 3.724-26.895 8.445-28.166 3.38-.907 6.796 4.698 8.264 14.19l1.482-.229c-1.593-10.3-5.47-16.661-10.135-15.41-5.667 1.526-9.76 14.69-9.556 29.635.207 14.906 4.81 26.026 10.758 24.31 5.154-1.395 9.02-11.685 9.541-24.289l-1.498-.062z"/>
        <path d="M244.252 38.799c12.17-9.176 27.644-4.206 34.869 11.22 7.166 15.608 3.017 35.716-9.273 44.982-12.17 9.176-27.644 4.206-34.869-11.22-7.142-15.556-2.958-35.687 9.275-44.984l-.002.002zm-.906-1.196c-12.813 9.738-17.156 30.631-9.728 46.81 7.612 16.252 24.16 21.567 37.134 11.786 12.875-9.708 17.182-30.581 9.73-46.812-7.612-16.252-24.16-21.567-37.134-11.786l-.002.002zm.809 15.993c5.487-4.185 12.546-1.88 15.762 5.214 3.353 7.185 1.447 16.503-4.165 20.689-5.522 4.118-12.572 1.844-15.769-5.209-3.348-7.175-1.456-16.401 4.172-20.694zm-.91-1.192c-6.209 4.735-8.258 14.727-4.625 22.513 3.573 7.88 11.702 10.502 18.028 5.784 6.207-4.629 8.27-14.72 4.632-22.518-3.591-7.921-11.739-10.582-18.035-5.78zm3.724 11.482c1.074-.86 2.535-.38 3.253 1.135.764 1.613.313 3.815-.972 4.779-1.093.874-2.554.395-3.272-1.121-.765-1.7-.315-3.893.947-4.761l.044-.032zm-.894-1.204c-1.9 1.306-2.51 4.289-1.459 6.626 1.113 2.35 3.666 3.187 5.553 1.678 1.858-1.393 2.468-4.372 1.409-6.607-1.107-2.336-3.66-3.174-5.547-1.665l.044-.032zm9.543-.17c1.964 4.302.83 9.915-2.468 12.388l1.185.75 2.7-13.3-1.417.161zm1.364-.623l-.958-2.1-.459 2.262-2.7 13.3-.392 1.932 1.577-1.183c3.888-2.916 5.177-9.295 2.932-14.211z"/>
        <path d="M35.7 126.2h205.7v-1H35.7v1z"/>
        <path d="M29.9 122.2h202.9v-1H29.9v1z"/>
        <path d="M23.5 116.2h202.6v-1H23.5v1z"/>
        <path d="M17.1 107.2h202.6v-1H17.1v1z"/>
        <path d="M283.4 6.2h38v-1h-38v1z"/>
        <path d="M278.5 10.2h41v-1h-41v1z"/>
        <path d="M286 15.2h29.1v-1H286v1z"/>
        <path d="M292.1 21.2h19.2v-1h-19.2v1z"/>
        <path d="M148.95 129.4c0 2.207-1.083 3.25-3.25 3.25h-15.2c-2.23 0-3.25-1.098-3.25-3.25h-1.5c0 2.956 1.666 4.75 4.75 4.75h15.2c2.984 0 4.75-1.702 4.75-4.75h-1.5z"/>
    </g>
</symbol><symbol id="svg-circle-mail" viewBox="0 0 600 600">
    <title>
        circle-mail
    </title>
    <path d="M300 600c165.685 0 300-134.315 300-300S465.685 0 300 0 0 134.315 0 300s134.315 300 300 300zM130.023 209.09l175.28 156.7 164.836-155.245v-6.916L305.303 326.391 130.023 203.63v5.461zM146.186 188H453.98c8.94 0 16.186 7.247 16.186 16.186v190.698c0 8.94-7.247 16.186-16.186 16.186H146.186c-8.94 0-16.186-7.247-16.186-16.186V204.186A16.186 16.186 0 0 1 146.186 188z" fill-rule="evenodd"/>
</symbol><symbol id="svg-circle-phone" viewBox="0 0 600 600">
    <title>
        circle-phone
    </title>
    <path d="M300 600c165.685 0 300-134.315 300-300S465.685 0 300 0 0 134.315 0 300s134.315 300 300 300zM163.65 435.322c1.084 4.05 3.251 9.136 6.5 15.258 3.247 6.123 6.199 10.838 8.853 14.146 5.16 6.655 16.439 12.153 33.839 16.493 16.148 3.872 31.122 3.96 44.921.262a89.852 89.852 0 0 0 11.6-3.953c3.685-1.55 7.746-3.642 12.184-6.278 4.438-2.636 7.709-4.678 9.812-6.126 2.104-1.448 5.854-4.1 11.251-7.958 5.397-3.857 8.71-6.192 9.94-7.004 13.291-9.188 24.748-18.929 34.368-29.223 16.023-16.993 31.53-38.47 46.517-64.43 14.987-25.959 25.834-50.125 32.539-72.499 4.104-13.478 6.812-28.27 8.123-44.375.089-1.47.454-5.507 1.096-12.11.643-6.602 1.065-11.176 1.267-13.722.202-2.546.335-6.4.398-11.561.064-5.161-.154-9.725-.654-13.69a89.852 89.852 0 0 0-2.377-12.023c-3.698-13.799-11.26-26.723-22.687-38.772-12.459-12.899-22.86-19.918-31.203-21.058-4.192-.645-9.751-.844-16.677-.595-6.927.248-12.415.915-16.465 2-2.1.562-3.614 1.21-4.543 1.94-2.46 1.624-4.907 8.389-7.343 20.295-.886 3.291-2.051 7.944-3.494 13.957a1196.907 1196.907 0 0 1-4.047 16.397 500.188 500.188 0 0 1-3.749 13.905c-.29.72-1.1 2.947-2.43 6.68-1.33 3.732-2.23 6.826-2.697 9.283-.467 2.456-.42 4.734.143 6.834.804 3 3.946 6.176 9.426 9.53a113.54 113.54 0 0 0 17.265 8.637c6.03 2.404 11.744 5.132 17.144 8.187 5.4 3.054 8.462 5.931 9.185 8.63.362 1.35.44 3.139.232 5.364-.208 2.226-.433 3.934-.677 5.125-.243 1.19-.811 3.272-1.703 6.244-.891 2.971-1.372 4.627-1.442 4.968-5.893 23.603-14.22 44.723-24.98 63.36-10.76 18.638-24.888 36.41-42.382 53.314-.26.23-1.453 1.475-3.581 3.733s-3.647 3.79-4.556 4.597c-.91.806-2.276 1.855-4.1 3.148-1.824 1.292-3.41 2.12-4.76 2.481-2.7.724-6.723-.49-12.068-3.639-5.345-3.15-10.565-6.734-15.661-10.754a113.54 113.54 0 0 0-16.112-10.633c-5.645-3.07-9.968-4.202-12.968-3.398-2.1.563-4.096 1.66-5.99 3.293-1.893 1.633-4.123 3.958-6.69 6.977-2.567 3.02-4.09 4.834-4.57 5.445a500.19 500.19 0 0 1-10.168 10.2c-3.631 3.545-7.69 7.445-12.176 11.702-4.486 4.256-7.933 7.591-10.341 10.005-9.093 8.063-13.727 13.564-13.904 16.505-.168 1.17.029 2.806.591 4.906z" fill-rule="evenodd"/>
</symbol><symbol id="svg-circle-question" viewBox="0 0 600 600">
    <title>
        circle-question
    </title>
    <path d="M300 600c165.685 0 300-134.315 300-300S465.685 0 300 0 0 134.315 0 300s134.315 300 300 300zm3.005-482c-54.276 0-92.12 21.412-120.005 54.276l55.272 43.82c17.428-18.922 36.35-28.881 55.272-28.881 18.922 0 29.877 8.465 29.877 23.901 0 36.848-76.186 31.869-76.186 119.01v12.449h79.672v-9.461c0-53.28 89.133-48.8 89.133-130.463 0-45.313-37.346-84.651-113.035-84.651zM287.57 385.896c-26.391 0-47.803 21.91-47.803 48.301 0 26.391 21.412 47.803 47.803 47.803 26.89 0 48.301-21.412 48.301-47.803s-21.412-48.301-48.3-48.301z" fill-rule="evenodd"/>
</symbol><symbol id="svg-comment" viewBox="0 0 673 600">
    <title>
        comment
    </title>
    <path d="M336.02.146C533.354-4.288 679.36 92.57 672.017 246.101c-6.554 136.765-143.651 239.027-352.318 245.124A308.213 308.213 0 0 1 139.56 600a245.263 245.263 0 0 0 41.016-127.065C69.724 436.63-1.014 357.925.01 246.1 1.411 98.528 134.323 4.581 336.021.146zM188 137h295.934v43.373H188V137zm0 83.409h295.934v43.372H188V220.41zm0 83.408h295.934v43.373H188v-43.373z" fill-rule="evenodd"/>
</symbol><symbol id="svg-facebook" viewBox="0 0 17 33">
    <title>
        facebook
    </title>
    <path d="M16.8.7v5.1h-3c-1.1 0-1.8.2-2.2.7-.4.5-.6 1.2-.6 2.1v3.6h5.6l-.8 5.7H11v14.6H5.1V17.9H.2v-5.7h4.9V8c0-2.4.7-4.2 2-5.5 1.3-1.3 3.1-2 5.3-2 1.9 0 3.4.1 4.4.2z" fill-rule="evenodd"/>
</symbol><symbol id="svg-hamburger" viewBox="0 0 451 321">
    <title>
        hamburger
    </title>
    <path d="M0 0h450.805v66.07H0V0zm0 127.059h450.805v66.07H0v-66.07zm0 127.059h450.805v66.07H0v-66.07z" fill-rule="evenodd"/>
</symbol><symbol id="svg-icon-antenna" viewBox="0 0 36 36">
    <title>
        icon-antenna
    </title>
    <g transform="translate(1)" stroke="#231F20" fill-rule="evenodd">
        <circle cx="17.173" cy="17.558" r="17"/>
        <path d="M23.549 16.455c3.137 4.047 4.436 7.938 2.914 9.451-1.892 1.878-7.416-.618-12.339-5.573C9.201 15.377 6.742 9.837 8.633 7.958c1.567-1.558 5.639-.105 9.792 3.265"/>
        <path d="M26.385 25.989c-1.971 3.095-9.776 3.418-15.594-2.221C5.117 18.27 5.664 9.625 8.468 8.021"/>
        <path d="M11.876 15.387l10.816-4.156c-.211-.26-.268-.71-.272-.883a2.062 2.062 0 1 1 2.117 2.005c-.189.005-.739-.12-.915-.271L19.716 22.75"/>
        <path d="M15.18 19.686l6.729-6.72"/>
        <path d="M10.609 24.547l-2.232 2.221.013 5.348"/>
    </g>
</symbol><symbol id="svg-icon-camera" viewBox="0 0 36 35">
    <title>
        icon-camera
    </title>
    <g transform="translate(1)" stroke="#231F20" fill-rule="evenodd">
        <path d="M22.572 23.441H9.084c-1.869 0-4.266-1.653-4.266-5.866 0-4.1 2.396-6.132 4.266-6.132h18.145"/>
        <path d="M25.448 12.096c2 .75 2.427 3.918 2.427 5.52 0 2.961-1.312 5.936-3.717 5.936-2.405 0-3.938-3.016-3.657-6.121.196-2.165 2.631-4.218 4.309-5.059 2.37-1.188 3.907-1.157 4.794-.325.422.396-.363 2.598-1.822 4.174"/>
        <path d="M24.577 15.667c.703 0 1.275.863 1.275 1.927s-.572 1.928-1.275 1.928c-.704 0-1.275-.863-1.275-1.928 0-1.064.571-1.927 1.275-1.927z" stroke-width=".7"/>
        <path d="M5.26 19.441h15.225" stroke-width=".5"/>
        <path d="M5.947 21.191h14.75" stroke-width=".5"/>
        <path d="M16.591 23.441v4.58l-5.437 5.368"/>
        <circle cx="17" cy="17.5" r="17"/>
    </g>
</symbol><symbol id="svg-mail" viewBox="0 0 412 271">
    <title>
        mail
    </title>
    <path d="M19.596 0h372.649c10.822 0 19.596 8.774 19.596 19.596v230.88c0 10.822-8.774 19.595-19.596 19.595H19.596C8.774 270.071 0 261.298 0 250.475V19.596A19.596 19.596 0 0 1 19.596 0zM.028 25.534L212.24 215.251 411.806 27.295v-8.372L212.24 167.55.028 18.923v6.611z" fill-rule="evenodd"/>
</symbol><symbol id="svg-map-marker-o" viewBox="0 0 234 350">
    <title>
        map-marker-o
    </title>
    <path d="M119.958 312.733c13.457-20.91 26.913-42.81 39.451-64.6 7.039-12.233 13.592-24.1 19.568-35.484 22.994-43.813 36.093-78.198 36.093-96.504-.004-54.194-43.93-98.13-98.124-98.145-54.18.02-98.101 43.953-98.105 98.143 0 18.309 13.098 52.694 36.09 96.506 5.975 11.385 12.529 23.251 19.567 35.484 12.537 21.79 25.992 43.69 39.448 64.6 1.082 1.682 3.19 4.94 3.19 4.94s-1.887 2.379 2.822-4.94zm113.112-196.59C233.07 180.245 116.951 350 116.951 350S.841 180.245.841 116.143C.845 52.014 52.82.023 116.95 0c64.133.018 116.114 52.01 116.119 116.143z" fill-rule="evenodd"/>
</symbol><symbol id="svg-map-marker" viewBox="0 0 233 350">
    <title>
        map-marker
    </title>
    <path d="M116.11 0c64.133.018 116.115 52.01 116.12 116.143C232.23 180.245 116.11 350 116.11 350S0 180.245 0 116.143C.005 52.014 51.981.023 116.11 0z" fill-rule="evenodd"/>
</symbol><symbol id="svg-phone" viewBox="0 0 295 396">
    <title>
        phone
    </title>
    <path d="M1.397 343.077c1.164 4.346 3.49 9.805 6.976 16.377 3.486 6.572 6.654 11.632 9.503 15.183 5.538 7.143 17.645 13.044 36.32 17.703 17.333 4.155 33.405 4.249 48.215.28a96.44 96.44 0 0 0 12.452-4.242c3.954-1.663 8.313-3.91 13.076-6.739 4.763-2.83 8.274-5.021 10.532-6.575 2.258-1.554 6.284-4.401 12.076-8.541 5.792-4.14 9.348-6.646 10.668-7.518 14.267-9.862 26.563-20.317 36.889-31.366 17.198-18.24 33.841-41.29 49.928-69.154 16.086-27.863 27.728-53.801 34.925-77.815 4.405-14.467 7.312-30.344 8.72-47.63.094-1.578.486-5.91 1.175-12.997.69-7.087 1.143-11.997 1.36-14.73.216-2.732.359-6.868.428-12.408.068-5.54-.166-10.437-.702-14.694a96.44 96.44 0 0 0-2.552-12.904c-3.969-14.81-12.086-28.683-24.35-41.615-13.373-13.845-24.537-21.379-33.492-22.603-4.5-.692-10.466-.905-17.9-.638-7.435.266-13.325.982-17.672 2.147-2.254.603-3.88 1.298-4.877 2.083-2.639 1.742-5.266 9.003-7.88 21.782-.952 3.533-2.202 8.527-3.751 14.98a1284.678 1284.678 0 0 1-4.343 17.6 536.862 536.862 0 0 1-4.024 14.925c-.31.773-1.18 3.163-2.609 7.17-1.428 4.005-2.393 7.327-2.895 9.963-.5 2.636-.45 5.081.154 7.335.863 3.22 4.235 6.63 10.118 10.23 5.882 3.6 12.059 6.69 18.53 9.27 6.472 2.58 12.606 5.508 18.401 8.787 5.796 3.278 9.083 6.366 9.86 9.264.387 1.448.47 3.367.248 5.756-.223 2.39-.465 4.223-.727 5.5-.261 1.279-.87 3.513-1.827 6.702-.957 3.19-1.473 4.967-1.548 5.333-6.325 25.333-15.263 48.002-26.812 68.006-11.55 20.004-26.713 39.079-45.49 57.224-.279.247-1.56 1.582-3.844 4.006-2.284 2.424-3.914 4.068-4.89 4.934-.975.865-2.442 1.992-4.4 3.379-1.957 1.387-3.66 2.275-5.11 2.663-2.897.777-7.215-.525-12.952-3.906-5.737-3.38-11.34-7.228-16.81-11.542A121.865 121.865 0 0 0 83.2 272.629c-6.06-3.294-10.699-4.51-13.918-3.647-2.254.604-4.397 1.782-6.43 3.534-2.032 1.753-4.426 4.249-7.181 7.489s-4.39 5.188-4.905 5.844a536.864 536.864 0 0 1-10.913 10.947 1284.674 1284.674 0 0 1-13.07 12.56c-4.815 4.57-8.514 8.149-11.099 10.74C5.926 328.748.952 334.654.762 337.81c-.18 1.257.03 3.012.635 5.266z" fill-rule="evenodd"/>
</symbol><symbol id="svg-question" viewBox="0 0 232 320">
    <title>
        question
    </title>
    <path d="M152.024 250v60c0 2.667-1 5-3 7s-4.334 3-7 3h-60c-2.667 0-5-1-7-3s-3-4.333-3-7v-60c0-2.667 1-5 3-7s4.333-3 7-3h60c2.666 0 5 1 7 3s3 4.333 3 7zm79-150c0 9-1.292 17.417-3.875 25.25-2.584 7.833-5.5 14.208-8.75 19.125s-7.834 9.875-13.75 14.875c-5.917 5-10.709 8.625-14.375 10.875-3.667 2.25-8.75 5.208-15.25 8.875-6.834 3.833-12.542 9.25-17.125 16.25-4.584 7-6.875 12.583-6.875 16.75 0 2.833-1 5.542-3 8.125s-4.334 3.875-7 3.875h-60c-2.5 0-4.625-1.542-6.375-4.625s-2.625-6.208-2.625-9.375v-11.25c0-13.833 5.416-26.875 16.25-39.125 10.833-12.25 22.75-21.292 35.75-27.125 9.833-4.5 16.833-9.167 21-14 4.166-4.833 6.25-11.167 6.25-19 0-7-3.875-13.167-11.625-18.5s-16.709-8-26.875-8c-10.834 0-19.834 2.417-27 7.25C79.94 84.417 71.024 94 59.024 109c-2.167 2.667-4.75 4-7.75 4-2 0-4.084-.667-6.25-2l-41-31.25C1.857 78.083.565 76 .149 73.5c-.417-2.5.041-4.833 1.375-7C28.19 22.167 66.857 0 117.524 0c13.333 0 26.75 2.583 40.25 7.75s25.666 12.083 36.5 20.75c10.833 8.667 19.666 19.292 26.5 31.875 6.833 12.583 10.25 25.792 10.25 39.625z" fill-rule="evenodd"/>
</symbol><symbol id="svg-twitter" viewBox="0 0 30 25">
    <title>
        twitter
    </title>
    <path d="M29.8 2.9c-.8 1.2-1.9 2.3-3.1 3.2v.8c0 1.6-.2 3.3-.7 4.9-.5 1.6-1.2 3.2-2.2 4.7-1 1.5-2.1 2.8-3.5 4-1.4 1.2-3 2.1-4.9 2.8-1.9.7-3.9 1-6.1 1-3.4 0-6.6-.9-9.4-2.7.4.1.9.1 1.5.1 2.8 0 5.4-.9 7.6-2.6-1.3 0-2.5-.4-3.6-1.2-1-.8-1.8-1.8-2.2-3 .4.1.8.1 1.2.1.5 0 1.1-.1 1.6-.2-1.4-.3-2.6-1-3.5-2.1-.9-1.1-1.4-2.4-1.4-3.9v-.1c.9.5 1.8.7 2.8.8-.8-.6-1.5-1.3-2-2.2-.5-.9-.7-1.9-.7-2.9 0-1.1.3-2.1.8-3.1 1.5 1.9 3.4 3.4 5.6 4.5 2.2 1.1 4.5 1.8 7 1.9-.1-.5-.2-.9-.2-1.4 0-1.7.6-3.1 1.8-4.3C17.4.8 18.8.2 20.5.2c1.8 0 3.3.6 4.5 1.9 1.4-.3 2.7-.8 3.9-1.5-.5 1.5-1.4 2.6-2.7 3.4 1.3-.3 2.4-.6 3.6-1.1z" fill-rule="evenodd"/>
</symbol><symbol id="svg-youtube-play" viewBox="0 0 28 20">
    <title>
        youtube-play
    </title>
    <path d="M27.7 4.3s-.3-2-1.1-2.8C25.5.4 24.3.4 23.8.3 19.9 0 14 0 14 0S8.1 0 4.2.3c-.5.1-1.7.1-2.8 1.2C.6 2.4.3 4.3.3 4.3S0 6.6 0 8.9v2.2c0 2.3.3 4.6.3 4.6s.3 2 1.1 2.8c1.1 1.1 2.5 1.1 3.1 1.2 2.2.2 9.5.3 9.5.3s5.9 0 9.8-.3c.5-.1 1.7-.1 2.8-1.2.8-.9 1.1-2.8 1.1-2.8s.3-2.3.3-4.6V8.9c0-2.3-.3-4.6-.3-4.6zM11.2 14V6l7.6 4-7.6 4z" fill-rule="evenodd"/>
</symbol></svg>