<svg height="857" width="882" id="Layer_1" xmlns="http://www.w3.org/2000/svg" viewBox="404.9 -76.8 298.6 327.2"><style>.st0,.st1,.st2,.st3,.st4{fill:none;stroke:#003cff;stroke-linecap:round;stroke-linejoin:round;stroke-miterlimit:10}.st1,.st2,.st3,.st4{stroke-width:.8}.st2,.st3,.st4{opacity:.8;enable-background:new}.st3,.st4{opacity:.6}.st4{opacity:.4}</style><path id="ipcam_i1" class="st0" d="M608.9 12.6c6.7-50.9 50.5-79.7 64.4-85.3-2.5.9-239.9 87.3-248.8 90.6-18.5 6.6-24.4 40.1-14.2 70.7.7 2.1 2.3 2.7 4.4 1.9C443 80.2 566.1 35.3 600.4 22.8c5.8-2 7.9-5.2 8.5-10.2z"/><path id="ipcam_i2" class="st0" d="M685.2-36.5c.1-10.5 1.2-20.7 4.8-30.8 1.1-2.9 3.9-8.6-1.3-9-4.1-.3-10.6 1.8-15.4 3.6"/><path id="ipcam_i3" class="st0" d="M673.4 63.6s-182.9 66.6-195 71c-21.1 7.7-50.5-12.6-62.1-44.6"/><path id="ipcam_i4" class="st0" d="M647.9-56c24.7-.8 42.4 22 50.3 43.7 11.8 32.4 1.2 66.4-24.4 75.7-25.6 9.3-56.9-10.7-68.7-43.1"/><path id="ipcam_i5" class="st0" d="M559.1 152.3c7-2.6 14.9 1.1 17.4 8.1s-1.1 14.9-8.1 17.4c-7 2.6-14.9-1.1-17.4-8.1-2.7-7.1 1-14.8 8.1-17.4zm-5.4 22S525 214.9 523.5 217c-1.6 2.2-3.3 4.9-1.4 10.2 1.9 5.2 5.2 5.1 6.8 2.9.5-.7 35.9-51.5 35.9-51.5m-5.2-26.5l-3-41.8m12.3-4.4l3.1 48.4"/><path id="ipcam_i7" class="st0" d="M629.7-17.6c8.6-13.2 25.4-13.8 37.8-1.5 12.3 12.4 15.4 33.1 6.8 46.4-8.6 13.2-25.4 13.8-37.8 1.5-12.3-12.5-15.3-33.2-6.8-46.4zm5 13.9c4-6.2 12-6.5 17.8-.6 5.9 5.9 7.3 15.6 3.3 21.8-4 6.2-12 6.5-17.8.6-5.9-5.8-7.3-15.5-3.3-21.8zm6.1 8.8c1-1.6 3.1-1.7 4.6-.2 1.5 1.5 1.9 4.1.8 5.8-1 1.6-3.1 1.7-4.6.2-1.5-1.6-1.9-4.3-.8-5.8zm8.9-4.4c3.5 3.6 4.5 9.7 2 13.4"/><path class="st1" d="M464.1 135.8L657 65.6"/><path class="st2" d="M457.3 134L649 64.3"/><path class="st3" d="M449.2 130.6L640 61.1"/><path class="st4" d="M440.1 124.3l190.2-69.2"/><path class="st1" d="M653.9-61L691-74.5"/><path class="st2" d="M651.8-55.9l39.3-14.3"/><path class="st3" d="M661.3-54.1l27.3-10"/><path class="st4" d="M669.1-50.6l18-6.6"/><path class="st0" d="M572.5 100.3c.9 2.6 0 4.3-2.4 5.1l-14.3 5.2c-2.6.9-4.3-.1-5.1-2.4"/><path id="ipcam_i6" class="st0" d="M533.2 223.9c3.7 11.5 3.7 22.4-.4 25.3-4.4 3.2-12.2-5.3-17.3-18.9-5.2-13.6-5.8-27.1-1.4-30.2 3.4-2.4 9 2.2 13.7 10.8"/></svg>