<svg data-name="Layer 1" xmlns="http://www.w3.org/2000/svg" width="670.87" height="768.57" viewBox="0 0 670.87 768.57"><title>type_top_bg</title><path data-name="ipcam i1" d="M454.09 224.6c1.91-112.38 94.24-192.31 124.54-210L34.62 311c-40.27 21.94-45 96.45-13.71 158.21 2.06 4.26 5.86 4.88 10.58 2.31C93.34 437.81 362.37 291 437.35 250.11c12.84-6.75 16.65-14.45 16.74-25.51z" fill="none" stroke="#003cff" stroke-linecap="round" stroke-linejoin="round"/><path data-name="ipcam i2" d="M615.34 87.79c-2.48-22.63-2.69-45 2.75-68.3 1.64-6.77 6.67-20-5.25-18.92-9.35.94-23.73 8.28-34.21 14" fill="none" stroke="#003cff" stroke-linecap="round" stroke-linejoin="round"/><path data-name="ipcam i3" d="M614.81 308.32l-426.3 232.29C142.29 565.8 70 533.95 35.09 469.8" fill="none" stroke="#003cff" stroke-linecap="round" stroke-linejoin="round"/><path data-name="ipcam i4" d="M525 60.9c56.2-11.78 102.55 30.26 126.3 73.84 35.47 65.1 20.19 142.67-35.69 173.12s-132.64.09-168.11-65" fill="none" stroke="#003cff" stroke-linecap="round" stroke-linejoin="round"/><path data-name="ipcam i5" d="M377.26 546.17c15.41-8.4 34.22-3.72 41.93 10.43s1.45 32.49-14 40.89-34.19 3.71-41.89-10.44c-7.82-14.34-1.45-32.49 13.96-40.88zm-6.53 49.51S316 694.82 313 700.11s-6.26 12-.5 22.54c5.65 10.38 13.23 8.88 16.21 3.59.92-1.73 68.39-125.58 68.39-125.58m-18.73-55.07l-17.82-88.94m26.78-14.59L407 545.1" fill="none" stroke="#003cff" stroke-linecap="round" stroke-linejoin="round"/><path data-name="ipcam i7" d="M493.72 151.12c16.12-32 54.34-40.13 85.78-18.6 31.34 21.83 43.8 65.21 27.68 97.24s-54.34 40.13-85.78 18.6c-31.4-21.82-43.6-65.36-27.68-97.24zm15 28c7.49-15.09 25.68-18.89 40.37-8.54 14.9 10.23 20.77 30.77 13.18 45.68s-25.68 18.89-40.38 8.54c-14.89-10.19-20.66-30.54-13.16-45.64zm16.34 16.3c1.85-3.94 6.68-4.86 10.48-2.28s5.45 8 3.4 12.1c-1.85 3.94-6.68 4.86-10.48 2.28-3.9-2.73-5.55-8.19-3.39-12.06zm19-13c9 6.33 12.75 19 8.13 28.12" fill="none" stroke="#003cff" stroke-linecap="round" stroke-linejoin="round"/><path d="M156.15 549.19L577.84 319.4" fill="none" stroke="#003cff" stroke-linecap="round" stroke-linejoin="round" stroke-width=".8"/><path d="M140.12 548.13l419.14-228.39" fill="none" stroke="#003cff" stroke-linecap="round" stroke-linejoin="round" stroke-width=".8" opacity=".8" style="isolation:isolate"/><path d="M120.81 544l417.14-227.3" fill="none" stroke="#003cff" stroke-linecap="round" stroke-linejoin="round" stroke-width=".8" opacity=".6" style="isolation:isolate"/><path d="M98.4 534.16l415.74-226.54" fill="none" stroke="#003cff" stroke-linecap="round" stroke-linejoin="round" stroke-width=".8" opacity=".4" style="isolation:isolate"/><path d="M537.44 47.77l81-44.16" fill="none" stroke="#003cff" stroke-linecap="round" stroke-linejoin="round" stroke-width=".8"/><path d="M533.93 59.47l86-46.86" fill="none" stroke="#003cff" stroke-linecap="round" stroke-linejoin="round" stroke-width=".8" opacity=".8" style="isolation:isolate"/><path d="M556.25 59.54L616 27" fill="none" stroke="#003cff" stroke-linecap="round" stroke-linejoin="round" stroke-width=".8" opacity=".6" style="isolation:isolate"/><path d="M575 64l39.45-21.5" fill="none" stroke="#003cff" stroke-linecap="round" stroke-linejoin="round" stroke-width=".8" opacity=".4" style="isolation:isolate"/><path d="M394.09 428.58c2.81 5.16 1.07 9.2-4.11 12l-31.16 17c-5.65 3.08-9.84 1.51-12.33-3.07" fill="none" stroke="#003cff" stroke-linecap="round" stroke-linejoin="round"/><path data-name="ipcam i6" d="M337 711c11.39 23.33 14.28 46.79 5.78 54.68-9.26 8.66-29.15-6.53-44.49-33.6s-20.29-56.2-11.16-64.64c7.21-6.64 21 1 34 17.62" fill="none" stroke="#003cff" stroke-linecap="round" stroke-linejoin="round"/></svg>