<?xml version="1.0" encoding="UTF-8" standalone="no"?>
<svg width="283px" height="248px" viewBox="0 0 283 248" version="1.1" xmlns="http://www.w3.org/2000/svg" xmlns:xlink="http://www.w3.org/1999/xlink" xmlns:sketch="http://www.bohemiancoding.com/sketch/ns">
    <!-- Generator: Sketch 3.5.2 (25235) - http://www.bohemiancoding.com/sketch -->
    <title>Group 2</title>
    <desc>Created with Sketch.</desc>
    <defs></defs>
    <g id="Page-1" stroke="none" stroke-width="1" fill="none" fill-rule="evenodd" sketch:type="MSPage">
        <g id="antenna" sketch:type="MSLayerGroup" fill="#001EFF">
            <g id="Group-2" sketch:type="MSShapeGroup">
                <path d="M12.0228558,10.8682502 C26.9385324,-10.7304243 98.8645443,12.2908238 172.031719,62.8228348 C245.282785,113.412784 292.274398,172.359752 277.377144,193.93175 C262.461468,215.530424 190.535456,192.509176 117.368281,141.977165 C44.1172153,91.3872164 -2.87439824,32.440248 12.0228558,10.8682502 L12.0228558,10.8682502 Z M10.3771442,9.73174979 C-5.51308988,32.7416342 42.022809,92.3713621 116.231719,143.622835 C190.354039,194.814505 263.115372,218.103113 279.022856,195.06825 C294.91309,172.058366 247.377191,112.428638 173.168281,61.1771652 C99.0459612,9.98549547 26.2846277,-13.3031128 10.3771442,9.73174979 L10.3771442,9.73174979 Z" id="Shape"></path>
                <path d="M60.6658827,228.787753 L98.7658827,198.587753 L97.8341173,197.412247 L59.7341173,227.612247 L60.6658827,228.787753 L60.6658827,228.787753 Z M69.4838379,178.877263 L55.0838379,225.177263 L56.5161621,225.622737 L70.9161621,179.322737 L69.4838379,178.877263 L69.4838379,178.877263 Z" id="Shape"></path>
                <path d="M66.622678,229.916181 L126.122678,211.416181 L125.677322,209.983819 L66.177322,228.483819 L66.622678,229.916181 L66.622678,229.916181 Z M45.8549283,155.785838 L53.3549283,220.885838 L54.8450717,220.714162 L47.3450717,155.614162 L45.8549283,155.785838 L45.8549283,155.785838 Z" id="Shape"></path>
                <path d="M275.705459,195.99279 C262.149252,213.73123 232.191268,223.294496 195.444975,222.100527 C157.336157,220.862287 116.453326,208.308888 82.846772,186.362718 C50.6082493,165.321367 25.8683343,132.940172 12.6502445,97.2526741 C0.403800133,64.1885202 -0.31492789,32.0671683 10.7679726,12.6966122 L9.03202744,11.7033878 C-2.39041495,31.6673911 -1.65848313,64.3788464 10.7747555,97.9473259 C24.1369867,134.023991 49.1427777,166.753182 81.7534365,188.037418 C115.670975,210.186671 156.910197,222.849502 195.380025,224.099473 C232.707413,225.312322 263.272444,215.555273 277.294541,197.20721 L275.705459,195.99279 L275.705459,195.99279 Z" id="Shape"></path>
                <path d="M63.0249464,223.96434 C57.732253,218.777501 49.1573512,218.876063 43.9643404,224.175054 C38.7775008,229.467747 38.8760629,238.042649 44.1750536,243.23566 C49.467747,248.422499 58.0426488,248.323937 63.2356596,243.024946 C68.4224992,237.732253 68.3239371,229.157351 63.0249464,223.96434 L63.0249464,223.96434 Z M61.9750536,225.03566 C66.6830381,229.649484 66.7706842,237.274703 62.1643404,241.975054 C57.5505156,246.683038 49.9252973,246.770684 45.2249464,242.16434 C40.5169619,237.550516 40.4293158,229.925297 45.0356596,225.224946 C49.6494844,220.516962 57.2747027,220.429316 61.9750536,225.03566 L61.9750536,225.03566 Z" id="Shape"></path>
                <path d="M127.806732,135.690918 L196.806732,41.490918 L195.193268,40.309082 L126.193268,134.509082 L127.806732,135.690918 L127.806732,135.690918 Z" id="Shape"></path>
                <path d="M58.3574323,55.9875298 L189.457432,35.0875298 L189.142568,33.1124702 L58.0425677,54.0124702 L58.3574323,55.9875298 L58.3574323,55.9875298 Z M204.410766,45.1463413 L222.310766,166.146341 L224.289234,165.853659 L206.389234,44.8536587 L204.410766,45.1463413 L204.410766,45.1463413 Z" id="Shape"></path>
                <path d="M208.452591,35.1643638 C210.622394,37.6053928 211.607376,39.8155952 211.251317,40.8837722 C211.269367,40.8321674 211.056637,40.9410876 210.545634,41.0044828 C209.816565,41.0949311 208.7983,41.0339527 207.633125,40.8169103 C204.951486,40.3173894 201.930978,39.1002647 199.357998,37.3701574 C194.1037,33.8370955 190.971646,29.0810124 192.095432,27.6060432 C192.68955,26.8337064 194.923784,26.9465464 198.128609,28.2284767 L198.871391,26.3715233 C194.894135,24.7806212 191.863329,24.6275502 190.507376,26.3902892 C188.361633,29.2065591 192.119545,34.9130177 198.242002,39.0298426 C204.018757,42.9142119 212.122658,44.4237621 213.14299,41.5328201 C213.798671,39.5662653 212.549268,36.7627271 209.947409,33.8356362 L208.452591,35.1643638 L208.452591,35.1643638 Z" id="Shape"></path>
                <path d="M209.25701,44.0671799 C209.269367,44.0321674 209.056637,44.1410876 208.545634,44.2044828 C207.816565,44.2949311 206.7983,44.2339527 205.633125,44.0169103 C202.951486,43.5173894 199.930978,42.3002647 197.357998,40.5701574 C192.098157,37.0333681 188.461355,31.6545682 189.513733,30.1812382 L187.886267,29.0187618 C185.876182,31.8328807 190.1248,38.1165511 196.242002,42.2298426 C202.018757,46.1142119 210.122658,47.6237621 211.14299,44.7328201 L209.25701,44.0671799 L209.25701,44.0671799 Z" id="Shape"></path>
                <path d="M198.188727,31.7147433 L203.488727,24.9147433 L201.911273,23.6852567 L196.611273,30.4852567 L198.188727,31.7147433 L198.188727,31.7147433 Z M210.46635,28.6477069 L205.16635,36.6477069 L206.83365,37.7522931 L212.13365,29.7522931 L210.46635,28.6477069 L210.46635,28.6477069 Z" id="Shape"></path>
                <path d="M200.724401,16.9660065 L205.324401,10.2660065 L203.593817,10.1228855 C203.859616,10.6924556 204.50674,12.1768152 205.411538,14.2830567 C205.428252,14.3219671 205.428252,14.3219671 205.444965,14.3608815 C205.870494,15.3517089 206.324458,16.4135063 206.777073,17.4753312 C206.935497,17.8469914 207.082432,18.1920979 207.214159,18.5017916 C207.349577,18.8202781 207.349577,18.8202781 207.379556,18.8908736 L207.566416,19.3308992 L208.026206,19.4617884 L221.726206,23.3617884 C222.290483,23.5157459 222.541199,23.6044605 222.586059,23.6393522 C222.350738,23.4563248 222.341139,23.0819405 222.386267,23.0187618 L218.065981,29.5482643 C217.978931,29.6690311 217.640778,29.6792782 216.871391,29.3715233 L204.283827,25.6411245 L204.927848,26.2270415 L200.827848,16.0270415 L200.724401,16.9660065 L200.724401,16.9660065 Z M199.075599,15.8339935 L198.772297,16.2757592 L198.972152,16.7729585 L203.072152,26.9729585 L203.2525,27.4216282 L203.716173,27.5588755 L216.216173,31.2588755 C217.654997,31.8390317 218.913989,31.8008804 219.713733,30.6812382 L224.034019,24.1517357 C224.540297,23.4440496 224.518884,22.6089368 223.813941,22.0606478 C223.46868,21.7921121 223.122448,21.669599 222.263117,21.4352362 L208.573794,17.5382116 L209.220444,18.1091264 C209.190258,18.0380427 209.190258,18.0380427 209.054592,17.718973 C208.92267,17.4088203 208.775534,17.0632408 208.616899,16.6910854 C208.163629,15.6277227 207.708983,14.5643325 207.282658,13.5716516 C207.265908,13.5326513 207.265908,13.5326513 207.249157,13.4936538 C206.333921,11.3631145 205.684648,9.87382538 205.406183,9.27711453 L204.666124,7.69127299 L203.675599,9.1339935 L199.075599,15.8339935 L199.075599,15.8339935 Z" id="Shape"></path>
                <path d="M204.135765,10.6644583 L218.735765,14.6644583 L218.085396,14.1043512 L222.285396,23.6043512 L224.114604,22.7956488 L219.914604,13.2956488 L219.722483,12.861089 L219.264235,12.7355417 L204.664235,8.73554171 L204.135765,10.6644583 L204.135765,10.6644583 Z" id="Shape"></path>
                <path d="M31.8035397,137.704662 C57.0610644,170.572533 109.686144,206.097472 155.570681,218.382987 L155.829319,217.417013 C110.159041,205.188865 57.7210549,169.790225 32.5964603,137.095338 L31.8035397,137.704662 L31.8035397,137.704662 Z" id="Shape"></path>
                <path d="M26.3148391,128.618828 C58.1855251,167.120328 113.823806,203.725937 170.352507,221.177751 L170.647493,220.222249 C114.30238,202.827114 58.8300205,166.330667 27.0851609,127.981172 L26.3148391,128.618828 L26.3148391,128.618828 Z" id="Shape"></path>
                <path d="M16.0104855,109.413494 C58.6334294,162.372256 114.489617,198.600021 190.344764,223.375291 L190.655236,222.424709 C114.975788,197.706824 59.2840466,161.585717 16.7895145,108.786506 L16.0104855,109.413494 L16.0104855,109.413494 Z" id="Shape"></path>
                <path d="M8.19745678,88.7965787 C55.1194504,152.483309 123.876459,196.918622 212.356742,223.379038 L212.643258,222.420962 C124.359348,196.019273 55.7867548,151.703142 9.00254322,88.2034213 L8.19745678,88.7965787 L8.19745678,88.7965787 Z" id="Shape"></path>
                <path d="M49.915731,220.892956 C46.2708952,229.015733 60.5237626,238.485435 66.6844567,233.27254 L65.7155433,232.12746 C60.7246924,236.350488 48.3215219,228.109737 51.284269,221.507044 L49.915731,220.892956 L49.915731,220.892956 Z" id="Shape"></path>
                <path d="M10.0614479,13.6027292 C29.7593706,-3.40911309 98.6835956,20.181384 168.372951,68.2293154 C236.941,115.562108 283.487577,170.887073 276.315506,195.889707 L277.084494,196.110293 C284.395204,170.624346 237.682397,115.1018 168.827238,67.5708147 C98.8306467,19.3110566 29.6462668,-4.36848288 9.53855205,12.9972708 L10.0614479,13.6027292 L10.0614479,13.6027292 Z" id="Shape"></path>
                <path d="M8.92229516,17.5180456 C32.0509179,4.54590506 98.2240209,28.4351119 164.457873,74.2056695 C230.240362,119.610425 275.867631,172.435738 272.751719,198.870735 L273.248281,198.929265 C276.394694,172.235507 230.674351,119.302437 164.742013,73.7942517 C98.3531485,27.9165738 32.0421099,3.97757067 8.67770484,17.0819544 L8.92229516,17.5180456 L8.92229516,17.5180456 Z" id="Shape"></path>
            </g>
        </g>
    </g>
</svg>