<?xml version="1.0" encoding="UTF-8" standalone="no"?>
<svg width="323px" height="257px" viewBox="0 0 323 257" version="1.1" xmlns="http://www.w3.org/2000/svg" xmlns:xlink="http://www.w3.org/1999/xlink" xmlns:sketch="http://www.bohemiancoding.com/sketch/ns">
    <!-- Generator: Sketch 3.5.2 (25235) - http://www.bohemiancoding.com/sketch -->
    <title>cam</title>
    <desc>Created with Sketch.</desc>
    <defs></defs>
    <g id="Page-1" stroke="none" stroke-width="1" fill="none" fill-rule="evenodd" sketch:type="MSPage">
        <g id="cam" sketch:type="MSLayerGroup" fill="#003CFF">
            <path d="M214.786897,59.8619664 C225.317988,39.64405 241.996914,24.5790119 262.45895,14.3698084 C277.362052,6.93414553 293.670553,2.63153696 303.633315,2.29944491 L303.6,0.3 L38.8,0.3 C18.8177874,0.3 1.22841474,29.6694111 0.300390381,62.8720606 C0.175683441,65.6122487 1.90777572,67.2 4.8,67.2 C17.208654,67.2 35.9229707,67.1897306 101.200609,67.1499998 C103.219052,67.1487716 103.219052,67.1487716 105.238353,67.1475442 C160.592074,67.1139112 187.443646,67.1 202.4,67.1 C208.627094,67.2005671 212.155422,65.0105699 214.790435,59.8551111 L214.786897,59.8619664 Z M213.009565,58.9448889 C210.716744,63.4308442 207.885221,65.1883412 202.416127,65.10013 C187.443039,65.1 160.591463,65.1139112 105.237138,65.1475446 C103.217835,65.1487719 103.217835,65.1487719 101.199391,65.1500002 C35.9226612,65.1897304 17.2080127,65.2 4.8,65.2 C2.99222428,65.2 2.22831656,64.4997513 2.29896854,62.9454077 C3.20133421,30.6662374 20.189905,2.3 38.8,2.3 L303.6,2.3 L303.566685,0.300555093 C293.309626,0.642457066 276.720588,5.01907868 261.56605,12.5801916 C240.748848,22.966599 223.754328,38.3166937 213.013103,58.9380336 L213.009565,58.9448889 Z" id="Shape" sketch:type="MSShapeGroup"></path>
            <path d="M303.335542,39.7532149 C307.500141,28.7226557 312.047213,20.2114707 318.173542,12.7337452 C318.384656,12.4804625 319.444829,11.271126 319.722994,10.941918 C320.565076,9.94531532 321.17007,9.11988379 321.614244,8.29812706 C322.969583,5.79064909 322.50765,3.59732312 319.72394,2.29430977 C316.436413,0.783796397 311.229842,0.3 303.6,0.3 L303.6,2.3 C310.917777,2.3 315.967144,2.76918892 318.8825,4.10867684 C320.515969,4.87330722 320.705509,5.77327454 319.854815,7.34712294 C319.489506,8.02297304 318.956181,8.75062095 318.195317,9.65110369 C317.934565,9.95970299 316.868322,11.1759631 316.631779,11.4598156 C310.345839,19.1323046 305.699948,27.8284594 301.464458,39.0467851 L303.335542,39.7532149 L303.335542,39.7532149 Z" id="Shape" sketch:type="MSShapeGroup"></path>
            <path d="M257.1,128.4 L49.6,128.4 C27.5003412,128.4 7.5,99.4513114 7.5,66.3 L5.5,66.3 C5.5,100.432048 26.2045394,130.4 49.6,130.4 L257.1,130.4 L257.1,128.4 L257.1,128.4 Z" id="Shape" sketch:type="MSShapeGroup"></path>
            <path d="M273.688629,9.2502884 C294.09989,15.9382334 305.3,39.3194856 305.3,66.6 C305.3,100.586821 283.59347,128.1 257,128.1 C230.589406,128.1 208.7,99.619246 208.7,65.4 L206.7,65.4 C206.7,100.625992 229.35279,130.1 257,130.1 C284.815923,130.1 307.3,101.601274 307.3,66.6 C307.3,38.5513173 295.712865,14.362116 274.311371,7.3497116 L273.688629,9.2502884 L273.688629,9.2502884 Z" id="Shape" sketch:type="MSShapeGroup"></path>
            <path d="M119.3,174.45 C126.385786,174.45 132.15,180.214214 132.15,187.3 C132.15,194.385786 126.385786,200.15 119.3,200.15 C112.214214,200.15 106.45,194.385786 106.45,187.3 C106.45,180.149588 112.178668,174.45 119.3,174.45 L119.3,174.45 Z M119.3,172.95 C111.351945,172.95 104.95,179.319447 104.95,187.3 C104.95,195.214214 111.385786,201.65 119.3,201.65 C127.214214,201.65 133.65,195.214214 133.65,187.3 C133.65,179.385786 127.214214,172.95 119.3,172.95 L119.3,172.95 Z M106.272543,191.883737 C105.936211,192.117026 105.936211,192.117026 104.422607,193.166848 C102.951025,194.187509 101.311192,195.324818 99.5451332,196.549613 C94.4992526,200.049024 89.4527387,203.548435 84.7417777,206.814546 C84.7341583,206.819829 84.7341583,206.819829 84.7265389,206.825112 C72.1309509,215.557636 64.214357,221.041562 63.2774974,221.680329 C59.7294509,224.099452 58.15,226.468628 58.15,231.4 C58.15,236.845963 61.5397452,239.289732 64.7225026,237.119671 C65.0375065,236.894887 74.6553283,230.139159 90.4227416,219.066432 C90.4250542,219.064808 90.4250542,219.064808 90.4273668,219.063184 C96.0500334,215.114644 102.074321,210.884268 108.098609,206.654027 C110.207109,205.173443 111.512372,204.256902 113.922087,202.564839 C115.729373,201.295801 115.729373,201.295801 116.13099,201.013798 L116.91167,200.465628 L116.194765,199.836344 L107.194765,191.936344 L106.754213,191.549637 L106.272543,191.883737 L106.272543,191.883737 Z M107.127457,193.116263 L106.205235,193.063656 L115.205235,200.963656 L115.26901,199.786202 C114.867388,200.068209 114.867388,200.068209 113.060097,201.337251 C110.650376,203.029318 109.345111,203.945861 107.236605,205.426448 C101.212303,209.656699 95.1880012,213.887086 89.5653174,217.835637 C89.5630048,217.837261 89.5630048,217.837261 89.5606922,217.838885 C73.7349862,228.952548 64.1712763,235.670268 63.8640714,235.8897 C61.7998177,237.296929 59.65,235.747061 59.65,231.4 C59.65,227.031372 60.9483269,225.083881 64.1225026,222.919671 C65.064714,222.277254 72.9711346,216.800375 85.5811808,208.057827 C85.5888003,208.052544 85.5888003,208.052544 85.5964199,208.047262 C90.3074484,204.781103 95.3540202,201.281652 100.399957,197.782202 C102.166034,196.557395 103.805883,195.420074 105.277483,194.399401 C106.791107,193.349565 106.791107,193.349565 107.127457,193.116263 L107.127457,193.116263 Z M119.07879,173.494196 L120.52121,173.905804 L132.02121,133.605804 L130.57879,133.194196 L119.07879,173.494196 L119.07879,173.494196 Z M143.680574,133.18804 L129.980574,179.68804 L131.419426,180.11196 L145.119426,133.61196 L143.680574,133.18804 L143.680574,133.18804 Z" id="Shape" sketch:type="MSShapeGroup"></path>
            <path d="M69.7506395,232.069035 C69.2551063,244.060939 65.5900186,253.815267 61.3039384,254.97608 C56.8656832,256.256242 52.6439426,246.058657 52.4499277,232.089584 C52.2541501,217.79782 56.1735759,205.195359 60.8949801,203.924212 C64.2749081,203.017402 67.6908233,208.621638 69.1588098,218.114617 L70.6411902,217.885383 C69.048309,207.584751 65.1712089,201.223884 60.5056536,202.475618 C54.839479,204.001126 50.7453453,217.165341 50.9500704,232.110273 C51.1570897,247.015667 55.7608819,258.136095 61.7078705,256.420618 C66.8624209,255.024697 70.7285159,244.735405 71.2493605,232.130965 L69.7506395,232.069035 L69.7506395,232.069035 Z" id="Shape" sketch:type="MSShapeGroup"></path>
            <g id="Group" transform="translate(229.000000, 32.000000)" sketch:type="MSShapeGroup">
                <path d="M15.2515195,6.79885739 C27.4216055,-2.37700115 42.8962673,2.592746 50.1208026,18.0181051 C57.28696,33.6266368 53.1380561,53.7351928 40.8484805,63.0011426 C28.6783945,72.1770011 13.2037327,67.207254 5.97919742,51.7818949 C-1.16320036,36.2251135 3.02060021,16.0943629 15.2538125,6.79712165 L15.2515195,6.79885739 Z M14.3461875,5.60287835 C1.53254043,15.3412502 -2.80963743,36.234048 4.61840449,52.4129338 C12.2301918,68.6651795 28.7788441,73.9798428 41.7515195,64.1988574 C54.6268097,54.4912973 58.9335098,33.6179479 51.4815955,17.3870662 C43.8698082,1.13482055 27.3211559,-4.17984278 14.3484805,5.60114261 L14.3461875,5.60287835 Z M15.1548369,21.5963417 C20.6417991,17.4113705 27.7013602,19.7165333 30.9169136,26.8096658 C34.2698017,33.9945335 32.3644368,43.312959 26.7516321,47.4987794 C21.2301356,51.6165056 14.1804498,49.3433416 10.9830864,42.2903342 C7.63454923,35.1147899 9.52708091,25.8886979 15.1548369,21.5963417 L15.1548369,21.5963417 Z M14.2451631,20.4036583 C8.03644304,25.1391228 5.98682482,35.1310116 9.62036265,42.9171641 C13.1926779,50.7973812 21.3224841,53.4188289 27.6483679,48.7012206 C33.8551658,44.0724222 35.9186464,33.9807124 32.2796374,26.1828359 C28.6888666,18.2619081 20.5413384,15.6014907 14.2451631,20.4036583 L14.2451631,20.4036583 Z M17.9685213,31.8856516 C19.0431699,31.0259327 20.5042219,31.5053405 21.2221966,33.0210648 C21.9860872,34.6337226 21.5349611,36.8362792 20.25,37.8 C19.1568301,38.6740673 17.6957781,38.1946595 16.9778034,36.6789352 C16.2132706,34.9796254 16.6625953,32.7858636 17.9248966,31.9180314 L17.9685213,31.8856516 Z M17.0751034,30.6819686 C15.1752662,31.9881066 14.5643743,34.9706966 15.6160589,37.3077735 C16.7287594,39.6571418 19.281951,40.4949078 21.1685213,38.9856516 C23.0266047,37.5925465 23.6366231,34.6142214 22.5778034,32.3789352 C21.4712406,30.0428582 18.918049,29.2050922 17.0314787,30.7143484 L17.0751034,30.6819686 Z M26.617734,30.5114693 C28.5817053,34.8135016 27.4473782,40.4269663 24.15,42.9 L25.3350073,43.649212 L28.0350073,30.349212 L26.617734,30.5114693 L26.617734,30.5114693 Z M27.982266,29.8885307 L27.0240393,27.7895581 L26.5649927,30.050788 L23.8649927,43.350788 L23.4727521,45.2829359 L25.05,44.1 C28.9379653,41.184026 30.2269145,34.8053799 27.982266,29.8885307 L27.982266,29.8885307 Z" id="Shape"></path>
            </g>
            <path d="M35.7,126.2 L241.4,126.2 L241.4,125.2 L35.7,125.2 L35.7,126.2 L35.7,126.2 Z" id="Shape" sketch:type="MSShapeGroup"></path>
            <path d="M29.9,122.2 L232.8,122.2 L232.8,121.2 L29.9,121.2 L29.9,122.2 L29.9,122.2 Z" id="Shape" sketch:type="MSShapeGroup"></path>
            <path d="M23.5,116.2 L226.1,116.2 L226.1,115.2 L23.5,115.2 L23.5,116.2 L23.5,116.2 Z" id="Shape" sketch:type="MSShapeGroup"></path>
            <path d="M17.1,107.2 L219.7,107.2 L219.7,106.2 L17.1,106.2 L17.1,107.2 L17.1,107.2 Z" id="Shape" sketch:type="MSShapeGroup"></path>
            <path d="M283.4,6.2 L321.4,6.2 L321.4,5.2 L283.4,5.2 L283.4,6.2 L283.4,6.2 Z" id="Shape" sketch:type="MSShapeGroup"></path>
            <path d="M278.5,10.2 L319.5,10.2 L319.5,9.2 L278.5,9.2 L278.5,10.2 L278.5,10.2 Z" id="Shape" sketch:type="MSShapeGroup"></path>
            <path d="M286,15.2 L315.1,15.2 L315.1,14.2 L286,14.2 L286,15.2 L286,15.2 Z" id="Shape" sketch:type="MSShapeGroup"></path>
            <path d="M292.1,21.2 L311.3,21.2 L311.3,20.2 L292.1,20.2 L292.1,21.2 L292.1,21.2 Z" id="Shape" sketch:type="MSShapeGroup"></path>
            <path d="M148.95,129.4 C148.95,131.606716 147.867347,132.65 145.7,132.65 L130.5,132.65 C128.269998,132.65 127.25,131.551541 127.25,129.4 L125.75,129.4 C125.75,132.356152 127.415716,134.15 130.5,134.15 L145.7,134.15 C148.683597,134.15 150.45,132.44783 150.45,129.4 L148.95,129.4 L148.95,129.4 Z" id="Shape" sketch:type="MSShapeGroup"></path>
        </g>
    </g>
</svg>