<?xml version="1.0" encoding="UTF-8" standalone="no"?>
<svg width="600px" height="600px" viewBox="0 0 600 600" version="1.1" xmlns="http://www.w3.org/2000/svg" xmlns:xlink="http://www.w3.org/1999/xlink" xmlns:sketch="http://www.bohemiancoding.com/sketch/ns">
    <!-- Generator: Sketch 3.4.4 (17249) - http://www.bohemiancoding.com/sketch -->
    <title>circle-phone</title>
    <desc>Created with Sketch.</desc>
    <defs></defs>
    <g id="Page-1" stroke="none" stroke-width="1" fill="none" fill-rule="evenodd" sketch:type="MSPage">
        <path d="M300,600 C465.685425,600 600,465.685425 600,300 C600,134.314575 465.685425,0 300,0 C134.314575,0 0,134.314575 0,300 C0,465.685425 134.314575,600 300,600 Z M163.649352,435.321885 C164.734469,439.371595 166.901095,444.457768 170.14923,450.580405 C173.397366,456.703043 176.348743,461.418184 179.003362,464.725831 C184.162611,471.381314 195.441998,476.879184 212.841524,481.219443 C228.990177,485.091082 243.964009,485.178184 257.763019,481.480751 C261.812729,480.395634 265.679615,479.078179 269.363677,477.528384 C273.04774,475.97859 277.108746,473.885709 281.546697,471.249742 C285.984647,468.613775 289.255518,466.571852 291.359309,465.123974 C293.4631,463.676096 297.213359,461.023448 302.610086,457.166029 C308.006814,453.308611 311.319845,450.974065 312.549179,450.162392 C325.841493,440.974197 337.297688,431.233063 346.917763,420.938988 C362.941416,403.945582 378.447076,382.46918 393.434741,356.509782 C408.422407,330.550384 419.268687,306.383888 425.973581,284.010294 C430.078474,270.532027 432.786447,255.740104 434.097499,239.634526 C434.185762,238.164054 434.551022,234.127612 435.193281,227.5252 C435.83554,220.922788 436.257671,216.348644 436.459675,213.802768 C436.661678,211.256893 436.7946,207.403274 436.858439,202.241913 C436.922278,197.080552 436.704263,192.517177 436.204393,188.551788 C435.704523,184.586399 434.91203,180.578849 433.826914,176.52914 C430.12948,162.730129 422.567131,149.805962 411.139867,137.756637 C398.68133,124.858335 388.280341,117.839035 379.936899,116.698736 C375.745084,116.053591 370.185963,115.855194 363.259535,116.103545 C356.333108,116.351896 350.84504,117.018629 346.79533,118.103746 C344.695481,118.666399 343.180878,119.313372 342.251522,120.044667 C339.792853,121.668013 337.345339,128.432626 334.90898,140.338505 C334.022699,143.630385 332.857976,148.282937 331.414813,154.296161 C329.97165,160.309385 328.622855,165.77486 327.368427,170.692586 C326.114,175.610311 324.864236,180.24546 323.619135,184.598034 C323.329925,185.318559 322.519888,187.545083 321.189023,191.277605 C319.858158,195.010127 318.959138,198.104473 318.491961,200.560643 C318.024784,203.016814 318.072522,205.294824 318.635175,207.394673 C319.438964,210.394458 322.581049,213.571489 328.061427,216.925766 C333.541805,220.280042 339.296683,223.158872 345.32606,225.562255 C351.355437,227.965638 357.070125,230.694479 362.470125,233.748777 C367.870124,236.803075 370.931829,239.680127 371.65524,242.379934 C372.016946,243.729837 372.094105,245.51769 371.886716,247.743492 C371.679328,249.969294 371.453817,251.677489 371.210181,252.868077 C370.966545,254.058665 370.398894,256.139862 369.507228,259.111669 C368.615563,262.083476 368.134925,263.739464 368.065315,264.079632 C362.172093,287.68256 353.845295,308.802782 343.08492,327.440299 C332.324544,346.077815 318.197294,363.849145 300.70317,380.754289 C300.443381,380.984657 299.249573,382.228896 297.121745,384.487004 C294.993918,386.745113 293.475373,388.277311 292.566112,389.0836 C291.65685,389.889889 290.290266,390.939286 288.466359,392.23179 C286.642451,393.524294 285.055546,394.351399 283.705643,394.713105 C281.005836,395.436516 276.983384,394.223528 271.638284,391.07414 C266.293185,387.924752 261.072595,384.340108 255.976516,380.320205 C250.880437,376.300303 245.509858,372.755848 239.86478,369.686839 C234.219702,366.617831 229.897271,365.485221 226.897486,366.289011 C224.797636,366.851664 222.800953,367.949327 220.907435,369.581999 C219.013918,371.214672 216.783646,373.54042 214.216619,376.559243 C211.649593,379.578067 210.126386,381.392841 209.646997,382.003567 C206.500108,385.258143 203.110833,388.658045 199.479172,392.203274 C195.84751,395.748502 191.788668,399.649331 187.302645,403.905759 C182.816622,408.162187 179.369755,411.497142 176.962043,413.910624 C167.869429,421.973512 163.234859,427.475428 163.058335,430.416371 C162.889693,431.586865 163.086699,433.222036 163.649352,435.321885 Z" id="circle-phone" fill="#000000" sketch:type="MSShapeGroup"></path>
    </g>
</svg>
