<?xml version="1.0" encoding="UTF-8" standalone="no"?>
<svg width="600px" height="600px" viewBox="0 0 600 600" version="1.1" xmlns="http://www.w3.org/2000/svg" xmlns:xlink="http://www.w3.org/1999/xlink" xmlns:sketch="http://www.bohemiancoding.com/sketch/ns">
    <!-- Generator: Sketch 3.4.4 (17249) - http://www.bohemiancoding.com/sketch -->
    <title>circle-question</title>
    <desc>Created with Sketch.</desc>
    <defs></defs>
    <g id="Page-1" stroke="none" stroke-width="1" fill="none" fill-rule="evenodd" sketch:type="MSPage">
        <path d="M300,600 C465.685425,600 600,465.685425 600,300 C600,134.314575 465.685425,0 300,0 C134.314575,0 0,134.314575 0,300 C0,465.685425 134.314575,600 300,600 Z M303.005472,118 C248.729138,118 210.885089,139.411765 183,172.276334 L238.27223,216.095759 C255.70041,197.173735 274.622435,187.214774 293.54446,187.214774 C312.466484,187.214774 323.421341,195.679891 323.421341,211.116279 C323.421341,247.964432 247.235294,242.984952 247.235294,330.125855 L247.235294,342.574555 L326.906977,342.574555 L326.906977,333.113543 C326.906977,279.833105 416.039672,284.314637 416.039672,202.651163 C416.039672,157.337893 378.69357,118 303.005472,118 Z M287.569083,385.896033 C261.177839,385.896033 239.766074,407.805746 239.766074,434.19699 C239.766074,460.588235 261.177839,482 287.569083,482 C314.458276,482 335.870041,460.588235 335.870041,434.19699 C335.870041,407.805746 314.458276,385.896033 287.569083,385.896033 Z" id="circle-question" fill="#000000" sketch:type="MSShapeGroup"></path>
    </g>
</svg>