<?xml version="1.0" encoding="UTF-8" standalone="no"?>
<svg width="673px" height="600px" viewBox="0 0 673 600" version="1.1" xmlns="http://www.w3.org/2000/svg" xmlns:xlink="http://www.w3.org/1999/xlink" xmlns:sketch="http://www.bohemiancoding.com/sketch/ns">
    <!-- Generator: Sketch 3.4.4 (17249) - http://www.bohemiancoding.com/sketch -->
    <title>comment</title>
    <desc>Created with Sketch.</desc>
    <defs></defs>
    <g id="Page-1" stroke="none" stroke-width="1" fill="none" fill-rule="evenodd" sketch:type="MSPage">
        <path d="M336.020665,0.146051304 C533.353076,-4.28807352 679.360493,92.5698406 672.016474,246.101413 C665.462283,382.86645 528.364686,485.128454 319.697543,491.225375 C274.27227,547.493361 210.508108,585.997105 139.561222,600 C164.720959,562.253017 178.919021,518.267806 180.576877,472.934611 C69.7237562,436.630214 -1.01439134,357.924498 0.0110000252,246.101413 C1.41052067,98.5281958 134.323412,4.58017613 336.020665,0.146051304 Z M188,137 L483.934178,137 L483.934178,180.37254 L188,180.37254 L188,137 Z M188,220.408731 L483.934178,220.408731 L483.934178,263.781271 L188,263.781271 L188,220.408731 Z M188,303.817462 L483.934178,303.817462 L483.934178,347.190002 L188,347.190002 L188,303.817462 Z" id="comment" fill="#000000" sketch:type="MSShapeGroup"></path>
    </g>
</svg>