<?xml version="1.0" encoding="UTF-8" standalone="no"?>
<svg width="17px" height="33px" viewBox="0 0 17 33" version="1.1" xmlns="http://www.w3.org/2000/svg" xmlns:xlink="http://www.w3.org/1999/xlink" xmlns:sketch="http://www.bohemiancoding.com/sketch/ns">
    <!-- Generator: Sketch 3.5.1 (25234) - http://www.bohemiancoding.com/sketch -->
    <title>facebook</title>
    <desc>Created with Sketch.</desc>
    <defs></defs>
    <g id="Page-1" stroke="none" stroke-width="1" fill="none" fill-rule="evenodd" sketch:type="MSPage">
        <path d="M16.8,0.7 L16.8,5.8 L13.8,5.8 C12.7,5.8 12,6 11.6,6.5 C11.2,7 11,7.7 11,8.6 L11,12.2 L16.6,12.2 L15.8,17.9 L11,17.9 L11,32.5 L5.1,32.5 L5.1,17.9 L0.2,17.9 L0.2,12.2 L5.1,12.2 L5.1,8 C5.1,5.6 5.8,3.8 7.1,2.5 C8.4,1.2 10.2,0.5 12.4,0.5 C14.3,0.5 15.8,0.6 16.8,0.7 L16.8,0.7 Z" id="facebook" fill="#000000" sketch:type="MSShapeGroup"></path>
    </g>
</svg>