<?xml version="1.0" encoding="UTF-8" standalone="no"?>
<svg width="217px" height="416px" viewBox="0 0 217 416" version="1.1" xmlns="http://www.w3.org/2000/svg" xmlns:xlink="http://www.w3.org/1999/xlink" xmlns:sketch="http://www.bohemiancoding.com/sketch/ns">
    <!-- Generator: Sketch 3.4.4 (17249) - http://www.bohemiancoding.com/sketch -->
    <title>facebook</title>
    <desc>Created with Sketch.</desc>
    <defs></defs>
    <g id="Page-1" stroke="none" stroke-width="1" fill="none" fill-rule="evenodd" sketch:type="MSPage">
        <path d="M216.75,3 L216.75,69 L177.5,69 C163.166667,69 153.5,72 148.5,78 C143.5,84 141,93 141,105 L141,152.25 L214.25,152.25 L204.5,226.25 L141,226.25 L141,416 L64.5,416 L64.5,226.25 L0.75,226.25 L0.75,152.25 L64.5,152.25 L64.5,97.75 C64.5,66.75 73.1666667,42.7083333 90.5,25.625 C107.833333,8.54166667 130.916667,0 159.75,0 C184.25,0 203.25,1 216.75,3 L216.75,3 Z" id="facebook" fill="#000000" sketch:type="MSShapeGroup"></path>
    </g>
</svg>