<?xml version="1.0" encoding="UTF-8" standalone="no"?>
<svg width="36px" height="35px" viewBox="0 0 36 35" version="1.1" xmlns="http://www.w3.org/2000/svg" xmlns:xlink="http://www.w3.org/1999/xlink" xmlns:sketch="http://www.bohemiancoding.com/sketch/ns">
    <!-- Generator: Sketch 3.4.4 (17249) - http://www.bohemiancoding.com/sketch -->
    <title>icon-camera</title>
    <desc>Created with Sketch.</desc>
    <defs></defs>
    <g id="Page-1" stroke="none" stroke-width="1" fill="none" fill-rule="evenodd" sketch:type="MSPage">
        <g id="icon-camera" sketch:type="MSLayerGroup" transform="translate(1.000000, 0.000000)" stroke="#231F20">
            <path d="M22.572,23.441 L9.084,23.441 C7.215,23.441 4.818,21.788 4.818,17.575 C4.818,13.475 7.214,11.443 9.084,11.443 L27.229,11.443" id="Shape" sketch:type="MSShapeGroup"></path>
            <path d="M25.448,12.096 C27.448,12.846 27.875,16.014 27.875,17.616 C27.875,20.577 26.563,23.552 24.158,23.552 C21.753,23.552 20.22,20.536 20.501,17.431 C20.697,15.266 23.132,13.213 24.81,12.372 C27.18,11.184 28.717,11.215 29.604,12.047 C30.026,12.443 29.241,14.645 27.782,16.221" id="Shape" sketch:type="MSShapeGroup"></path>
            <path d="M24.577,15.667 C25.28,15.667 25.852,16.53 25.852,17.594 C25.852,18.658 25.28,19.522 24.577,19.522 C23.873,19.522 23.302,18.659 23.302,17.594 C23.302,16.53 23.873,15.667 24.577,15.667 L24.577,15.667 Z" id="Shape" stroke-width="0.7" sketch:type="MSShapeGroup"></path>
            <path d="M5.26,19.441 L20.485,19.441" id="Shape" stroke-width="0.5" sketch:type="MSShapeGroup"></path>
            <path d="M5.947,21.191 L20.697,21.191" id="Shape" stroke-width="0.5" sketch:type="MSShapeGroup"></path>
            <path d="M16.591,23.441 L16.591,28.021 L11.154,33.389" id="Shape" sketch:type="MSShapeGroup"></path>
            <circle id="Oval" sketch:type="MSShapeGroup" cx="17" cy="17.5" r="17"></circle>
        </g>
    </g>
</svg>