<?xml version="1.0" encoding="UTF-8" standalone="no"?>
<svg width="234px" height="350px" viewBox="0 0 234 350" version="1.1" xmlns="http://www.w3.org/2000/svg" xmlns:xlink="http://www.w3.org/1999/xlink" xmlns:sketch="http://www.bohemiancoding.com/sketch/ns">
    <!-- Generator: Sketch 3.5 (25232) - http://www.bohemiancoding.com/sketch -->
    <title>map-marker-o</title>
    <desc>Created with Sketch.</desc>
    <defs></defs>
    <g id="Page-1" stroke="none" stroke-width="1" fill="none" fill-rule="evenodd" sketch:type="MSPage">
        <path d="M119.958332,312.733339 C133.415139,291.822653 146.870834,269.923288 159.409047,248.132824 C166.447815,235.899978 173.001498,224.033684 178.976601,212.648775 C201.970503,168.836387 215.070027,134.451486 215.070027,116.144777 C215.066175,61.950686 171.140279,18.015416 116.94619,17.9999993 C62.7663483,18.0192688 18.8447057,61.9534105 18.8408551,116.143498 C18.8408551,134.451745 31.9394753,168.836721 54.9318118,212.649241 C60.9064916,224.034156 67.4597106,235.900454 74.497981,248.133304 C87.0353046,269.923772 100.490044,291.823141 113.945895,312.733829 C115.027642,314.414888 117.136119,317.672424 117.136119,317.672424 C117.136119,317.672424 115.24863,320.0518 119.958332,312.733339 Z M233.070027,116.143498 C233.070027,180.245457 116.951311,350 116.951311,350 C116.951311,350 0.840855107,180.245457 0.840855107,116.143498 C0.845411858,52.014005 52.8218217,0.022803868 116.951311,-3.75166564e-12 C181.084026,0.0182439793 233.065468,52.0107803 233.070027,116.143498 Z" id="map-marker-o" fill="#000000" sketch:type="MSShapeGroup"></path>
    </g>
</svg>