<?xml version="1.0" encoding="UTF-8" standalone="no"?>
<svg width="295px" height="396px" viewBox="0 0 295 396" version="1.1" xmlns="http://www.w3.org/2000/svg" xmlns:xlink="http://www.w3.org/1999/xlink" xmlns:sketch="http://www.bohemiancoding.com/sketch/ns">
    <!-- Generator: Sketch 3.4.4 (17249) - http://www.bohemiancoding.com/sketch -->
    <title>phone</title>
    <desc>Created with Sketch.</desc>
    <defs></defs>
    <g id="Page-1" stroke="none" stroke-width="1" fill="none" fill-rule="evenodd" sketch:type="MSPage">
        <path d="M1.39659717,343.076586 C2.56128288,347.423252 4.88678296,352.882384 8.37309741,359.453981 C11.8594119,366.025578 15.0272074,371.086472 17.8764841,374.636661 C23.4140499,381.780176 35.5205307,387.681194 54.1959265,392.339715 C71.5287264,396.495252 87.6005576,396.588742 102.41142,392.620183 C106.758087,391.455498 110.908523,390.041436 114.86273,388.377998 C118.816937,386.714561 123.175728,384.468213 127.939104,381.638956 C132.70248,378.809699 136.213197,376.618047 138.471254,375.063999 C140.729312,373.509951 144.75457,370.66279 150.547028,366.522515 C156.339486,362.38224 159.895454,359.876507 161.214933,359.005315 C175.481944,349.14337 187.778197,338.687939 198.103693,327.639021 C215.302327,309.399525 231.944983,286.348304 248.031662,258.485358 C264.118342,230.622412 275.759956,204.683838 282.956507,180.669637 C287.362402,166.203036 290.268945,150.326453 291.676135,133.039887 C291.770869,131.461588 292.162913,127.129163 292.852267,120.042609 C293.541622,112.956056 293.994707,108.0465 294.211523,105.313941 C294.428339,102.581382 294.571007,98.4451858 294.639528,92.9053528 C294.708048,87.3655198 294.474047,82.4675221 293.937522,78.2113595 C293.400998,73.955197 292.550393,69.6537826 291.385708,65.3071164 C287.417149,50.4962537 279.300269,36.6243844 267.035068,23.6915083 C253.662973,9.84740133 242.499301,2.31339033 233.544052,1.08947531 C229.04486,0.397023982 223.0781,0.184079169 215.643773,0.450640868 C208.209445,0.717202568 202.318949,1.43282627 197.972282,2.59751197 C195.718455,3.20142308 194.09279,3.89583786 193.095286,4.68075633 C190.456328,6.42313929 187.829342,13.683787 185.214331,26.4626994 C184.26306,29.9959661 183.012931,34.9896799 181.463944,41.4438409 C179.914957,47.8980018 178.467257,53.7642482 177.120845,59.04258 C175.774434,64.3209118 174.433027,69.295947 173.096625,73.9676855 C172.786208,74.7410456 171.916773,77.1308355 170.488319,81.1370553 C169.059864,85.143275 168.09492,88.464523 167.593486,91.1007993 C167.092052,93.7370756 167.143291,96.1821273 167.747202,98.4359542 C168.609932,101.655707 171.982418,105.065703 177.864661,108.665941 C183.746904,112.26618 189.923775,115.356108 196.395274,117.935726 C202.866772,120.515344 209.000506,123.444285 214.796476,126.722548 C220.592446,130.000812 223.87866,133.088832 224.655117,135.98661 C225.043345,137.435498 225.126162,139.35445 224.903567,141.743466 C224.680971,144.132482 224.438923,145.965935 224.177422,147.243826 C223.915921,148.521718 223.306645,150.755525 222.349596,153.945248 C221.392546,157.134971 220.876664,158.912389 220.801949,159.2775 C214.47659,184.611181 205.539206,207.280105 193.989795,227.284271 C182.440384,247.288437 167.277213,266.362902 148.500281,284.507664 C148.221442,284.754924 146.940095,286.0904 144.656238,288.514091 C142.372382,290.937782 140.742485,292.582333 139.76655,293.447745 C138.790614,294.313158 137.323821,295.439504 135.36617,296.826785 C133.40852,298.214066 131.70525,299.101821 130.256361,299.49005 C127.358584,300.266507 123.041173,298.964573 117.304129,295.584247 C111.567084,292.203922 105.96368,288.356423 100.493916,284.041749 C95.0241524,279.727076 89.2597606,275.922713 83.200741,272.628661 C77.1417214,269.334609 72.5023353,268.118947 69.2825825,268.981678 C67.0287556,269.585589 64.8856595,270.763741 62.8532943,272.516133 C60.8209291,274.268526 58.427116,276.764816 55.671855,280.005004 C52.916594,283.245191 51.2816929,285.193039 50.7671519,285.848548 C47.3895086,289.341776 43.7517051,292.990985 39.8537416,296.796178 C35.955778,300.601371 31.5993094,304.788239 26.7843357,309.356781 C21.969362,313.925324 18.2697434,317.504825 15.6854799,320.095282 C5.92612303,328.749405 0.951710247,334.654765 0.762241557,337.811361 C0.581234196,339.067684 0.792686068,340.822759 1.39659717,343.076586 L1.39659717,343.076586 L1.39659717,343.076586 Z" id="phone" fill="#000000" sketch:type="MSShapeGroup"></path>
    </g>
</svg>