<?xml version="1.0" encoding="UTF-8" standalone="no"?>
<svg width="232px" height="320px" viewBox="0 0 232 320" version="1.1" xmlns="http://www.w3.org/2000/svg" xmlns:xlink="http://www.w3.org/1999/xlink" xmlns:sketch="http://www.bohemiancoding.com/sketch/ns">
    <!-- Generator: Sketch 3.4.4 (17249) - http://www.bohemiancoding.com/sketch -->
    <title>question</title>
    <desc>Created with Sketch.</desc>
    <defs></defs>
    <g id="Page-1" stroke="none" stroke-width="1" fill="none" fill-rule="evenodd" sketch:type="MSPage">
        <path d="M152.02381,250 L152.02381,310 C152.02381,312.666667 151.02381,315 149.02381,317 C147.02381,319 144.690476,320 142.02381,320 L82.0238095,320 C79.3571429,320 77.0238095,319 75.0238095,317 C73.0238095,315 72.0238095,312.666667 72.0238095,310 L72.0238095,250 C72.0238095,247.333333 73.0238095,245 75.0238095,243 C77.0238095,241 79.3571429,240 82.0238095,240 L142.02381,240 C144.690476,240 147.02381,241 149.02381,243 C151.02381,245 152.02381,247.333333 152.02381,250 L152.02381,250 Z M231.02381,100 C231.02381,109 229.732143,117.416667 227.14881,125.25 C224.565476,133.083333 221.64881,139.458333 218.39881,144.375 C215.14881,149.291667 210.565476,154.25 204.64881,159.25 C198.732143,164.25 193.940476,167.875 190.27381,170.125 C186.607143,172.375 181.52381,175.333333 175.02381,179 C168.190476,182.833333 162.482143,188.25 157.89881,195.25 C153.315476,202.25 151.02381,207.833333 151.02381,212 C151.02381,214.833333 150.02381,217.541667 148.02381,220.125 C146.02381,222.708333 143.690476,224 141.02381,224 L81.0238095,224 C78.5238095,224 76.3988095,222.458333 74.6488095,219.375 C72.8988095,216.291667 72.0238095,213.166667 72.0238095,210 L72.0238095,198.75 C72.0238095,184.916667 77.4404762,171.875 88.2738095,159.625 C99.1071429,147.375 111.02381,138.333333 124.02381,132.5 C133.857143,128 140.857143,123.333333 145.02381,118.5 C149.190476,113.666667 151.27381,107.333333 151.27381,99.5 C151.27381,92.5 147.39881,86.3333333 139.64881,81 C131.89881,75.6666667 122.940476,73 112.77381,73 C101.940476,73 92.9404762,75.4166667 85.7738095,80.25 C79.9404762,84.4166667 71.0238095,94 59.0238095,109 C56.8571429,111.666667 54.2738095,113 51.2738095,113 C49.2738095,113 47.1904762,112.333333 45.0238095,111 L4.02380952,79.75 C1.85714286,78.0833333 0.56547619,76 0.148809524,73.5 C-0.267857143,71 0.19047619,68.6666667 1.52380952,66.5 C28.1904762,22.1666667 66.8571429,0 117.52381,0 C130.857143,0 144.27381,2.58333333 157.77381,7.75 C171.27381,12.9166667 183.440476,19.8333333 194.27381,28.5 C205.107143,37.1666667 213.940476,47.7916667 220.77381,60.375 C227.607143,72.9583333 231.02381,86.1666667 231.02381,100 L231.02381,100 Z" id="question" fill="#000000" sketch:type="MSShapeGroup"></path>
    </g>
</svg>