<?xml version="1.0" encoding="UTF-8" standalone="no"?>
<svg width="394px" height="320px" viewBox="0 0 394 320" version="1.1" xmlns="http://www.w3.org/2000/svg" xmlns:xlink="http://www.w3.org/1999/xlink" xmlns:sketch="http://www.bohemiancoding.com/sketch/ns">
    <!-- Generator: Sketch 3.4.4 (17249) - http://www.bohemiancoding.com/sketch -->
    <title>twitter</title>
    <desc>Created with Sketch.</desc>
    <defs></defs>
    <g id="Page-1" stroke="none" stroke-width="1" fill="none" fill-rule="evenodd" sketch:type="MSPage">
        <path d="M394,38 C382.833333,54.3333333 369.333333,68.25 353.5,79.75 C353.666667,82.0833333 353.75,85.5833333 353.75,90.25 C353.75,111.916667 350.583333,133.541667 344.25,155.125 C337.916667,176.708333 328.291667,197.416667 315.375,217.25 C302.458333,237.083333 287.083333,254.625 269.25,269.875 C251.416667,285.125 229.916667,297.291667 204.75,306.375 C179.583333,315.458333 152.666667,320 124,320 C78.8333333,320 37.5,307.916667 0,283.75 C5.83333333,284.416667 12.3333333,284.75 19.5,284.75 C57,284.75 90.4166667,273.25 119.75,250.25 C102.25,249.916667 86.5833333,244.541667 72.75,234.125 C58.9166667,223.708333 49.4166667,210.416667 44.25,194.25 C49.75,195.083333 54.8333333,195.5 59.5,195.5 C66.6666667,195.5 73.75,194.583333 80.75,192.75 C62.0833333,188.916667 46.625,179.625 34.375,164.875 C22.125,150.125 16,133 16,113.5 L16,112.5 C27.3333333,118.833333 39.5,122.25 52.5,122.75 C41.5,115.416667 32.75,105.833333 26.25,94 C19.75,82.1666667 16.5,69.3333333 16.5,55.5 C16.5,40.8333333 20.1666667,27.25 27.5,14.75 C47.6666667,39.5833333 72.2083333,59.4583333 101.125,74.375 C130.041667,89.2916667 161,97.5833333 194,99.25 C192.666667,92.9166667 192,86.75 192,80.75 C192,58.4166667 199.875,39.375 215.625,23.625 C231.375,7.875 250.416667,0 272.75,0 C296.083333,0 315.75,8.5 331.75,25.5 C349.916667,22 367,15.5 383,6 C376.833333,25.1666667 365,40 347.5,50.5 C363,48.8333333 378.5,44.6666667 394,38 L394,38 Z" id="twitter" fill="#000000" sketch:type="MSShapeGroup"></path>
    </g>
</svg>