<?xml version="1.0" encoding="UTF-8" standalone="no"?>
<svg width="30px" height="25px" viewBox="0 0 30 25" version="1.1" xmlns="http://www.w3.org/2000/svg" xmlns:xlink="http://www.w3.org/1999/xlink" xmlns:sketch="http://www.bohemiancoding.com/sketch/ns">
    <!-- Generator: Sketch 3.5.1 (25234) - http://www.bohemiancoding.com/sketch -->
    <title>twitter</title>
    <desc>Created with Sketch.</desc>
    <defs></defs>
    <g id="Page-1" stroke="none" stroke-width="1" fill="none" fill-rule="evenodd" sketch:type="MSPage">
        <path d="M29.8,2.9 C29,4.1 27.9,5.2 26.7,6.1 L26.7,6.9 C26.7,8.5 26.5,10.2 26,11.8 C25.5,13.4 24.8,15 23.8,16.5 C22.8,18 21.7,19.3 20.3,20.5 C18.9,21.7 17.3,22.6 15.4,23.3 C13.5,24 11.5,24.3 9.3,24.3 C5.9,24.3 2.7,23.4 -0.1,21.6 C0.3,21.7 0.8,21.7 1.4,21.7 C4.2,21.7 6.8,20.8 9,19.1 C7.7,19.1 6.5,18.7 5.4,17.9 C4.4,17.1 3.6,16.1 3.2,14.9 C3.6,15 4,15 4.4,15 C4.9,15 5.5,14.9 6,14.8 C4.6,14.5 3.4,13.8 2.5,12.7 C1.6,11.6 1.1,10.3 1.1,8.8 L1.1,8.7 C2,9.2 2.9,9.4 3.9,9.5 C3.1,8.9 2.4,8.2 1.9,7.3 C1.4,6.4 1.2,5.4 1.2,4.4 C1.2,3.3 1.5,2.3 2,1.3 C3.5,3.2 5.4,4.7 7.6,5.8 C9.8,6.9 12.1,7.6 14.6,7.7 C14.5,7.2 14.4,6.8 14.4,6.3 C14.4,4.6 15,3.2 16.2,2 C17.4,0.8 18.8,0.2 20.5,0.2 C22.3,0.2 23.8,0.8 25,2.1 C26.4,1.8 27.7,1.3 28.9,0.6 C28.4,2.1 27.5,3.2 26.2,4 C27.5,3.7 28.6,3.4 29.8,2.9 L29.8,2.9 Z" id="twitter" fill="#000000" sketch:type="MSShapeGroup"></path>
    </g>
</svg>