<?xml version="1.0" encoding="UTF-8" standalone="no"?>
<svg width="28px" height="20px" viewBox="0 0 28 20" version="1.1" xmlns="http://www.w3.org/2000/svg" xmlns:xlink="http://www.w3.org/1999/xlink" xmlns:sketch="http://www.bohemiancoding.com/sketch/ns">
    <!-- Generator: Sketch 3.5.1 (25234) - http://www.bohemiancoding.com/sketch -->
    <title>youtube-play</title>
    <desc>Created with Sketch.</desc>
    <defs></defs>
    <g id="Page-1" stroke="none" stroke-width="1" fill="none" fill-rule="evenodd" sketch:type="MSPage">
        <path d="M27.7,4.3 C27.7,4.3 27.4,2.3 26.6,1.5 C25.5,0.4 24.3,0.4 23.8,0.3 C19.9,0 14,0 14,0 L14,0 C14,0 8.1,0 4.2,0.3 C3.7,0.4 2.5,0.4 1.4,1.5 C0.6,2.4 0.3,4.3 0.3,4.3 C0.3,4.3 -1.77635684e-15,6.6 -1.77635684e-15,8.9 L-1.77635684e-15,11.1 C-1.77635684e-15,13.4 0.3,15.7 0.3,15.7 C0.3,15.7 0.6,17.7 1.4,18.5 C2.5,19.6 3.9,19.6 4.5,19.7 C6.7,19.9 14,20 14,20 C14,20 19.9,20 23.8,19.7 C24.3,19.6 25.5,19.6 26.6,18.5 C27.4,17.6 27.7,15.7 27.7,15.7 C27.7,15.7 28,13.4 28,11.1 L28,8.9 C28,6.6 27.7,4.3 27.7,4.3 L27.7,4.3 Z M11.2,14 L11.2,6 L18.8,10 L11.2,14 L11.2,14 Z" id="youtube-play" fill="#000000" sketch:type="MSShapeGroup"></path>
    </g>
</svg>