<?xml version="1.0" encoding="UTF-8" standalone="no"?>
<svg width="448px" height="320px" viewBox="0 0 448 320" version="1.1" xmlns="http://www.w3.org/2000/svg" xmlns:xlink="http://www.w3.org/1999/xlink" xmlns:sketch="http://www.bohemiancoding.com/sketch/ns">
    <!-- Generator: Sketch 3.4.4 (17249) - http://www.bohemiancoding.com/sketch -->
    <title>youtube-play</title>
    <desc>Created with Sketch.</desc>
    <defs></defs>
    <g id="Page-1" stroke="none" stroke-width="1" fill="none" fill-rule="evenodd" sketch:type="MSPage">
        <path d="M320,160 C320,153.833333 317.5,149.333333 312.5,146.5 L184.5,66.5 C179.333333,63.1666667 173.916667,63 168.25,66 C162.75,69 160,73.6666667 160,80 L160,240 C160,246.333333 162.75,251 168.25,254 C170.916667,255.333333 173.5,256 176,256 C179.333333,256 182.166667,255.166667 184.5,253.5 L312.5,173.5 C317.5,170.666667 320,166.166667 320,160 L320,160 Z M448,160 C448,176 447.916667,188.5 447.75,197.5 C447.583333,206.5 446.875,217.875 445.625,231.625 C444.375,245.375 442.5,257.666667 440,268.5 C437.333333,280.666667 431.583333,290.916667 422.75,299.25 C413.916667,307.583333 403.583333,312.416667 391.75,313.75 C354.75,317.916667 298.833333,320 224,320 C149.166667,320 93.25,317.916667 56.25,313.75 C44.4166667,312.416667 34.0416667,307.583333 25.125,299.25 C16.2083333,290.916667 10.4166667,280.666667 7.75,268.5 C5.41666667,257.666667 3.625,245.375 2.375,231.625 C1.125,217.875 0.416666667,206.5 0.25,197.5 C0.0833333333,188.5 0,176 0,160 C0,144 0.0833333333,131.5 0.25,122.5 C0.416666667,113.5 1.125,102.125 2.375,88.375 C3.625,74.625 5.5,62.3333333 8,51.5 C10.6666667,39.3333333 16.4166667,29.0833333 25.25,20.75 C34.0833333,12.4166667 44.4166667,7.58333333 56.25,6.25 C93.25,2.08333333 149.166667,0 224,0 C298.833333,0 354.75,2.08333333 391.75,6.25 C403.583333,7.58333333 413.958333,12.4166667 422.875,20.75 C431.791667,29.0833333 437.583333,39.3333333 440.25,51.5 C442.583333,62.3333333 444.375,74.625 445.625,88.375 C446.875,102.125 447.583333,113.5 447.75,122.5 C447.916667,131.5 448,144 448,160 L448,160 Z" id="youtube-play" fill="#000000" sketch:type="MSShapeGroup"></path>
    </g>
</svg>