<svg data-name="Layer 1" xmlns="http://www.w3.org/2000/svg" width="601.5" height="400" viewBox="0 0 601.5 400"><title>aerial</title><path d="M197.99 11.43c29.24-32.82 141.39 18.38 250.46 114.35S622.23 326.17 592.97 359s-141.4-18.38-250.47-114.36S168.73 44.25 197.99 11.43z" fill="none" stroke="#001eff" stroke-linecap="round" stroke-linejoin="round" stroke-width="3" stroke-dasharray="2241.44 2241.44"/><path d="M235.51 369.85l67.51-41.07M261.21 293l-32.39 71.45" fill="none" stroke="#001eff" stroke-linecap="round" stroke-linejoin="round" stroke-width="3" stroke-dasharray="305.72 305.72"/><path d="M244.07 373.41l102.44-18.82M226.45 252.23l-.63 105.33" fill="none" stroke="#001eff" stroke-linecap="round" stroke-linejoin="round" stroke-width="3" stroke-dasharray="402.1 402.1"/><path d="M589.65 362.09c-52.69 53.64-206.35 35.09-311.67-52.94C175.3 223.31 151.25 73.22 195.56 14.34" fill="none" stroke="#001eff" stroke-linecap="round" stroke-linejoin="round" stroke-width="3" stroke-dasharray="1296.87 1296.87"/><path d="M238.65 365a20.82 20.82 0 0 0-29.14-3.19 20.5 20.5 0 0 0-3.21 29 20.82 20.82 0 0 0 29.16 3.19 20.5 20.5 0 0 0 3.19-29z" fill="none" stroke="#001eff" stroke-linecap="round" stroke-linejoin="round" stroke-width="3" stroke-dasharray="252.03 252.03"/><g fill="none" stroke="#001eff" stroke-linecap="round" stroke-linejoin="round"><path d="M49.43 351.73a2 2 0 1 1-1.43 2.52 2 2 0 0 1-.08-.55 1.79 1.79 0 0 1 1.51-1.97z" stroke-dasharray="25.16 25.16"/><path d="M43.65 352.86a2 2 0 0 1 2.49 1.45 2 2 0 0 1-1.46 2.47 2 2 0 0 1-2.56-2 1.8 1.8 0 0 1 1.53-1.92z" stroke-dasharray="24.93 24.93"/><path d="M55.15 350.38a2 2 0 1 1-1.43 2.52 2 2 0 0 1-.08-.54 1.8 1.8 0 0 1 1.51-1.98z" stroke-dasharray="25.17 25.17"/><path d="M3.65 316.75l79.29-15.1a9.06 9.06 0 0 1 7.47 1.86l31.6 25.49c1.59 1.57.83 3.29-1.72 3.83L37.73 350.5a9.08 9.08 0 0 1-7.48-1.86L1.92 320.58c-1.6-1.58-.83-3.29 1.73-3.83z" stroke-width="2" stroke-dasharray="527.91 527.91"/><path d="M122.81 331.18V340c0 3.11-1.09 3.88-3.15 4.35l-81.93 17.53a9.1 9.1 0 0 1-7.48-1.88L1.92 332c-.83-.84-.92-2.11-.92-3.87v-8.61" stroke-width="2" stroke-dasharray="308.42 308.42"/></g><g fill="none" stroke="#001eff" stroke-linecap="round" stroke-linejoin="round" stroke-width="3"><path d="M360.47 234.24L490.41 96.55" stroke-dasharray="367.48 367.48"/><path d="M265.03 92.42l215.81-8m23.87 20.63l5.14 197.55" stroke-dasharray="802.46 802.46"/><path d="M512.95 89c3.42 4.76 4.66 9 3.55 11.29-1.27 2.65-12.45 0-21-7.43s-12.85-16.4-9.92-19.46c1.78-1.83 6.26-1.05 11.57 1.82" stroke-dasharray="138.71 138.71"/><path d="M512.56 105c-1.28 2.65-12.44 0-21-7.42S477.9 80.11 480.82 77" stroke-dasharray="93.36 93.36"/><path d="M494.52 81.18l9.82-9.9m13 9.5l-10.23 11.71" stroke-dasharray="57.2 57.2"/><path d="M501.37 58.1l8.69-9.83c.86 2.56 4.36 14.88 4.36 14.88L535.81 72c1.64.75 2.69 1.17 1.69 2.21l-8.24 9.58c-1 1-2.32.72-3.88-.07l-19.5-8.46z" stroke-dasharray="215.75 215.75"/></g><path d="M510.06 48.27l22.85 9.34 5 16.08" fill="none" stroke="#001eff" stroke-linecap="round" stroke-linejoin="round" stroke-width="3" stroke-dasharray="80.53 80.53"/><path d="M206.91 219.49c31 52.25 106.53 122.42 183.63 153.25" fill="none" stroke="#001eff" stroke-linecap="round" stroke-linejoin="round" stroke-width="2" stroke-dasharray="470.7 470.7" opacity=".8" style="isolation:isolate"/><path d="M199.81 203.79c41 63.52 121.4 135.07 214 176.33" fill="none" stroke="#001eff" stroke-linecap="round" stroke-linejoin="round" stroke-width="2" stroke-dasharray="544.59 544.59" opacity=".6" style="isolation:isolate"/><path d="M186.99 171c59.41 94.74 143.41 163 258.66 216.42" fill="none" stroke="#001eff" stroke-linecap="round" stroke-linejoin="round" stroke-width="2" stroke-dasharray="663.82 663.82" opacity=".4" style="isolation:isolate"/><path d="M178.44 136.4c65.71 115.47 171.21 198.23 302.71 255.28" fill="none" stroke="#001eff" stroke-linecap="round" stroke-linejoin="round" stroke-width="2" stroke-dasharray="781.9 781.9" opacity=".2" style="isolation:isolate"/><path d="M220.25 357.42c-7.18 11.77 13.63 27.46 22.95 21.43" fill="none" stroke="#001eff" stroke-linecap="round" stroke-linejoin="round" stroke-width="3" stroke-dasharray="75.88 75.88"/><path d="M195.2 16.1c35.31-23.54 141.85 27.24 245.6 118.55 102.25 90 165.87 187.76 149.27 226.62" fill="none" stroke="#001eff" stroke-linecap="round" stroke-linejoin="round" stroke-width="2" stroke-dasharray="1093.11 1093.11" opacity=".7"/><path d="M192.75 22.22C232.44 6.05 334.08 56.29 433.17 143.5 531.48 230 593.75 323.37 583.65 365" fill="none" stroke="#001eff" stroke-linecap="round" stroke-linejoin="round" stroke-width="2" stroke-dasharray="1071.03 1071.03" opacity=".5"/></svg>