<svg data-name="Layer 1" xmlns="http://www.w3.org/2000/svg" width="319.38" height="300.13" viewBox="0 0 319.38 300.13"><title>channels</title><path d="M244.64 213.76a3.16 3.16 0 0 0-4.35-.95l-112.05 81.42a3.39 3.39 0 0 0 4 5.39L244.3 218.2a3.16 3.16 0 0 0 .34-4.44z" fill="#1535fe"/><path d="M94 252.42l220.29-164.7a3.39 3.39 0 0 1 4 5.39L98.05 257.81a3.39 3.39 0 0 1-4.05-5.39z" fill="#0061ff"/><path d="M1.08 251.44L296.8 31.34a3.39 3.39 0 0 1 4 5.39L5.09 256.82a3.17 3.17 0 0 1-4.35-.95 3.16 3.16 0 0 1 .34-4.43z" fill="#0096e1"/><path d="M7.89 175.16l215.4-161a3.17 3.17 0 0 1 4.35.95 3.16 3.16 0 0 1-.34 4.44l-215.4 161a3.17 3.17 0 0 1-4.35-.95 3.17 3.17 0 0 1 .34-4.44z" fill="#00c2b4"/><path d="M9.07 98L141.69.52a3.16 3.16 0 0 1 4.35.95 3.16 3.16 0 0 1-.34 4.44L13.09 103.39a3.17 3.17 0 0 1-4.35-.95A3.17 3.17 0 0 1 9.07 98z" fill="#00e27f"/></svg>