<svg xmlns="http://www.w3.org/2000/svg" width="365.981" height="503.975" viewBox="0 0 365.981 503.975"><path fill="#CB2AA6" d="M177.594 476.868a4 4 0 0 1-2.316-7.264c14.629-10.367 23.593-19.048 29.065-28.148a4 4 0 1 1 7.309 1.092c2.09 8.372 6.638 15.92 14.312 23.754 1.546 1.578 1.52 4.11-.059 5.656s-4.111 1.52-5.656-.059c-6.329-6.46-10.804-12.825-13.717-19.585-6.045 7.678-14.558 15.263-26.628 23.816a3.983 3.983 0 0 1-2.31.738z"/><path fill="#CB2AA6" d="M128.404 465.398a4 4 0 0 1-2.08-7.42c23.226-14.102 66.459-40.351 92.499-92.371a4 4 0 1 1 7.567 2.081c-2.876 39.454 14.659 65.656 34.038 88.095a4 4 0 0 1-6.055 5.229c-17.798-20.607-34.121-44.278-36.1-77.871-27.212 44.894-66.034 68.463-87.797 81.676a3.997 3.997 0 0 1-2.072.581z"/><path fill="#B325AE" d="M292.402 435.397a3.99 3.99 0 0 1-3.033-1.39c-30.01-34.849-31.54-67.046-33.478-107.808-.967-20.35-2.062-43.415-7.203-69.605-7.532-38.382-35.88-56.334-59.897-60.337-28.675-4.78-55.703 8.219-70.556 33.919-25.418 43.979-40.792 68.346-86.107 98.787a4 4 0 0 1-4.461-6.641c43.845-29.454 58.833-53.225 83.641-96.149 16.564-28.659 46.763-43.146 78.797-37.807 15.807 2.634 30.308 9.878 41.937 20.949 12.486 11.888 20.957 27.704 24.496 45.738 5.254 26.767 6.364 50.143 7.345 70.767 1.864 39.225 3.336 70.207 31.549 102.967a4.002 4.002 0 0 1-3.03 6.61z"/><path fill="#A423B2" d="M319.404 398.065a3.996 3.996 0 0 1-3.442-1.958c-18.041-30.367-18.901-62.976-19.733-94.51-.848-32.13-1.648-62.477-19.476-90.104-19.356-29.998-46.965-49.954-77.738-56.19-28.378-5.752-57.079.534-82.991 18.179-17.585 11.974-28.957 29.308-40.995 47.659-12.693 19.349-25.819 39.357-47.545 55.855a4 4 0 0 1-4.837-6.371c20.63-15.666 33.372-35.089 45.693-53.872 12.488-19.035 24.282-37.014 43.182-49.883 27.736-18.887 58.537-25.599 89.084-19.408 32.904 6.669 62.335 27.869 82.871 59.693 19.043 29.512 19.911 62.413 20.75 94.231.806 30.51 1.638 62.059 18.613 90.635a3.997 3.997 0 0 1-1.396 5.481 3.982 3.982 0 0 1-2.04.563z"/><path fill="#B827AD" d="M89.071 448.065a4 4 0 0 1-2.091-7.413c12.505-7.647 44.777-28.64 74.278-58.34 30.632-30.839 48.261-60.806 52.398-89.067 3.498-23.898-6.908-44.928-25.306-51.14-8.517-2.876-17.681-2.002-26.496 2.529-10.235 5.261-19.739 15.428-27.482 29.402-22.787 41.125-55.843 75.679-95.594 99.926a4.001 4.001 0 0 1-4.166-6.83c38.569-23.526 70.646-57.059 92.763-96.973 8.636-15.586 19.006-26.567 30.822-32.64 10.786-5.543 22.096-6.578 32.713-2.994 22.12 7.47 34.729 32.092 30.662 59.878-4.391 29.993-22.773 61.467-54.638 93.547-30.115 30.318-63.028 51.729-75.78 59.526a3.979 3.979 0 0 1-2.083.589z"/><path fill="#BE27AA" d="M59.071 413.398a4 4 0 0 1-2.004-7.465c57.908-33.438 93.999-71.119 117.021-122.181a4.002 4.002 0 0 1 7.294 3.289c-23.755 52.687-60.861 91.491-120.314 125.819a3.974 3.974 0 0 1-1.997.538z"/><path fill="#8F1FBA" d="M342.399 353.398a4.002 4.002 0 0 1-3.794-2.736c-7.136-21.408-7.99-44.216-8.816-66.272-.934-24.929-1.899-50.707-12.059-74.152a4 4 0 0 1 7.34-3.181c10.758 24.824 11.752 51.366 12.713 77.033.843 22.484 1.638 43.721 8.412 64.043a4.002 4.002 0 0 1-3.796 5.265zM31.399 213.897a4 4 0 0 1-2.999-6.646c4.377-4.966 8.923-11.856 14.186-19.834 18.189-27.573 45.677-69.241 103.961-81.203 60.217-12.358 127.755 16.653 164.235 70.554a4.001 4.001 0 0 1-6.625 4.485c-34.717-51.294-98.869-78.93-156.002-67.202-55.039 11.295-80.385 49.717-98.892 77.771-5.428 8.229-10.116 15.335-14.863 20.72a3.987 3.987 0 0 1-3.001 1.355z"/><path fill="#761CC1" d="M46.397 133.397a4 4 0 0 1-3.227-6.36c29.599-40.527 72.839-64.008 121.755-66.119 52.253-2.254 104.764 20.868 140.49 61.85a4 4 0 1 1-6.03 5.257c-34.144-39.165-84.271-61.258-134.116-59.114-46.436 2.003-87.504 24.322-115.639 62.845a3.991 3.991 0 0 1-3.233 1.641z"/><path fill="#6A1BC6" d="M275.194 59.2c-.8 0-1.608-.24-2.312-.738-62.955-44.679-136.292-44.989-196.175-.831a4 4 0 1 1-4.748-6.438c62.8-46.31 139.643-46.03 205.555.745a3.999 3.999 0 0 1-2.32 7.262z"/></svg>