<svg xmlns="http://www.w3.org/2000/svg" width="301" height="420" viewBox="0 0 365.981 503.975"><path fill="#4D00D3" d="M177.594 476.868a4 4 0 0 1-2.316-7.264c14.63-10.367 23.593-19.048 29.065-28.148a4 4 0 0 1 7.31 1.092c2.09 8.373 6.637 15.92 14.31 23.755 1.547 1.578 1.52 4.11-.058 5.656s-4.11 1.52-5.656-.06c-6.33-6.46-10.805-12.824-13.718-19.584-6.045 7.678-14.558 15.263-26.628 23.816a3.983 3.983 0 0 1-2.31.738z"/><path fill="#4D00D3" d="M128.404 465.398a4 4 0 0 1-2.08-7.42c23.227-14.102 66.46-40.35 92.5-92.37a4 4 0 0 1 7.567 2.08c-2.875 39.455 14.66 65.657 34.04 88.096a4 4 0 0 1-6.057 5.23c-17.798-20.608-34.12-44.28-36.1-77.872-27.212 44.895-66.034 68.464-87.797 81.677a3.997 3.997 0 0 1-2.072.58z"/><path fill="#4D00D3" d="M292.402 435.397a3.99 3.99 0 0 1-3.033-1.39c-30.01-34.85-31.54-67.046-33.48-107.808-.966-20.35-2.06-43.416-7.202-69.606-7.532-38.382-35.88-56.334-59.897-60.337-28.674-4.78-55.702 8.22-70.555 33.92-25.418 43.978-40.792 68.345-86.107 98.786a4 4 0 0 1-4.46-6.64c43.844-29.455 58.832-53.226 83.64-96.15 16.564-28.66 46.763-43.146 78.797-37.807 15.807 2.634 30.308 9.878 41.937 20.95 12.486 11.887 20.957 27.703 24.496 45.737 5.254 26.767 6.364 50.143 7.345 70.767 1.864 39.225 3.336 70.207 31.55 102.967a4.002 4.002 0 0 1-3.03 6.61z"/><path fill="#4D00D3" d="M319.404 398.065c-1.365 0-2.695-.7-3.442-1.958-18.04-30.367-18.9-62.976-19.733-94.51-.85-32.13-1.65-62.477-19.477-90.104-19.356-29.998-46.965-49.954-77.738-56.19-28.378-5.752-57.08.534-82.99 18.18-17.586 11.973-28.958 29.307-40.996 47.658-12.694 19.35-25.82 39.358-47.546 55.856a4 4 0 1 1-4.837-6.37c20.63-15.667 33.372-35.09 45.693-53.873 12.488-19.035 24.282-37.014 43.182-49.883 27.736-18.887 58.537-25.6 89.084-19.408 32.904 6.67 62.335 27.87 82.87 59.693 19.044 29.512 19.912 62.413 20.75 94.23.807 30.51 1.64 62.06 18.614 90.636a3.997 3.997 0 0 1-1.396 5.482c-.64.38-1.345.563-2.04.563z"/><path fill="#4D00D3" d="M89.07 448.065a4 4 0 0 1-2.09-7.413c12.505-7.647 44.777-28.64 74.278-58.34 30.632-30.84 48.26-60.806 52.398-89.067 3.498-23.898-6.908-44.928-25.306-51.14-8.517-2.876-17.68-2.002-26.496 2.53-10.235 5.26-19.74 15.427-27.482 29.4-22.787 41.126-55.843 75.68-95.594 99.927a4 4 0 0 1-4.166-6.83c38.57-23.526 70.646-57.06 92.763-96.973 8.636-15.587 19.006-26.568 30.822-32.64 10.786-5.544 22.096-6.58 32.713-2.995 22.12 7.47 34.73 32.092 30.662 59.878-4.39 29.993-22.773 61.467-54.638 93.547-30.115 30.318-63.028 51.73-75.78 59.526a3.98 3.98 0 0 1-2.083.59z"/><path fill="#4D00D3" d="M59.07 413.398a4 4 0 0 1-2.003-7.465c57.908-33.438 94-71.12 117.02-122.18a4.002 4.002 0 0 1 7.295 3.288c-23.755 52.688-60.86 91.492-120.314 125.82a3.974 3.974 0 0 1-1.997.538zM342.4 353.398a4.002 4.002 0 0 1-3.795-2.736c-7.136-21.408-7.99-44.216-8.816-66.272-.935-24.93-1.9-50.707-12.06-74.152a4 4 0 0 1 7.34-3.18c10.758 24.823 11.752 51.365 12.713 77.032.843 22.484 1.638 43.72 8.412 64.043a4.002 4.002 0 0 1-3.796 5.265zM31.4 213.897a4 4 0 0 1-3-6.646c4.377-4.966 8.923-11.856 14.186-19.834 18.19-27.573 45.677-69.24 103.96-81.203 60.218-12.358 127.756 16.653 164.236 70.554a4 4 0 0 1-6.625 4.485c-34.717-51.294-98.87-78.93-156.002-67.202-55.04 11.296-80.385 49.718-98.892 77.772-5.428 8.23-10.116 15.335-14.863 20.72a3.987 3.987 0 0 1-3 1.355z"/><path fill="#4D00D3" d="M46.397 133.397a4 4 0 0 1-3.227-6.36c29.6-40.527 72.84-64.008 121.756-66.12 52.253-2.253 104.764 20.87 140.49 61.85a4 4 0 0 1-6.03 5.258C265.24 88.86 215.115 66.767 165.27 68.91c-46.437 2.004-87.505 24.323-115.64 62.846a3.99 3.99 0 0 1-3.233 1.64zM275.194 59.2c-.8 0-1.608-.24-2.312-.738-62.955-44.68-136.292-44.99-196.175-.83a4 4 0 1 1-4.748-6.44c62.8-46.31 139.642-46.03 205.554.746a4 4 0 0 1-2.32 7.262z"/></svg>