<svg width="36" height="36" viewBox="0 0 36 36" xmlns="http://www.w3.org/2000/svg"><title>icon-antenna</title><g transform="translate(1)" stroke="#231F20" fill="none" fill-rule="evenodd"><circle cx="17.173" cy="17.558" r="17"/><path d="M23.549 16.455c3.137 4.047 4.436 7.938 2.914 9.451-1.892 1.878-7.416-.618-12.339-5.573C9.201 15.377 6.742 9.837 8.633 7.958c1.567-1.558 5.639-.105 9.792 3.265"/><path d="M26.385 25.989c-1.971 3.095-9.776 3.418-15.594-2.221C5.117 18.27 5.664 9.625 8.468 8.021"/><path d="M11.876 15.387l10.816-4.156c-.211-.26-.268-.71-.272-.883a2.062 2.062 0 1 1 2.117 2.005c-.189.005-.739-.12-.915-.271L19.716 22.75M15.18 19.686l6.729-6.72M10.609 24.547l-2.232 2.221.013 5.348"/></g></svg>