<svg width="36" height="35" viewBox="0 0 36 35" xmlns="http://www.w3.org/2000/svg"><title>icon-camera</title><g transform="translate(1)" stroke="#231F20" fill="none" fill-rule="evenodd"><path d="M22.572 23.441H9.084c-1.869 0-4.266-1.653-4.266-5.866 0-4.1 2.396-6.132 4.266-6.132h18.145"/><path d="M25.448 12.096c2 .75 2.427 3.918 2.427 5.52 0 2.961-1.312 5.936-3.717 5.936-2.405 0-3.938-3.016-3.657-6.121.196-2.165 2.631-4.218 4.309-5.059 2.37-1.188 3.907-1.157 4.794-.325.422.396-.363 2.598-1.822 4.174"/><path d="M24.577 15.667c.703 0 1.275.863 1.275 1.927s-.572 1.928-1.275 1.928c-.704 0-1.275-.863-1.275-1.928 0-1.064.571-1.927 1.275-1.927z" stroke-width=".7"/><path d="M5.26 19.441h15.225M5.947 21.191h14.75" stroke-width=".5"/><path d="M16.591 23.441v4.58l-5.437 5.368"/><circle cx="17" cy="17.5" r="17"/></g></svg>