<svg width="36" height="36" viewBox="0 0 36 36" xmlns="http://www.w3.org/2000/svg"><title>icon-antenna</title><g transform="translate(1)" stroke="#231F20" fill="none" fill-rule="evenodd"><circle cx="17.173" cy="17.558" r="17"/><path d="M23.55 16.455c3.136 4.047 4.435 7.938 2.913 9.45-1.892 1.88-7.416-.617-12.34-5.572-4.922-4.956-7.38-10.496-5.49-12.375 1.567-1.558 5.64-.105 9.792 3.265"/><path d="M26.385 25.99c-1.97 3.094-9.776 3.417-15.594-2.222C5.118 18.27 5.665 9.625 8.47 8.02"/><path d="M11.876 15.387l10.816-4.156c-.21-.26-.268-.71-.272-.882a2.062 2.062 0 1 1 2.117 2.005c-.19.005-.74-.12-.915-.27L19.716 22.75M15.18 19.686l6.73-6.72M10.61 24.547l-2.233 2.22.013 5.35"/></g></svg>