<svg xmlns="http://www.w3.org/2000/svg" width="750" height="550" viewBox="0 0 750 550"><path fill="none" stroke="#003CFF" stroke-width="2" stroke-linecap="round" stroke-linejoin="round" stroke-miterlimit="10" d="M632.9 64.5C656.6 19 707.6 6.9 722.6 6.4H457.801c-19.601 0-36.601 29.4-37.5 61.6-.101 2.2 1.199 3.3 3.5 3.3 30.101 0 161.101-.1 197.601-.1 6.198.1 9.198-2.2 11.498-6.7z"/><path fill="none" stroke="#003CFF" stroke-width="2" stroke-linecap="round" stroke-linejoin="round" stroke-miterlimit="10" d="M721.4 44.5c3.698-9.8 8.198-19 15-27.3 2-2.4 6.6-6.7 1.899-8.9-3.701-1.7-10.6-1.9-15.701-1.9M676.1 134.5H468.6c-22.5 0-43.1-29.1-43.1-63.1"/><path fill="none" stroke="#003CFF" stroke-width="2" stroke-linecap="round" stroke-linejoin="round" stroke-miterlimit="10" d="M693 13.4c23.5 7.7 32.301 35.2 32.301 58.3 0 34.5-22.1 62.5-49.301 62.5-27.199 0-49.3-29.2-49.3-63.7"/><path fill="none" stroke="#003CFF" stroke-width="1.5" stroke-linecap="round" stroke-linejoin="round" stroke-miterlimit="10" d="M538.301 178.8c7.5 0 13.601 6.1 13.601 13.6s-6.101 13.6-13.601 13.6-13.601-6.1-13.601-13.6c0-7.6 6.101-13.6 13.601-13.6zm-12.575 18.778S484.901 225.9 482.701 227.4s-4.8 3.5-4.8 9.1c0 5.5 3.15 6.575 5.351 5.075.7-.5 51.352-36.089 51.352-36.089m4.231-26.674l11.5-40.312m13.036 0L549.7 185"/><path fill="none" stroke="#003CFF" stroke-width="1.5" stroke-linecap="round" stroke-linejoin="round" stroke-miterlimit="10" d="M489.498 237.182c-.497 12.069-4.21 22.301-9.012 23.631-5.245 1.477-9.604-9.16-9.825-23.639-.222-14.553 3.842-27.48 9.013-28.884 4.062-1.108 7.681 5.097 9.158 14.774M662.801 43.3c12.601-9.5 28.601-4.3 36 11.5 7.299 15.9 3.101 36.4-9.5 45.9-12.6 9.5-28.6 4.3-36-11.5-7.301-15.9-3-36.4 9.5-45.9zm-.1 14.8c5.897-4.5 13.5-2 16.897 5.5 3.5 7.5 1.5 17.2-4.397 21.6-5.9 4.4-13.5 2-16.9-5.5-3.5-7.5-1.5-17.1 4.4-21.6zm2.799 10.3c1.5-1.2 3.5-.5 4.4 1.4.899 1.9.399 4.5-1.199 5.7-1.5 1.2-3.5.5-4.4-1.4-.901-2-.401-4.6 1.199-5.7zm9.801-1.1c2.101 4.6.9 10.6-2.701 13.3"/><path fill="none" stroke="#003CFF" stroke-linecap="round" stroke-linejoin="round" stroke-miterlimit="10" d="M454.7 130.8h205.7"/><path opacity=".8" fill="none" stroke="#003CFF" stroke-linecap="round" stroke-linejoin="round" stroke-miterlimit="10" d="M448.9 126.8h202.9"/><path opacity=".6" fill="none" stroke="#003CFF" stroke-linecap="round" stroke-linejoin="round" stroke-miterlimit="10" d="M442.5 120.8h202.6"/><path opacity=".4" fill="none" stroke="#003CFF" stroke-linecap="round" stroke-linejoin="round" stroke-miterlimit="10" d="M436.1 111.8h202.6"/><path fill="none" stroke="#003CFF" stroke-linecap="round" stroke-linejoin="round" stroke-miterlimit="10" d="M702.4 10.8h38"/><path opacity=".8" fill="none" stroke="#003CFF" stroke-linecap="round" stroke-linejoin="round" stroke-miterlimit="10" d="M697.5 14.8h41"/><path opacity=".6" fill="none" stroke="#003CFF" stroke-linecap="round" stroke-linejoin="round" stroke-miterlimit="10" d="M705 19.8h29.1"/><path opacity=".4" fill="none" stroke="#003CFF" stroke-linecap="round" stroke-linejoin="round" stroke-miterlimit="10" d="M711.1 25.8h19.201"/><path class="dashed-line" fill="none" stroke="#003CFF" stroke-linecap="round" stroke-linejoin="round" stroke-dasharray="3" d="M468.833 242.333L-34.2 584.8"/><path fill="none" stroke="#003CFF" stroke-width="1.5" stroke-linecap="round" stroke-linejoin="round" stroke-miterlimit="10" d="M568.667 134.5c0 2.737-1.479 4-4 4H549.5c-2.75 0-4-1.575-4-4"/></svg>