<svg data-name="Layer 1" xmlns="http://www.w3.org/2000/svg" width="497" height="544" viewBox="0 0 285.88 313.07"><title>ip-cam-top</title><path data-name="ipcam i1" d="M197.38 91.92c4.07-51.14 41.71-80.23 55.32-86.54L18.09 104.77c-18 7.65-22.23 41.35-10.5 71.35.77 2.07 2.39 2.57 4.51 1.67 27.72-11.74 143.7-61 177.3-75.22 5.75-2.32 7.6-5.57 7.98-10.65z" fill="none" stroke="#003cff" stroke-linecap="round" stroke-linejoin="round" stroke-width="2"/><path data-name="ipcam i2" d="M265 42.94c-.42-10.47 1.56-22.7 4.58-33 .91-3 3.46-8.74-1.72-8.94-4.07-.12-10.5 2.39-15.2 4.38" fill="none" stroke="#003cff" stroke-linecap="round" stroke-linejoin="round" stroke-width="2"/><path data-name="ipcam i3" d="M259.86 141.47L78 218.51c-20.72 8.78-51-10-64.3-41.29" fill="none" stroke="#003cff" stroke-linecap="round" stroke-linejoin="round" stroke-width="2"/><path data-name="ipcam i4" d="M229 23.31c24.11-.81 39.86 21 48.87 42.31 13.46 31.77 7.37 65.08-17.67 75.69s-52.73-9.68-66.2-41.45" fill="none" stroke="#003cff" stroke-linecap="round" stroke-linejoin="round" stroke-width="2"/><path data-name="ipcam i5" d="M160.39 231.72a13.6 13.6 0 1 1-7.22 17.83 13.62 13.62 0 0 1 7.22-17.83zm-4.25 22.2c-24.09 27.87-26.45 30.61-27.92 32.25-2.45 2.74-4.27 5.53-4.25 9.53 0 5.5 1.89 7.5 3.16 7.63s2.67-1 3.69-2.18c7.79-9.26 36.57-43.41 36.57-43.41m-6.51-26.21l-5.14-41.6m12-5.09L173.3 233" fill="none" stroke="#003cff" stroke-linecap="round" stroke-linejoin="round" stroke-width="1.7"/><path data-name="ipcam i7" d="M212.88 62.33C220 49 235.72 48 248.23 59.84s16.86 32.39 9.76 45.71-22.84 14.35-35.35 2.45-16.77-32.39-9.76-45.67zM218.57 76c3.3-6.28 10.79-6.74 16.63-1.07s8 15.29 4.66 21.49-10.79 6.74-16.63 1.07-7.96-15.21-4.66-21.49zm6.43 8.46c.82-1.65 2.81-1.73 4.32-.31a5.11 5.11 0 0 1 1.19 5.68c-.82 1.65-2.8 1.73-4.32.31S224 86.05 225 84.46zm8-4.57c3.6 3.47 4.91 9.43 2.87 13.23" fill="none" stroke="#003cff" stroke-linecap="round" stroke-linejoin="round" stroke-width="2"/><path d="M63.76 220.53l179.79-76.17" fill="none" stroke="#003cff" stroke-linecap="round" stroke-linejoin="round"/><path d="M55.91 218.78l178.65-75.68" fill="none" stroke="#003cff" stroke-linecap="round" stroke-linejoin="round" opacity=".8" style="isolation:isolate"/><path d="M47.68 215.75l179.62-76.09" fill="none" stroke="#003cff" stroke-linecap="round" stroke-linejoin="round" opacity=".6" style="isolation:isolate"/><path d="M38.27 210l179.84-76.19" fill="none" stroke="#003cff" stroke-linecap="round" stroke-linejoin="round" opacity=".4" style="isolation:isolate"/><path d="M233.93 18.11l36.32-15.39" fill="none" stroke="#003cff" stroke-linecap="round" stroke-linejoin="round"/><path d="M232.08 23.24l38.54-16.33" fill="none" stroke="#003cff" stroke-linecap="round" stroke-linejoin="round" opacity=".8" style="isolation:isolate"/><path d="M241.73 24.58l26.79-11.35" fill="none" stroke="#003cff" stroke-linecap="round" stroke-linejoin="round" opacity=".6" style="isolation:isolate"/><path d="M249.68 27.73l17.68-7.49" fill="none" stroke="#003cff" stroke-linecap="round" stroke-linejoin="round" opacity=".4" style="isolation:isolate"/><path d="M171.07 179.09c1.07 2.52.2 4.26-2.12 5.24l-14 5.92c-2.53 1.07-4.3.11-5.24-2.12" fill="none" stroke="#003cff" stroke-linecap="round" stroke-linejoin="round" stroke-width="1.7"/><path d="M133 300.69c-.22 8-4.55 12.25-7.52 11.74-3.88-.66-8.07-7-7.72-17.57.33-9.66 3.92-15.1 7.71-15.76a4.16 4.16 0 0 1 4.68 2.71" fill="none" stroke="#003cff" stroke-linecap="round" stroke-linejoin="round" stroke-width="1.2"/></svg>