<svg data-name="Слой 1" xmlns="http://www.w3.org/2000/svg" width="1081.64" height="662.77" viewBox="0 0 1081.64 662.77"><title>ip_top_line2</title><path d="M436.59 283.55s-151.73 82.06-171.45 92.57c-31.08 18.54-55.4 32.33-81.66 47.36-15.07 8.62-8.09 4.92-22.33 13.5-20 12.08-25.16 16.82-56.27 35C88.58 482.22.52 535.4.52 535.4M741.17.9S585.4 75 565.17 84.49c-30.3 14.18-41 33.72-41 68.41v45c0 18-3.11 38.15-26 51-16.81 9.44-66 37-66 37" fill="none" stroke="#003cff" stroke-width="2" stroke-dasharray="8 4"/><path d="M524.31 221.88c0 37.29 0 56 14.76 70.61 22.17 21.94 148.16 147.16 163.39 161 21.6 19.66 35 23.67 64 23.67h87c15.23 0 27 9.75 40.67 22.25C916.39 519.76 1070 652.87 1081 662" fill="none" stroke="#003cff" stroke-width="2" stroke-dasharray="8 4"/></svg>