<svg xmlns="http://www.w3.org/2000/svg" viewBox="0 0 420.846 811.99"><title>ipcam-new</title><path d="M312.4 59.1C336.1 13.6 387.1 1.5 402.1 1H137.3c-19.6 0-36.6 29.4-37.5 61.6-.1 2.2 1.2 3.3 3.5 3.3 30.1 0 161.1-.1 197.6-.1 6.2.1 9.2-2.2 11.5-6.7z" fill="none" stroke="#003cff" stroke-linecap="round" stroke-linejoin="round" stroke-width="2"/><path d="M400.9 39.1c3.7-9.8 8.2-19 15-27.3 2-2.4 6.6-6.7 1.9-8.9-3.7-1.7-10.6-1.9-15.7-1.9M355.6 129.1H148.1C125.6 129.1 105 100 105 66" fill="none" stroke="#003cff" stroke-linecap="round" stroke-linejoin="round" stroke-width="2"/><path d="M372.5 8c23.5 7.7 32.3 35.2 32.3 58.3 0 34.5-22.1 62.5-49.3 62.5s-49.3-29.2-49.3-63.7" fill="none" stroke="#003cff" stroke-linecap="round" stroke-linejoin="round" stroke-width="2"/><path d="M217.8 173.4a13.6 13.6 0 1 1-13.6 13.6 13.616 13.616 0 0 1 13.6-13.6zm-12.575 18.778S164.4 220.5 162.2 222s-4.8 3.5-4.8 9.1c0 5.5 3.15 6.575 5.35 5.075.7-.5 51.354-36.09 51.354-36.09m4.23-26.673l11.5-40.312m13.035 0l-13.67 46.5" fill="none" stroke="#003cff" stroke-linecap="round" stroke-linejoin="round" stroke-width="1.5"/><path d="M169 231.782c-.5 12.07-4.21 22.3-9.012 23.63-5.245 1.478-9.6-9.16-9.825-23.638-.222-14.553 3.842-27.48 9.013-28.884 4.062-1.108 7.682 5.1 9.158 14.774M342.3 37.9c12.6-9.5 28.6-4.3 36 11.5 7.3 15.9 3.1 36.4-9.5 45.9s-28.6 4.3-36-11.5c-7.3-15.9-3-36.4 9.5-45.9zm-.1 14.8c5.9-4.5 13.5-2 16.9 5.5 3.5 7.5 1.5 17.2-4.4 21.6s-13.5 2-16.9-5.5c-3.5-7.5-1.5-17.1 4.4-21.6zM345 63c1.5-1.2 3.5-.5 4.4 1.4a4.857 4.857 0 0 1-1.2 5.7c-1.5 1.2-3.5.5-4.4-1.4-.9-2-.4-4.6 1.2-5.7zm9.8-1.1c2.1 4.6.9 10.6-2.7 13.3" fill="none" stroke="#003cff" stroke-linecap="round" stroke-linejoin="round" stroke-width="1.5"/><path d="M134.2 125.4h205.7" fill="none" stroke="#003cff" stroke-linecap="round" stroke-linejoin="round"/><path d="M128.4 121.4h202.9" fill="none" stroke="#003cff" stroke-linecap="round" stroke-linejoin="round" opacity=".8" style="isolation:isolate"/><path d="M122 115.4h202.6" fill="none" stroke="#003cff" stroke-linecap="round" stroke-linejoin="round" opacity=".6" style="isolation:isolate"/><path d="M115.6 106.4h202.6" fill="none" stroke="#003cff" stroke-linecap="round" stroke-linejoin="round" opacity=".4" style="isolation:isolate"/><path d="M381.9 5.4h38" fill="none" stroke="#003cff" stroke-linecap="round" stroke-linejoin="round"/><path d="M377 9.4h41" fill="none" stroke="#003cff" stroke-linecap="round" stroke-linejoin="round" opacity=".8" style="isolation:isolate"/><path d="M384.5 14.4h29.1" fill="none" stroke="#003cff" stroke-linecap="round" stroke-linejoin="round" opacity=".6" style="isolation:isolate"/><path d="M390.6 20.4h19.2" fill="none" stroke="#003cff" stroke-linecap="round" stroke-linejoin="round" opacity=".4" style="isolation:isolate"/><path d="M248.168 129.1c0 2.737-1.48 4-4 4H229c-2.75 0-4-1.575-4-4" fill="none" stroke="#003cff" stroke-linecap="round" stroke-linejoin="round" stroke-width="1.5"/><path class="dashed-line" d="M147.33 237.528c-1.97 1.32-118.375 81.107-130.04 88.99C6.625 333.725.5 345.225.5 359.475V811.49" fill="none" stroke="#003cff" stroke-linecap="round" stroke-linejoin="round" stroke-dasharray="2.981 2.981"/></svg>