<svg xmlns="http://www.w3.org/2000/svg" width="750" height="580" viewBox="0 0 750 580"><path fill="none" stroke="#001EFF" stroke-width="2" stroke-linecap="round" stroke-linejoin="round" stroke-miterlimit="10" d="M463.692 10.752c15.405-22.336 87.682.793 161.432 51.662 73.75 50.87 121.046 110.213 105.64 132.55-15.406 22.335-87.683-.794-161.432-51.663-73.75-50.866-121.047-110.21-105.64-132.548z"/><path class="dashed-line" fill="none" stroke="#003CFF" stroke-linecap="round" stroke-linejoin="round" stroke-dasharray="2.9814,2.9814" d="M351.33 317.82c-1.85.52-7.768 2.305-16.42 4.827-10.138 2.957-13.91 10.876-13.91 21.228v156.98M436.333 297s13.93-2.76 20.594-4.204c6-1.167 9.394-5.374 12.026-8.866 4.312-5.517 29.545-37.09 29.545-37.09"/><path fill="none" stroke="#001EFF" stroke-width="1.5" stroke-linecap="round" stroke-linejoin="round" stroke-miterlimit="10" d="M512.734 228.685l38.142-30.25m-28.202-18.876l-14.433 46.304M518.876 229.732l59.47-18.54m-79.265-54.944l7.47 65.104"/><path fill="none" stroke="#001EFF" stroke-width="2" stroke-linecap="round" stroke-linejoin="round" stroke-miterlimit="10" d="M728.984 197.114c-28.16 36.868-123.334 36.88-194.2-9.382-69.108-45.113-95.007-135.545-72.354-175.01"/><path fill="none" stroke="#001EFF" stroke-width="1.5" stroke-linecap="round" stroke-linejoin="round" stroke-miterlimit="10" d="M514.956 224.976c-5.034-4.928-13.1-4.838-18.028.197-4.914 5.033-4.834 13.117.197 18.03 5.035 4.93 13.1 4.837 18.028-.196 4.932-5.02 4.837-13.102-.197-18.03z"/><g fill="none" stroke="#001EFF" stroke-linecap="round" stroke-linejoin="round" stroke-miterlimit="10"><path stroke-width=".8" d="M382.49 322.68c.672 0 1.24.716 1.24 1.614 0 .9-.568 1.618-1.24 1.618s-1.23-.72-1.23-1.618c.002-.898.554-1.614 1.23-1.614zM377.82 323.607c.673 0 1.24.716 1.24 1.614 0 .884-.566 1.603-1.24 1.603-.676 0-1.242-.72-1.242-1.602 0-.897.568-1.613 1.242-1.613zM387.158 321.57c.672 0 1.237.722 1.237 1.618 0 .898-.565 1.616-1.237 1.616-.674 0-1.23-.718-1.23-1.616.002-.897.556-1.618 1.23-1.618z"/><path stroke-width="1.2" d="M345.188 293.995l64.605-12.388c2.067-.45 4.79.238 6.092 1.525l25.748 20.888c1.3 1.285.675 2.693-1.405 3.142l-67.27 14.513c-2.067.45-4.79-.24-6.092-1.524l-23.086-23.013c-1.3-1.283-.673-2.694 1.408-3.142z"/><path stroke-width="1.2" d="M442.293 305.832v7.21c0 2.552-.887 3.177-2.57 3.566l-66.764 14.404c-2.07.45-4.793-.242-6.094-1.526L343.78 306.47c-.677-.69-.748-1.73-.748-3.174 0-2.186.003-4.266.003-7.06"/></g><g fill="none" stroke="#001EFF" stroke-width="2" stroke-linecap="round" stroke-linejoin="round" stroke-miterlimit="10"><path d="M579.524 135.584l69.02-94.244M510.667 55.543L641.8 34.605m16.114 10.907l17.898 120.977M661.74 35.033c2.438 2.672 3.523 5.207 3.014 6.67-.588 1.725-7.597.936-13.375-3.006-5.762-3.928-9.086-9.127-7.513-11.226.952-1.257 3.74-1.107 7.195.26"/><path d="M662.706 44.906c-.588 1.724-7.6.92-13.374-3.004-5.762-3.93-9.648-9.74-8.092-11.837M649.91 31.59l5.25-6.813m8.623 4.877l-5.346 7.95M652.367 16.896l4.57-6.685c.71 1.515 3.765 8.82 3.765 8.82l13.728 3.867c1.056.337 1.73.52 1.203 1.233l-4.312 6.5c-.52.714-1.362.613-2.374.244L656.4 27.126l-4.033-10.23z"/></g><path fill="none" stroke="#001EFF" stroke-width="2" stroke-linecap="round" stroke-linejoin="round" stroke-miterlimit="10" d="M656.938 10.21l14.646 4.045 4.22 9.512"/><path opacity=".8" fill="none" stroke="#001EFF" stroke-linecap="round" stroke-linejoin="round" stroke-miterlimit="10" d="M484.688 137.92c22.854 29.805 74.18 67.307 123.54 80.525"/><path opacity=".6" fill="none" stroke="#001EFF" stroke-linecap="round" stroke-linejoin="round" stroke-miterlimit="10" d="M479.178 128.803c29.78 35.98 84.2 73.975 143.82 92.442"/><path opacity=".4" fill="none" stroke="#001EFF" stroke-linecap="round" stroke-linejoin="round" stroke-miterlimit="10" d="M468.905 109.603c43.346 53.8 99.72 89.483 174.053 113.77"/><path opacity=".2" fill="none" stroke="#001EFF" stroke-linecap="round" stroke-linejoin="round" stroke-miterlimit="10" d="M461.102 88.987c48.738 66.07 119.3 109.08 203.85 134.367"/><path fill="none" stroke="#001EFF" stroke-width="1.5" stroke-linecap="round" stroke-linejoin="round" stroke-miterlimit="10" d="M503.14 221.677c-3.5 7.766 10.376 15.855 15.612 11.463"/><path fill="none" stroke="#001EFF" stroke-width=".8" stroke-linecap="round" stroke-linejoin="round" stroke-miterlimit="10" d="M462.337 13.83c19.792-17.084 88.62 6.208 158.78 54.603 69.136 47.69 115.28 103.04 108.05 128.15"/><path fill="none" stroke="#001EFF" stroke-width=".5" stroke-linecap="round" stroke-linejoin="round" stroke-miterlimit="10" d="M461.297 17.77c23.02-12.88 88.812 10.442 155.82 56.663C683.59 120.287 728.57 173.025 725.51 199.34"/></svg>