<svg xmlns="http://www.w3.org/2000/svg" viewBox="0 0 414.173 777.152"><title>iptv-new</title><path d="M143.192 9.514c15.4-22.336 87.682.793 161.432 51.662s121.046 110.213 105.64 132.55-87.683-.794-161.432-51.663S127.785 31.85 143.192 9.513z" fill="none" stroke="#001eff" stroke-linecap="round" stroke-linejoin="round" stroke-width="2"/><path class="dashed-line" d="M30.83 316.582c-1.85.52-7.768 2.3-16.42 4.827C4.273 324.365.5 332.284.5 342.636v434.015M115.833 295.762s13.93-2.76 20.594-4.2c6-1.167 9.394-5.374 12.026-8.866C152.765 277.176 178 245.6 178 245.6" fill="none" stroke="#003cff" stroke-linecap="round" stroke-linejoin="round" stroke-dasharray="2.981 2.981"/><path d="M192.234 227.447l38.142-30.25m-28.2-18.876l-14.433 46.306M198.376 228.494l59.47-18.54M178.58 155.01l7.47 65.1" fill="none" stroke="#001eff" stroke-linecap="round" stroke-linejoin="round" stroke-width="1.5"/><path d="M408.484 195.876c-28.16 36.868-123.334 36.88-194.2-9.382-69.108-45.113-95.007-135.545-72.354-175.01" fill="none" stroke="#001eff" stroke-linecap="round" stroke-linejoin="round" stroke-width="2"/><path d="M194.456 223.738a12.75 12.75 0 1 0 .2 18.03 12.743 12.743 0 0 0-.2-18.03z" fill="none" stroke="#001eff" stroke-linecap="round" stroke-linejoin="round" stroke-width="1.5"/><g fill="none" stroke="#001eff" stroke-linecap="round" stroke-linejoin="round"><path d="M61.99 321.442a1.677 1.677 0 1 1-1.23 1.614 1.47 1.47 0 0 1 1.23-1.614zM57.32 322.37a1.662 1.662 0 1 1-1.242 1.613 1.47 1.47 0 0 1 1.242-1.614zM66.658 320.332a1.678 1.678 0 1 1-1.23 1.618 1.473 1.473 0 0 1 1.23-1.618z" stroke-width=".8"/><path d="M24.688 292.757l64.605-12.388a7.364 7.364 0 0 1 6.092 1.524l25.748 20.888c1.3 1.285.675 2.693-1.4 3.142L52.46 320.437a7.375 7.375 0 0 1-6.094-1.524L23.28 295.9c-1.3-1.284-.673-2.7 1.408-3.143z" stroke-width="1.2"/><path d="M121.793 304.594v7.21c0 2.552-.887 3.177-2.57 3.566l-66.764 14.4a7.383 7.383 0 0 1-6.094-1.526l-23.086-23.01c-.677-.69-.748-1.732-.748-3.176v-7.06" stroke-width="1.2"/></g><g fill="none" stroke="#001eff" stroke-linecap="round" stroke-linejoin="round" stroke-width="2"><path d="M259.024 134.346l69.02-94.246M190.167 54.3L321.3 33.367m16.115 10.907l17.9 120.977M341.24 33.795c2.438 2.672 3.523 5.207 3.014 6.67-.588 1.725-7.6.936-13.375-3.006-5.762-3.93-9.086-9.128-7.513-11.227.952-1.258 3.74-1.108 7.2.26"/><path d="M342.206 43.668c-.588 1.724-7.6.92-13.374-3s-9.648-9.74-8.092-11.837M329.41 30.35l5.25-6.81m8.623 4.876l-5.346 7.95M331.867 15.658l4.57-6.685c.71 1.514 3.765 8.818 3.765 8.818l13.728 3.87c1.056.336 1.73.52 1.2 1.232l-4.312 6.5c-.52.715-1.363.614-2.375.245l-12.543-3.75z"/></g><path d="M336.438 8.973l14.646 4.044 4.22 9.512" fill="none" stroke="#001eff" stroke-linecap="round" stroke-linejoin="round" stroke-width="2"/><path d="M164.188 136.683c22.854 29.8 74.18 67.306 123.54 80.524" fill="none" stroke="#001eff" stroke-linecap="round" stroke-linejoin="round" opacity=".8" style="isolation:isolate"/><path d="M158.678 127.565c29.78 35.98 84.2 73.975 143.82 92.442" fill="none" stroke="#001eff" stroke-linecap="round" stroke-linejoin="round" opacity=".6" style="isolation:isolate"/><path d="M148.4 108.365c43.346 53.8 99.72 89.483 174.053 113.77" fill="none" stroke="#001eff" stroke-linecap="round" stroke-linejoin="round" opacity=".4" style="isolation:isolate"/><path d="M140.6 87.75c48.738 66.07 119.3 109.08 203.85 134.366" fill="none" stroke="#001eff" stroke-linecap="round" stroke-linejoin="round" opacity=".2" style="isolation:isolate"/><path d="M182.64 220.44c-3.5 7.765 10.376 15.854 15.612 11.462" fill="none" stroke="#001eff" stroke-linecap="round" stroke-linejoin="round" stroke-width="1.5"/><path d="M141.837 12.592c19.792-17.084 88.62 6.208 158.78 54.6 69.136 47.69 115.28 103.04 108.05 128.15" fill="none" stroke="#001eff" stroke-linecap="round" stroke-linejoin="round" stroke-width=".8"/><path d="M140.8 16.533c23.02-12.882 88.812 10.44 155.82 56.662 66.473 45.854 111.454 98.592 108.4 124.906" fill="none" stroke="#001eff" stroke-linecap="round" stroke-linejoin="round" stroke-width=".5"/></svg>