<svg width="1098" height="768" viewBox="0 0 1098 768" xmlns="http://www.w3.org/2000/svg"><title>lines</title><g stroke="#D0011B" stroke-dasharray="3" fill="none" fill-rule="evenodd"><path d="M237.5 510.5l84.833 80.368c5.615 5.32 16.43 9.632 24.173 9.632h417.562c5.523 0 13.081-3.246 16.88-7.25l27.659-29.143c1.591-2.247 1.806-9.047-1.378-12.763" stroke-linecap="square"/><path d="M666.5 600.5s15.234-.93 26.837 9.22L835.815 767.1" stroke-linecap="square"/><path d="M819.306 563.046C848.774 589.151 887.536 605 930 605c92.232 0 167-74.768 167-167s-74.768-167-167-167-167 74.768-167 167c0 43.564 16.68 83.232 44.004 112.966"/><path d="M594.5.5l-313 212M32.5 391.5L9.258 408.396c-4.467 3.247-8.088 10.358-8.088 15.88v81.798c0 7.728 4.742 18.095 10.59 23.153l123.488 106.797" stroke-linecap="square"/></g></svg>