<svg xmlns="http://www.w3.org/2000/svg" width="350" height="350" viewBox="0 0 350 350"><g clip-rule="evenodd"><path opacity=".4" fill="none" stroke="#B194FF" stroke-miterlimit="10" d="M180.02 68.89l19.53 67.17M199.54 136.06l52.01-22.35M81.34 212.37l64.82-32.99-61.96-26.84 65.29-29.15M24.34 116.22l41-5.75 43.83-67.01M176.83 298.06l82.21-29.58M291.4 131.04l-6.71 51.6M98.46 95.97l81.55-27.09"/><path opacity=".3" fill="none" stroke="#B194FF" stroke-miterlimit="10" d="M256.86 183.5l-57.32-47.44-2.83 76.05-55.88 35.35 5.33-68.08 3.33-55.98-51.03-27.43-14.26 56.57-2.86 59.83 57.91 37.1 79.73 9.07-22.27-46.43 62.33 56.37-2.18-84.98-5.31-69.79-20.3-51.87-31.71 74.23"/><path opacity=".3" fill="none" stroke="#B194FF" stroke-miterlimit="10" d="M134.67 6.32l45.34 62.56 51.24-7.05 60.14 69.21-39.85-17.34 33.14 68.94-27.83.85 26.51 49.57-24.34 35.4-40.06-9.94-42.15 39.52-60.06 11.02 22.17-60.98-67.01 2.64 9.41-38.36-34.48-31.27 37.36-28.55-18.86-42.08 33.12-14.53 10.72-52.48 70.84 25.43-30.53 54.51 50.06 12.67-53.39 43.32 50.55 32.73 60.15-28.61"/><path opacity=".4" fill="none" stroke="#DDDCFF" stroke-miterlimit="10" d="M231.26 61.83l41.76-20.71 18.38 89.92 53.99 18.47-62.01 83.56 12.41 28.23-36.75 7.17-7.36 49.26-74.85-19.67-36.33 45.03-23.74-34.01-53.4-6.81 8.56-51.53-67.28-69.71 42.22.07 18.48-70.63-8.16-56.79 51.99-10.22 25.5-37.14 96.59 55.51z"/><path opacity=".5" fill="none" stroke="#DEDCFF" stroke-width="1.2" stroke-miterlimit="10" d="M192.68 17.9l80.34 23.22 39.65 64.81 32.72 43.58-60.87 33.9 47.83 39.19-36.56 38.7-44.1 56.43-63.41 8.64-47.77 16.72-22.2-58.54-54.94 17.72-21.91-53.45-36.82-67.79 20.18-63.64 32.02-63.01 56.85 14.51 20.99-62.56 58 11.57z"/><path opacity=".6" fill="none" stroke="#DEDCFF" stroke-miterlimit="10" d="M63.37 302.27l77.13 40.83M56.47 53.59l78.2-47.26M345.38 149.51l-13.03 73.09"/><path opacity=".8" fill="none" stroke="#C7B0FF" stroke-width="1.2" stroke-miterlimit="10" d="M213.34 106.02l99.33-.08-28.15 77.48 11.27 77.89-82.42-19.35-25.1 84.41-70.13-41.94-76.68-35.61 48.88-70.23-65.52-61.19 88.87-48.5 78.99-51 20.66 88.12z"/><path fill="none" stroke="#C3BBFF" stroke-width="1.2" stroke-miterlimit="10" d="M213.34 106.02l71.35 76.63-71.32 59.31-95.83 42.71-26.8-105.51 22.95-110.28 99.65 37.14"/><path fill="none" stroke="#D2CAFF" stroke-width="1.5" stroke-miterlimit="10" d="M88.13 179.73l125.21-73.71.03 135.94-125.24-62.23"/><path opacity=".7" fill="none" stroke="#DBD9FF" stroke-width="1.2" stroke-miterlimit="10" d="M192.68 17.9l119.99 88.04M24.82 117.39l16.64 131.42M188.27 326.37l107.52-65.06"/><path fill-rule="evenodd" fill="#8452FF" d="M257.83 182.35c.69.54.81 1.54.26 2.22-.54.69-1.54.81-2.22.26-.69-.54-.8-1.54-.26-2.22a1.57 1.57 0 0 1 2.22-.26zM252.69 112.72c.69.54.81 1.54.26 2.23-.54.69-1.54.8-2.23.26s-.8-1.54-.26-2.22a1.59 1.59 0 0 1 2.23-.27zM180.98 67.64c.69.54.81 1.54.26 2.22-.54.69-1.54.8-2.22.26-.69-.54-.8-1.54-.26-2.22.54-.68 1.53-.8 2.22-.26zM99.6 94.99c.69.54.81 1.54.26 2.23-.54.69-1.54.8-2.22.26-.69-.54-.8-1.54-.26-2.22.54-.7 1.53-.81 2.22-.27zM85.37 151.3c.69.54.8 1.54.26 2.22-.54.69-1.54.81-2.22.26-.69-.54-.8-1.54-.26-2.22.54-.68 1.53-.8 2.22-.26zM82.5 211.25c.69.54.8 1.54.26 2.22-.54.69-1.54.8-2.22.26-.69-.54-.8-1.54-.26-2.22.53-.69 1.53-.81 2.22-.26zM140.48 248.13c.69.54.8 1.54.26 2.23s-1.54.8-2.22.26c-.69-.54-.8-1.54-.26-2.22.54-.7 1.54-.81 2.22-.27zM220.08 257.63c.69.54.81 1.54.26 2.22-.54.69-1.54.8-2.22.26-.69-.54-.8-1.54-.26-2.22a1.57 1.57 0 0 1 2.22-.26zM200.39 135.44c.49.38.57 1.09.19 1.58a1.115 1.115 0 1 1-1.75-1.38c.37-.5 1.08-.59 1.56-.2zM150.19 122.47c.49.38.57 1.09.18 1.58-.38.49-1.09.57-1.57.19-.49-.38-.57-1.09-.19-1.57.39-.5 1.09-.58 1.58-.2zM146.85 178.5c.49.38.57 1.09.19 1.57s-1.09.57-1.57.19c-.49-.38-.57-1.09-.19-1.57.38-.49 1.09-.58 1.57-.19zM197.41 211.29c.48.38.57 1.09.19 1.57-.38.49-1.09.57-1.58.19-.48-.38-.57-1.09-.19-1.57.38-.49 1.09-.58 1.58-.19z"/><path fill-rule="evenodd" fill="#D4D8FF" d="M314.36 103.37a3.275 3.275 0 0 1 .54 4.6 3.264 3.264 0 0 1-4.59.54 3.264 3.264 0 0 1-.54-4.59 3.256 3.256 0 0 1 4.59-.55zM43.81 245.91a3.625 3.625 0 0 1-4.49 5.69 3.625 3.625 0 1 1 4.49-5.69z"/><path fill-rule="evenodd" fill="#B6AEFF" d="M297.69 258.37a3.684 3.684 0 0 1 .61 5.16 3.684 3.684 0 0 1-5.16.61 3.684 3.684 0 0 1-.61-5.16c1.25-1.59 3.56-1.86 5.16-.61zM27.14 114.31a3.8 3.8 0 0 1-4.71 5.97 3.8 3.8 0 0 1 4.71-5.97zM194.88 14.97a3.72 3.72 0 0 1 .62 5.22 3.72 3.72 0 0 1-5.22.62 3.71 3.71 0 0 1-.61-5.22c1.26-1.62 3.6-1.89 5.21-.62zM346.84 146.88c1.37 1.08 1.6 3.07.52 4.44a3.163 3.163 0 0 1-4.44.52 3.163 3.163 0 0 1-.52-4.44 3.163 3.163 0 0 1 4.44-.52zM333.94 219.88a3.275 3.275 0 1 1-4.06 5.14 3.275 3.275 0 0 1 4.06-5.14zM252.96 315.26a2.656 2.656 0 1 1-3.73.44 2.647 2.647 0 0 1 3.73-.44zM142.17 340.97c1 .79 1.17 2.24.38 3.25a2.306 2.306 0 0 1-3.62-2.86 2.3 2.3 0 0 1 3.24-.39zM65.51 299.71a2.95 2.95 0 0 1 .49 4.16 2.95 2.95 0 0 1-4.16.49 2.98 2.98 0 0 1-.49-4.17 2.975 2.975 0 0 1 4.16-.48zM6.53 178.63a3.055 3.055 0 0 1-3.78 4.8 3.065 3.065 0 0 1-.51-4.29 3.055 3.055 0 0 1 4.29-.51zM59.04 51.43a3.02 3.02 0 0 1-3.74 4.74 3.02 3.02 0 0 1 3.74-4.74zM136.53 3.98a2.98 2.98 0 0 1 .49 4.2 2.99 2.99 0 1 1-4.7-3.7 2.985 2.985 0 0 1 4.21-.5zM274.86 38.82c1.3 1.02 1.52 2.9.49 4.2s-2.9 1.52-4.2.49c-1.3-1.02-1.52-2.9-.5-4.2s2.92-1.51 4.21-.49zM190.81 322.59c1.9 1.5 2.22 4.25.72 6.14-1.49 1.9-4.24 2.22-6.14.72s-2.22-4.25-.72-6.14c1.5-1.89 4.25-2.22 6.14-.72z"/><path fill-rule="evenodd" fill="#8971FF" d="M232.84 59.82c1.11.88 1.3 2.49.42 3.6a2.56 2.56 0 0 1-3.6.42 2.56 2.56 0 0 1-.42-3.6 2.58 2.58 0 0 1 3.6-.42zM292.98 129.03c1.11.88 1.3 2.49.43 3.6a2.56 2.56 0 0 1-3.6.42 2.56 2.56 0 0 1-.42-3.6c.87-1.1 2.48-1.29 3.59-.42zM110.92 41.71c1.11.88 1.3 2.49.42 3.6a2.56 2.56 0 0 1-3.6.42c-1.11-.88-1.3-2.49-.42-3.6s2.49-1.3 3.6-.42zM67.12 108.46c1.11.88 1.3 2.49.42 3.6s-2.49 1.3-3.6.42a2.56 2.56 0 0 1-.42-3.6 2.56 2.56 0 0 1 3.6-.42zM48.63 179.18c1.11.88 1.3 2.49.42 3.6a2.56 2.56 0 0 1-3.6.42 2.56 2.56 0 0 1-.42-3.6 2.56 2.56 0 0 1 3.6-.42zM73.71 248.75c1.11.88 1.3 2.49.42 3.6a2.56 2.56 0 0 1-3.6.42 2.56 2.56 0 0 1-.42-3.6 2.56 2.56 0 0 1 3.6-.42zM118.33 307.07c1.11.88 1.3 2.49.42 3.6a2.56 2.56 0 0 1-3.6.42 2.56 2.56 0 0 1-.42-3.6 2.56 2.56 0 0 1 3.6-.42z"/><path fill="#8971FF" d="M178.61 295.99c1.11.88 1.3 2.49.42 3.6a2.572 2.572 0 0 1-3.6.43 2.56 2.56 0 0 1-.42-3.6c.88-1.11 2.49-1.3 3.6-.43z"/><path fill-rule="evenodd" fill="#8971FF" d="M260.57 266.48c1.11.88 1.3 2.49.42 3.6a2.56 2.56 0 0 1-3.6.42 2.56 2.56 0 0 1-.42-3.6 2.56 2.56 0 0 1 3.6-.42zM284.43 231.06c1.11.88 1.3 2.49.43 3.6a2.572 2.572 0 0 1-3.6.43 2.56 2.56 0 0 1-.42-3.6 2.56 2.56 0 0 1 3.59-.43z"/><path fill-rule="evenodd" fill="#FFF" d="M93.99 174a6.037 6.037 0 0 1 1 8.47 6.037 6.037 0 0 1-8.47 1 6.03 6.03 0 0 1 7.47-9.47zM216.72 101.4c2.5 1.98 2.93 5.61.95 8.12a5.775 5.775 0 0 1-8.11.96 5.784 5.784 0 0 1-.95-8.12 5.764 5.764 0 0 1 8.11-.96zM216.59 237.88a5.2 5.2 0 0 1 .86 7.3 5.188 5.188 0 0 1-7.29.86 5.197 5.197 0 0 1-.86-7.29 5.18 5.18 0 0 1 7.29-.87zM287.21 179.74c1.86 1.46 2.17 4.15.71 6.01a4.287 4.287 0 0 1-6.01.71 4.276 4.276 0 0 1-.7-6.01 4.257 4.257 0 0 1 6-.71zM120.84 280.82c1.82 1.44 2.13 4.07.69 5.89s-4.07 2.13-5.88.69a4.175 4.175 0 0 1-.69-5.88 4.186 4.186 0 0 1 5.88-.7zM116.16 65.78a3.996 3.996 0 0 1 .66 5.62 3.996 3.996 0 0 1-5.62.66 4.004 4.004 0 0 1-.66-5.62 3.995 3.995 0 0 1 5.62-.66z"/></g></svg>