<svg xmlns="http://www.w3.org/2000/svg" width="350" height="350" viewBox="0 0 350 350"><path opacity=".4" fill="none" stroke="#B194FF" stroke-linecap="round" stroke-linejoin="round" stroke-miterlimit="10" d="M165.3 69.2L194 133M194 133l48.4-29.4M87.6 225l59.6-41.7-65.1-17.9 60.6-38M17.7 137.8l39.8-11.4 34-72.5M194.1 296.6l77.3-40.8M284.2 115.2l.6 52M88.3 107.4l77-38.2"/><path opacity=".3" fill="none" stroke="#B194FF" stroke-linecap="round" stroke-linejoin="round" stroke-miterlimit="10" d="M257.4 172L194 133l7.8 75.7-51.5 45-3.1-70.4-4.5-55.9-54.4-20-6.2 58 5.5 59.6 62.7 28.7 80.2-1.8-28.7-43.2 69.6 47-14-83.7-15-68.4L215 55.1 194 133"/><path opacity=".3" fill="none" stroke="#B194FF" stroke-linecap="round" stroke-linejoin="round" stroke-miterlimit="10" d="M111.6 13.6l53.6 55.6L215 55.1l69.2 60.1-41.9-11.6 42.4 63.6-27.4 4.7 32.7 45.5-18.7 38.4-40.8-3.9-36.5 44.7-57.9 19.3 14.2-62.2-66.8 10.7 4-39.3L49 199l33-33.5-24.5-39 30.8-19L91.6 54l73.7 15.3-22.6 58.2L194 133l-46.8 50.4 54.6 25.4 55.6-36.7"/><path opacity=".4" fill="none" stroke="#DDDCFF" stroke-linecap="round" stroke-linejoin="round" stroke-miterlimit="10" d="M215 55l38.5-26.3 30.8 86.5 56 10.8-50.3 91.4 16.8 26.2-35.4 12.2-.4 49.8-76.9-9-29.7 49.7-28.3-30.4-53.8.7 1.3-52.2-76.3-59.7 41.8-5.8 8.4-72.5-16-55.1 50.1-17.4 20.1-40.3L215 55z"/><path opacity=".5" fill="none" stroke="#DEDCFF" stroke-width="1.2" stroke-linecap="round" stroke-linejoin="round" stroke-miterlimit="10" d="M170.7 16.9l82.8 11.8 48.3 58.6 38.5 38.6-55.6 42.1 52.8 32.1-30.8 43.4-35.8 62-61.5 17.5-45 23.2-34.4-58.3-47.7 28.6-29.2-49.9-45.9-62 11.1-65.8 23-66.8 58.3 6.4 12-64.9 59.1 3.4z"/><path opacity=".6" fill="none" stroke="#DEDCFF" stroke-linecap="round" stroke-linejoin="round" stroke-miterlimit="10" d="M82.3 316.6l82.1 29.7M40.8 71.3l70.8-57.7M340.3 125.9l-2.7 74.2"/><path opacity=".8" fill="none" stroke="#C7B0FF" stroke-width="1.2" stroke-linecap="round" stroke-linejoin="round" stroke-miterlimit="10" d="M203.4 101.3l98.3-13.9-17 80.6 22 75.6-84.3-7.7-13 87.1-79.5-35.1-76.7-21.2 38.6-76.4-73.4-51.4 81.2-60.4L170.7 17l32.7 84.3z"/><path fill="none" stroke="#C3BBFF" stroke-width="1.2" stroke-linecap="round" stroke-linejoin="round" stroke-miterlimit="10" d="M203.4 101.3l81.3 65.9-62.3 68.7-93.1 52.3-37-97.3 7.3-112.4 103.8 22.8"/><path fill="none" stroke="#D2CAFF" stroke-width="1.5" stroke-linecap="round" stroke-linejoin="round" stroke-miterlimit="10" d="M89.7 191.8l113.7-90.5 19 134.6-132.7-44.1"/><path opacity=".7" fill="none" stroke="#DBD9FF" stroke-width="1.2" stroke-linecap="round" stroke-linejoin="round" stroke-miterlimit="10" d="M170.7 16.9l131.1 70.4M18.4 138.9l34.8 127.8M209.4 323l97.4-79.4"/><path fill="#8452FF" d="M258.2 170.7c.8.4 1 1.4.6 2.2-.4.8-1.4 1-2.2.6-.8-.4-1-1.4-.6-2.2.4-.8 1.4-1.1 2.2-.6zM243.3 102.5c.8.4 1 1.4.6 2.2-.4.8-1.4 1-2.2.6-.8-.4-1-1.4-.6-2.2.5-.8 1.5-1.1 2.2-.6zM166 67.8c.8.4 1 1.4.6 2.2s-1.4 1-2.2.6c-.8-.4-1-1.4-.6-2.2.5-.8 1.5-1 2.2-.6zM89.3 106.3c.8.4 1 1.4.6 2.2s-1.4 1-2.2.6c-.8-.4-1-1.4-.6-2.2.5-.8 1.4-1.1 2.2-.6zM83 164c.8.4 1 1.4.6 2.2-.4.8-1.4 1-2.2.6-.8-.4-1-1.4-.6-2.2.5-.8 1.5-1 2.2-.6zM88.6 223.8c.8.4 1 1.4.6 2.2-.4.8-1.4 1-2.2.6-.8-.4-1-1.4-.6-2.2.4-.8 1.4-1.1 2.2-.6zM151.1 252.2c.8.4 1 1.4.6 2.2-.4.8-1.4 1-2.2.6s-1-1.4-.6-2.2c.5-.8 1.5-1 2.2-.6zM231.3 250.5c.8.4 1 1.4.6 2.2-.4.8-1.4 1-2.2.6-.8-.4-1-1.4-.6-2.2.5-.8 1.4-1.1 2.2-.6zM194.7 132.2c.5.3.7 1 .4 1.5-.3.5-1 .7-1.5.4-.5-.3-.7-1-.4-1.5s1-.7 1.5-.4zM143.2 126.4c.5.3.7 1 .4 1.5-.3.5-1 .7-1.5.4-.5-.3-.7-1-.4-1.5.3-.5 1-.7 1.5-.4zM147.7 182.4c.5.3.7 1 .4 1.5-.3.5-1 .7-1.5.4s-.7-1-.4-1.5c.3-.6 1-.8 1.5-.4zM202.4 207.8c.5.3.7 1 .4 1.5s-1 .7-1.5.4-.7-1-.4-1.5c.2-.6.9-.7 1.5-.4z"/><path fill="#D4D8FF" d="M303.1 84.6c1.6.9 2.1 2.9 1.2 4.5-.9 1.6-2.9 2.1-4.5 1.2-1.6-.9-2.1-2.9-1.2-4.5.9-1.6 2.9-2.1 4.5-1.2zM55.1 263.5c1.7 1 2.3 3.2 1.3 5-1 1.7-3.2 2.3-5 1.3-1.7-1-2.3-3.2-1.3-5 1.1-1.7 3.3-2.3 5-1.3z"/><path fill="#B6AEFF" d="M308.2 240.4c1.8 1 2.3 3.3 1.3 5-1 1.8-3.3 2.3-5 1.3-1.8-1-2.3-3.3-1.3-5s3.3-2.3 5-1.3zM20.2 135.5c1.8 1.1 2.4 3.4 1.4 5.2-1.1 1.8-3.4 2.4-5.2 1.4-1.8-1.1-2.4-3.4-1.4-5.2 1.1-1.8 3.4-2.4 5.2-1.4zM172.4 13.7c1.8 1 2.4 3.3 1.3 5.1-1.1 1.8-3.3 2.4-5.1 1.3-1.8-1-2.4-3.3-1.3-5.1 1.1-1.7 3.4-2.3 5.1-1.3zM341.3 123.1c1.5.9 2 2.8 1.1 4.3-.9 1.5-2.8 2-4.3 1.1s-2-2.8-1.1-4.3c.9-1.4 2.8-1.9 4.3-1.1zM338.8 197.2c1.6.9 2.1 2.9 1.2 4.5-.9 1.6-2.9 2.1-4.5 1.2-1.6-.9-2.1-2.9-1.2-4.5.9-1.6 2.9-2.1 4.5-1.2zM271.9 303c1.3.7 1.7 2.4 1 3.6-.7 1.3-2.4 1.7-3.6 1-1.2-.7-1.7-2.4-1-3.6.7-1.4 2.3-1.8 3.6-1zM165.8 343.9c1.1.6 1.5 2.1.8 3.2-.6 1.1-2.1 1.5-3.2.8-1.1-.6-1.5-2.1-.8-3.2s2.1-1.4 3.2-.8zM84.1 313.7c1.4.8 1.9 2.6 1.1 4.1-.8 1.4-2.6 1.9-4.1 1.1-1.4-.8-1.9-2.6-1.1-4.1.9-1.4 2.7-1.9 4.1-1.1zM8.8 202.1c1.5.9 2 2.7 1.1 4.2s-2.7 2-4.2 1.1c-1.5-.9-1.9-2.7-1.1-4.2.9-1.5 2.7-2 4.2-1.1zM43 68.8c1.4.8 1.9 2.7 1.1 4.1-.8 1.4-2.7 1.9-4.1 1.1s-1.9-2.7-1.1-4.1c.8-1.5 2.7-1.9 4.1-1.1zM113.1 11c1.4.8 1.9 2.7 1.1 4.1-.8 1.4-2.7 1.9-4.1 1.1-1.4-.8-1.9-2.7-1.1-4.1.9-1.5 2.7-1.9 4.1-1.1zM255 26.2c1.4.8 1.9 2.7 1.1 4.1-.8 1.4-2.7 1.9-4.1 1.1-1.4-.8-1.9-2.7-1.1-4.1.8-1.5 2.7-2 4.1-1.1zM211.4 318.9c2.1 1.2 2.8 3.9 1.6 6-1.2 2.1-3.9 2.8-6 1.6s-2.8-3.9-1.6-6c1.2-2.1 3.9-2.8 6-1.6z"/><path fill="#8971FF" d="M216.3 52.8c1.2.7 1.6 2.3.9 3.5-.7 1.2-2.3 1.6-3.5.9-1.2-.7-1.6-2.3-.9-3.5.7-1.2 2.3-1.6 3.5-.9zM285.5 113c1.2.7 1.6 2.3.9 3.5-.7 1.2-2.3 1.6-3.5.9-1.2-.7-1.6-2.3-.9-3.5.7-1.2 2.3-1.6 3.5-.9zM93 51.9c1.2.7 1.6 2.3.9 3.5-.7 1.2-2.3 1.6-3.5.9-1.2-.7-1.6-2.3-.9-3.5.8-1.2 2.3-1.6 3.5-.9zM59 124.1c1.2.7 1.6 2.3.9 3.5-.7 1.2-2.3 1.6-3.5.9-1.2-.7-1.6-2.3-.9-3.5s2.3-1.6 3.5-.9zM50.6 196.7c1.2.7 1.6 2.3.9 3.5s-2.3 1.6-3.5.9c-1.2-.7-1.6-2.3-.9-3.5.7-1.2 2.2-1.6 3.5-.9zM85.1 262.1c1.2.7 1.6 2.3.9 3.5-.7 1.2-2.3 1.6-3.5.9s-1.6-2.3-.9-3.5c.7-1.2 2.3-1.6 3.5-.9zM137.4 313.7c1.2.7 1.6 2.3.9 3.5-.7 1.2-2.3 1.6-3.5.9-1.2-.7-1.6-2.3-.9-3.5.7-1.2 2.3-1.7 3.5-.9zM195.6 294.3c1.2.7 1.6 2.3.9 3.5s-2.3 1.6-3.5.9-1.6-2.3-.9-3.5c.7-1.2 2.3-1.6 3.5-.9zM272.6 253.6c1.2.7 1.6 2.3.9 3.5-.7 1.2-2.3 1.6-3.5.9s-1.6-2.3-.9-3.5c.7-1.2 2.3-1.6 3.5-.9zM291.3 215.2c1.2.7 1.6 2.3.9 3.5s-2.3 1.6-3.5.9c-1.2-.7-1.6-2.3-.9-3.5.7-1.2 2.3-1.6 3.5-.9z"/><path fill="#FFF" d="M94.8 185.3c2.9 1.7 3.8 5.4 2.2 8.2-1.7 2.9-5.4 3.8-8.2 2.2-2.9-1.7-3.8-5.4-2.2-8.2 1.6-2.9 5.3-3.9 8.2-2.2zM206.1 96.3c2.8 1.6 3.7 5.1 2.1 7.9-1.6 2.8-5.1 3.7-7.9 2.1-2.8-1.6-3.7-5.1-2.1-7.9 1.6-2.8 5.2-3.7 7.9-2.1zM225.1 231.4c2.5 1.4 3.3 4.6 1.9 7.1s-4.6 3.3-7.1 1.9-3.3-4.6-1.9-7.1 4.6-3.3 7.1-1.9zM286.9 164c2 1.2 2.7 3.8 1.5 5.9-1.2 2-3.8 2.7-5.9 1.5-2-1.2-2.7-3.8-1.5-5.9 1.2-2 3.8-2.7 5.9-1.5zM132.1 283.9c2 1.2 2.7 3.7 1.5 5.7-1.2 2-3.7 2.7-5.7 1.5s-2.7-3.7-1.5-5.7c1.1-2 3.7-2.7 5.7-1.5zM101.6 75c1.9 1.1 2.6 3.6 1.4 5.5-1.1 1.9-3.6 2.6-5.5 1.4-1.9-1.1-2.6-3.6-1.4-5.5 1.1-1.8 3.6-2.5 5.5-1.4z"/></svg>