<svg xmlns="http://www.w3.org/2000/svg" width="1796" height="1480" viewBox="0 0 898 740"><linearGradient id="a" gradientUnits="userSpaceOnUse" x1="371.398" y1="575.083" x2="541.273" y2="118.222"><stop offset="0" stop-color="#0043ff"/><stop offset="1" stop-color="#00f67a"/></linearGradient><path fill="url(#a)" d="M108.28 250.508c-.724 0-1.397-.301-1.948-.871L74.003 216.39c-2.322-2.626-1.895-5.517-1.64-7.245.254-1.719 1.425-2.83 2.982-2.83.975 0 1.956.437 2.692 1.197l32.011 33.319c1.424 1.474 1.955 3.831 1.453 6.464-.355 1.862-1.709 3.213-3.221 3.213zm-32.935-41.692c-.132 0-.406 0-.509.695-.291 1.965-.401 3.595 1 5.18l32.291 33.205c.09.093.144.111.153.111.13 0 .608-.355.765-1.18.343-1.797.045-3.391-.797-4.261l-32.01-33.318c-.253-.261-.605-.432-.893-.432zm77.157 87.266a3.257 3.257 0 0 1-2.363-.991l-31.773-32.995c-1.591-1.645-2.243-4.227-1.7-6.737.361-1.673 1.589-2.798 3.056-2.798.803 0 1.584.351 2.201.989l32.102 33.059c1.794 1.905 2.393 4.011 1.894 6.641a3.48 3.48 0 0 1-3.417 2.832zm-32.78-41.021c-.216 0-.496.284-.613.826-.441 2.04.293 3.685 1.056 4.473l31.773 32.995a.768.768 0 0 0 .564.228.97.97 0 0 0 .961-.797c.35-1.85-.011-3.138-1.245-4.449l-32.091-33.047c-.142-.149-.286-.229-.405-.229zm497.634 466.458L868.76 582.002c8.478-5.245 13.997-13.346 15.544-22.808 1.225-7.495-.04-15.376-3.59-23.017 1.582 4.697 2.348 8.385 1.484 14.061.22 2.888.096 5.751-.362 8.554-1.428 8.737-6.539 16.225-14.341 21.055L616.219 719.295c-24.693 11.604-56.327 3.181-80.586-21.451L39.542 185.496c-11.073-11.727-15.767-26.366-12.877-40.164 1.791-8.55 6.353-16.027 13.223-21.909 3.924-5.142 9.487-8.861 12.562-10.55-15.245 6.467-25.271 17.812-28.232 31.946-3.06 14.61 1.863 30.062 13.518 42.404L533.844 699.59c17.503 17.772 38.783 27.332 58.806 27.33 8.6-.001 16.972-1.766 24.706-5.401zm-19.742-9.995c-16.129 0-32.063-7.358-46.081-21.28-94.084-93.435-503.441-518.311-507.565-522.592a1.355 1.355 0 0 1-.086-.099c-8.974-11.529-12.15-23.215-9.185-33.797 2.96-10.563 12.058-19.216 25.617-24.364L303.291 16.76c9.527-3.229 17.338-4.725 24.624-4.725 14.721 0 27.97 6.381 42.957 20.692l499.127 487.446c9.185 9.729 13.383 19.727 12.177 28.951-1.073 8.209-6.397 15.491-15.396 21.06L622.492 705.529c-8.031 3.987-16.385 5.995-24.878 5.995zm-551.8-545.559c6.424 6.668 413.687 429.357 507.481 522.506 13.539 13.446 28.864 20.554 44.319 20.554 8.104 0 16.084-1.921 23.717-5.708l244.185-135.289c8.286-5.13 13.208-11.789 14.182-19.228 1.105-8.454-2.864-17.747-11.48-26.874l-499.081-487.4c-14.477-13.822-27.192-19.991-41.221-19.991-7.005 0-14.561 1.454-23.777 4.577L61.203 111.728c-12.8 4.86-21.358 12.922-24.099 22.703-2.738 9.771.273 20.673 8.71 31.534zm685.239 455.214c-8.796 0-17.934-3.793-24.444-10.146-5.915-5.772-8.968-13-8.376-19.83.462-5.322 3.159-9.927 7.597-12.965 3.664-2.509 8.318-3.835 13.459-3.835 8.883 0 18.158 3.876 24.812 10.368 5.887 5.744 8.931 12.879 8.352 19.576-.456 5.265-3.164 9.845-7.624 12.898-3.76 2.574-8.523 3.934-13.776 3.934zm-11.765-44.276c-4.634 0-8.8 1.175-12.047 3.397-3.808 2.607-6.122 6.556-6.518 11.118-.527 6.081 2.254 12.578 7.631 17.825 6.055 5.908 14.54 9.435 22.698 9.435 4.747 0 9.021-1.209 12.362-3.495 3.886-2.66 6.149-6.482 6.545-11.052.516-5.947-2.257-12.353-7.606-17.571-6.197-6.046-14.819-9.657-23.065-9.657zm-186.999 75.958c-1.499 0-2.856-.591-4.035-1.754L81.243 190.446c-1.579-1.656-1.65-3.145-1.433-4.103.349-1.544 1.685-2.832 3.762-3.625L383.88 63.367c1.271-.479 2.197-.688 3.023-.688 1.848 0 3.039.999 4.83 2.629l433.889 423.553c1.109 1.072 2.357 2.521 2.13 4.188-.235 1.715-1.915 2.84-3.526 3.713L535.925 651.733c-1.182.736-2.427 1.128-3.636 1.128zM386.903 65.179c-.505 0-1.179.165-2.121.52L84.479 185.048c-1.249.477-2.077 1.165-2.231 1.846-.148.657.351 1.352.796 1.819L530.03 649.348c1.293 1.275 2.845 1.338 4.645.223l288.363-155.007c1.863-1.011 2.201-1.595 2.236-1.853.032-.233-.106-.812-1.395-2.057L390.02 67.127c-1.626-1.479-2.277-1.948-3.117-1.948zm-71.516 240.219a1.25 1.25 0 0 0-.006-1.768l-71.622-71.148 37.184-14.062a1.25 1.25 0 1 0-.884-2.338l-39 14.749a1.25 1.25 0 0 0-.438 2.055l73 72.517a1.246 1.246 0 0 0 1.766-.005zm-37.773-36.825l33.019-13.247a1.25 1.25 0 1 0-.932-2.32l-33.018 13.247a1.25 1.25 0 1 0 .931 2.32zm119.573 3.007c.429-.4.521-1.045.222-1.55l-45.278-76.407 91.522 59.426a1.25 1.25 0 0 0 1.727-1.731l-52.083-79.917a1.249 1.249 0 1 0-2.093 1.365l48.859 74.971-91.049-59.119a1.251 1.251 0 0 0-1.756 1.685l45.104 76.112-88.318-60.779a1.25 1.25 0 1 0-1.418 2.059l92.999 64a1.254 1.254 0 0 0 1.562-.115zM221.441 83.714c-2.673 0-5.612-1.872-6.835-4.354-.729-1.479-.762-3.007-.09-4.191.635-1.119 1.792-1.801 3.259-1.921 2.772-.218 6 1.71 7.292 4.336.729 1.478.762 3.005.091 4.189-.635 1.12-1.792 1.802-3.259 1.922a5.344 5.344 0 0 1-.458.019zm-3.207-7.984a3.07 3.07 0 0 0-.255.01c-.437.036-1.014.179-1.288.663-.257.453-.199 1.128.158 1.853.844 1.712 3.066 3.099 4.848 2.948.436-.035 1.013-.179 1.288-.663.256-.453.199-1.127-.158-1.852-.806-1.631-2.865-2.959-4.593-2.959zm-5.476 32.459c-1.452 0-3.43-.473-4.626-1.799-.762-.844-1.056-1.921-.806-2.954.272-1.124 1.145-2.064 2.335-2.514l40.151-15.021c.525-.199 1.129-.3 1.79-.3 1.804 0 3.64.742 4.677 1.891.778.863 1.083 1.939.837 2.953-.262 1.081-1.088 1.956-2.268 2.402l-40.151 15.021c-.555.21-1.227.321-1.939.321zm38.844-20.088c-.352 0-.667.048-.91.14l-40.151 15.021c-.406.154-.709.446-.786.763-.056.23.02.457.231.691.518.573 1.657.974 2.771.974.407 0 .783-.058 1.059-.162l40.151-15.021c.379-.143.656-.393.718-.651.062-.257-.109-.517-.264-.689-.556-.618-1.742-1.066-2.819-1.066z"/></svg>