<svg xmlns="http://www.w3.org/2000/svg" width="1796" height="1480" viewBox="0 0 898 740"><linearGradient id="a" gradientUnits="userSpaceOnUse" x1="609.1" y1="-257.966" x2="778.974" y2="198.896" gradientTransform="matrix(1 0 0 -1 -263.5 386.5)"><stop offset="0" stop-color="#00f67a"/><stop offset="1" stop-color="#0043ff"/></linearGradient><path fill="url(#a)" d="M108.28 250.508c-.724 0-1.397-.3-1.948-.87l-32.33-33.248c-2.32-2.626-1.894-5.517-1.64-7.245.255-1.72 1.426-2.83 2.983-2.83.975 0 1.956.437 2.692 1.197l32.01 33.32c1.425 1.473 1.956 3.83 1.454 6.463-.354 1.862-1.708 3.213-3.22 3.213zm-32.935-41.692c-.132 0-.406 0-.51.695-.29 1.966-.4 3.596 1 5.18l32.292 33.206c.09.093.144.11.153.11.13 0 .608-.354.765-1.18.343-1.796.045-3.39-.797-4.26l-32.01-33.318c-.253-.26-.605-.432-.893-.432zm77.157 87.266a3.257 3.257 0 0 1-2.363-.99l-31.774-32.996c-1.59-1.645-2.243-4.227-1.7-6.737.36-1.674 1.59-2.8 3.056-2.8.803 0 1.584.352 2.2.99l32.103 33.06c1.794 1.904 2.393 4.01 1.894 6.64a3.48 3.48 0 0 1-3.418 2.832zm-32.78-41.02c-.216 0-.496.283-.613.825-.442 2.04.292 3.685 1.055 4.473l31.773 32.995c.18.188.407.228.564.228a.97.97 0 0 0 .96-.797c.35-1.85-.01-3.138-1.244-4.45l-32.09-33.046c-.143-.15-.287-.23-.406-.23zm497.634 466.457L868.76 582c8.48-5.245 13.997-13.346 15.544-22.808 1.226-7.495-.04-15.376-3.59-23.018 1.582 4.697 2.35 8.385 1.484 14.062.22 2.888.096 5.75-.362 8.554-1.428 8.737-6.54 16.225-14.34 21.055L616.218 719.295c-24.693 11.604-56.328 3.18-80.587-21.45l-496.09-512.35c-11.074-11.726-15.768-26.365-12.878-40.163 1.79-8.55 6.353-16.027 13.223-21.91 3.924-5.14 9.487-8.86 12.562-10.55-15.245 6.468-25.27 17.813-28.232 31.947-3.06 14.61 1.863 30.06 13.518 42.403L533.844 699.59c17.503 17.772 38.783 27.332 58.807 27.33 8.6 0 16.972-1.766 24.706-5.4zm-19.742-9.996c-16.13 0-32.063-7.358-46.08-21.28C457.448 596.81 48.09 171.934 43.967 167.652c-.03-.03-.06-.065-.086-.1-8.974-11.528-12.15-23.214-9.185-33.796 2.96-10.563 12.058-19.216 25.617-24.364L303.29 16.76c9.528-3.23 17.34-4.725 24.625-4.725 14.72 0 27.97 6.38 42.957 20.692L870 520.173c9.184 9.73 13.382 19.728 12.176 28.95-1.072 8.21-6.396 15.492-15.396 21.06L622.492 705.53c-8.03 3.986-16.385 5.994-24.878 5.994zm-551.8-545.56c6.424 6.67 413.687 429.358 507.48 522.507 13.54 13.447 28.865 20.556 44.32 20.556 8.104 0 16.084-1.922 23.717-5.708l244.186-135.29c8.286-5.13 13.208-11.788 14.183-19.228 1.103-8.454-2.865-17.747-11.48-26.874l-499.082-487.4c-14.477-13.822-27.19-19.99-41.22-19.99-7.006 0-14.562 1.453-23.778 4.576L61.203 111.728c-12.8 4.86-21.358 12.922-24.1 22.703-2.737 9.772.274 20.674 8.71 31.535zm685.24 455.215c-8.797 0-17.935-3.794-24.444-10.147-5.915-5.772-8.97-13-8.376-19.83.462-5.322 3.158-9.927 7.597-12.965 3.665-2.51 8.32-3.835 13.46-3.835 8.883 0 18.158 3.876 24.812 10.367 5.888 5.744 8.932 12.88 8.353 19.576-.456 5.266-3.164 9.845-7.624 12.898-3.76 2.575-8.524 3.935-13.777 3.935zm-11.766-44.277c-4.634 0-8.8 1.175-12.047 3.396-3.808 2.606-6.12 6.556-6.518 11.117-.526 6.08 2.254 12.578 7.63 17.825 6.057 5.908 14.54 9.435 22.7 9.435 4.746 0 9.02-1.21 12.36-3.495 3.887-2.66 6.15-6.48 6.546-11.052.516-5.947-2.257-12.353-7.606-17.57-6.196-6.046-14.818-9.657-23.064-9.657zm-187 75.958c-1.498 0-2.855-.59-4.034-1.753l-447.01-460.66c-1.58-1.657-1.65-3.146-1.434-4.104.35-1.544 1.685-2.832 3.762-3.625L383.88 63.368c1.27-.48 2.197-.69 3.023-.69 1.848 0 3.04 1 4.83 2.63l433.89 423.553c1.108 1.072 2.355 2.522 2.13 4.19-.236 1.714-1.916 2.84-3.527 3.712l-288.3 154.97c-1.183.737-2.428 1.13-3.637 1.13zM386.904 65.18c-.505 0-1.18.164-2.12.52L84.478 185.047c-1.25.477-2.078 1.165-2.232 1.846-.148.657.35 1.352.796 1.82L530.03 649.347c1.293 1.275 2.845 1.338 4.645.224l288.363-155.007c1.863-1.012 2.2-1.596 2.236-1.854.03-.23-.106-.81-1.396-2.056L390.02 67.127c-1.626-1.48-2.277-1.948-3.117-1.948zm-71.516 240.218a1.25 1.25 0 0 0-.006-1.768l-71.62-71.148 37.183-14.062a1.25 1.25 0 0 0-.884-2.338l-39 14.75a1.25 1.25 0 0 0-.44 2.054l73 72.517a1.246 1.246 0 0 0 1.767-.005zm-37.773-36.825l33.02-13.247a1.25 1.25 0 0 0-.932-2.32l-33.02 13.248a1.25 1.25 0 1 0 .932 2.32zm119.574 3.007c.43-.4.52-1.045.222-1.55l-45.278-76.407 91.522 59.426a1.25 1.25 0 0 0 1.726-1.73l-52.083-79.92a1.25 1.25 0 0 0-2.093 1.366l48.858 74.97-91.05-59.118a1.25 1.25 0 0 0-1.756 1.685l45.105 76.112-88.317-60.78a1.25 1.25 0 1 0-1.418 2.06l93 64a1.254 1.254 0 0 0 1.563-.115zM221.44 83.714c-2.672 0-5.61-1.872-6.834-4.354-.73-1.48-.762-3.007-.09-4.19.635-1.12 1.792-1.802 3.26-1.922 2.77-.218 6 1.71 7.29 4.336.73 1.478.763 3.005.092 4.19-.635 1.12-1.792 1.8-3.26 1.92-.15.014-.303.02-.457.02zm-3.206-7.984c-.086 0-.17.003-.255.01-.438.036-1.015.18-1.29.663-.256.453-.198 1.128.16 1.853.843 1.712 3.065 3.1 4.847 2.948.436-.035 1.013-.18 1.288-.663.256-.452.2-1.126-.158-1.85-.806-1.632-2.865-2.96-4.593-2.96zm-5.476 32.46c-1.452 0-3.43-.474-4.626-1.8-.762-.844-1.056-1.92-.806-2.954.272-1.124 1.145-2.064 2.335-2.514l40.152-15.02c.525-.2 1.13-.3 1.79-.3 1.804 0 3.64.74 4.677 1.89.777.863 1.082 1.94.836 2.953-.262 1.08-1.088 1.956-2.268 2.402l-40.15 15.02c-.556.21-1.228.322-1.94.322zm38.844-20.09c-.352 0-.667.05-.91.14l-40.15 15.022c-.407.154-.71.446-.787.763-.056.23.02.457.23.69.52.574 1.658.975 2.772.975.407 0 .783-.058 1.06-.162l40.15-15.02c.38-.144.656-.394.718-.652.062-.257-.11-.517-.264-.69-.555-.617-1.74-1.065-2.818-1.065z"/></svg>