<svg xmlns="http://www.w3.org/2000/svg" width="601.5" height="400" viewBox="0 0 601.5 400"><title>aerial</title><path fill="none" stroke="#001EFF" stroke-width="2" stroke-linecap="round" stroke-linejoin="round" stroke-dasharray="1155.34,1155.34" d="M197.99 11.43c29.24-32.82 141.39 18.38 250.46 114.35C557.52 221.75 622.23 326.17 592.97 359c-29.26 32.83-141.399-18.38-250.47-114.359C233.43 148.66 168.73 44.25 197.99 11.43z"/><path fill="none" stroke="#001EFF" stroke-width="2" stroke-linecap="round" stroke-linejoin="round" stroke-dasharray="157.47,157.47" d="M235.51 369.85l67.51-41.07M261.21 293l-32.39 71.45"/><path fill="none" stroke="#001EFF" stroke-width="2" stroke-linecap="round" stroke-linejoin="round" stroke-dasharray="209.486,209.486" d="M244.07 373.41l102.44-18.82M226.45 252.23l-.63 105.33"/><path fill="none" stroke="#001EFF" stroke-width="2" stroke-linecap="round" stroke-linejoin="round" stroke-dasharray="668.35,668.35" d="M589.65 362.09c-52.69 53.64-206.35 35.09-311.67-52.94C175.3 223.311 151.25 73.22 195.56 14.34"/><path fill="none" stroke="#001EFF" stroke-width="2" stroke-linecap="round" stroke-linejoin="round" stroke-dasharray="130.005,130.005" d="M238.65 365c-7.192-8.88-20.197-10.304-29.14-3.189-8.883 7.02-10.394 19.91-3.375 28.794.055.069.109.138.165.206 7.194 8.893 20.214 10.316 29.16 3.189 8.878-7.026 10.379-19.919 3.353-28.797l-.163-.203z"/><g fill="none" stroke="#001EFF" stroke-width="2" stroke-linecap="round" stroke-linejoin="round"><path stroke-dasharray="189.322,189.322" d="M360.47 234.24L490.41 96.55"/><path stroke-dasharray="413.575,413.575" d="M265.03 92.42l215.81-8m23.87 20.63l5.14 197.55"/><path stroke-dasharray="71.4763,71.4763" d="M512.95 89c3.42 4.76 4.66 9 3.55 11.29-1.27 2.65-12.45 0-21-7.43s-12.85-16.4-9.92-19.46c1.78-1.83 6.26-1.05 11.57 1.82"/><path stroke-dasharray="48.1371,48.1371" d="M512.56 105c-1.279 2.65-12.439 0-21-7.42C483 90.16 477.9 80.11 480.82 77"/><path stroke-dasharray="29.4935,29.4935" d="M494.52 81.18l9.82-9.9m13 9.5l-10.23 11.71"/><path stroke-dasharray="111.095,111.095" d="M501.37 58.1l8.689-9.83c.86 2.56 4.36 14.88 4.36 14.88L535.81 72c1.641.75 2.69 1.17 1.69 2.21l-8.24 9.58c-1 1-2.319.72-3.88-.07l-19.5-8.46-4.51-17.16z"/></g><path fill="none" stroke="#001EFF" stroke-width="2" stroke-linecap="round" stroke-linejoin="round" stroke-dasharray="41.5246,41.5246" d="M510.06 48.27l22.851 9.34 5 16.08"/><path opacity=".8" fill="none" stroke="#001EFF" stroke-width="2" stroke-linecap="round" stroke-linejoin="round" stroke-dasharray="242.68,242.68" d="M206.91 219.49c31 52.25 106.53 122.42 183.63 153.25"/><path opacity=".6" fill="none" stroke="#001EFF" stroke-width="2" stroke-linecap="round" stroke-linejoin="round" stroke-dasharray="280.767,280.767" d="M199.81 203.79c41 63.521 121.4 135.069 214 176.33"/><path opacity=".4" fill="none" stroke="#001EFF" stroke-width="2" stroke-linecap="round" stroke-linejoin="round" stroke-dasharray="342.247,342.247" d="M186.99 171c59.41 94.74 143.41 163 258.66 216.42"/><path opacity=".2" fill="none" stroke="#001EFF" stroke-width="2" stroke-linecap="round" stroke-linejoin="round" stroke-dasharray="403.103,403.103" d="M178.44 136.4c65.71 115.47 171.21 198.23 302.71 255.28"/><path fill="none" stroke="#001EFF" stroke-width="2" stroke-linecap="round" stroke-linejoin="round" stroke-dasharray="39.1108,39.1108" d="M220.25 357.42c-7.18 11.77 13.63 27.46 22.95 21.43"/><path opacity=".7" fill="none" stroke="#001EFF" stroke-width="2" stroke-linecap="round" stroke-linejoin="round" stroke-dasharray="563.436,563.436" d="M195.2 16.1c35.31-23.54 141.85 27.24 245.6 118.55 102.25 90 165.87 187.76 149.271 226.62"/><path opacity=".5" fill="none" stroke="#001EFF" stroke-width="2" stroke-linecap="round" stroke-linejoin="round" stroke-dasharray="552.085,552.085" d="M192.75 22.22C232.44 6.05 334.08 56.29 433.17 143.5 531.48 230 593.75 323.37 583.65 365"/></svg>