<svg xmlns="http://www.w3.org/2000/svg" width="32" height="28" viewBox="0 0 32 28"><path fill="#C1D3E5" d="M12.583 24.569c-.838 0-.696-.316-.985-1.113l-2.465-8.113L28.107 4.086"/><path fill="#9BB1C6" d="M12.583 24.569c.647 0 .933-.295 1.294-.646l3.45-3.355-4.304-2.594"/><path fill="#FFF" d="M13.022 17.974l10.427 7.705c1.19.656 2.049.316 2.346-1.105l4.244-20.002c.436-1.742-.664-2.532-1.802-2.016L3.313 12.167c-1.701.682-1.691 1.631-.31 2.055l6.396 1.996 14.807-9.342c.699-.424 1.341-.196.814.272"/></svg>