<svg xmlns="http://www.w3.org/2000/svg" width="389.98" height="505.475" viewBox="0 0 389.98 505.475"><g opacity=".5" fill-rule="evenodd" clip-rule="evenodd" fill="none" stroke="#1116BB" stroke-miterlimit="10"><path d="M230.32 450.446l106.1-268.526M228.75 449.438l61.21-201.396M218.277 449.146L100.89 134.372M213.207 453.61L43.82 236.6M214.46 452.22L110.256 261.39M220.33 448.476l-56.095-230.46M222.235 448.274L186.82 146.98M224.06 448.274L209.84 261.39M226.715 448.556l21.503-296.146M231.728 451.91l114.8-163.94M227.777 448.795l26.874-151.418M216.324 450.44L166.797 341.15M212.604 455.306L85.736 328.066M213.784 49.63L47.877 218.015M214.808 51.023L109.356 223.43M217.996 53.14L192.9 108.57M226.933 54.18l19.818 75.225M212.964 48.148l-108.68 76.31M219.87 53.948l-54.465 141.82M222.62 54.71l-12.78 153.25M225.527 448.343l1.51-72.17M223.86 54.896l4.35 289.406M221.308 54.528l-54.51 242.85M225.433 54.537l29.71 224.344M216.058 52.117l-132.1 264.067M230.245 52.727l117.05 222.227M228.558 53.586l60.067 166.468M231.464 51.71l100.786 111.8"/></g><path fill-rule="evenodd" clip-rule="evenodd" fill="#001484" stroke="#8100FE" stroke-width="3.5" stroke-miterlimit="10" d="M186.82 107.61c10.874 0 19.69 8.812 19.69 19.685s-8.816 19.685-19.69 19.685-19.692-8.812-19.692-19.685 8.816-19.685 19.69-19.685z"/><path fill-rule="evenodd" clip-rule="evenodd" fill="#001484" stroke="#FF00A6" stroke-width="5" stroke-miterlimit="10" d="M209.377 208.44c14.626 0 26.483 11.855 26.483 26.476s-11.857 26.474-26.483 26.474-26.483-11.853-26.483-26.474 11.857-26.475 26.483-26.475z"/><path fill-rule="evenodd" clip-rule="evenodd" fill="#001484" stroke="#7B00FE" stroke-width="2.5" stroke-miterlimit="10" d="M339.026 160.333c5.646 0 10.224 4.575 10.224 10.22s-4.577 10.22-10.224 10.22c-5.646 0-10.223-4.575-10.223-10.22s4.578-10.22 10.223-10.22zM349.404 274.61c3.69 0 6.683 2.99 6.683 6.68 0 3.687-2.992 6.68-6.683 6.68a6.68 6.68 0 0 1 0-13.36z"/><path fill-rule="evenodd" clip-rule="evenodd" fill="#001484" stroke="#E600FF" stroke-width="3.5" stroke-miterlimit="10" d="M292.46 219.522c7.798 0 14.12 6.326 14.12 14.13s-6.322 14.13-14.12 14.13c-7.8 0-14.123-6.326-14.123-14.13s6.322-14.13 14.122-14.13z"/><path fill-rule="evenodd" clip-rule="evenodd" fill="#001484" stroke="#FF00CF" stroke-width="3" stroke-miterlimit="10" d="M255.795 278.85c5.114 0 9.26 4.146 9.26 9.258s-4.146 9.256-9.26 9.256-9.26-4.144-9.26-9.256 4.146-9.257 9.26-9.257z"/><path fill-rule="evenodd" clip-rule="evenodd" fill="#001484" stroke="#8100FE" stroke-width="3" stroke-miterlimit="10" d="M228.21 344.302c8.805 0 15.94 7.134 15.94 15.935s-7.136 15.936-15.94 15.936-15.94-7.135-15.94-15.936 7.137-15.935 15.94-15.935z"/><path fill-rule="evenodd" clip-rule="evenodd" fill="#001484" stroke="#C400FF" stroke-width="4" stroke-miterlimit="10" d="M160.128 297.078c12.333 0 22.333 9.996 22.333 22.325s-9.998 22.324-22.332 22.324-22.332-9.995-22.332-22.324 10-22.325 22.332-22.325z"/><path fill-rule="evenodd" clip-rule="evenodd" fill="#001484" stroke="#7B00FE" stroke-width="2.5" stroke-miterlimit="10" d="M80.578 315.142a7.496 7.496 0 0 1 7.498 7.494c0 4.14-3.357 7.495-7.498 7.495a7.495 7.495 0 0 1 0-14.988z"/><path fill-rule="evenodd" clip-rule="evenodd" fill="#001484" stroke="#E600FF" stroke-width="4" stroke-miterlimit="10" d="M103.733 222.628c11.09 0 20.083 8.988 20.083 20.075 0 11.088-8.99 20.076-20.083 20.076s-20.083-8.99-20.083-20.077c0-11.087 8.992-20.075 20.083-20.075z"/><path fill-rule="evenodd" clip-rule="evenodd" fill="#001484" stroke="#8100FE" stroke-width="2.5" stroke-miterlimit="10" d="M39.108 214.507c6.38 0 11.554 5.17 11.554 11.55s-5.173 11.55-11.554 11.55-11.554-5.17-11.554-11.55 5.173-11.55 11.554-11.55z"/><path fill-rule="evenodd" clip-rule="evenodd" fill="#001484" stroke="#7B00FE" stroke-width="2.5" stroke-miterlimit="10" d="M98.1 120.81a7.068 7.068 0 0 1 0 14.135 7.068 7.068 0 0 1 0-14.135z"/><path fill-rule="evenodd" clip-rule="evenodd" fill="none" stroke="#2618FE" stroke-width="2" stroke-miterlimit="10" d="M223.493 31.428c6.382 0 11.555 5.17 11.555 11.55 0 6.38-5.173 11.55-11.555 11.55-6.38 0-11.554-5.17-11.554-11.55 0-6.38 5.172-11.55 11.553-11.55z"/><path fill-rule="evenodd" clip-rule="evenodd" fill="#001484" stroke="#A500F3" stroke-width="3" stroke-miterlimit="10" d="M248.218 129.308c6.38 0 11.555 5.17 11.555 11.55 0 6.38-5.174 11.552-11.555 11.552s-11.555-5.172-11.555-11.55c0-6.38 5.174-11.552 11.555-11.552z"/><path fill-rule="evenodd" clip-rule="evenodd" fill="none" stroke="#2618FE" stroke-width="2" stroke-miterlimit="10" d="M223.32 448.085c6.38 0 11.553 5.172 11.553 11.55s-5.173 11.55-11.554 11.55c-6.383 0-11.556-5.17-11.556-11.55s5.174-11.55 11.555-11.55z"/><path fill-rule="evenodd" clip-rule="evenodd" fill="#001484" stroke="#FF00CF" stroke-width="3" stroke-miterlimit="10" d="M162.78 195.117c6.382 0 11.555 5.17 11.555 11.55 0 6.38-5.173 11.55-11.554 11.55s-11.553-5.17-11.553-11.55c0-6.38 5.172-11.55 11.554-11.55z"/></svg>