<svg data-name="Layer 1" xmlns="http://www.w3.org/2000/svg" width="331.03" height="441.76" viewBox="0 0 331.03 441.76"><title>users</title><g opacity=".5" fill="none" stroke="#1116bb" stroke-miterlimit="10"><path d="M204 420l106.1-268.53M202.44 419l61.21-201.4M192 418.72L74.58 103.94M186.9 423.18l-169.39-217M188.15 421.79L84 231M194 418l-56.07-230.41M195.93 417.85l-35.42-301.3M197.76 417.85L183.54 231M200.41 418.13L221.91 122M205.43 421.48l114.8-163.94M201.47 418.37l26.87-151.42M190 420l-49.51-109.28M186.3 424.88L59.43 297.64M187.48 19.2L21.57 187.59M188.51 20.59L83.05 193M191.69 22.71L166.6 78.14M200.63 23.75L220.45 99M186.66 17.72L78 94M193.57 23.52L139.1 165.34M196.32 24.28l-12.79 153.25M199.22 417.91l1.51-72.17M197.56 24.47l4.35 289.41M195 24.1l-54.51 242.85M199.13 24.11l29.71 224.34M189.76 21.69L57.65 285.76M203.94 22.3L321 244.53M202.26 23.16l60.07 166.47M205.16 21.28l100.79 111.8"/></g><path d="M160.51 77.18a19.68 19.68 0 1 1-19.69 19.68 19.69 19.69 0 0 1 19.69-19.68z" fill="#001484" stroke="#8100fe" stroke-miterlimit="10" stroke-width="3.5"/><path d="M183.07 178a26.47 26.47 0 1 1-26.48 26.48A26.48 26.48 0 0 1 183.07 178z" fill="#001484" stroke="#8100fe" stroke-miterlimit="10" stroke-width="5"/><path d="M312.72 129.9a10.22 10.22 0 1 1-10.22 10.22 10.22 10.22 0 0 1 10.22-10.22zM323.1 244.18a6.68 6.68 0 1 1-6.68 6.68 6.68 6.68 0 0 1 6.68-6.68z" fill="#001484" stroke="#7b00fe" stroke-miterlimit="10" stroke-width="2.5"/><path d="M266.16 189.09A14.13 14.13 0 1 1 252 203.22a14.13 14.13 0 0 1 14.16-14.13zM229.49 248.42a9.26 9.26 0 1 1-9.26 9.26 9.26 9.26 0 0 1 9.26-9.26z" fill="#001484" stroke="#8100fe" stroke-miterlimit="10" stroke-width="3.5"/><path d="M201.91 313.87A15.94 15.94 0 1 1 186 329.81a15.94 15.94 0 0 1 15.91-15.94z" fill="#001484" stroke="#7b00fe" stroke-miterlimit="10" stroke-width="3"/><path d="M133.82 266.65A22.32 22.32 0 1 1 111.49 289a22.33 22.33 0 0 1 22.33-22.35z" fill="#001484" stroke="#8100fe" stroke-miterlimit="10" stroke-width="4"/><path d="M54.27 284.71a7.49 7.49 0 1 1-7.5 7.49 7.5 7.5 0 0 1 7.5-7.49z" fill="#001484" stroke="#7b00fe" stroke-miterlimit="10" stroke-width="2.5"/><path d="M77.43 192.2a20.08 20.08 0 1 1-20.08 20.08 20.08 20.08 0 0 1 20.08-20.08z" fill="#001484" stroke="#8100fe" stroke-miterlimit="10" stroke-width="4"/><path d="M12.8 184.08a11.55 11.55 0 1 1-11.55 11.55 11.55 11.55 0 0 1 11.55-11.55zM71.79 90.38a7.07 7.07 0 1 1-7.07 7.07 7.07 7.07 0 0 1 7.07-7.07z" fill="#001484" stroke="#8100fe" stroke-miterlimit="10" stroke-width="2.5"/><path d="M197.19 1a11.55 11.55 0 1 1-11.55 11.55A11.55 11.55 0 0 1 197.19 1z" fill="none" stroke="#2618fe" stroke-miterlimit="10" stroke-width="2"/><path d="M221.91 98.88a11.55 11.55 0 1 1-11.56 11.55 11.55 11.55 0 0 1 11.56-11.55z" fill="#001484" stroke="#8100fe" stroke-miterlimit="10" stroke-width="3"/><path d="M197 417.66a11.55 11.55 0 1 1-11.55 11.55A11.55 11.55 0 0 1 197 417.66z" fill="none" stroke="#2618fe" stroke-miterlimit="10" stroke-width="2"/><path d="M136.48 164.69a11.55 11.55 0 1 1-11.55 11.55 11.55 11.55 0 0 1 11.55-11.55z" fill="#001484" stroke="#8100fe" stroke-miterlimit="10" stroke-width="3"/></svg>