<svg data-name="Layer 1" xmlns="http://www.w3.org/2000/svg" width="659.57" height="881.52" viewBox="0 0 659.57 881.52"><title>users</title><g opacity=".5" fill="none" stroke="#1116bb" stroke-miterlimit="10"><path d="M406.78 839.03l212.2-537.05M403.64 837.02l122.42-402.8M382.69 836.43L147.92 206.88M372.55 845.36L33.78 411.34M375.06 842.58L166.65 460.92M386.8 835.14l-112.19-461M390.61 834.69l-70.83-602.55M394.26 834.69l-28.44-373.77M399.57 835.25l43-592.29M409.6 841.96l229.6-327.88M401.69 835.73l53.75-302.84M378.79 839.02l-99.06-218.59M371.35 848.75L117.61 594.27M373.71 37.4L41.89 374.14M375.76 40.14L164.85 385M382.14 44.42l-50.2 110.86M400.01 46.5l39.63 150.45M372.07 34.44L154.71 187.06M385.88 46.04L276.95 329.67M391.38 47.56l-25.56 306.5M397.19 834.83l3-144.34M393.86 47.93l8.7 578.81M388.76 47.2l-109 485.7M397.01 47.21l59.42 448.69M378.26 42.37l-264.2 528.14M406.63 43.59l234.1 444.45M403.26 45.31l120.13 332.94M409.07 41.56l201.57 223.58"/></g><path d="M319.78 153.36a39.37 39.37 0 1 1-39.38 39.37 39.37 39.37 0 0 1 39.38-39.37z" fill="#001484" stroke="#8d00fc" stroke-miterlimit="10" stroke-width="3.5"/><path d="M364.89 355.02a52.95 52.95 0 1 1-53 53 53 53 0 0 1 53-53z" fill="#001484" stroke="#6e00fc" stroke-miterlimit="10" stroke-width="5"/><path d="M624.19 258.81a20.44 20.44 0 1 1-20.45 20.44 20.44 20.44 0 0 1 20.45-20.44zM644.95 487.36a13.36 13.36 0 1 1-13.37 13.36 13.36 13.36 0 0 1 13.37-13.36z" fill="#001484" stroke="#6e00fc" stroke-miterlimit="10" stroke-width="2.5"/><path d="M531.06 377.14a28.26 28.26 0 1 1-28.24 28.26 28.25 28.25 0 0 1 28.24-28.26z" fill="#001484" stroke="#6e00fc" stroke-miterlimit="10" stroke-width="3.5"/><path d="M457.73 495.84a18.51 18.51 0 1 1-18.52 18.52 18.52 18.52 0 0 1 18.52-18.52z" fill="#001484" stroke="#6e00fc" stroke-miterlimit="10" stroke-width="2.5"/><path d="M402.56 626.74a31.87 31.87 0 1 1-31.88 31.87 31.87 31.87 0 0 1 31.88-31.87z" fill="#001484" stroke="#6e00fc" stroke-miterlimit="10" stroke-width="3"/><path d="M266.4 532.3a44.65 44.65 0 1 1-44.66 44.65 44.66 44.66 0 0 1 44.66-44.65z" fill="#001484" stroke="#8d00fc" stroke-miterlimit="10" stroke-width="4"/><path d="M107.3 568.42a15 15 0 1 1-15 15 15 15 0 0 1 15-15z" fill="#001484" stroke="#6800fc" stroke-miterlimit="10" stroke-width="2.5"/><path d="M153.61 383.4a40.15 40.15 0 1 1-40.17 40.15 40.16 40.16 0 0 1 40.17-40.15z" fill="#001484" stroke="#6e00fc" stroke-miterlimit="10" stroke-width="4"/><path d="M24.36 367.14a23.1 23.1 0 1 1-23.11 23.1 23.1 23.1 0 0 1 23.11-23.1zM142.34 179.76a14.13 14.13 0 1 1-14.14 14.14 14.14 14.14 0 0 1 14.14-14.14z" fill="#001484" stroke="#6800fc" stroke-miterlimit="10" stroke-width="2.5"/><path d="M393.14 1a23.1 23.1 0 1 1-23.12 23.14A23.1 23.1 0 0 1 393.14 1z" fill="none" stroke="#2618fe" stroke-miterlimit="10" stroke-width="2"/><path d="M442.58 196.76a23.1 23.1 0 1 1-23.11 23.1 23.11 23.11 0 0 1 23.11-23.1z" fill="#001484" stroke="#6e00fc" stroke-miterlimit="10" stroke-width="3"/><path d="M392.78 834.31a23.1 23.1 0 1 1-23.11 23.1 23.11 23.11 0 0 1 23.11-23.1z" fill="none" stroke="#2618fe" stroke-miterlimit="10" stroke-width="2"/><path d="M271.7 328.37a23.1 23.1 0 1 1-23.11 23.1 23.1 23.1 0 0 1 23.11-23.1z" fill="#001484" stroke="#6e00fc" stroke-miterlimit="10" stroke-width="3"/></svg>