<?xml version="1.0" encoding="UTF-8"?>
<!-- Generator: Adobe Illustrator 16.0.0, SVG Export Plug-In . SVG Version: 6.00 Build 0)  -->
<!DOCTYPE svg PUBLIC "-//W3C//DTD SVG 1.1//EN" "http://www.w3.org/Graphics/SVG/1.1/DTD/svg11.dtd">
<svg version="1.1" id="Layer_1" xmlns="http://www.w3.org/2000/svg" xmlns:xlink="http://www.w3.org/1999/xlink" x="0px" y="0px" width="882px" height="857px" viewBox="0 0 882 857" enable-background="new 0 0 882 857" xml:space="preserve">
<path id="ipcam_i1" fill="none" stroke="#003CFF" stroke-width="2" stroke-miterlimit="10" d="M574.271,234.228  C591.82,100.911,706.541,25.478,742.947,10.81c-6.548,2.357-628.344,228.656-651.654,237.299  C42.837,265.396,27.384,353.139,54.1,433.287c1.834,5.5,6.024,7.07,11.524,4.975c74.123-26.977,396.546-144.579,486.385-177.318  C567.199,255.705,572.7,247.323,574.271,234.228z"/>
<path id="ipcam_i2" fill="none" stroke="#003CFF" stroke-width="2" stroke-miterlimit="10" d="M774.116,105.625  c0.262-27.501,3.143-54.217,12.571-80.671c2.882-7.596,10.216-22.525-3.404-23.573c-10.738-0.786-27.764,4.714-40.336,9.429"/>
<path id="ipcam_i3" fill="none" stroke="#003CFF" stroke-width="2" stroke-miterlimit="10" d="M743.209,367.806  c0,0-479.05,174.438-510.742,185.963c-55.265,20.168-132.27-33.002-162.652-116.816"/>
<path id="ipcam_i4" fill="none" stroke="#003CFF" stroke-width="2" stroke-miterlimit="10" d="M676.42,54.551  c64.694-2.095,111.054,57.623,131.745,114.459c30.907,84.862,3.144,173.914-63.908,198.273  c-67.051,24.358-149.032-28.025-179.938-112.888"/>
<path id="ipcam_i5" fill="none" stroke="#003CFF" stroke-width="2" stroke-miterlimit="10" d="M443.836,600.129  c18.334-6.811,39.025,2.881,45.574,21.215c6.548,18.334-2.882,39.027-21.216,45.574c-18.335,6.811-39.026-2.881-45.574-21.215  C415.549,627.105,425.239,606.939,443.836,600.129z M429.692,657.752c0,0-75.171,106.338-79.1,111.838  c-4.191,5.764-8.644,12.834-3.667,26.717c4.977,13.619,13.619,13.357,17.811,7.596c1.31-1.834,94.028-134.889,94.028-134.889   M445.146,599.605l-7.858-109.482 M469.504,478.598l8.119,126.77"/>
<path id="ipcam_i7" fill="none" stroke="#003CFF" stroke-width="2" stroke-miterlimit="10" d="M628.751,155.128  c22.524-34.573,66.527-36.145,99.005-3.929c32.217,32.478,40.336,86.695,17.811,121.53c-22.524,34.574-66.527,36.145-99.005,3.929  C614.346,243.918,606.487,189.701,628.751,155.128z M641.847,191.535c10.477-16.239,31.431-17.025,46.622-1.572  c15.453,15.454,19.119,40.86,8.643,57.099s-31.43,17.025-46.621,1.572C635.037,233.442,631.37,208.036,641.847,191.535z   M657.824,214.583c2.619-4.19,8.119-4.453,12.048-0.524s4.977,10.739,2.095,15.191c-2.619,4.191-8.119,4.453-12.048,0.524  C655.99,225.584,654.942,218.512,657.824,214.583z M681.135,203.059c9.167,9.429,11.786,25.406,5.238,35.097"/>
<path fill="none" stroke="#003CFF" stroke-miterlimit="10" d="M195.013,556.912l505.242-183.867"/>
<path fill="none" stroke="#003CFF" stroke-width="0.8" stroke-miterlimit="10" d="M177.202,552.197L679.301,369.64"/>
<path fill="none" stroke="#003CFF" stroke-width="0.6" stroke-miterlimit="10" d="M155.986,543.293l499.742-182.035"/>
<path fill="none" stroke="#003CFF" stroke-width="0.4" stroke-miterlimit="10" d="M132.151,526.791l498.171-181.248"/>
<path fill="none" stroke="#003CFF" stroke-miterlimit="10" d="M692.135,41.455l97.173-35.359"/>
<path fill="none" stroke="#003CFF" stroke-width="0.8" stroke-miterlimit="10" d="M686.635,54.813l102.935-37.455"/>
<path fill="none" stroke="#003CFF" stroke-width="0.6" stroke-miterlimit="10" d="M711.518,59.527l71.504-26.192"/>
<path fill="none" stroke="#003CFF" stroke-width="0.4" stroke-miterlimit="10" d="M731.947,68.694l47.145-17.287"/>
<path fill="none" stroke="#003CFF" stroke-width="2" stroke-miterlimit="10" d="M478.933,463.932c2.357,6.809,0,11.262-6.286,13.357  l-37.454,13.619c-6.81,2.357-11.263-0.262-13.358-6.285"/>
<path id="ipcam_i6" fill="none" stroke="#003CFF" stroke-width="2" stroke-miterlimit="10" d="M375.999,787.662  c9.69,30.121,9.69,58.67-1.048,66.266c-11.524,8.383-31.954-13.881-45.312-49.502c-13.619-35.621-15.191-70.98-3.667-79.1  c8.905-6.285,23.573,5.762,35.883,28.287"/>
</svg>