<svg version="1.1" xmlns="http://www.w3.org/2000/svg" xmlns:xlink="http://www.w3.org/1999/xlink" x="0px" y="0px"
	 width="700px" height="620px" viewBox="0 -120 700 620" enable-background="new 0 -120 700 620" xml:space="preserve">
<path fill="none" stroke="#003CFF" stroke-width="2" stroke-linecap="round" stroke-linejoin="round" stroke-miterlimit="10" d="
	M611.6-79.8L422.4,0l-137.5-30l190.1-80L611.6-79.8z M611.9-79.3l62.9,210.9 M284.9-30.1l63.3,212.4 M422.7,0.5l63.1,211.5
	 M674.8,131.6l-189.3,80.6l-137.2-29.9 M310.6,56.6l-53.9,22.7l-105.5-23L292.7-3.4 M151.4,56.4l48.6,163 M257,79.9l48.4,162.4
	 M412.7,196.3l-107.5,45.8L200,219.4 M503.3,204.6l62.8,13.9L421,279.6l-105.5-23l127.3-53.7 M566.4,218.8l48.3,161.9 M315.5,256.6
	l28.3,95.1 M421.2,280.1l48.4,162.4 M614.6,380.7l-145.2,61.9l-61.7-13.4 M298.9,258.6l-145.2,61.2l-105.5-23l145.9-61.4
	L298.9,258.6z M261.6,457.3L202,482.7L96.9,459.9 M387.5,361.5L302,397.5L239.9,384l85.8-36.2L387.5,361.5z M387.6,361.7l28.4,95.3
	 M239.9,383.9l28.6,96 M302.2,397.7l28.5,95.5 M415.9,457l-85.5,36.4l-61.9-13.5 M163.6,158.9l-55.6,23.5l-40.4-8.8l55.8-23.5
	L163.6,158.9z M163.8,159.2l18.5,62 M67.7,173.6L86.3,236 M108.2,182.6l18.5,62.2 M182.3,221l-55.6,23.7L86.3,236 M299,259.1
	l26.5,88.7 M48.3,296.9l48.6,163 M153.9,320.3l48.4,162.4"/>
</svg>
