<svg xmlns="http://www.w3.org/2000/svg" width="700" height="620" viewBox="0 -120 700 620"><path fill="none" stroke="#003CFF" stroke-width="2" stroke-linecap="round" stroke-linejoin="round" stroke-miterlimit="10" d="M611.6-79.8L422.4 0 284.9-30 475-110l136.6 30.2zm.3.5l62.9 210.9M284.9-30.1l63.3 212.4M422.7.5L485.8 212m189-80.4l-189.3 80.6-137.2-29.9M310.6 56.6l-53.9 22.7-105.5-23L292.7-3.4M151.4 56.4l48.6 163m57-139.5l48.4 162.4m107.3-46l-107.5 45.8L200 219.4m303.3-14.8l62.8 13.9L421 279.6l-105.5-23 127.3-53.7m123.6 15.9l48.3 161.9M315.5 256.6l28.3 95.1m77.4-71.6l48.4 162.4m145-61.8l-145.2 61.9-61.7-13.4M298.9 258.6l-145.2 61.2-105.5-23 145.9-61.4 104.8 23.2zm-37.3 198.7L202 482.7 96.9 459.9m290.6-98.4l-85.5 36-62.1-13.5 85.8-36.2 61.8 13.7zm.1.2L416 457m-176.1-73.1l28.6 96m33.7-82.2l28.5 95.5m85.2-36.2l-85.5 36.4-61.9-13.5m-104.9-321L108 182.4l-40.4-8.8 55.8-23.5 40.2 8.8zm.2.3l18.5 62M67.7 173.6L86.3 236m21.9-53.4l18.5 62.2m55.6-23.8l-55.6 23.7-40.4-8.7M299 259.1l26.5 88.7M48.3 296.9l48.6 163m57-139.6l48.4 162.4"/></svg>