<?xml version="1.0" encoding="utf-8"?>
<!-- Generator: Adobe Illustrator 19.2.1, SVG Export Plug-In . SVG Version: 6.00 Build 0)  -->
<svg version="1.1" height="857" width="882" id="Layer_1" xmlns="http://www.w3.org/2000/svg" xmlns:xlink="http://www.w3.org/1999/xlink" x="0px" y="0px"
	 viewBox="404.9 -76.8 298.6 327.2" style="enable-background:new 404.9 -76.8 298.6 327.2;" xml:space="preserve">
<style type="text/css">
	.st0{fill:none;stroke:#003CFF;stroke-linecap:round;stroke-linejoin:round;stroke-miterlimit:10;}
	.st1{fill:none;stroke:#003CFF;stroke-width:0.8;stroke-linecap:round;stroke-linejoin:round;stroke-miterlimit:10;}
	
		.st2{opacity:0.8;fill:none;stroke:#003CFF;stroke-width:0.8;stroke-linecap:round;stroke-linejoin:round;stroke-miterlimit:10;enable-background:new    ;}
	
		.st3{opacity:0.6;fill:none;stroke:#003CFF;stroke-width:0.8;stroke-linecap:round;stroke-linejoin:round;stroke-miterlimit:10;enable-background:new    ;}
	
		.st4{opacity:0.4;fill:none;stroke:#003CFF;stroke-width:0.8;stroke-linecap:round;stroke-linejoin:round;stroke-miterlimit:10;enable-background:new    ;}
</style>
<path id="ipcam_i1" class="st0" d="M608.9,12.6c6.7-50.9,50.5-79.7,64.4-85.3c-2.5,0.9-239.9,87.3-248.8,90.6
	C406,24.5,400.1,58,410.3,88.6c0.7,2.1,2.3,2.7,4.4,1.9C443,80.2,566.1,35.3,600.4,22.8C606.2,20.8,608.3,17.6,608.9,12.6z"/>
<path id="ipcam_i2" class="st0" d="M685.2-36.5c0.1-10.5,1.2-20.7,4.8-30.8c1.1-2.9,3.9-8.6-1.3-9c-4.1-0.3-10.6,1.8-15.4,3.6"/>
<path id="ipcam_i3" class="st0" d="M673.4,63.6c0,0-182.9,66.6-195,71c-21.1,7.7-50.5-12.6-62.1-44.6"/>
<path id="ipcam_i4" class="st0" d="M647.9-56c24.7-0.8,42.4,22,50.3,43.7c11.8,32.4,1.2,66.4-24.4,75.7
	c-25.6,9.3-56.9-10.7-68.7-43.1"/>
<path id="ipcam_i5" class="st0" d="M559.1,152.3c7-2.6,14.9,1.1,17.4,8.1s-1.1,14.9-8.1,17.4c-7,2.6-14.9-1.1-17.4-8.1
	C548.3,162.6,552,154.9,559.1,152.3z M553.7,174.3c0,0-28.7,40.6-30.2,42.7c-1.6,2.2-3.3,4.9-1.4,10.2c1.9,5.2,5.2,5.1,6.8,2.9
	c0.5-0.7,35.9-51.5,35.9-51.5 M559.6,152.1l-3-41.8 M568.9,105.9l3.1,48.4"/>
<path id="ipcam_i7" class="st0" d="M629.7-17.6c8.6-13.2,25.4-13.8,37.8-1.5c12.3,12.4,15.4,33.1,6.8,46.4
	c-8.6,13.2-25.4,13.8-37.8,1.5C624.2,16.3,621.2-4.4,629.7-17.6z M634.7-3.7c4-6.2,12-6.5,17.8-0.6c5.9,5.9,7.3,15.6,3.3,21.8
	c-4,6.2-12,6.5-17.8,0.6C632.1,12.3,630.7,2.6,634.7-3.7z M640.8,5.1c1-1.6,3.1-1.7,4.6-0.2c1.5,1.5,1.9,4.1,0.8,5.8
	c-1,1.6-3.1,1.7-4.6,0.2C640.1,9.3,639.7,6.6,640.8,5.1z M649.7,0.7c3.5,3.6,4.5,9.7,2,13.4"/>
<path class="st1" d="M464.1,135.8L657,65.6"/>
<path class="st2" d="M457.3,134L649,64.3"/>
<path class="st3" d="M449.2,130.6L640,61.1"/>
<path class="st4" d="M440.1,124.3l190.2-69.2"/>
<path class="st1" d="M653.9-61L691-74.5"/>
<path class="st2" d="M651.8-55.9l39.3-14.3"/>
<path class="st3" d="M661.3-54.1l27.3-10"/>
<path class="st4" d="M669.1-50.6l18-6.6"/>
<path class="st0" d="M572.5,100.3c0.9,2.6,0,4.3-2.4,5.1l-14.3,5.2c-2.6,0.9-4.3-0.1-5.1-2.4"/>
<path id="ipcam_i6" class="st0" d="M533.2,223.9c3.7,11.5,3.7,22.4-0.4,25.3c-4.4,3.2-12.2-5.3-17.3-18.9
	c-5.2-13.6-5.8-27.1-1.4-30.2c3.4-2.4,9,2.2,13.7,10.8"/>
</svg>
