<?xml version="1.0" encoding="UTF-8"?><!DOCTYPE svg PUBLIC "-//W3C//DTD SVG 1.1//EN" "http://www.w3.org/Graphics/SVG/1.1/DTD/svg11.dtd"><svg xmlns="http://www.w3.org/2000/svg"><symbol id="svg-circle-mail" viewBox="0 0 600 600">
    <title>
        circle-mail
    </title>
    <path d="M300 600c165.685 0 300-134.315 300-300S465.685 0 300 0 0 134.315 0 300s134.315 300 300 300zM130.023 209.09l175.28 156.7L470.14 210.545v-6.916L305.302 326.39l-175.28-122.76v5.46zM146.186 188H453.98c8.94 0 16.187 7.247 16.187 16.186v190.698c0 8.94-7.247 16.186-16.186 16.186H146.187c-8.94 0-16.186-7.247-16.186-16.186V204.186A16.186 16.186 0 0 1 146.186 188z" fill-rule="evenodd"/>
</symbol><symbol id="svg-circle-phone" viewBox="0 0 600 600">
    <title>
        circle-phone
    </title>
    <path d="M300 600c165.685 0 300-134.315 300-300S465.685 0 300 0 0 134.315 0 300s134.315 300 300 300zM163.65 435.322c1.084 4.05 3.25 9.136 6.5 15.258 3.247 6.123 6.2 10.838 8.853 14.146 5.16 6.655 16.44 12.153 33.84 16.493 16.147 3.87 31.12 3.958 44.92.26a89.852 89.852 0 0 0 11.6-3.952c3.685-1.55 7.746-3.642 12.184-6.278 4.438-2.636 7.71-4.678 9.812-6.126 2.103-1.448 5.853-4.1 11.25-7.958 5.397-3.857 8.71-6.192 9.94-7.004 13.29-9.188 24.748-18.93 34.368-29.223 16.023-16.994 31.53-38.47 46.517-64.43 14.987-25.96 25.834-50.126 32.54-72.5 4.103-13.478 6.81-28.27 8.122-44.375.09-1.47.454-5.507 1.096-12.11.643-6.602 1.065-11.176 1.267-13.722.202-2.546.335-6.4.398-11.56.064-5.162-.154-9.726-.654-13.69a89.852 89.852 0 0 0-2.377-12.024c-3.698-13.8-11.26-26.724-22.687-38.773-12.46-12.9-22.86-19.918-31.203-21.058-4.192-.646-9.75-.845-16.677-.596-6.927.248-12.415.915-16.465 2-2.1.562-3.614 1.21-4.543 1.94-2.46 1.624-4.907 8.39-7.343 20.295-.887 3.29-2.052 7.943-3.495 13.956a1196.907 1196.907 0 0 1-4.047 16.397 500.188 500.188 0 0 1-3.75 13.905c-.288.72-1.098 2.947-2.43 6.68-1.33 3.732-2.23 6.826-2.696 9.283-.467 2.457-.42 4.735.143 6.835.804 3 3.946 6.176 9.426 9.53a113.54 113.54 0 0 0 17.266 8.637c6.03 2.404 11.744 5.132 17.144 8.187 5.4 3.053 8.462 5.93 9.185 8.63.362 1.35.44 3.138.232 5.363-.208 2.226-.433 3.934-.677 5.125-.243 1.19-.81 3.272-1.703 6.244-.89 2.97-1.372 4.627-1.442 4.968-5.893 23.603-14.22 44.723-24.98 63.36-10.76 18.638-24.888 36.41-42.382 53.314-.26.23-1.453 1.475-3.58 3.733-2.13 2.258-3.648 3.79-4.557 4.597-.91.806-2.276 1.855-4.1 3.148-1.824 1.292-3.41 2.12-4.76 2.48-2.7.725-6.723-.488-12.068-3.638s-10.565-6.734-15.66-10.754a113.54 113.54 0 0 0-16.113-10.633c-5.645-3.07-9.968-4.202-12.968-3.398-2.1.562-4.096 1.66-5.99 3.292-1.893 1.633-4.123 3.958-6.69 6.977-2.567 3.018-4.09 4.833-4.57 5.444a500.19 500.19 0 0 1-10.168 10.2c-3.632 3.545-7.69 7.445-12.177 11.702-4.486 4.256-7.933 7.59-10.34 10.005-9.094 8.064-13.728 13.565-13.905 16.506-.168 1.17.03 2.806.59 4.906z" fill-rule="evenodd"/>
</symbol><symbol id="svg-circle-question" viewBox="0 0 600 600">
    <title>
        circle-question
    </title>
    <path d="M300 600c165.685 0 300-134.315 300-300S465.685 0 300 0 0 134.315 0 300s134.315 300 300 300zm3.005-482c-54.276 0-92.12 21.412-120.005 54.276l55.272 43.82c17.428-18.922 36.35-28.88 55.272-28.88 18.922 0 29.877 8.464 29.877 23.9 0 36.848-76.185 31.87-76.185 119.01v12.45h79.672v-9.462c0-53.28 89.133-48.8 89.133-130.463 0-45.312-37.346-84.65-113.035-84.65zM287.57 385.896c-26.392 0-47.804 21.91-47.804 48.3 0 26.392 21.412 47.804 47.803 47.804 26.888 0 48.3-21.412 48.3-47.803 0-26.39-21.412-48.3-48.3-48.3z" fill-rule="evenodd"/>
</symbol><symbol id="svg-comment" viewBox="0 0 673 600">
    <title>
        comment
    </title>
    <path d="M336.02.146C533.354-4.288 679.36 92.57 672.017 246.1c-6.554 136.766-143.65 239.028-352.318 245.125A308.213 308.213 0 0 1 139.56 600a245.263 245.263 0 0 0 41.017-127.065C69.724 436.63-1.013 357.925.01 246.1 1.41 98.53 134.324 4.58 336.02.147zM188 137h295.934v43.373H188V137zm0 83.41h295.934v43.37H188v-43.37zm0 83.407h295.934v43.373H188v-43.373z" fill-rule="evenodd"/>
</symbol><symbol id="svg-facebook" viewBox="0 0 17 33">
    <title>
        facebook
    </title>
    <path d="M16.8.7v5.1h-3c-1.1 0-1.8.2-2.2.7-.4.5-.6 1.2-.6 2.1v3.6h5.6l-.8 5.7H11v14.6H5.1V17.9H.2v-5.7h4.9V8c0-2.4.7-4.2 2-5.5 1.3-1.3 3.1-2 5.3-2 1.9 0 3.4.1 4.4.2z" fill-rule="evenodd"/>
</symbol><symbol id="svg-hamburger" viewBox="0 0 451 321">
    <title>
        hamburger
    </title>
    <path d="M0 0h450.805v66.07H0V0zm0 127.06h450.805v66.07H0v-66.07zm0 127.058h450.805v66.07H0v-66.07z" fill-rule="evenodd"/>
</symbol><symbol id="svg-icon-antenna" viewBox="0 0 36 36">
    <title>
        icon-antenna
    </title>
    <g transform="translate(1)" stroke="#231F20" fill-rule="evenodd">
        <circle cx="17.173" cy="17.558" r="17"/>
        <path d="M23.55 16.455c3.136 4.047 4.435 7.938 2.913 9.45-1.892 1.88-7.416-.617-12.34-5.572-4.922-4.956-7.38-10.496-5.49-12.375 1.567-1.558 5.64-.105 9.792 3.265"/>
        <path d="M26.385 25.99c-1.97 3.094-9.776 3.417-15.594-2.222C5.118 18.27 5.665 9.625 8.47 8.02"/>
        <path d="M11.876 15.387l10.816-4.156c-.21-.26-.268-.71-.272-.882a2.062 2.062 0 1 1 2.117 2.005c-.19.005-.74-.12-.915-.27L19.716 22.75"/>
        <path d="M15.18 19.686l6.73-6.72"/>
        <path d="M10.61 24.547l-2.233 2.22.013 5.35"/>
    </g>
</symbol><symbol id="svg-icon-camera" viewBox="0 0 36 35">
    <title>
        icon-camera
    </title>
    <g transform="translate(1)" stroke="#231F20" fill-rule="evenodd">
        <path d="M22.572 23.44H9.084c-1.87 0-4.266-1.652-4.266-5.865 0-4.1 2.396-6.132 4.266-6.132H27.23"/>
        <path d="M25.448 12.096c2 .75 2.427 3.918 2.427 5.52 0 2.96-1.312 5.936-3.717 5.936-2.405 0-3.938-3.016-3.657-6.12.197-2.166 2.632-4.22 4.31-5.06 2.37-1.188 3.907-1.157 4.794-.325.422.396-.363 2.598-1.822 4.174"/>
        <path d="M24.577 15.667c.703 0 1.275.863 1.275 1.927s-.572 1.928-1.275 1.928c-.704 0-1.275-.863-1.275-1.928 0-1.064.57-1.927 1.275-1.927z" stroke-width=".7"/>
        <path d="M5.26 19.44h15.225" stroke-width=".5"/>
        <path d="M5.947 21.19h14.75" stroke-width=".5"/>
        <path d="M16.59 23.44v4.58l-5.436 5.37"/>
        <circle cx="17" cy="17.5" r="17"/>
    </g>
</symbol><symbol id="svg-mail" viewBox="0 0 412 271">
    <title>
        mail
    </title>
    <path d="M19.596 0h372.65c10.82 0 19.595 8.774 19.595 19.596v230.88c0 10.822-8.773 19.595-19.595 19.595H19.595C8.776 270.07 0 261.3 0 250.476V19.595A19.596 19.596 0 0 1 19.596 0zM.028 25.534L212.24 215.25 411.806 27.296v-8.372L212.24 167.55.028 18.924v6.61z" fill-rule="evenodd"/>
</symbol><symbol id="svg-map-marker-o" viewBox="0 0 234 350">
    <title>
        map-marker-o
    </title>
    <path d="M119.958 312.733c13.457-20.91 26.913-42.81 39.45-64.6 7.04-12.233 13.593-24.1 19.57-35.484 22.993-43.814 36.092-78.2 36.092-96.505-.004-54.194-43.93-98.13-98.124-98.145-54.18.02-98.1 43.953-98.105 98.143 0 18.31 13.1 52.694 36.092 96.506 5.974 11.384 12.528 23.25 19.566 35.483 12.537 21.79 25.992 43.69 39.448 64.6 1.082 1.682 3.19 4.94 3.19 4.94s-1.887 2.38 2.822-4.94zm113.112-196.59C233.07 180.245 116.95 350 116.95 350S.84 180.245.84 116.143C.846 52.013 52.823.023 116.95 0c64.134.018 116.115 52.01 116.12 116.143z" fill-rule="evenodd"/>
</symbol><symbol id="svg-map-marker" viewBox="0 0 233 350">
    <title>
        map-marker
    </title>
    <path d="M116.11 0c64.133.018 116.115 52.01 116.12 116.143C232.23 180.245 116.11 350 116.11 350S0 180.245 0 116.143C.005 52.013 51.98.023 116.11 0z" fill-rule="evenodd"/>
</symbol><symbol id="svg-phone" viewBox="0 0 295 396">
    <title>
        phone
    </title>
    <path d="M1.397 343.077c1.164 4.346 3.49 9.805 6.976 16.377 3.486 6.572 6.654 11.632 9.503 15.183 5.538 7.143 17.645 13.044 36.32 17.703 17.333 4.155 33.405 4.25 48.215.28a96.44 96.44 0 0 0 12.453-4.242c3.954-1.663 8.313-3.91 13.076-6.74 4.762-2.828 8.273-5.02 10.53-6.574 2.26-1.554 6.285-4.4 12.077-8.54 5.792-4.142 9.348-6.647 10.668-7.52 14.267-9.86 26.563-20.316 36.89-31.365 17.197-18.24 33.84-41.292 49.927-69.155 16.086-27.863 27.728-53.8 34.925-77.815 4.405-14.467 7.312-30.344 8.72-47.63.094-1.578.486-5.91 1.175-12.997.69-7.087 1.143-11.997 1.36-14.73.216-2.732.36-6.868.428-12.408.068-5.54-.166-10.437-.702-14.694a96.44 96.44 0 0 0-2.552-12.903c-3.97-14.81-12.086-28.683-24.35-41.615-13.373-13.845-24.537-21.38-33.492-22.603-4.5-.693-10.466-.906-17.9-.64-7.435.267-13.325.983-17.672 2.148-2.254.603-3.88 1.298-4.877 2.083-2.64 1.743-5.266 9.004-7.88 21.783-.952 3.533-2.202 8.527-3.75 14.98-1.55 6.455-2.998 12.32-4.344 17.6a536.862 536.862 0 0 1-4.023 14.925c-.31.773-1.18 3.163-2.61 7.17-1.427 4.005-2.392 7.327-2.894 9.963-.5 2.637-.45 5.082.154 7.336.863 3.22 4.235 6.63 10.118 10.23 5.882 3.6 12.06 6.69 18.53 9.27 6.472 2.58 12.606 5.508 18.4 8.787 5.797 3.278 9.084 6.366 9.86 9.264.388 1.448.47 3.367.25 5.756-.224 2.39-.466 4.223-.728 5.5-.26 1.28-.87 3.513-1.827 6.702-.957 3.19-1.473 4.967-1.548 5.333-6.325 25.333-15.263 48.002-26.812 68.006-11.55 20.004-26.713 39.08-45.49 57.224-.28.247-1.56 1.582-3.844 4.006-2.284 2.424-3.914 4.068-4.89 4.934-.975.865-2.442 1.992-4.4 3.38-1.957 1.386-3.66 2.274-5.11 2.662-2.897.777-7.215-.525-12.952-3.906-5.737-3.38-11.34-7.228-16.81-11.542A121.865 121.865 0 0 0 83.2 272.63c-6.058-3.295-10.698-4.51-13.917-3.648-2.254.604-4.397 1.782-6.43 3.534-2.032 1.753-4.426 4.25-7.18 7.49-2.756 3.24-4.39 5.187-4.906 5.843a536.864 536.864 0 0 1-10.913 10.946 1284.674 1284.674 0 0 1-13.07 12.56c-4.815 4.57-8.514 8.15-11.1 10.74C5.927 328.748.953 334.655.763 337.81c-.18 1.258.03 3.013.635 5.267z" fill-rule="evenodd"/>
</symbol><symbol id="svg-question" viewBox="0 0 232 320">
    <title>
        question
    </title>
    <path d="M152.024 250v60c0 2.667-1 5-3 7s-4.334 3-7 3h-60c-2.667 0-5-1-7-3s-3-4.333-3-7v-60c0-2.667 1-5 3-7s4.333-3 7-3h60c2.666 0 5 1 7 3s3 4.333 3 7zm79-150c0 9-1.292 17.417-3.875 25.25-2.585 7.833-5.5 14.208-8.75 19.125s-7.835 9.875-13.75 14.875c-5.918 5-10.71 8.625-14.376 10.875-3.667 2.25-8.75 5.208-15.25 8.875-6.834 3.833-12.542 9.25-17.125 16.25-4.585 7-6.876 12.583-6.876 16.75 0 2.833-1 5.542-3 8.125s-4.334 3.875-7 3.875h-60c-2.5 0-4.625-1.542-6.375-4.625s-2.626-6.208-2.626-9.375v-11.25c0-13.833 5.416-26.875 16.25-39.125 10.833-12.25 22.75-21.292 35.75-27.125 9.833-4.5 16.833-9.167 21-14 4.166-4.833 6.25-11.167 6.25-19 0-7-3.875-13.167-11.625-18.5s-16.71-8-26.876-8c-10.834 0-19.834 2.417-27 7.25C79.94 84.417 71.024 94 59.024 109c-2.167 2.667-4.75 4-7.75 4-2 0-4.084-.667-6.25-2l-41-31.25C1.857 78.083.564 76 .15 73.5c-.418-2.5.04-4.833 1.374-7C28.19 22.167 66.857 0 117.524 0c13.333 0 26.75 2.583 40.25 7.75s25.666 12.083 36.5 20.75c10.833 8.667 19.666 19.292 26.5 31.875 6.833 12.583 10.25 25.792 10.25 39.625z" fill-rule="evenodd"/>
</symbol><symbol id="svg-twitter" viewBox="0 0 30 25">
    <title>
        twitter
    </title>
    <path d="M29.8 2.9c-.8 1.2-1.9 2.3-3.1 3.2v.8c0 1.6-.2 3.3-.7 4.9-.5 1.6-1.2 3.2-2.2 4.7-1 1.5-2.1 2.8-3.5 4-1.4 1.2-3 2.1-4.9 2.8-1.9.7-3.9 1-6.1 1-3.4 0-6.6-.9-9.4-2.7.4.1.9.1 1.5.1 2.8 0 5.4-.9 7.6-2.6-1.3 0-2.5-.4-3.6-1.2-1-.8-1.8-1.8-2.2-3 .4.1.8.1 1.2.1.5 0 1.1-.1 1.6-.2-1.4-.3-2.6-1-3.5-2.1-.9-1.1-1.4-2.4-1.4-3.9v-.1c.9.5 1.8.7 2.8.8-.8-.6-1.5-1.3-2-2.2-.5-.9-.7-1.9-.7-2.9 0-1.1.3-2.1.8-3.1 1.5 1.9 3.4 3.4 5.6 4.5 2.2 1.1 4.5 1.8 7 1.9-.1-.5-.2-.9-.2-1.4 0-1.7.6-3.1 1.8-4.3C17.4.8 18.8.2 20.5.2c1.8 0 3.3.6 4.5 1.9 1.4-.3 2.7-.8 3.9-1.5-.5 1.5-1.4 2.6-2.7 3.4 1.3-.3 2.4-.6 3.6-1.1z" fill-rule="evenodd"/>
</symbol><symbol id="svg-youtube-play" viewBox="0 0 28 20">
    <title>
        youtube-play
    </title>
    <path d="M27.7 4.3s-.3-2-1.1-2.8C25.5.4 24.3.4 23.8.3 19.9 0 14 0 14 0S8.1 0 4.2.3c-.5.1-1.7.1-2.8 1.2C.6 2.4.3 4.3.3 4.3S0 6.6 0 8.9v2.2c0 2.3.3 4.6.3 4.6s.3 2 1.1 2.8c1.1 1.1 2.5 1.1 3.1 1.2 2.2.2 9.5.3 9.5.3s5.9 0 9.8-.3c.5-.1 1.7-.1 2.8-1.2.8-.9 1.1-2.8 1.1-2.8s.3-2.3.3-4.6V8.9c0-2.3-.3-4.6-.3-4.6zM11.2 14V6l7.6 4-7.6 4z" fill-rule="evenodd"/>
</symbol></svg>